%TF.GenerationSoftware,KiCad,Pcbnew,(5.99.0-2363-g9a801d8b7)*%
%TF.CreationDate,2020-07-21T21:49:42+03:00*%
%TF.ProjectId,le-pre-et-le-boost,6c652d70-7265-42d6-9574-2d6c652d626f,rev?*%
%TF.SameCoordinates,Original*%
%TF.FileFunction,Paste,Top*%
%TF.FilePolarity,Positive*%
%FSLAX46Y46*%
G04 Gerber Fmt 4.6, Leading zero omitted, Abs format (unit mm)*
G04 Created by KiCad (PCBNEW (5.99.0-2363-g9a801d8b7)) date 2020-07-21 21:49:42*
%MOMM*%
%LPD*%
G01*
G04 APERTURE LIST*
%ADD10R,0.800000X0.900000*%
G04 APERTURE END LIST*
D10*
%TO.C,Q1*%
X139573000Y-102759000D03*
X140523000Y-104759000D03*
X138623000Y-104759000D03*
%TD*%
%TO.C,R4*%
G36*
G01*
X142679000Y-100635750D02*
X142679000Y-101548250D01*
G75*
G02*
X142435250Y-101792000I-243750J0D01*
G01*
X141947750Y-101792000D01*
G75*
G02*
X141704000Y-101548250I0J243750D01*
G01*
X141704000Y-100635750D01*
G75*
G02*
X141947750Y-100392000I243750J0D01*
G01*
X142435250Y-100392000D01*
G75*
G02*
X142679000Y-100635750I0J-243750D01*
G01*
G37*
G36*
G01*
X144554000Y-100635750D02*
X144554000Y-101548250D01*
G75*
G02*
X144310250Y-101792000I-243750J0D01*
G01*
X143822750Y-101792000D01*
G75*
G02*
X143579000Y-101548250I0J243750D01*
G01*
X143579000Y-100635750D01*
G75*
G02*
X143822750Y-100392000I243750J0D01*
G01*
X144310250Y-100392000D01*
G75*
G02*
X144554000Y-100635750I0J-243750D01*
G01*
G37*
%TD*%
%TO.C,R3*%
G36*
G01*
X139885000Y-106350750D02*
X139885000Y-107263250D01*
G75*
G02*
X139641250Y-107507000I-243750J0D01*
G01*
X139153750Y-107507000D01*
G75*
G02*
X138910000Y-107263250I0J243750D01*
G01*
X138910000Y-106350750D01*
G75*
G02*
X139153750Y-106107000I243750J0D01*
G01*
X139641250Y-106107000D01*
G75*
G02*
X139885000Y-106350750I0J-243750D01*
G01*
G37*
G36*
G01*
X141760000Y-106350750D02*
X141760000Y-107263250D01*
G75*
G02*
X141516250Y-107507000I-243750J0D01*
G01*
X141028750Y-107507000D01*
G75*
G02*
X140785000Y-107263250I0J243750D01*
G01*
X140785000Y-106350750D01*
G75*
G02*
X141028750Y-106107000I243750J0D01*
G01*
X141516250Y-106107000D01*
G75*
G02*
X141760000Y-106350750I0J-243750D01*
G01*
G37*
%TD*%
%TO.C,R2*%
G36*
G01*
X136329000Y-106350750D02*
X136329000Y-107263250D01*
G75*
G02*
X136085250Y-107507000I-243750J0D01*
G01*
X135597750Y-107507000D01*
G75*
G02*
X135354000Y-107263250I0J243750D01*
G01*
X135354000Y-106350750D01*
G75*
G02*
X135597750Y-106107000I243750J0D01*
G01*
X136085250Y-106107000D01*
G75*
G02*
X136329000Y-106350750I0J-243750D01*
G01*
G37*
G36*
G01*
X138204000Y-106350750D02*
X138204000Y-107263250D01*
G75*
G02*
X137960250Y-107507000I-243750J0D01*
G01*
X137472750Y-107507000D01*
G75*
G02*
X137229000Y-107263250I0J243750D01*
G01*
X137229000Y-106350750D01*
G75*
G02*
X137472750Y-106107000I243750J0D01*
G01*
X137960250Y-106107000D01*
G75*
G02*
X138204000Y-106350750I0J-243750D01*
G01*
G37*
%TD*%
%TO.C,R1*%
G36*
G01*
X140023000Y-101548250D02*
X140023000Y-100635750D01*
G75*
G02*
X140266750Y-100392000I243750J0D01*
G01*
X140754250Y-100392000D01*
G75*
G02*
X140998000Y-100635750I0J-243750D01*
G01*
X140998000Y-101548250D01*
G75*
G02*
X140754250Y-101792000I-243750J0D01*
G01*
X140266750Y-101792000D01*
G75*
G02*
X140023000Y-101548250I0J243750D01*
G01*
G37*
G36*
G01*
X138148000Y-101548250D02*
X138148000Y-100635750D01*
G75*
G02*
X138391750Y-100392000I243750J0D01*
G01*
X138879250Y-100392000D01*
G75*
G02*
X139123000Y-100635750I0J-243750D01*
G01*
X139123000Y-101548250D01*
G75*
G02*
X138879250Y-101792000I-243750J0D01*
G01*
X138391750Y-101792000D01*
G75*
G02*
X138148000Y-101548250I0J243750D01*
G01*
G37*
%TD*%
%TO.C,C2*%
G36*
G01*
X144855250Y-103436000D02*
X143942750Y-103436000D01*
G75*
G02*
X143699000Y-103192250I0J243750D01*
G01*
X143699000Y-102704750D01*
G75*
G02*
X143942750Y-102461000I243750J0D01*
G01*
X144855250Y-102461000D01*
G75*
G02*
X145099000Y-102704750I0J-243750D01*
G01*
X145099000Y-103192250D01*
G75*
G02*
X144855250Y-103436000I-243750J0D01*
G01*
G37*
G36*
G01*
X144855250Y-105311000D02*
X143942750Y-105311000D01*
G75*
G02*
X143699000Y-105067250I0J243750D01*
G01*
X143699000Y-104579750D01*
G75*
G02*
X143942750Y-104336000I243750J0D01*
G01*
X144855250Y-104336000D01*
G75*
G02*
X145099000Y-104579750I0J-243750D01*
G01*
X145099000Y-105067250D01*
G75*
G02*
X144855250Y-105311000I-243750J0D01*
G01*
G37*
%TD*%
%TO.C,C1*%
G36*
G01*
X142823250Y-103436000D02*
X141910750Y-103436000D01*
G75*
G02*
X141667000Y-103192250I0J243750D01*
G01*
X141667000Y-102704750D01*
G75*
G02*
X141910750Y-102461000I243750J0D01*
G01*
X142823250Y-102461000D01*
G75*
G02*
X143067000Y-102704750I0J-243750D01*
G01*
X143067000Y-103192250D01*
G75*
G02*
X142823250Y-103436000I-243750J0D01*
G01*
G37*
G36*
G01*
X142823250Y-105311000D02*
X141910750Y-105311000D01*
G75*
G02*
X141667000Y-105067250I0J243750D01*
G01*
X141667000Y-104579750D01*
G75*
G02*
X141910750Y-104336000I243750J0D01*
G01*
X142823250Y-104336000D01*
G75*
G02*
X143067000Y-104579750I0J-243750D01*
G01*
X143067000Y-105067250D01*
G75*
G02*
X142823250Y-105311000I-243750J0D01*
G01*
G37*
%TD*%
M02*
