%TF.GenerationSoftware,KiCad,Pcbnew,6.0.0+dfsg1-2*%
%TF.CreationDate,2022-01-11T21:03:06+02:00*%
%TF.ProjectId,le-pre-et-le-boost,6c652d70-7265-42d6-9574-2d6c652d626f,rev?*%
%TF.SameCoordinates,Original*%
%TF.FileFunction,Copper,L2,Bot*%
%TF.FilePolarity,Positive*%
%FSLAX46Y46*%
G04 Gerber Fmt 4.6, Leading zero omitted, Abs format (unit mm)*
G04 Created by KiCad (PCBNEW 6.0.0+dfsg1-2) date 2022-01-11 21:03:06*
%MOMM*%
%LPD*%
G01*
G04 APERTURE LIST*
G04 Aperture macros list*
%AMRoundRect*
0 Rectangle with rounded corners*
0 $1 Rounding radius*
0 $2 $3 $4 $5 $6 $7 $8 $9 X,Y pos of 4 corners*
0 Add a 4 corners polygon primitive as box body*
4,1,4,$2,$3,$4,$5,$6,$7,$8,$9,$2,$3,0*
0 Add four circle primitives for the rounded corners*
1,1,$1+$1,$2,$3*
1,1,$1+$1,$4,$5*
1,1,$1+$1,$6,$7*
1,1,$1+$1,$8,$9*
0 Add four rect primitives between the rounded corners*
20,1,$1+$1,$2,$3,$4,$5,0*
20,1,$1+$1,$4,$5,$6,$7,0*
20,1,$1+$1,$6,$7,$8,$9,0*
20,1,$1+$1,$8,$9,$2,$3,0*%
G04 Aperture macros list end*
%TA.AperFunction,ComponentPad*%
%ADD10R,1.600000X1.600000*%
%TD*%
%TA.AperFunction,ComponentPad*%
%ADD11C,1.600000*%
%TD*%
%TA.AperFunction,ComponentPad*%
%ADD12R,1.930400X1.930400*%
%TD*%
%TA.AperFunction,ComponentPad*%
%ADD13O,1.930400X1.930400*%
%TD*%
%TA.AperFunction,SMDPad,CuDef*%
%ADD14RoundRect,0.243750X0.243750X0.456250X-0.243750X0.456250X-0.243750X-0.456250X0.243750X-0.456250X0*%
%TD*%
%TA.AperFunction,SMDPad,CuDef*%
%ADD15R,0.800000X0.900000*%
%TD*%
%TA.AperFunction,SMDPad,CuDef*%
%ADD16RoundRect,0.243750X-0.243750X-0.456250X0.243750X-0.456250X0.243750X0.456250X-0.243750X0.456250X0*%
%TD*%
%TA.AperFunction,ViaPad*%
%ADD17C,0.800000*%
%TD*%
%TA.AperFunction,Conductor*%
%ADD18C,0.381000*%
%TD*%
%TA.AperFunction,Conductor*%
%ADD19C,0.254000*%
%TD*%
G04 APERTURE END LIST*
D10*
%TO.P,C1,1*%
%TO.N,Net-(C1-Pad1)*%
X142494000Y-101854000D03*
D11*
%TO.P,C1,2*%
%TO.N,PRE_OUT*%
X139994000Y-101854000D03*
%TD*%
D12*
%TO.P,J1,1*%
%TO.N,+9V*%
X144272000Y-108458000D03*
D13*
%TO.P,J1,2*%
%TO.N,GND*%
X146812000Y-108458000D03*
%TD*%
D12*
%TO.P,J2,1,Pin_1*%
%TO.N,PRE_IN*%
X133350000Y-108585000D03*
D13*
%TO.P,J2,2,Pin_2*%
%TO.N,PRE_OUT*%
X135890000Y-108585000D03*
%TO.P,J2,3,Pin_3*%
%TO.N,BOOST_IN*%
X138430000Y-108585000D03*
%TO.P,J2,4,Pin_4*%
%TO.N,BOOST_OUT*%
X140970000Y-108585000D03*
%TD*%
D10*
%TO.P,C2,1*%
%TO.N,+9V*%
X147574000Y-104394000D03*
D11*
%TO.P,C2,2*%
%TO.N,GND*%
X145074000Y-104394000D03*
%TD*%
D14*
%TO.P,C4,1*%
%TO.N,Net-(C4-Pad1)*%
X141907500Y-106172000D03*
%TO.P,C4,2*%
%TO.N,BOOST_OUT*%
X140032500Y-106172000D03*
%TD*%
%TO.P,R5,1*%
%TO.N,+9V*%
X141907500Y-104140000D03*
%TO.P,R5,2*%
%TO.N,Net-(C3-Pad2)*%
X140032500Y-104140000D03*
%TD*%
%TO.P,R8,1*%
%TO.N,Net-(Q2-Pad2)*%
X134744700Y-103632000D03*
%TO.P,R8,2*%
%TO.N,GND*%
X132869700Y-103632000D03*
%TD*%
D15*
%TO.P,Q2,1,B*%
%TO.N,Net-(C3-Pad2)*%
X138364000Y-103870000D03*
%TO.P,Q2,2,E*%
%TO.N,Net-(Q2-Pad2)*%
X136464000Y-103870000D03*
%TO.P,Q2,3,C*%
%TO.N,Net-(C4-Pad1)*%
X137414000Y-101870000D03*
%TD*%
D14*
%TO.P,R7,1*%
%TO.N,+9V*%
X145288000Y-106299000D03*
%TO.P,R7,2*%
%TO.N,Net-(C4-Pad1)*%
X143413000Y-106299000D03*
%TD*%
D16*
%TO.P,C3,1*%
%TO.N,BOOST_IN*%
X136603500Y-106172000D03*
%TO.P,C3,2*%
%TO.N,Net-(C3-Pad2)*%
X138478500Y-106172000D03*
%TD*%
D14*
%TO.P,R6,1*%
%TO.N,Net-(C3-Pad2)*%
X134795500Y-105664000D03*
%TO.P,R6,2*%
%TO.N,GND*%
X132920500Y-105664000D03*
%TD*%
D17*
%TO.N,GND*%
X133985000Y-100965000D03*
X144373600Y-101955600D03*
X143256000Y-104241600D03*
%TD*%
D18*
%TO.N,+9V*%
X146224501Y-103044501D02*
X147574000Y-104394000D01*
X147574000Y-104394000D02*
X147193000Y-104394000D01*
X144272000Y-108458000D02*
X144272000Y-107315000D01*
X143002999Y-103044501D02*
X146224501Y-103044501D01*
X147193000Y-104394000D02*
X145288000Y-106299000D01*
X144272000Y-107315000D02*
X145288000Y-106299000D01*
X141907500Y-104140000D02*
X143002999Y-103044501D01*
%TO.N,BOOST_IN*%
X138430000Y-108483400D02*
X138430000Y-107998500D01*
X138430000Y-107998500D02*
X136603500Y-106172000D01*
%TO.N,Net-(C3-Pad2)*%
X135378010Y-105081490D02*
X137387990Y-105081490D01*
X134795500Y-105664000D02*
X135378010Y-105081490D01*
X138478500Y-103984500D02*
X138364000Y-103870000D01*
X138364000Y-103870000D02*
X139762500Y-103870000D01*
X137387990Y-105081490D02*
X138478500Y-106172000D01*
X139762500Y-103870000D02*
X140032500Y-104140000D01*
X138478500Y-106172000D02*
X138478500Y-103984500D01*
%TO.N,Net-(C4-Pad1)*%
X142034500Y-106299000D02*
X141907500Y-106172000D01*
X139422559Y-103044501D02*
X140538069Y-103044501D01*
X137414000Y-101870000D02*
X138248058Y-101870000D01*
X141029490Y-103535922D02*
X141029490Y-105293990D01*
X143413000Y-106299000D02*
X142034500Y-106299000D01*
X140538069Y-103044501D02*
X141029490Y-103535922D01*
X138248058Y-101870000D02*
X139422559Y-103044501D01*
X141029490Y-105293990D02*
X141907500Y-106172000D01*
%TO.N,Net-(Q2-Pad2)*%
X136226000Y-103632000D02*
X136464000Y-103870000D01*
X134795500Y-103632000D02*
X136226000Y-103632000D01*
%TO.N,BOOST_OUT*%
X140032500Y-107545900D02*
X140970000Y-108483400D01*
X140032500Y-106172000D02*
X140032500Y-107545900D01*
%TD*%
%TO.N,GND*%
D19*
X148464000Y-109475000D02*
X148050563Y-109475000D01*
X148181429Y-109292881D01*
X148192064Y-109275182D01*
X148299398Y-109058007D01*
X148306999Y-109038809D01*
X148377422Y-108807020D01*
X148381786Y-108786837D01*
X148389473Y-108728446D01*
X148378533Y-108658297D01*
X148331405Y-108605199D01*
X148264551Y-108586000D01*
X146684000Y-108586000D01*
X146684000Y-108204000D01*
X146940000Y-108204000D01*
X146960002Y-108272121D01*
X147013658Y-108318614D01*
X147066000Y-108330000D01*
X148267243Y-108330000D01*
X148335364Y-108309998D01*
X148381857Y-108256342D01*
X148391961Y-108186068D01*
X148389447Y-108173305D01*
X148333587Y-107950916D01*
X148326933Y-107931369D01*
X148230336Y-107709210D01*
X148220578Y-107691012D01*
X148088993Y-107487614D01*
X148076395Y-107471255D01*
X147913357Y-107292078D01*
X147898255Y-107277995D01*
X147708143Y-107127853D01*
X147690945Y-107116426D01*
X147478862Y-106999350D01*
X147460028Y-106990886D01*
X147231672Y-106910021D01*
X147211708Y-106904746D01*
X147088096Y-106882728D01*
X147017523Y-106890475D01*
X146962341Y-106935146D01*
X146940000Y-107006776D01*
X146940000Y-108204000D01*
X146684000Y-108204000D01*
X146684000Y-107006440D01*
X146663998Y-106938319D01*
X146610342Y-106891826D01*
X146538941Y-106881890D01*
X146450360Y-106895445D01*
X146430274Y-106900230D01*
X146200010Y-106975492D01*
X146180975Y-106983494D01*
X146096396Y-107027523D01*
X146141363Y-106907570D01*
X146148644Y-106876950D01*
X146155263Y-106816023D01*
X146156000Y-106802415D01*
X146155999Y-106238516D01*
X146820015Y-105574500D01*
X148399066Y-105574499D01*
X148423645Y-105572078D01*
X148464000Y-105564052D01*
X148464000Y-109475000D02*
X148464000Y-105564052D01*
%TA.AperFunction,Conductor*%
G36*
X148464000Y-109475000D02*
G01*
X148050563Y-109475000D01*
X148181429Y-109292881D01*
X148192064Y-109275182D01*
X148299398Y-109058007D01*
X148306999Y-109038809D01*
X148377422Y-108807020D01*
X148381786Y-108786837D01*
X148389473Y-108728446D01*
X148378533Y-108658297D01*
X148331405Y-108605199D01*
X148264551Y-108586000D01*
X146684000Y-108586000D01*
X146684000Y-108204000D01*
X146940000Y-108204000D01*
X146960002Y-108272121D01*
X147013658Y-108318614D01*
X147066000Y-108330000D01*
X148267243Y-108330000D01*
X148335364Y-108309998D01*
X148381857Y-108256342D01*
X148391961Y-108186068D01*
X148389447Y-108173305D01*
X148333587Y-107950916D01*
X148326933Y-107931369D01*
X148230336Y-107709210D01*
X148220578Y-107691012D01*
X148088993Y-107487614D01*
X148076395Y-107471255D01*
X147913357Y-107292078D01*
X147898255Y-107277995D01*
X147708143Y-107127853D01*
X147690945Y-107116426D01*
X147478862Y-106999350D01*
X147460028Y-106990886D01*
X147231672Y-106910021D01*
X147211708Y-106904746D01*
X147088096Y-106882728D01*
X147017523Y-106890475D01*
X146962341Y-106935146D01*
X146940000Y-107006776D01*
X146940000Y-108204000D01*
X146684000Y-108204000D01*
X146684000Y-107006440D01*
X146663998Y-106938319D01*
X146610342Y-106891826D01*
X146538941Y-106881890D01*
X146450360Y-106895445D01*
X146430274Y-106900230D01*
X146200010Y-106975492D01*
X146180975Y-106983494D01*
X146096396Y-107027523D01*
X146141363Y-106907570D01*
X146148644Y-106876950D01*
X146155263Y-106816023D01*
X146156000Y-106802415D01*
X146155999Y-106238516D01*
X146820015Y-105574500D01*
X148399066Y-105574499D01*
X148423645Y-105572078D01*
X148464000Y-105564052D01*
X148464000Y-109475000D01*
G37*
%TD.AperFunction*%
X148464000Y-103223947D02*
X148423648Y-103215921D01*
X148399067Y-103213500D01*
X147201016Y-103213501D01*
X146652223Y-102664708D01*
X146631515Y-102638440D01*
X146604203Y-102612793D01*
X146556558Y-102579864D01*
X146509942Y-102545432D01*
X146496256Y-102538186D01*
X146494121Y-102536710D01*
X146485413Y-102532444D01*
X146476834Y-102527902D01*
X146474382Y-102527041D01*
X146460478Y-102520230D01*
X146405275Y-102502772D01*
X146350576Y-102483563D01*
X146335363Y-102480661D01*
X146332896Y-102479881D01*
X146304788Y-102474404D01*
X146298245Y-102473889D01*
X146288358Y-102473501D01*
X146236342Y-102473501D01*
X146180063Y-102471290D01*
X146160036Y-102473501D01*
X143674500Y-102473501D01*
X143674499Y-101028934D01*
X143672078Y-101004355D01*
X143657313Y-100930120D01*
X143638499Y-100884697D01*
X143582249Y-100800514D01*
X143547486Y-100765751D01*
X143463303Y-100709501D01*
X143417882Y-100690687D01*
X143343648Y-100675921D01*
X143319067Y-100673500D01*
X141668934Y-100673501D01*
X141644355Y-100675922D01*
X141570120Y-100690687D01*
X141524697Y-100709501D01*
X141440514Y-100765751D01*
X141405751Y-100800514D01*
X141349501Y-100884697D01*
X141330687Y-100930118D01*
X141315921Y-101004352D01*
X141313500Y-101028933D01*
X141313501Y-102679066D01*
X141315922Y-102703645D01*
X141330687Y-102777880D01*
X141349501Y-102823303D01*
X141405751Y-102907486D01*
X141440514Y-102942249D01*
X141524697Y-102998499D01*
X141570118Y-103017313D01*
X141644352Y-103032079D01*
X141668933Y-103034500D01*
X142205486Y-103034499D01*
X142180485Y-103059500D01*
X141616586Y-103059501D01*
X141602980Y-103060238D01*
X141542052Y-103066856D01*
X141511430Y-103074137D01*
X141414002Y-103110660D01*
X141403389Y-103099179D01*
X141387663Y-103086580D01*
X140965791Y-102664708D01*
X140945083Y-102638440D01*
X140917771Y-102612793D01*
X140905727Y-102604469D01*
X140955229Y-102547120D01*
X140969404Y-102527026D01*
X141071551Y-102347216D01*
X141081554Y-102324750D01*
X141146829Y-102128524D01*
X141152276Y-102104545D01*
X141178195Y-101899378D01*
X141179177Y-101885345D01*
X141179590Y-101855759D01*
X141179001Y-101841705D01*
X141158821Y-101635894D01*
X141154044Y-101611771D01*
X141094273Y-101413799D01*
X141084902Y-101391064D01*
X140987816Y-101208472D01*
X140974208Y-101187989D01*
X140843506Y-101027732D01*
X140826178Y-101010283D01*
X140666837Y-100878465D01*
X140646450Y-100864714D01*
X140464540Y-100766356D01*
X140441871Y-100756827D01*
X140244322Y-100695675D01*
X140220233Y-100690730D01*
X140014567Y-100669114D01*
X139989978Y-100668943D01*
X139784031Y-100687685D01*
X139759875Y-100692293D01*
X139561491Y-100750681D01*
X139538691Y-100759892D01*
X139355426Y-100855701D01*
X139334849Y-100869166D01*
X139173683Y-100998746D01*
X139156113Y-101015952D01*
X139023186Y-101174369D01*
X139009294Y-101194659D01*
X138909668Y-101375877D01*
X138899980Y-101398480D01*
X138837451Y-101595598D01*
X138832338Y-101619651D01*
X138829603Y-101644030D01*
X138675780Y-101490207D01*
X138655072Y-101463939D01*
X138627760Y-101438292D01*
X138580115Y-101405363D01*
X138533499Y-101370931D01*
X138519813Y-101363685D01*
X138517678Y-101362209D01*
X138508970Y-101357943D01*
X138500391Y-101353401D01*
X138497939Y-101352540D01*
X138484035Y-101345729D01*
X138428832Y-101328271D01*
X138374133Y-101309062D01*
X138358920Y-101306160D01*
X138356453Y-101305380D01*
X138328345Y-101299903D01*
X138321802Y-101299388D01*
X138311915Y-101299000D01*
X138259899Y-101299000D01*
X138203620Y-101296789D01*
X138183593Y-101299000D01*
X138177886Y-101299000D01*
X138177313Y-101296120D01*
X138158499Y-101250697D01*
X138102249Y-101166514D01*
X138067486Y-101131751D01*
X137983303Y-101075501D01*
X137937882Y-101056687D01*
X137863648Y-101041921D01*
X137839067Y-101039500D01*
X136988934Y-101039501D01*
X136964355Y-101041922D01*
X136890120Y-101056687D01*
X136844697Y-101075501D01*
X136760514Y-101131751D01*
X136725751Y-101166514D01*
X136669501Y-101250697D01*
X136650687Y-101296118D01*
X136635921Y-101370352D01*
X136633500Y-101394933D01*
X136633501Y-102345066D01*
X136635922Y-102369645D01*
X136650687Y-102443880D01*
X136669501Y-102489303D01*
X136725751Y-102573486D01*
X136760514Y-102608249D01*
X136844697Y-102664499D01*
X136890118Y-102683313D01*
X136964352Y-102698079D01*
X136988933Y-102700500D01*
X137839066Y-102700499D01*
X137863645Y-102698078D01*
X137937880Y-102683313D01*
X137983303Y-102664499D01*
X138067486Y-102608249D01*
X138102249Y-102573486D01*
X138118984Y-102548441D01*
X138610043Y-103039500D01*
X137938934Y-103039501D01*
X137914355Y-103041922D01*
X137840120Y-103056687D01*
X137794697Y-103075501D01*
X137710514Y-103131751D01*
X137675751Y-103166514D01*
X137619501Y-103250697D01*
X137600687Y-103296118D01*
X137585921Y-103370352D01*
X137583500Y-103394933D01*
X137583501Y-104345066D01*
X137585922Y-104369645D01*
X137600687Y-104443880D01*
X137619501Y-104489303D01*
X137675751Y-104573486D01*
X137710514Y-104608249D01*
X137794697Y-104664499D01*
X137840118Y-104683313D01*
X137907500Y-104696716D01*
X137907500Y-104793485D01*
X137815712Y-104701697D01*
X137795004Y-104675429D01*
X137767692Y-104649782D01*
X137720047Y-104616853D01*
X137673431Y-104582421D01*
X137659745Y-104575175D01*
X137657610Y-104573699D01*
X137648902Y-104569433D01*
X137640323Y-104564891D01*
X137637871Y-104564030D01*
X137623967Y-104557219D01*
X137568764Y-104539761D01*
X137514065Y-104520552D01*
X137498852Y-104517650D01*
X137496385Y-104516870D01*
X137468277Y-104511393D01*
X137461734Y-104510878D01*
X137451847Y-104510490D01*
X137399831Y-104510490D01*
X137343552Y-104508279D01*
X137323525Y-104510490D01*
X137194342Y-104510490D01*
X137208499Y-104489303D01*
X137227313Y-104443882D01*
X137242079Y-104369648D01*
X137244500Y-104345067D01*
X137244499Y-103394934D01*
X137242078Y-103370355D01*
X137227313Y-103296120D01*
X137208499Y-103250697D01*
X137152249Y-103166514D01*
X137117486Y-103131751D01*
X137033303Y-103075501D01*
X136987882Y-103056687D01*
X136913648Y-103041921D01*
X136889067Y-103039500D01*
X136038934Y-103039501D01*
X136014355Y-103041922D01*
X135940120Y-103056687D01*
X135929707Y-103061000D01*
X135606099Y-103061000D01*
X135605344Y-103054052D01*
X135598063Y-103023430D01*
X135547965Y-102889790D01*
X135530809Y-102858453D01*
X135445215Y-102744246D01*
X135419954Y-102718985D01*
X135305747Y-102633391D01*
X135274410Y-102616235D01*
X135140770Y-102566137D01*
X135110150Y-102558856D01*
X135049223Y-102552237D01*
X135035615Y-102551500D01*
X134453786Y-102551501D01*
X134440180Y-102552238D01*
X134379252Y-102558856D01*
X134348630Y-102566137D01*
X134214990Y-102616235D01*
X134183653Y-102633391D01*
X134069446Y-102718985D01*
X134044185Y-102744246D01*
X133958591Y-102858453D01*
X133942647Y-102887577D01*
X133918370Y-102814811D01*
X133905990Y-102788384D01*
X133813746Y-102639320D01*
X133795620Y-102616450D01*
X133671559Y-102492605D01*
X133648657Y-102474518D01*
X133499432Y-102382535D01*
X133472983Y-102370202D01*
X133306600Y-102315015D01*
X133279776Y-102309264D01*
X133176244Y-102298656D01*
X133163401Y-102298000D01*
X133123700Y-102298000D01*
X133055579Y-102318002D01*
X133009086Y-102371658D01*
X132997700Y-102424000D01*
X132997700Y-104416000D01*
X133017702Y-104484121D01*
X133048500Y-104510808D01*
X133048500Y-106871999D01*
X133068502Y-106940120D01*
X133122158Y-106986613D01*
X133174500Y-106997999D01*
X133214200Y-106997999D01*
X133227203Y-106997326D01*
X133332030Y-106986450D01*
X133358903Y-106980647D01*
X133525189Y-106925170D01*
X133551616Y-106912790D01*
X133700680Y-106820546D01*
X133723550Y-106802420D01*
X133847395Y-106678359D01*
X133865482Y-106655457D01*
X133957465Y-106506232D01*
X133969798Y-106479783D01*
X133993459Y-106408446D01*
X134009391Y-106437547D01*
X134094985Y-106551754D01*
X134120246Y-106577015D01*
X134234453Y-106662609D01*
X134265790Y-106679765D01*
X134399430Y-106729863D01*
X134430050Y-106737144D01*
X134490977Y-106743763D01*
X134504585Y-106744500D01*
X135086414Y-106744499D01*
X135100020Y-106743762D01*
X135160948Y-106737144D01*
X135191570Y-106729863D01*
X135325210Y-106679765D01*
X135356547Y-106662609D01*
X135470754Y-106577015D01*
X135496015Y-106551754D01*
X135581609Y-106437547D01*
X135598765Y-106406210D01*
X135648863Y-106272570D01*
X135656144Y-106241950D01*
X135662763Y-106181023D01*
X135663500Y-106167415D01*
X135663499Y-105652490D01*
X135736507Y-105652490D01*
X135736237Y-105654977D01*
X135735500Y-105668585D01*
X135735501Y-106675414D01*
X135736238Y-106689020D01*
X135742856Y-106749948D01*
X135750137Y-106780570D01*
X135800235Y-106914210D01*
X135817391Y-106945547D01*
X135902985Y-107059754D01*
X135928246Y-107085015D01*
X136042453Y-107170609D01*
X136073790Y-107187765D01*
X136207430Y-107237863D01*
X136238050Y-107245144D01*
X136298977Y-107251763D01*
X136312585Y-107252500D01*
X136876484Y-107252499D01*
X137372745Y-107748760D01*
X137266461Y-107900550D01*
X137255479Y-107919571D01*
X137165284Y-108112995D01*
X137160000Y-108127513D01*
X137154716Y-108112995D01*
X137064521Y-107919571D01*
X137053539Y-107900550D01*
X136931126Y-107725726D01*
X136917008Y-107708902D01*
X136766098Y-107557992D01*
X136749274Y-107543874D01*
X136574451Y-107421461D01*
X136555430Y-107410479D01*
X136362005Y-107320284D01*
X136341366Y-107312772D01*
X136135219Y-107257535D01*
X136113590Y-107253721D01*
X135900982Y-107235120D01*
X135879018Y-107235120D01*
X135666410Y-107253721D01*
X135644781Y-107257535D01*
X135438634Y-107312772D01*
X135417995Y-107320284D01*
X135224571Y-107410479D01*
X135205550Y-107421461D01*
X135030726Y-107543874D01*
X135013902Y-107557992D01*
X134862992Y-107708902D01*
X134848874Y-107725726D01*
X134726461Y-107900550D01*
X134715479Y-107919571D01*
X134695699Y-107961989D01*
X134695699Y-107594734D01*
X134693278Y-107570155D01*
X134678513Y-107495920D01*
X134659699Y-107450497D01*
X134603449Y-107366314D01*
X134568686Y-107331551D01*
X134484503Y-107275301D01*
X134439082Y-107256487D01*
X134364848Y-107241721D01*
X134340267Y-107239300D01*
X132460000Y-107239301D01*
X132460000Y-106973157D01*
X132483600Y-106980985D01*
X132510424Y-106986736D01*
X132613956Y-106997344D01*
X132626799Y-106998000D01*
X132666500Y-106998000D01*
X132734621Y-106977998D01*
X132781114Y-106924342D01*
X132792500Y-106872000D01*
X132792500Y-104880000D01*
X132772498Y-104811879D01*
X132741700Y-104785192D01*
X132741700Y-102424001D01*
X132721698Y-102355880D01*
X132668042Y-102309387D01*
X132615700Y-102298001D01*
X132576000Y-102298001D01*
X132562997Y-102298674D01*
X132460000Y-102309360D01*
X132460000Y-99694000D01*
X148464000Y-99694000D01*
X148464000Y-103223947D02*
X148464000Y-99694000D01*
%TA.AperFunction,Conductor*%
G36*
X148464000Y-103223947D02*
G01*
X148423648Y-103215921D01*
X148399067Y-103213500D01*
X147201016Y-103213501D01*
X146652223Y-102664708D01*
X146631515Y-102638440D01*
X146604203Y-102612793D01*
X146556558Y-102579864D01*
X146509942Y-102545432D01*
X146496256Y-102538186D01*
X146494121Y-102536710D01*
X146485413Y-102532444D01*
X146476834Y-102527902D01*
X146474382Y-102527041D01*
X146460478Y-102520230D01*
X146405275Y-102502772D01*
X146350576Y-102483563D01*
X146335363Y-102480661D01*
X146332896Y-102479881D01*
X146304788Y-102474404D01*
X146298245Y-102473889D01*
X146288358Y-102473501D01*
X146236342Y-102473501D01*
X146180063Y-102471290D01*
X146160036Y-102473501D01*
X143674500Y-102473501D01*
X143674499Y-101028934D01*
X143672078Y-101004355D01*
X143657313Y-100930120D01*
X143638499Y-100884697D01*
X143582249Y-100800514D01*
X143547486Y-100765751D01*
X143463303Y-100709501D01*
X143417882Y-100690687D01*
X143343648Y-100675921D01*
X143319067Y-100673500D01*
X141668934Y-100673501D01*
X141644355Y-100675922D01*
X141570120Y-100690687D01*
X141524697Y-100709501D01*
X141440514Y-100765751D01*
X141405751Y-100800514D01*
X141349501Y-100884697D01*
X141330687Y-100930118D01*
X141315921Y-101004352D01*
X141313500Y-101028933D01*
X141313501Y-102679066D01*
X141315922Y-102703645D01*
X141330687Y-102777880D01*
X141349501Y-102823303D01*
X141405751Y-102907486D01*
X141440514Y-102942249D01*
X141524697Y-102998499D01*
X141570118Y-103017313D01*
X141644352Y-103032079D01*
X141668933Y-103034500D01*
X142205486Y-103034499D01*
X142180485Y-103059500D01*
X141616586Y-103059501D01*
X141602980Y-103060238D01*
X141542052Y-103066856D01*
X141511430Y-103074137D01*
X141414002Y-103110660D01*
X141403389Y-103099179D01*
X141387663Y-103086580D01*
X140965791Y-102664708D01*
X140945083Y-102638440D01*
X140917771Y-102612793D01*
X140905727Y-102604469D01*
X140955229Y-102547120D01*
X140969404Y-102527026D01*
X141071551Y-102347216D01*
X141081554Y-102324750D01*
X141146829Y-102128524D01*
X141152276Y-102104545D01*
X141178195Y-101899378D01*
X141179177Y-101885345D01*
X141179590Y-101855759D01*
X141179001Y-101841705D01*
X141158821Y-101635894D01*
X141154044Y-101611771D01*
X141094273Y-101413799D01*
X141084902Y-101391064D01*
X140987816Y-101208472D01*
X140974208Y-101187989D01*
X140843506Y-101027732D01*
X140826178Y-101010283D01*
X140666837Y-100878465D01*
X140646450Y-100864714D01*
X140464540Y-100766356D01*
X140441871Y-100756827D01*
X140244322Y-100695675D01*
X140220233Y-100690730D01*
X140014567Y-100669114D01*
X139989978Y-100668943D01*
X139784031Y-100687685D01*
X139759875Y-100692293D01*
X139561491Y-100750681D01*
X139538691Y-100759892D01*
X139355426Y-100855701D01*
X139334849Y-100869166D01*
X139173683Y-100998746D01*
X139156113Y-101015952D01*
X139023186Y-101174369D01*
X139009294Y-101194659D01*
X138909668Y-101375877D01*
X138899980Y-101398480D01*
X138837451Y-101595598D01*
X138832338Y-101619651D01*
X138829603Y-101644030D01*
X138675780Y-101490207D01*
X138655072Y-101463939D01*
X138627760Y-101438292D01*
X138580115Y-101405363D01*
X138533499Y-101370931D01*
X138519813Y-101363685D01*
X138517678Y-101362209D01*
X138508970Y-101357943D01*
X138500391Y-101353401D01*
X138497939Y-101352540D01*
X138484035Y-101345729D01*
X138428832Y-101328271D01*
X138374133Y-101309062D01*
X138358920Y-101306160D01*
X138356453Y-101305380D01*
X138328345Y-101299903D01*
X138321802Y-101299388D01*
X138311915Y-101299000D01*
X138259899Y-101299000D01*
X138203620Y-101296789D01*
X138183593Y-101299000D01*
X138177886Y-101299000D01*
X138177313Y-101296120D01*
X138158499Y-101250697D01*
X138102249Y-101166514D01*
X138067486Y-101131751D01*
X137983303Y-101075501D01*
X137937882Y-101056687D01*
X137863648Y-101041921D01*
X137839067Y-101039500D01*
X136988934Y-101039501D01*
X136964355Y-101041922D01*
X136890120Y-101056687D01*
X136844697Y-101075501D01*
X136760514Y-101131751D01*
X136725751Y-101166514D01*
X136669501Y-101250697D01*
X136650687Y-101296118D01*
X136635921Y-101370352D01*
X136633500Y-101394933D01*
X136633501Y-102345066D01*
X136635922Y-102369645D01*
X136650687Y-102443880D01*
X136669501Y-102489303D01*
X136725751Y-102573486D01*
X136760514Y-102608249D01*
X136844697Y-102664499D01*
X136890118Y-102683313D01*
X136964352Y-102698079D01*
X136988933Y-102700500D01*
X137839066Y-102700499D01*
X137863645Y-102698078D01*
X137937880Y-102683313D01*
X137983303Y-102664499D01*
X138067486Y-102608249D01*
X138102249Y-102573486D01*
X138118984Y-102548441D01*
X138610043Y-103039500D01*
X137938934Y-103039501D01*
X137914355Y-103041922D01*
X137840120Y-103056687D01*
X137794697Y-103075501D01*
X137710514Y-103131751D01*
X137675751Y-103166514D01*
X137619501Y-103250697D01*
X137600687Y-103296118D01*
X137585921Y-103370352D01*
X137583500Y-103394933D01*
X137583501Y-104345066D01*
X137585922Y-104369645D01*
X137600687Y-104443880D01*
X137619501Y-104489303D01*
X137675751Y-104573486D01*
X137710514Y-104608249D01*
X137794697Y-104664499D01*
X137840118Y-104683313D01*
X137907500Y-104696716D01*
X137907500Y-104793485D01*
X137815712Y-104701697D01*
X137795004Y-104675429D01*
X137767692Y-104649782D01*
X137720047Y-104616853D01*
X137673431Y-104582421D01*
X137659745Y-104575175D01*
X137657610Y-104573699D01*
X137648902Y-104569433D01*
X137640323Y-104564891D01*
X137637871Y-104564030D01*
X137623967Y-104557219D01*
X137568764Y-104539761D01*
X137514065Y-104520552D01*
X137498852Y-104517650D01*
X137496385Y-104516870D01*
X137468277Y-104511393D01*
X137461734Y-104510878D01*
X137451847Y-104510490D01*
X137399831Y-104510490D01*
X137343552Y-104508279D01*
X137323525Y-104510490D01*
X137194342Y-104510490D01*
X137208499Y-104489303D01*
X137227313Y-104443882D01*
X137242079Y-104369648D01*
X137244500Y-104345067D01*
X137244499Y-103394934D01*
X137242078Y-103370355D01*
X137227313Y-103296120D01*
X137208499Y-103250697D01*
X137152249Y-103166514D01*
X137117486Y-103131751D01*
X137033303Y-103075501D01*
X136987882Y-103056687D01*
X136913648Y-103041921D01*
X136889067Y-103039500D01*
X136038934Y-103039501D01*
X136014355Y-103041922D01*
X135940120Y-103056687D01*
X135929707Y-103061000D01*
X135606099Y-103061000D01*
X135605344Y-103054052D01*
X135598063Y-103023430D01*
X135547965Y-102889790D01*
X135530809Y-102858453D01*
X135445215Y-102744246D01*
X135419954Y-102718985D01*
X135305747Y-102633391D01*
X135274410Y-102616235D01*
X135140770Y-102566137D01*
X135110150Y-102558856D01*
X135049223Y-102552237D01*
X135035615Y-102551500D01*
X134453786Y-102551501D01*
X134440180Y-102552238D01*
X134379252Y-102558856D01*
X134348630Y-102566137D01*
X134214990Y-102616235D01*
X134183653Y-102633391D01*
X134069446Y-102718985D01*
X134044185Y-102744246D01*
X133958591Y-102858453D01*
X133942647Y-102887577D01*
X133918370Y-102814811D01*
X133905990Y-102788384D01*
X133813746Y-102639320D01*
X133795620Y-102616450D01*
X133671559Y-102492605D01*
X133648657Y-102474518D01*
X133499432Y-102382535D01*
X133472983Y-102370202D01*
X133306600Y-102315015D01*
X133279776Y-102309264D01*
X133176244Y-102298656D01*
X133163401Y-102298000D01*
X133123700Y-102298000D01*
X133055579Y-102318002D01*
X133009086Y-102371658D01*
X132997700Y-102424000D01*
X132997700Y-104416000D01*
X133017702Y-104484121D01*
X133048500Y-104510808D01*
X133048500Y-106871999D01*
X133068502Y-106940120D01*
X133122158Y-106986613D01*
X133174500Y-106997999D01*
X133214200Y-106997999D01*
X133227203Y-106997326D01*
X133332030Y-106986450D01*
X133358903Y-106980647D01*
X133525189Y-106925170D01*
X133551616Y-106912790D01*
X133700680Y-106820546D01*
X133723550Y-106802420D01*
X133847395Y-106678359D01*
X133865482Y-106655457D01*
X133957465Y-106506232D01*
X133969798Y-106479783D01*
X133993459Y-106408446D01*
X134009391Y-106437547D01*
X134094985Y-106551754D01*
X134120246Y-106577015D01*
X134234453Y-106662609D01*
X134265790Y-106679765D01*
X134399430Y-106729863D01*
X134430050Y-106737144D01*
X134490977Y-106743763D01*
X134504585Y-106744500D01*
X135086414Y-106744499D01*
X135100020Y-106743762D01*
X135160948Y-106737144D01*
X135191570Y-106729863D01*
X135325210Y-106679765D01*
X135356547Y-106662609D01*
X135470754Y-106577015D01*
X135496015Y-106551754D01*
X135581609Y-106437547D01*
X135598765Y-106406210D01*
X135648863Y-106272570D01*
X135656144Y-106241950D01*
X135662763Y-106181023D01*
X135663500Y-106167415D01*
X135663499Y-105652490D01*
X135736507Y-105652490D01*
X135736237Y-105654977D01*
X135735500Y-105668585D01*
X135735501Y-106675414D01*
X135736238Y-106689020D01*
X135742856Y-106749948D01*
X135750137Y-106780570D01*
X135800235Y-106914210D01*
X135817391Y-106945547D01*
X135902985Y-107059754D01*
X135928246Y-107085015D01*
X136042453Y-107170609D01*
X136073790Y-107187765D01*
X136207430Y-107237863D01*
X136238050Y-107245144D01*
X136298977Y-107251763D01*
X136312585Y-107252500D01*
X136876484Y-107252499D01*
X137372745Y-107748760D01*
X137266461Y-107900550D01*
X137255479Y-107919571D01*
X137165284Y-108112995D01*
X137160000Y-108127513D01*
X137154716Y-108112995D01*
X137064521Y-107919571D01*
X137053539Y-107900550D01*
X136931126Y-107725726D01*
X136917008Y-107708902D01*
X136766098Y-107557992D01*
X136749274Y-107543874D01*
X136574451Y-107421461D01*
X136555430Y-107410479D01*
X136362005Y-107320284D01*
X136341366Y-107312772D01*
X136135219Y-107257535D01*
X136113590Y-107253721D01*
X135900982Y-107235120D01*
X135879018Y-107235120D01*
X135666410Y-107253721D01*
X135644781Y-107257535D01*
X135438634Y-107312772D01*
X135417995Y-107320284D01*
X135224571Y-107410479D01*
X135205550Y-107421461D01*
X135030726Y-107543874D01*
X135013902Y-107557992D01*
X134862992Y-107708902D01*
X134848874Y-107725726D01*
X134726461Y-107900550D01*
X134715479Y-107919571D01*
X134695699Y-107961989D01*
X134695699Y-107594734D01*
X134693278Y-107570155D01*
X134678513Y-107495920D01*
X134659699Y-107450497D01*
X134603449Y-107366314D01*
X134568686Y-107331551D01*
X134484503Y-107275301D01*
X134439082Y-107256487D01*
X134364848Y-107241721D01*
X134340267Y-107239300D01*
X132460000Y-107239301D01*
X132460000Y-106973157D01*
X132483600Y-106980985D01*
X132510424Y-106986736D01*
X132613956Y-106997344D01*
X132626799Y-106998000D01*
X132666500Y-106998000D01*
X132734621Y-106977998D01*
X132781114Y-106924342D01*
X132792500Y-106872000D01*
X132792500Y-104880000D01*
X132772498Y-104811879D01*
X132741700Y-104785192D01*
X132741700Y-102424001D01*
X132721698Y-102355880D01*
X132668042Y-102309387D01*
X132615700Y-102298001D01*
X132576000Y-102298001D01*
X132562997Y-102298674D01*
X132460000Y-102309360D01*
X132460000Y-99694000D01*
X148464000Y-99694000D01*
X148464000Y-103223947D01*
G37*
%TD.AperFunction*%
X143833699Y-103665231D02*
X143822717Y-103684252D01*
X143725992Y-103891679D01*
X143718480Y-103912318D01*
X143659244Y-104133390D01*
X143655430Y-104155020D01*
X143635483Y-104383019D01*
X143635483Y-104404981D01*
X143655430Y-104632980D01*
X143659244Y-104654610D01*
X143718480Y-104875682D01*
X143725992Y-104896321D01*
X143822717Y-105103748D01*
X143833699Y-105122769D01*
X143948140Y-105286208D01*
X143942710Y-105283235D01*
X143809070Y-105233137D01*
X143778450Y-105225856D01*
X143717523Y-105219237D01*
X143703915Y-105218500D01*
X143122086Y-105218501D01*
X143108480Y-105219238D01*
X143047552Y-105225856D01*
X143016930Y-105233137D01*
X142883290Y-105283235D01*
X142851953Y-105300391D01*
X142737746Y-105385985D01*
X142712485Y-105411246D01*
X142705624Y-105420400D01*
X142693609Y-105398453D01*
X142608015Y-105284246D01*
X142582754Y-105258985D01*
X142468547Y-105173391D01*
X142437210Y-105156235D01*
X142436583Y-105156000D01*
X142437210Y-105155765D01*
X142468547Y-105138609D01*
X142582754Y-105053015D01*
X142608015Y-105027754D01*
X142693609Y-104913547D01*
X142710765Y-104882210D01*
X142760863Y-104748570D01*
X142768144Y-104717950D01*
X142774763Y-104657023D01*
X142775500Y-104643415D01*
X142775499Y-104079516D01*
X143239514Y-103615501D01*
X143868520Y-103615501D01*
X143833699Y-103665231D02*
X143868520Y-103615501D01*
%TA.AperFunction,Conductor*%
G36*
X143833699Y-103665231D02*
G01*
X143822717Y-103684252D01*
X143725992Y-103891679D01*
X143718480Y-103912318D01*
X143659244Y-104133390D01*
X143655430Y-104155020D01*
X143635483Y-104383019D01*
X143635483Y-104404981D01*
X143655430Y-104632980D01*
X143659244Y-104654610D01*
X143718480Y-104875682D01*
X143725992Y-104896321D01*
X143822717Y-105103748D01*
X143833699Y-105122769D01*
X143948140Y-105286208D01*
X143942710Y-105283235D01*
X143809070Y-105233137D01*
X143778450Y-105225856D01*
X143717523Y-105219237D01*
X143703915Y-105218500D01*
X143122086Y-105218501D01*
X143108480Y-105219238D01*
X143047552Y-105225856D01*
X143016930Y-105233137D01*
X142883290Y-105283235D01*
X142851953Y-105300391D01*
X142737746Y-105385985D01*
X142712485Y-105411246D01*
X142705624Y-105420400D01*
X142693609Y-105398453D01*
X142608015Y-105284246D01*
X142582754Y-105258985D01*
X142468547Y-105173391D01*
X142437210Y-105156235D01*
X142436583Y-105156000D01*
X142437210Y-105155765D01*
X142468547Y-105138609D01*
X142582754Y-105053015D01*
X142608015Y-105027754D01*
X142693609Y-104913547D01*
X142710765Y-104882210D01*
X142760863Y-104748570D01*
X142768144Y-104717950D01*
X142774763Y-104657023D01*
X142775500Y-104643415D01*
X142775499Y-104079516D01*
X143239514Y-103615501D01*
X143868520Y-103615501D01*
X143833699Y-103665231D01*
G37*
%TD.AperFunction*%
%TD*%
M02*
