%TF.GenerationSoftware,KiCad,Pcbnew,(5.99.0-3084-g8945f8865-dirty)*%
%TF.CreationDate,2020-08-31T13:15:17+03:00*%
%TF.ProjectId,le-pre-et-le-boost,6c652d70-7265-42d6-9574-2d6c652d626f,rev?*%
%TF.SameCoordinates,Original*%
%TF.FileFunction,Legend,Top*%
%TF.FilePolarity,Positive*%
%FSLAX46Y46*%
G04 Gerber Fmt 4.6, Leading zero omitted, Abs format (unit mm)*
G04 Created by KiCad (PCBNEW (5.99.0-3084-g8945f8865-dirty)) date 2020-08-31 13:15:17*
%MOMM*%
%LPD*%
G01*
G04 APERTURE LIST*
%ADD10C,0.127000*%
%ADD11C,0.150000*%
%ADD12C,0.080000*%
%ADD13C,0.125000*%
%ADD14C,0.120000*%
%ADD15C,1.600000*%
%ADD16R,1.600000X1.600000*%
%ADD17O,1.930400X1.930400*%
%ADD18R,1.930400X1.930400*%
%ADD19R,0.900000X0.800000*%
G04 APERTURE END LIST*
D10*
X140608095Y-106833200D02*
X140722380Y-106866533D01*
X140760476Y-106899866D01*
X140798571Y-106966533D01*
X140798571Y-107066533D01*
X140760476Y-107133200D01*
X140722380Y-107166533D01*
X140646190Y-107199866D01*
X140341428Y-107199866D01*
X140341428Y-106499866D01*
X140608095Y-106499866D01*
X140684285Y-106533200D01*
X140722380Y-106566533D01*
X140760476Y-106633200D01*
X140760476Y-106699866D01*
X140722380Y-106766533D01*
X140684285Y-106799866D01*
X140608095Y-106833200D01*
X140341428Y-106833200D01*
X141293809Y-106499866D02*
X141446190Y-106499866D01*
X141522380Y-106533200D01*
X141598571Y-106599866D01*
X141636666Y-106733200D01*
X141636666Y-106966533D01*
X141598571Y-107099866D01*
X141522380Y-107166533D01*
X141446190Y-107199866D01*
X141293809Y-107199866D01*
X141217619Y-107166533D01*
X141141428Y-107099866D01*
X141103333Y-106966533D01*
X141103333Y-106733200D01*
X141141428Y-106599866D01*
X141217619Y-106533200D01*
X141293809Y-106499866D01*
X138296666Y-106833200D02*
X138410952Y-106866533D01*
X138449047Y-106899866D01*
X138487142Y-106966533D01*
X138487142Y-107066533D01*
X138449047Y-107133200D01*
X138410952Y-107166533D01*
X138334761Y-107199866D01*
X138030000Y-107199866D01*
X138030000Y-106499866D01*
X138296666Y-106499866D01*
X138372857Y-106533200D01*
X138410952Y-106566533D01*
X138449047Y-106633200D01*
X138449047Y-106699866D01*
X138410952Y-106766533D01*
X138372857Y-106799866D01*
X138296666Y-106833200D01*
X138030000Y-106833200D01*
X138830000Y-107199866D02*
X138830000Y-106499866D01*
X135312228Y-107199866D02*
X135312228Y-106499866D01*
X135616990Y-106499866D01*
X135693180Y-106533200D01*
X135731276Y-106566533D01*
X135769371Y-106633200D01*
X135769371Y-106733200D01*
X135731276Y-106799866D01*
X135693180Y-106833200D01*
X135616990Y-106866533D01*
X135312228Y-106866533D01*
X136264609Y-106499866D02*
X136416990Y-106499866D01*
X136493180Y-106533200D01*
X136569371Y-106599866D01*
X136607466Y-106733200D01*
X136607466Y-106966533D01*
X136569371Y-107099866D01*
X136493180Y-107166533D01*
X136416990Y-107199866D01*
X136264609Y-107199866D01*
X136188419Y-107166533D01*
X136112228Y-107099866D01*
X136074133Y-106966533D01*
X136074133Y-106733200D01*
X136112228Y-106599866D01*
X136188419Y-106533200D01*
X136264609Y-106499866D01*
X132950000Y-107199866D02*
X132950000Y-106499866D01*
X133254761Y-106499866D01*
X133330952Y-106533200D01*
X133369047Y-106566533D01*
X133407142Y-106633200D01*
X133407142Y-106733200D01*
X133369047Y-106799866D01*
X133330952Y-106833200D01*
X133254761Y-106866533D01*
X132950000Y-106866533D01*
X133750000Y-107199866D02*
X133750000Y-106499866D01*
X145040523Y-100474428D02*
X144659571Y-100474428D01*
X144659571Y-99874428D01*
X145611952Y-100445857D02*
X145535761Y-100474428D01*
X145383380Y-100474428D01*
X145307190Y-100445857D01*
X145269095Y-100388714D01*
X145269095Y-100160142D01*
X145307190Y-100103000D01*
X145383380Y-100074428D01*
X145535761Y-100074428D01*
X145611952Y-100103000D01*
X145650047Y-100160142D01*
X145650047Y-100217285D01*
X145269095Y-100274428D01*
X146602428Y-100474428D02*
X146602428Y-99874428D01*
X146907190Y-99874428D01*
X146983380Y-99903000D01*
X147021476Y-99931571D01*
X147059571Y-99988714D01*
X147059571Y-100074428D01*
X147021476Y-100131571D01*
X146983380Y-100160142D01*
X146907190Y-100188714D01*
X146602428Y-100188714D01*
X147402428Y-100474428D02*
X147402428Y-100074428D01*
X147402428Y-100188714D02*
X147440523Y-100131571D01*
X147478619Y-100103000D01*
X147554809Y-100074428D01*
X147631000Y-100074428D01*
X148202428Y-100445857D02*
X148126238Y-100474428D01*
X147973857Y-100474428D01*
X147897666Y-100445857D01*
X147859571Y-100388714D01*
X147859571Y-100160142D01*
X147897666Y-100103000D01*
X147973857Y-100074428D01*
X148126238Y-100074428D01*
X148202428Y-100103000D01*
X148240523Y-100160142D01*
X148240523Y-100217285D01*
X147859571Y-100274428D01*
D11*
%TO.C,C2*%
X147059666Y-103155714D02*
X147021571Y-103193809D01*
X146907285Y-103231904D01*
X146831095Y-103231904D01*
X146716809Y-103193809D01*
X146640619Y-103117619D01*
X146602523Y-103041428D01*
X146564428Y-102889047D01*
X146564428Y-102774761D01*
X146602523Y-102622380D01*
X146640619Y-102546190D01*
X146716809Y-102470000D01*
X146831095Y-102431904D01*
X146907285Y-102431904D01*
X147021571Y-102470000D01*
X147059666Y-102508095D01*
X147364428Y-102508095D02*
X147402523Y-102470000D01*
X147478714Y-102431904D01*
X147669190Y-102431904D01*
X147745380Y-102470000D01*
X147783476Y-102508095D01*
X147821571Y-102584285D01*
X147821571Y-102660476D01*
X147783476Y-102774761D01*
X147326333Y-103231904D01*
X147821571Y-103231904D01*
%TO.C,C1*%
X142106666Y-100615714D02*
X142068571Y-100653809D01*
X141954285Y-100691904D01*
X141878095Y-100691904D01*
X141763809Y-100653809D01*
X141687619Y-100577619D01*
X141649523Y-100501428D01*
X141611428Y-100349047D01*
X141611428Y-100234761D01*
X141649523Y-100082380D01*
X141687619Y-100006190D01*
X141763809Y-99930000D01*
X141878095Y-99891904D01*
X141954285Y-99891904D01*
X142068571Y-99930000D01*
X142106666Y-99968095D01*
X142868571Y-100691904D02*
X142411428Y-100691904D01*
X142640000Y-100691904D02*
X142640000Y-99891904D01*
X142563809Y-100006190D01*
X142487619Y-100082380D01*
X142411428Y-100120476D01*
D12*
%TO.C,J1*%
X142865447Y-108127847D02*
X142465447Y-108261180D01*
X142865447Y-108394514D01*
X142617828Y-108527847D02*
X142617828Y-108832609D01*
X142465447Y-108680228D02*
X142770209Y-108680228D01*
X148637600Y-108153238D02*
X148656647Y-108115142D01*
X148656647Y-108058000D01*
X148637600Y-108000857D01*
X148599504Y-107962761D01*
X148561409Y-107943714D01*
X148485219Y-107924666D01*
X148428076Y-107924666D01*
X148351885Y-107943714D01*
X148313790Y-107962761D01*
X148275695Y-108000857D01*
X148256647Y-108058000D01*
X148256647Y-108096095D01*
X148275695Y-108153238D01*
X148294742Y-108172285D01*
X148428076Y-108172285D01*
X148428076Y-108096095D01*
X148256647Y-108343714D02*
X148656647Y-108343714D01*
X148256647Y-108572285D01*
X148656647Y-108572285D01*
X148256647Y-108762761D02*
X148656647Y-108762761D01*
X148656647Y-108858000D01*
X148637600Y-108915142D01*
X148599504Y-108953238D01*
X148561409Y-108972285D01*
X148485219Y-108991333D01*
X148428076Y-108991333D01*
X148351885Y-108972285D01*
X148313790Y-108953238D01*
X148275695Y-108915142D01*
X148256647Y-108858000D01*
X148256647Y-108762761D01*
D10*
%TO.C,Q1*%
X135178809Y-101344371D02*
X135102619Y-101315800D01*
X135026428Y-101258657D01*
X134912142Y-101172942D01*
X134835952Y-101144371D01*
X134759761Y-101144371D01*
X134797857Y-101287228D02*
X134721666Y-101258657D01*
X134645476Y-101201514D01*
X134607380Y-101087228D01*
X134607380Y-100887228D01*
X134645476Y-100772942D01*
X134721666Y-100715800D01*
X134797857Y-100687228D01*
X134950238Y-100687228D01*
X135026428Y-100715800D01*
X135102619Y-100772942D01*
X135140714Y-100887228D01*
X135140714Y-101087228D01*
X135102619Y-101201514D01*
X135026428Y-101258657D01*
X134950238Y-101287228D01*
X134797857Y-101287228D01*
X135902619Y-101287228D02*
X135445476Y-101287228D01*
X135674047Y-101287228D02*
X135674047Y-100687228D01*
X135597857Y-100772942D01*
X135521666Y-100830085D01*
X135445476Y-100858657D01*
%TO.C,R4*%
X137507628Y-105644933D02*
X137221914Y-105911600D01*
X137507628Y-106102076D02*
X136907628Y-106102076D01*
X136907628Y-105797314D01*
X136936200Y-105721123D01*
X136964771Y-105683028D01*
X137021914Y-105644933D01*
X137107628Y-105644933D01*
X137164771Y-105683028D01*
X137193342Y-105721123D01*
X137221914Y-105797314D01*
X137221914Y-106102076D01*
X137107628Y-104959219D02*
X137507628Y-104959219D01*
X136879057Y-105149695D02*
X137307628Y-105340171D01*
X137307628Y-104844933D01*
%TO.C,R3*%
X142155828Y-105822733D02*
X141870114Y-106089400D01*
X142155828Y-106279876D02*
X141555828Y-106279876D01*
X141555828Y-105975114D01*
X141584400Y-105898923D01*
X141612971Y-105860828D01*
X141670114Y-105822733D01*
X141755828Y-105822733D01*
X141812971Y-105860828D01*
X141841542Y-105898923D01*
X141870114Y-105975114D01*
X141870114Y-106279876D01*
X141555828Y-105556066D02*
X141555828Y-105060828D01*
X141784400Y-105327495D01*
X141784400Y-105213209D01*
X141812971Y-105137019D01*
X141841542Y-105098923D01*
X141898685Y-105060828D01*
X142041542Y-105060828D01*
X142098685Y-105098923D01*
X142127257Y-105137019D01*
X142155828Y-105213209D01*
X142155828Y-105441780D01*
X142127257Y-105517971D01*
X142098685Y-105556066D01*
%TO.C,R2*%
X136772666Y-102912828D02*
X136506000Y-102627114D01*
X136315523Y-102912828D02*
X136315523Y-102312828D01*
X136620285Y-102312828D01*
X136696476Y-102341400D01*
X136734571Y-102369971D01*
X136772666Y-102427114D01*
X136772666Y-102512828D01*
X136734571Y-102569971D01*
X136696476Y-102598542D01*
X136620285Y-102627114D01*
X136315523Y-102627114D01*
X137077428Y-102369971D02*
X137115523Y-102341400D01*
X137191714Y-102312828D01*
X137382190Y-102312828D01*
X137458380Y-102341400D01*
X137496476Y-102369971D01*
X137534571Y-102427114D01*
X137534571Y-102484257D01*
X137496476Y-102569971D01*
X137039333Y-102912828D01*
X137534571Y-102912828D01*
D13*
%TO.C,R1*%
X134104028Y-105644933D02*
X133818314Y-105911600D01*
X134104028Y-106102076D02*
X133504028Y-106102076D01*
X133504028Y-105797314D01*
X133532600Y-105721123D01*
X133561171Y-105683028D01*
X133618314Y-105644933D01*
X133704028Y-105644933D01*
X133761171Y-105683028D01*
X133789742Y-105721123D01*
X133818314Y-105797314D01*
X133818314Y-106102076D01*
X134104028Y-104883028D02*
X134104028Y-105340171D01*
X134104028Y-105111600D02*
X133504028Y-105111600D01*
X133589742Y-105187790D01*
X133646885Y-105263980D01*
X133675457Y-105340171D01*
D14*
%TO.C,C2*%
X147574000Y-106041000D02*
X147574000Y-105541000D01*
X147824000Y-105791000D02*
X147324000Y-105791000D01*
X143723000Y-104678000D02*
X143723000Y-104110000D01*
X143763000Y-104912000D02*
X143763000Y-103876000D01*
X143803000Y-105071000D02*
X143803000Y-103717000D01*
X143843000Y-105199000D02*
X143843000Y-103589000D01*
X143883000Y-105309000D02*
X143883000Y-103479000D01*
X143923000Y-105405000D02*
X143923000Y-103383000D01*
X143963000Y-105492000D02*
X143963000Y-103296000D01*
X144003000Y-105572000D02*
X144003000Y-103216000D01*
X144043000Y-103354000D02*
X144043000Y-103143000D01*
X144043000Y-105645000D02*
X144043000Y-105434000D01*
X144083000Y-103354000D02*
X144083000Y-103075000D01*
X144083000Y-105713000D02*
X144083000Y-105434000D01*
X144123000Y-103354000D02*
X144123000Y-103011000D01*
X144123000Y-105777000D02*
X144123000Y-105434000D01*
X144163000Y-103354000D02*
X144163000Y-102951000D01*
X144163000Y-105837000D02*
X144163000Y-105434000D01*
X144203000Y-103354000D02*
X144203000Y-102894000D01*
X144203000Y-105894000D02*
X144203000Y-105434000D01*
X144243000Y-103354000D02*
X144243000Y-102840000D01*
X144243000Y-105948000D02*
X144243000Y-105434000D01*
X144283000Y-103354000D02*
X144283000Y-102789000D01*
X144283000Y-105999000D02*
X144283000Y-105434000D01*
X144323000Y-103354000D02*
X144323000Y-102741000D01*
X144323000Y-106047000D02*
X144323000Y-105434000D01*
X144363000Y-103354000D02*
X144363000Y-102695000D01*
X144363000Y-106093000D02*
X144363000Y-105434000D01*
X144403000Y-103354000D02*
X144403000Y-102651000D01*
X144403000Y-106137000D02*
X144403000Y-105434000D01*
X144443000Y-103354000D02*
X144443000Y-102609000D01*
X144443000Y-106179000D02*
X144443000Y-105434000D01*
X144483000Y-103354000D02*
X144483000Y-102568000D01*
X144483000Y-106220000D02*
X144483000Y-105434000D01*
X144523000Y-103354000D02*
X144523000Y-102530000D01*
X144523000Y-106258000D02*
X144523000Y-105434000D01*
X144563000Y-103354000D02*
X144563000Y-102493000D01*
X144563000Y-106295000D02*
X144563000Y-105434000D01*
X144603000Y-103354000D02*
X144603000Y-102457000D01*
X144603000Y-106331000D02*
X144603000Y-105434000D01*
X144643000Y-103354000D02*
X144643000Y-102423000D01*
X144643000Y-106365000D02*
X144643000Y-105434000D01*
X144683000Y-103354000D02*
X144683000Y-102390000D01*
X144683000Y-106398000D02*
X144683000Y-105434000D01*
X144723000Y-103354000D02*
X144723000Y-102359000D01*
X144723000Y-106429000D02*
X144723000Y-105434000D01*
X144763000Y-103354000D02*
X144763000Y-102329000D01*
X144763000Y-106459000D02*
X144763000Y-105434000D01*
X144803000Y-103354000D02*
X144803000Y-102299000D01*
X144803000Y-106489000D02*
X144803000Y-105434000D01*
X144843000Y-103354000D02*
X144843000Y-102272000D01*
X144843000Y-106516000D02*
X144843000Y-105434000D01*
X144883000Y-103354000D02*
X144883000Y-102245000D01*
X144883000Y-106543000D02*
X144883000Y-105434000D01*
X144923000Y-103354000D02*
X144923000Y-102219000D01*
X144923000Y-106569000D02*
X144923000Y-105434000D01*
X144963000Y-103354000D02*
X144963000Y-102194000D01*
X144963000Y-106594000D02*
X144963000Y-105434000D01*
X145003000Y-103354000D02*
X145003000Y-102170000D01*
X145003000Y-106618000D02*
X145003000Y-105434000D01*
X145043000Y-103354000D02*
X145043000Y-102147000D01*
X145043000Y-106641000D02*
X145043000Y-105434000D01*
X145083000Y-103354000D02*
X145083000Y-102126000D01*
X145083000Y-106662000D02*
X145083000Y-105434000D01*
X145123000Y-103354000D02*
X145123000Y-102104000D01*
X145123000Y-106684000D02*
X145123000Y-105434000D01*
X145163000Y-103354000D02*
X145163000Y-102084000D01*
X145163000Y-106704000D02*
X145163000Y-105434000D01*
X145203000Y-103354000D02*
X145203000Y-102065000D01*
X145203000Y-106723000D02*
X145203000Y-105434000D01*
X145243000Y-103354000D02*
X145243000Y-102046000D01*
X145243000Y-106742000D02*
X145243000Y-105434000D01*
X145283000Y-103354000D02*
X145283000Y-102029000D01*
X145283000Y-106759000D02*
X145283000Y-105434000D01*
X145323000Y-103354000D02*
X145323000Y-102012000D01*
X145323000Y-106776000D02*
X145323000Y-105434000D01*
X145363000Y-103354000D02*
X145363000Y-101996000D01*
X145363000Y-106792000D02*
X145363000Y-105434000D01*
X145403000Y-103354000D02*
X145403000Y-101980000D01*
X145403000Y-106808000D02*
X145403000Y-105434000D01*
X145443000Y-103354000D02*
X145443000Y-101966000D01*
X145443000Y-106822000D02*
X145443000Y-105434000D01*
X145483000Y-103354000D02*
X145483000Y-101952000D01*
X145483000Y-106836000D02*
X145483000Y-105434000D01*
X145523000Y-103354000D02*
X145523000Y-101939000D01*
X145523000Y-106849000D02*
X145523000Y-105434000D01*
X145563000Y-103354000D02*
X145563000Y-101926000D01*
X145563000Y-106862000D02*
X145563000Y-105434000D01*
X145603000Y-103354000D02*
X145603000Y-101914000D01*
X145603000Y-106874000D02*
X145603000Y-105434000D01*
X145644000Y-103354000D02*
X145644000Y-101903000D01*
X145644000Y-106885000D02*
X145644000Y-105434000D01*
X145684000Y-103354000D02*
X145684000Y-101893000D01*
X145684000Y-106895000D02*
X145684000Y-105434000D01*
X145724000Y-103354000D02*
X145724000Y-101883000D01*
X145724000Y-106905000D02*
X145724000Y-105434000D01*
X145764000Y-103354000D02*
X145764000Y-101874000D01*
X145764000Y-106914000D02*
X145764000Y-105434000D01*
X145804000Y-103354000D02*
X145804000Y-101866000D01*
X145804000Y-106922000D02*
X145804000Y-105434000D01*
X145844000Y-103354000D02*
X145844000Y-101858000D01*
X145844000Y-106930000D02*
X145844000Y-105434000D01*
X145884000Y-103354000D02*
X145884000Y-101851000D01*
X145884000Y-106937000D02*
X145884000Y-105434000D01*
X145924000Y-103354000D02*
X145924000Y-101844000D01*
X145924000Y-106944000D02*
X145924000Y-105434000D01*
X145964000Y-103354000D02*
X145964000Y-101838000D01*
X145964000Y-106950000D02*
X145964000Y-105434000D01*
X146004000Y-103354000D02*
X146004000Y-101833000D01*
X146004000Y-106955000D02*
X146004000Y-105434000D01*
X146044000Y-103354000D02*
X146044000Y-101829000D01*
X146044000Y-106959000D02*
X146044000Y-105434000D01*
X146084000Y-103354000D02*
X146084000Y-101825000D01*
X146084000Y-106963000D02*
X146084000Y-105434000D01*
X146124000Y-106967000D02*
X146124000Y-101821000D01*
X146164000Y-106970000D02*
X146164000Y-101818000D01*
X146204000Y-106972000D02*
X146204000Y-101816000D01*
X146244000Y-106973000D02*
X146244000Y-101815000D01*
X146284000Y-106974000D02*
X146284000Y-101814000D01*
X146324000Y-106974000D02*
X146324000Y-101814000D01*
X148944000Y-104394000D02*
G75*
G03*
X148944000Y-104394000I-2620000J0D01*
G01*
%TO.C,C1*%
X142494000Y-103501000D02*
X142494000Y-103001000D01*
X142744000Y-103251000D02*
X142244000Y-103251000D01*
X138643000Y-102138000D02*
X138643000Y-101570000D01*
X138683000Y-102372000D02*
X138683000Y-101336000D01*
X138723000Y-102531000D02*
X138723000Y-101177000D01*
X138763000Y-102659000D02*
X138763000Y-101049000D01*
X138803000Y-102769000D02*
X138803000Y-100939000D01*
X138843000Y-102865000D02*
X138843000Y-100843000D01*
X138883000Y-102952000D02*
X138883000Y-100756000D01*
X138923000Y-103032000D02*
X138923000Y-100676000D01*
X138963000Y-100814000D02*
X138963000Y-100603000D01*
X138963000Y-103105000D02*
X138963000Y-102894000D01*
X139003000Y-100814000D02*
X139003000Y-100535000D01*
X139003000Y-103173000D02*
X139003000Y-102894000D01*
X139043000Y-100814000D02*
X139043000Y-100471000D01*
X139043000Y-103237000D02*
X139043000Y-102894000D01*
X139083000Y-100814000D02*
X139083000Y-100411000D01*
X139083000Y-103297000D02*
X139083000Y-102894000D01*
X139123000Y-100814000D02*
X139123000Y-100354000D01*
X139123000Y-103354000D02*
X139123000Y-102894000D01*
X139163000Y-100814000D02*
X139163000Y-100300000D01*
X139163000Y-103408000D02*
X139163000Y-102894000D01*
X139203000Y-100814000D02*
X139203000Y-100249000D01*
X139203000Y-103459000D02*
X139203000Y-102894000D01*
X139243000Y-100814000D02*
X139243000Y-100201000D01*
X139243000Y-103507000D02*
X139243000Y-102894000D01*
X139283000Y-100814000D02*
X139283000Y-100155000D01*
X139283000Y-103553000D02*
X139283000Y-102894000D01*
X139323000Y-100814000D02*
X139323000Y-100111000D01*
X139323000Y-103597000D02*
X139323000Y-102894000D01*
X139363000Y-100814000D02*
X139363000Y-100069000D01*
X139363000Y-103639000D02*
X139363000Y-102894000D01*
X139403000Y-100814000D02*
X139403000Y-100028000D01*
X139403000Y-103680000D02*
X139403000Y-102894000D01*
X139443000Y-100814000D02*
X139443000Y-99990000D01*
X139443000Y-103718000D02*
X139443000Y-102894000D01*
X139483000Y-100814000D02*
X139483000Y-99953000D01*
X139483000Y-103755000D02*
X139483000Y-102894000D01*
X139523000Y-100814000D02*
X139523000Y-99917000D01*
X139523000Y-103791000D02*
X139523000Y-102894000D01*
X139563000Y-100814000D02*
X139563000Y-99883000D01*
X139563000Y-103825000D02*
X139563000Y-102894000D01*
X139603000Y-100814000D02*
X139603000Y-99850000D01*
X139603000Y-103858000D02*
X139603000Y-102894000D01*
X139643000Y-100814000D02*
X139643000Y-99819000D01*
X139643000Y-103889000D02*
X139643000Y-102894000D01*
X139683000Y-100814000D02*
X139683000Y-99789000D01*
X139683000Y-103919000D02*
X139683000Y-102894000D01*
X139723000Y-100814000D02*
X139723000Y-99759000D01*
X139723000Y-103949000D02*
X139723000Y-102894000D01*
X139763000Y-100814000D02*
X139763000Y-99732000D01*
X139763000Y-103976000D02*
X139763000Y-102894000D01*
X139803000Y-100814000D02*
X139803000Y-99705000D01*
X139803000Y-104003000D02*
X139803000Y-102894000D01*
X139843000Y-100814000D02*
X139843000Y-99679000D01*
X139843000Y-104029000D02*
X139843000Y-102894000D01*
X139883000Y-100814000D02*
X139883000Y-99654000D01*
X139883000Y-104054000D02*
X139883000Y-102894000D01*
X139923000Y-100814000D02*
X139923000Y-99630000D01*
X139923000Y-104078000D02*
X139923000Y-102894000D01*
X139963000Y-100814000D02*
X139963000Y-99607000D01*
X139963000Y-104101000D02*
X139963000Y-102894000D01*
X140003000Y-100814000D02*
X140003000Y-99586000D01*
X140003000Y-104122000D02*
X140003000Y-102894000D01*
X140043000Y-100814000D02*
X140043000Y-99564000D01*
X140043000Y-104144000D02*
X140043000Y-102894000D01*
X140083000Y-100814000D02*
X140083000Y-99544000D01*
X140083000Y-104164000D02*
X140083000Y-102894000D01*
X140123000Y-100814000D02*
X140123000Y-99525000D01*
X140123000Y-104183000D02*
X140123000Y-102894000D01*
X140163000Y-100814000D02*
X140163000Y-99506000D01*
X140163000Y-104202000D02*
X140163000Y-102894000D01*
X140203000Y-100814000D02*
X140203000Y-99489000D01*
X140203000Y-104219000D02*
X140203000Y-102894000D01*
X140243000Y-100814000D02*
X140243000Y-99472000D01*
X140243000Y-104236000D02*
X140243000Y-102894000D01*
X140283000Y-100814000D02*
X140283000Y-99456000D01*
X140283000Y-104252000D02*
X140283000Y-102894000D01*
X140323000Y-100814000D02*
X140323000Y-99440000D01*
X140323000Y-104268000D02*
X140323000Y-102894000D01*
X140363000Y-100814000D02*
X140363000Y-99426000D01*
X140363000Y-104282000D02*
X140363000Y-102894000D01*
X140403000Y-100814000D02*
X140403000Y-99412000D01*
X140403000Y-104296000D02*
X140403000Y-102894000D01*
X140443000Y-100814000D02*
X140443000Y-99399000D01*
X140443000Y-104309000D02*
X140443000Y-102894000D01*
X140483000Y-100814000D02*
X140483000Y-99386000D01*
X140483000Y-104322000D02*
X140483000Y-102894000D01*
X140523000Y-100814000D02*
X140523000Y-99374000D01*
X140523000Y-104334000D02*
X140523000Y-102894000D01*
X140564000Y-100814000D02*
X140564000Y-99363000D01*
X140564000Y-104345000D02*
X140564000Y-102894000D01*
X140604000Y-100814000D02*
X140604000Y-99353000D01*
X140604000Y-104355000D02*
X140604000Y-102894000D01*
X140644000Y-100814000D02*
X140644000Y-99343000D01*
X140644000Y-104365000D02*
X140644000Y-102894000D01*
X140684000Y-100814000D02*
X140684000Y-99334000D01*
X140684000Y-104374000D02*
X140684000Y-102894000D01*
X140724000Y-100814000D02*
X140724000Y-99326000D01*
X140724000Y-104382000D02*
X140724000Y-102894000D01*
X140764000Y-100814000D02*
X140764000Y-99318000D01*
X140764000Y-104390000D02*
X140764000Y-102894000D01*
X140804000Y-100814000D02*
X140804000Y-99311000D01*
X140804000Y-104397000D02*
X140804000Y-102894000D01*
X140844000Y-100814000D02*
X140844000Y-99304000D01*
X140844000Y-104404000D02*
X140844000Y-102894000D01*
X140884000Y-100814000D02*
X140884000Y-99298000D01*
X140884000Y-104410000D02*
X140884000Y-102894000D01*
X140924000Y-100814000D02*
X140924000Y-99293000D01*
X140924000Y-104415000D02*
X140924000Y-102894000D01*
X140964000Y-100814000D02*
X140964000Y-99289000D01*
X140964000Y-104419000D02*
X140964000Y-102894000D01*
X141004000Y-100814000D02*
X141004000Y-99285000D01*
X141004000Y-104423000D02*
X141004000Y-102894000D01*
X141044000Y-104427000D02*
X141044000Y-99281000D01*
X141084000Y-104430000D02*
X141084000Y-99278000D01*
X141124000Y-104432000D02*
X141124000Y-99276000D01*
X141164000Y-104433000D02*
X141164000Y-99275000D01*
X141204000Y-104434000D02*
X141204000Y-99274000D01*
X141244000Y-104434000D02*
X141244000Y-99274000D01*
X143864000Y-101854000D02*
G75*
G03*
X143864000Y-101854000I-2620000J0D01*
G01*
D12*
%TO.C,J2*%
X132080000Y-107315000D02*
X142240000Y-107315000D01*
X132080000Y-109855000D02*
X132080000Y-107315000D01*
X142240000Y-109855000D02*
X142240000Y-107315000D01*
%TO.C,J1*%
X142303500Y-107188000D02*
X148780500Y-107188000D01*
X148780500Y-109728000D02*
X142303500Y-109728000D01*
X143002000Y-109728000D02*
X143002000Y-107188000D01*
X148082000Y-109728000D02*
X148082000Y-107188000D01*
X148780500Y-109728000D02*
X148780500Y-107188000D01*
X142303500Y-109728000D02*
X142303500Y-107188000D01*
D14*
%TO.C,Q1*%
X133098000Y-99385000D02*
X134558000Y-99385000D01*
X133098000Y-102545000D02*
X135258000Y-102545000D01*
X133098000Y-102545000D02*
X133098000Y-101615000D01*
X133098000Y-99385000D02*
X133098000Y-100315000D01*
%TO.C,R4*%
X137469378Y-104700000D02*
X136952222Y-104700000D01*
X137469378Y-106120000D02*
X136952222Y-106120000D01*
%TO.C,R3*%
X142117578Y-104903200D02*
X141600422Y-104903200D01*
X142117578Y-106323200D02*
X141600422Y-106323200D01*
%TO.C,R2*%
X136297600Y-102408222D02*
X136297600Y-102925378D01*
X137717600Y-102408222D02*
X137717600Y-102925378D01*
%TO.C,R1*%
X133548622Y-106120000D02*
X134065778Y-106120000D01*
X133548622Y-104700000D02*
X134065778Y-104700000D01*
%TD*%
%LPC*%
D15*
%TO.C,C2*%
X145074000Y-104394000D03*
D16*
X147574000Y-104394000D03*
%TD*%
D15*
%TO.C,C1*%
X139994000Y-101854000D03*
D16*
X142494000Y-101854000D03*
%TD*%
D17*
%TO.C,J2*%
X140970000Y-108585000D03*
X138430000Y-108585000D03*
X135890000Y-108585000D03*
D18*
X133350000Y-108585000D03*
%TD*%
D17*
%TO.C,J1*%
X146812000Y-108458000D03*
D18*
X144272000Y-108458000D03*
%TD*%
D19*
%TO.C,Q1*%
X132858000Y-100965000D03*
X134858000Y-100015000D03*
X134858000Y-101915000D03*
%TD*%
%TO.C,R4*%
G36*
G01*
X136760800Y-104953750D02*
X136760800Y-105866250D01*
G75*
G02*
X136517050Y-106110000I-243750J0D01*
G01*
X136029550Y-106110000D01*
G75*
G02*
X135785800Y-105866250I0J243750D01*
G01*
X135785800Y-104953750D01*
G75*
G02*
X136029550Y-104710000I243750J0D01*
G01*
X136517050Y-104710000D01*
G75*
G02*
X136760800Y-104953750I0J-243750D01*
G01*
G37*
G36*
G01*
X138635800Y-104953750D02*
X138635800Y-105866250D01*
G75*
G02*
X138392050Y-106110000I-243750J0D01*
G01*
X137904550Y-106110000D01*
G75*
G02*
X137660800Y-105866250I0J243750D01*
G01*
X137660800Y-104953750D01*
G75*
G02*
X137904550Y-104710000I243750J0D01*
G01*
X138392050Y-104710000D01*
G75*
G02*
X138635800Y-104953750I0J-243750D01*
G01*
G37*
%TD*%
%TO.C,R3*%
G36*
G01*
X141409000Y-105156950D02*
X141409000Y-106069450D01*
G75*
G02*
X141165250Y-106313200I-243750J0D01*
G01*
X140677750Y-106313200D01*
G75*
G02*
X140434000Y-106069450I0J243750D01*
G01*
X140434000Y-105156950D01*
G75*
G02*
X140677750Y-104913200I243750J0D01*
G01*
X141165250Y-104913200D01*
G75*
G02*
X141409000Y-105156950I0J-243750D01*
G01*
G37*
G36*
G01*
X143284000Y-105156950D02*
X143284000Y-106069450D01*
G75*
G02*
X143040250Y-106313200I-243750J0D01*
G01*
X142552750Y-106313200D01*
G75*
G02*
X142309000Y-106069450I0J243750D01*
G01*
X142309000Y-105156950D01*
G75*
G02*
X142552750Y-104913200I243750J0D01*
G01*
X143040250Y-104913200D01*
G75*
G02*
X143284000Y-105156950I0J-243750D01*
G01*
G37*
%TD*%
%TO.C,R2*%
G36*
G01*
X136551350Y-103116800D02*
X137463850Y-103116800D01*
G75*
G02*
X137707600Y-103360550I0J-243750D01*
G01*
X137707600Y-103848050D01*
G75*
G02*
X137463850Y-104091800I-243750J0D01*
G01*
X136551350Y-104091800D01*
G75*
G02*
X136307600Y-103848050I0J243750D01*
G01*
X136307600Y-103360550D01*
G75*
G02*
X136551350Y-103116800I243750J0D01*
G01*
G37*
G36*
G01*
X136551350Y-101241800D02*
X137463850Y-101241800D01*
G75*
G02*
X137707600Y-101485550I0J-243750D01*
G01*
X137707600Y-101973050D01*
G75*
G02*
X137463850Y-102216800I-243750J0D01*
G01*
X136551350Y-102216800D01*
G75*
G02*
X136307600Y-101973050I0J243750D01*
G01*
X136307600Y-101485550D01*
G75*
G02*
X136551350Y-101241800I243750J0D01*
G01*
G37*
%TD*%
%TO.C,R1*%
G36*
G01*
X134257200Y-105866250D02*
X134257200Y-104953750D01*
G75*
G02*
X134500950Y-104710000I243750J0D01*
G01*
X134988450Y-104710000D01*
G75*
G02*
X135232200Y-104953750I0J-243750D01*
G01*
X135232200Y-105866250D01*
G75*
G02*
X134988450Y-106110000I-243750J0D01*
G01*
X134500950Y-106110000D01*
G75*
G02*
X134257200Y-105866250I0J243750D01*
G01*
G37*
G36*
G01*
X132382200Y-105866250D02*
X132382200Y-104953750D01*
G75*
G02*
X132625950Y-104710000I243750J0D01*
G01*
X133113450Y-104710000D01*
G75*
G02*
X133357200Y-104953750I0J-243750D01*
G01*
X133357200Y-105866250D01*
G75*
G02*
X133113450Y-106110000I-243750J0D01*
G01*
X132625950Y-106110000D01*
G75*
G02*
X132382200Y-105866250I0J243750D01*
G01*
G37*
%TD*%
M02*
