%TF.GenerationSoftware,KiCad,Pcbnew,6.0.0+dfsg1-2*%
%TF.CreationDate,2022-01-11T21:03:08+02:00*%
%TF.ProjectId,le-pre-et-le-boost,6c652d70-7265-42d6-9574-2d6c652d626f,rev?*%
%TF.SameCoordinates,Original*%
%TF.FileFunction,Legend,Bot*%
%TF.FilePolarity,Positive*%
%FSLAX46Y46*%
G04 Gerber Fmt 4.6, Leading zero omitted, Abs format (unit mm)*
G04 Created by KiCad (PCBNEW 6.0.0+dfsg1-2) date 2022-01-11 21:03:08*
%MOMM*%
%LPD*%
G01*
G04 APERTURE LIST*
G04 Aperture macros list*
%AMRoundRect*
0 Rectangle with rounded corners*
0 $1 Rounding radius*
0 $2 $3 $4 $5 $6 $7 $8 $9 X,Y pos of 4 corners*
0 Add a 4 corners polygon primitive as box body*
4,1,4,$2,$3,$4,$5,$6,$7,$8,$9,$2,$3,0*
0 Add four circle primitives for the rounded corners*
1,1,$1+$1,$2,$3*
1,1,$1+$1,$4,$5*
1,1,$1+$1,$6,$7*
1,1,$1+$1,$8,$9*
0 Add four rect primitives between the rounded corners*
20,1,$1+$1,$2,$3,$4,$5,0*
20,1,$1+$1,$4,$5,$6,$7,0*
20,1,$1+$1,$6,$7,$8,$9,0*
20,1,$1+$1,$8,$9,$2,$3,0*%
G04 Aperture macros list end*
%ADD10C,0.125000*%
%ADD11C,0.127000*%
%ADD12C,0.080000*%
%ADD13C,0.150000*%
%ADD14C,0.120000*%
%ADD15R,1.600000X1.600000*%
%ADD16C,1.600000*%
%ADD17R,1.930400X1.930400*%
%ADD18O,1.930400X1.930400*%
%ADD19RoundRect,0.243750X0.243750X0.456250X-0.243750X0.456250X-0.243750X-0.456250X0.243750X-0.456250X0*%
%ADD20R,0.800000X0.900000*%
%ADD21RoundRect,0.243750X-0.243750X-0.456250X0.243750X-0.456250X0.243750X0.456250X-0.243750X0.456250X0*%
G04 APERTURE END LIST*
D10*
X138588400Y-100172057D02*
X138588400Y-100576819D01*
X138621733Y-100624438D01*
X138655066Y-100648247D01*
X138721733Y-100672057D01*
X138821733Y-100672057D01*
X138888400Y-100648247D01*
X138588400Y-100481580D02*
X138655066Y-100505390D01*
X138788400Y-100505390D01*
X138855066Y-100481580D01*
X138888400Y-100457771D01*
X138921733Y-100410152D01*
X138921733Y-100267295D01*
X138888400Y-100219676D01*
X138855066Y-100195866D01*
X138788400Y-100172057D01*
X138655066Y-100172057D01*
X138588400Y-100195866D01*
X138255066Y-100505390D02*
X138255066Y-100172057D01*
X138255066Y-100005390D02*
X138288400Y-100029200D01*
X138255066Y-100053009D01*
X138221733Y-100029200D01*
X138255066Y-100005390D01*
X138255066Y-100053009D01*
X138021733Y-100172057D02*
X137755066Y-100172057D01*
X137921733Y-100005390D02*
X137921733Y-100433961D01*
X137888400Y-100481580D01*
X137821733Y-100505390D01*
X137755066Y-100505390D01*
X137521733Y-100457771D02*
X137488400Y-100481580D01*
X137521733Y-100505390D01*
X137555066Y-100481580D01*
X137521733Y-100457771D01*
X137521733Y-100505390D01*
X137188400Y-100505390D02*
X137188400Y-100172057D01*
X137188400Y-100005390D02*
X137221733Y-100029200D01*
X137188400Y-100053009D01*
X137155066Y-100029200D01*
X137188400Y-100005390D01*
X137188400Y-100053009D01*
X136755066Y-100505390D02*
X136821733Y-100481580D01*
X136855066Y-100457771D01*
X136888400Y-100410152D01*
X136888400Y-100267295D01*
X136855066Y-100219676D01*
X136821733Y-100195866D01*
X136755066Y-100172057D01*
X136655066Y-100172057D01*
X136588400Y-100195866D01*
X136555066Y-100219676D01*
X136521733Y-100267295D01*
X136521733Y-100410152D01*
X136555066Y-100457771D01*
X136588400Y-100481580D01*
X136655066Y-100505390D01*
X136755066Y-100505390D01*
X135721733Y-99981580D02*
X136321733Y-100624438D01*
X135288400Y-100005390D02*
X135288400Y-100362533D01*
X135321733Y-100433961D01*
X135388400Y-100481580D01*
X135488400Y-100505390D01*
X135555066Y-100505390D01*
X134755066Y-100005390D02*
X134755066Y-100362533D01*
X134788400Y-100433961D01*
X134855066Y-100481580D01*
X134955066Y-100505390D01*
X135021733Y-100505390D01*
X134488400Y-100005390D02*
X134321733Y-100505390D01*
X134188400Y-100148247D01*
X134055066Y-100505390D01*
X133888400Y-100005390D01*
X133388400Y-100243485D02*
X133288400Y-100267295D01*
X133255066Y-100291104D01*
X133221733Y-100338723D01*
X133221733Y-100410152D01*
X133255066Y-100457771D01*
X133288400Y-100481580D01*
X133355066Y-100505390D01*
X133621733Y-100505390D01*
X133621733Y-100005390D01*
X133388400Y-100005390D01*
X133321733Y-100029200D01*
X133288400Y-100053009D01*
X133255066Y-100100628D01*
X133255066Y-100148247D01*
X133288400Y-100195866D01*
X133321733Y-100219676D01*
X133388400Y-100243485D01*
X133621733Y-100243485D01*
X132988400Y-100505390D02*
X132621733Y-100172057D01*
X132988400Y-100172057D02*
X132621733Y-100505390D01*
X145752864Y-100256209D02*
X145724292Y-100232400D01*
X145667150Y-100208590D01*
X145524292Y-100208590D01*
X145467150Y-100232400D01*
X145438578Y-100256209D01*
X145410007Y-100303828D01*
X145410007Y-100351447D01*
X145438578Y-100422876D01*
X145781435Y-100708590D01*
X145410007Y-100708590D01*
X145038578Y-100208590D02*
X144981435Y-100208590D01*
X144924292Y-100232400D01*
X144895721Y-100256209D01*
X144867150Y-100303828D01*
X144838578Y-100399066D01*
X144838578Y-100518114D01*
X144867150Y-100613352D01*
X144895721Y-100660971D01*
X144924292Y-100684780D01*
X144981435Y-100708590D01*
X145038578Y-100708590D01*
X145095721Y-100684780D01*
X145124292Y-100660971D01*
X145152864Y-100613352D01*
X145181435Y-100518114D01*
X145181435Y-100399066D01*
X145152864Y-100303828D01*
X145124292Y-100256209D01*
X145095721Y-100232400D01*
X145038578Y-100208590D01*
X144610007Y-100256209D02*
X144581435Y-100232400D01*
X144524292Y-100208590D01*
X144381435Y-100208590D01*
X144324292Y-100232400D01*
X144295721Y-100256209D01*
X144267150Y-100303828D01*
X144267150Y-100351447D01*
X144295721Y-100422876D01*
X144638578Y-100708590D01*
X144267150Y-100708590D01*
X143895721Y-100208590D02*
X143838578Y-100208590D01*
X143781435Y-100232400D01*
X143752864Y-100256209D01*
X143724292Y-100303828D01*
X143695721Y-100399066D01*
X143695721Y-100518114D01*
X143724292Y-100613352D01*
X143752864Y-100660971D01*
X143781435Y-100684780D01*
X143838578Y-100708590D01*
X143895721Y-100708590D01*
X143952864Y-100684780D01*
X143981435Y-100660971D01*
X144010007Y-100613352D01*
X144038578Y-100518114D01*
X144038578Y-100399066D01*
X144010007Y-100303828D01*
X143981435Y-100256209D01*
X143952864Y-100232400D01*
X143895721Y-100208590D01*
X143438578Y-100518114D02*
X142981435Y-100518114D01*
X142581435Y-100208590D02*
X142524292Y-100208590D01*
X142467150Y-100232400D01*
X142438578Y-100256209D01*
X142410007Y-100303828D01*
X142381435Y-100399066D01*
X142381435Y-100518114D01*
X142410007Y-100613352D01*
X142438578Y-100660971D01*
X142467150Y-100684780D01*
X142524292Y-100708590D01*
X142581435Y-100708590D01*
X142638578Y-100684780D01*
X142667150Y-100660971D01*
X142695721Y-100613352D01*
X142724292Y-100518114D01*
X142724292Y-100399066D01*
X142695721Y-100303828D01*
X142667150Y-100256209D01*
X142638578Y-100232400D01*
X142581435Y-100208590D01*
X142038578Y-100422876D02*
X142095721Y-100399066D01*
X142124292Y-100375257D01*
X142152864Y-100327638D01*
X142152864Y-100303828D01*
X142124292Y-100256209D01*
X142095721Y-100232400D01*
X142038578Y-100208590D01*
X141924292Y-100208590D01*
X141867150Y-100232400D01*
X141838578Y-100256209D01*
X141810007Y-100303828D01*
X141810007Y-100327638D01*
X141838578Y-100375257D01*
X141867150Y-100399066D01*
X141924292Y-100422876D01*
X142038578Y-100422876D01*
X142095721Y-100446685D01*
X142124292Y-100470495D01*
X142152864Y-100518114D01*
X142152864Y-100613352D01*
X142124292Y-100660971D01*
X142095721Y-100684780D01*
X142038578Y-100708590D01*
X141924292Y-100708590D01*
X141867150Y-100684780D01*
X141838578Y-100660971D01*
X141810007Y-100613352D01*
X141810007Y-100518114D01*
X141838578Y-100470495D01*
X141867150Y-100446685D01*
X141924292Y-100422876D01*
X141552864Y-100518114D02*
X141095721Y-100518114D01*
X140867150Y-100208590D02*
X140495721Y-100208590D01*
X140695721Y-100399066D01*
X140610007Y-100399066D01*
X140552864Y-100422876D01*
X140524292Y-100446685D01*
X140495721Y-100494304D01*
X140495721Y-100613352D01*
X140524292Y-100660971D01*
X140552864Y-100684780D01*
X140610007Y-100708590D01*
X140781435Y-100708590D01*
X140838578Y-100684780D01*
X140867150Y-100660971D01*
X139924292Y-100708590D02*
X140267150Y-100708590D01*
X140095721Y-100708590D02*
X140095721Y-100208590D01*
X140152864Y-100280019D01*
X140210007Y-100327638D01*
X140267150Y-100351447D01*
D11*
X134569200Y-109694628D02*
X134569200Y-109094628D01*
D10*
X148564457Y-102458057D02*
X148373980Y-102791390D01*
X148183504Y-102458057D01*
X147726361Y-102291390D02*
X147650171Y-102291390D01*
X147573980Y-102315200D01*
X147535885Y-102339009D01*
X147497790Y-102386628D01*
X147459695Y-102481866D01*
X147459695Y-102600914D01*
X147497790Y-102696152D01*
X147535885Y-102743771D01*
X147573980Y-102767580D01*
X147650171Y-102791390D01*
X147726361Y-102791390D01*
X147802552Y-102767580D01*
X147840647Y-102743771D01*
X147878742Y-102696152D01*
X147916838Y-102600914D01*
X147916838Y-102481866D01*
X147878742Y-102386628D01*
X147840647Y-102339009D01*
X147802552Y-102315200D01*
X147726361Y-102291390D01*
X147116838Y-102743771D02*
X147078742Y-102767580D01*
X147116838Y-102791390D01*
X147154933Y-102767580D01*
X147116838Y-102743771D01*
X147116838Y-102791390D01*
X146812076Y-102291390D02*
X146316838Y-102291390D01*
X146583504Y-102481866D01*
X146469219Y-102481866D01*
X146393028Y-102505676D01*
X146354933Y-102529485D01*
X146316838Y-102577104D01*
X146316838Y-102696152D01*
X146354933Y-102743771D01*
X146393028Y-102767580D01*
X146469219Y-102791390D01*
X146697790Y-102791390D01*
X146773980Y-102767580D01*
X146812076Y-102743771D01*
D11*
X139504742Y-107754742D02*
X139419028Y-107783314D01*
X139390457Y-107811885D01*
X139361885Y-107869028D01*
X139361885Y-107954742D01*
X139390457Y-108011885D01*
X139419028Y-108040457D01*
X139476171Y-108069028D01*
X139704742Y-108069028D01*
X139704742Y-107469028D01*
X139504742Y-107469028D01*
X139447600Y-107497600D01*
X139419028Y-107526171D01*
X139390457Y-107583314D01*
X139390457Y-107640457D01*
X139419028Y-107697600D01*
X139447600Y-107726171D01*
X139504742Y-107754742D01*
X139704742Y-107754742D01*
X134827942Y-108069028D02*
X134827942Y-107469028D01*
X134599371Y-107469028D01*
X134542228Y-107497600D01*
X134513657Y-107526171D01*
X134485085Y-107583314D01*
X134485085Y-107669028D01*
X134513657Y-107726171D01*
X134542228Y-107754742D01*
X134599371Y-107783314D01*
X134827942Y-107783314D01*
X137064742Y-109094628D02*
X136950457Y-109094628D01*
X136893314Y-109123200D01*
X136836171Y-109180342D01*
X136807600Y-109294628D01*
X136807600Y-109494628D01*
X136836171Y-109608914D01*
X136893314Y-109666057D01*
X136950457Y-109694628D01*
X137064742Y-109694628D01*
X137121885Y-109666057D01*
X137179028Y-109608914D01*
X137207600Y-109494628D01*
X137207600Y-109294628D01*
X137179028Y-109180342D01*
X137121885Y-109123200D01*
X137064742Y-109094628D01*
X141943142Y-107754742D02*
X141857428Y-107783314D01*
X141828857Y-107811885D01*
X141800285Y-107869028D01*
X141800285Y-107954742D01*
X141828857Y-108011885D01*
X141857428Y-108040457D01*
X141914571Y-108069028D01*
X142143142Y-108069028D01*
X142143142Y-107469028D01*
X141943142Y-107469028D01*
X141886000Y-107497600D01*
X141857428Y-107526171D01*
X141828857Y-107583314D01*
X141828857Y-107640457D01*
X141857428Y-107697600D01*
X141886000Y-107726171D01*
X141943142Y-107754742D01*
X142143142Y-107754742D01*
X147493028Y-100728028D02*
X147778742Y-100728028D01*
X147778742Y-100128028D01*
X147064457Y-100699457D02*
X147121600Y-100728028D01*
X147235885Y-100728028D01*
X147293028Y-100699457D01*
X147321600Y-100642314D01*
X147321600Y-100413742D01*
X147293028Y-100356600D01*
X147235885Y-100328028D01*
X147121600Y-100328028D01*
X147064457Y-100356600D01*
X147035885Y-100413742D01*
X147035885Y-100470885D01*
X147321600Y-100528028D01*
X148335885Y-101379742D02*
X148250171Y-101408314D01*
X148221600Y-101436885D01*
X148193028Y-101494028D01*
X148193028Y-101579742D01*
X148221600Y-101636885D01*
X148250171Y-101665457D01*
X148307314Y-101694028D01*
X148535885Y-101694028D01*
X148535885Y-101094028D01*
X148335885Y-101094028D01*
X148278742Y-101122600D01*
X148250171Y-101151171D01*
X148221600Y-101208314D01*
X148221600Y-101265457D01*
X148250171Y-101322600D01*
X148278742Y-101351171D01*
X148335885Y-101379742D01*
X148535885Y-101379742D01*
X147850171Y-101694028D02*
X147907314Y-101665457D01*
X147935885Y-101636885D01*
X147964457Y-101579742D01*
X147964457Y-101408314D01*
X147935885Y-101351171D01*
X147907314Y-101322600D01*
X147850171Y-101294028D01*
X147764457Y-101294028D01*
X147707314Y-101322600D01*
X147678742Y-101351171D01*
X147650171Y-101408314D01*
X147650171Y-101579742D01*
X147678742Y-101636885D01*
X147707314Y-101665457D01*
X147764457Y-101694028D01*
X147850171Y-101694028D01*
X147307314Y-101694028D02*
X147364457Y-101665457D01*
X147393028Y-101636885D01*
X147421600Y-101579742D01*
X147421600Y-101408314D01*
X147393028Y-101351171D01*
X147364457Y-101322600D01*
X147307314Y-101294028D01*
X147221600Y-101294028D01*
X147164457Y-101322600D01*
X147135885Y-101351171D01*
X147107314Y-101408314D01*
X147107314Y-101579742D01*
X147135885Y-101636885D01*
X147164457Y-101665457D01*
X147221600Y-101694028D01*
X147307314Y-101694028D01*
X146878742Y-101665457D02*
X146821600Y-101694028D01*
X146707314Y-101694028D01*
X146650171Y-101665457D01*
X146621600Y-101608314D01*
X146621600Y-101579742D01*
X146650171Y-101522600D01*
X146707314Y-101494028D01*
X146793028Y-101494028D01*
X146850171Y-101465457D01*
X146878742Y-101408314D01*
X146878742Y-101379742D01*
X146850171Y-101322600D01*
X146793028Y-101294028D01*
X146707314Y-101294028D01*
X146650171Y-101322600D01*
X146450171Y-101294028D02*
X146221600Y-101294028D01*
X146364457Y-101094028D02*
X146364457Y-101608314D01*
X146335885Y-101665457D01*
X146278742Y-101694028D01*
X146221600Y-101694028D01*
X139547600Y-109694628D02*
X139547600Y-109094628D01*
X137113942Y-108069028D02*
X137113942Y-107469028D01*
X136885371Y-107469028D01*
X136828228Y-107497600D01*
X136799657Y-107526171D01*
X136771085Y-107583314D01*
X136771085Y-107669028D01*
X136799657Y-107726171D01*
X136828228Y-107754742D01*
X136885371Y-107783314D01*
X137113942Y-107783314D01*
X142043142Y-109145428D02*
X141928857Y-109145428D01*
X141871714Y-109174000D01*
X141814571Y-109231142D01*
X141786000Y-109345428D01*
X141786000Y-109545428D01*
X141814571Y-109659714D01*
X141871714Y-109716857D01*
X141928857Y-109745428D01*
X142043142Y-109745428D01*
X142100285Y-109716857D01*
X142157428Y-109659714D01*
X142186000Y-109545428D01*
X142186000Y-109345428D01*
X142157428Y-109231142D01*
X142100285Y-109174000D01*
X142043142Y-109145428D01*
D12*
%TO.C,J1*%
X148637600Y-108737361D02*
X148656647Y-108775457D01*
X148656647Y-108832600D01*
X148637600Y-108889742D01*
X148599504Y-108927838D01*
X148561409Y-108946885D01*
X148485219Y-108965933D01*
X148428076Y-108965933D01*
X148351885Y-108946885D01*
X148313790Y-108927838D01*
X148275695Y-108889742D01*
X148256647Y-108832600D01*
X148256647Y-108794504D01*
X148275695Y-108737361D01*
X148294742Y-108718314D01*
X148428076Y-108718314D01*
X148428076Y-108794504D01*
X148256647Y-108546885D02*
X148656647Y-108546885D01*
X148256647Y-108318314D01*
X148656647Y-108318314D01*
X148256647Y-108127838D02*
X148656647Y-108127838D01*
X148656647Y-108032600D01*
X148637600Y-107975457D01*
X148599504Y-107937361D01*
X148561409Y-107918314D01*
X148485219Y-107899266D01*
X148428076Y-107899266D01*
X148351885Y-107918314D01*
X148313790Y-107937361D01*
X148275695Y-107975457D01*
X148256647Y-108032600D01*
X148256647Y-108127838D01*
X142865447Y-108737352D02*
X142465447Y-108604019D01*
X142865447Y-108470685D01*
X142617828Y-108337352D02*
X142617828Y-108032590D01*
X142465447Y-108184971D02*
X142770209Y-108184971D01*
D13*
%TO.C,C4*%
X141184285Y-105860866D02*
X141212857Y-105822771D01*
X141241428Y-105708485D01*
X141241428Y-105632295D01*
X141212857Y-105518009D01*
X141155714Y-105441819D01*
X141098571Y-105403723D01*
X140984285Y-105365628D01*
X140898571Y-105365628D01*
X140784285Y-105403723D01*
X140727142Y-105441819D01*
X140670000Y-105518009D01*
X140641428Y-105632295D01*
X140641428Y-105708485D01*
X140670000Y-105822771D01*
X140698571Y-105860866D01*
X140841428Y-106546580D02*
X141241428Y-106546580D01*
X140612857Y-106356104D02*
X141041428Y-106165628D01*
X141041428Y-106660866D01*
%TO.C,R5*%
X141241428Y-103879666D02*
X140955714Y-103613000D01*
X141241428Y-103422523D02*
X140641428Y-103422523D01*
X140641428Y-103727285D01*
X140670000Y-103803476D01*
X140698571Y-103841571D01*
X140755714Y-103879666D01*
X140841428Y-103879666D01*
X140898571Y-103841571D01*
X140927142Y-103803476D01*
X140955714Y-103727285D01*
X140955714Y-103422523D01*
X140641428Y-104603476D02*
X140641428Y-104222523D01*
X140927142Y-104184428D01*
X140898571Y-104222523D01*
X140870000Y-104298714D01*
X140870000Y-104489190D01*
X140898571Y-104565380D01*
X140927142Y-104603476D01*
X140984285Y-104641571D01*
X141127142Y-104641571D01*
X141184285Y-104603476D01*
X141212857Y-104565380D01*
X141241428Y-104489190D01*
X141241428Y-104298714D01*
X141212857Y-104222523D01*
X141184285Y-104184428D01*
%TO.C,R8*%
X134078628Y-103625666D02*
X133792914Y-103359000D01*
X134078628Y-103168523D02*
X133478628Y-103168523D01*
X133478628Y-103473285D01*
X133507200Y-103549476D01*
X133535771Y-103587571D01*
X133592914Y-103625666D01*
X133678628Y-103625666D01*
X133735771Y-103587571D01*
X133764342Y-103549476D01*
X133792914Y-103473285D01*
X133792914Y-103168523D01*
X133735771Y-104082809D02*
X133707200Y-104006619D01*
X133678628Y-103968523D01*
X133621485Y-103930428D01*
X133592914Y-103930428D01*
X133535771Y-103968523D01*
X133507200Y-104006619D01*
X133478628Y-104082809D01*
X133478628Y-104235190D01*
X133507200Y-104311380D01*
X133535771Y-104349476D01*
X133592914Y-104387571D01*
X133621485Y-104387571D01*
X133678628Y-104349476D01*
X133707200Y-104311380D01*
X133735771Y-104235190D01*
X133735771Y-104082809D01*
X133764342Y-104006619D01*
X133792914Y-103968523D01*
X133850057Y-103930428D01*
X133964342Y-103930428D01*
X134021485Y-103968523D01*
X134050057Y-104006619D01*
X134078628Y-104082809D01*
X134078628Y-104235190D01*
X134050057Y-104311380D01*
X134021485Y-104349476D01*
X133964342Y-104387571D01*
X133850057Y-104387571D01*
X133792914Y-104349476D01*
X133764342Y-104311380D01*
X133735771Y-104235190D01*
%TO.C,Q2*%
X137617190Y-103325571D02*
X137693380Y-103297000D01*
X137769571Y-103239857D01*
X137883857Y-103154142D01*
X137960047Y-103125571D01*
X138036238Y-103125571D01*
X137998142Y-103268428D02*
X138074333Y-103239857D01*
X138150523Y-103182714D01*
X138188619Y-103068428D01*
X138188619Y-102868428D01*
X138150523Y-102754142D01*
X138074333Y-102697000D01*
X137998142Y-102668428D01*
X137845761Y-102668428D01*
X137769571Y-102697000D01*
X137693380Y-102754142D01*
X137655285Y-102868428D01*
X137655285Y-103068428D01*
X137693380Y-103182714D01*
X137769571Y-103239857D01*
X137845761Y-103268428D01*
X137998142Y-103268428D01*
X137350523Y-102725571D02*
X137312428Y-102697000D01*
X137236238Y-102668428D01*
X137045761Y-102668428D01*
X136969571Y-102697000D01*
X136931476Y-102725571D01*
X136893380Y-102782714D01*
X136893380Y-102839857D01*
X136931476Y-102925571D01*
X137388619Y-103268428D01*
X136893380Y-103268428D01*
%TO.C,R7*%
X144621928Y-106038666D02*
X144336214Y-105772000D01*
X144621928Y-105581523D02*
X144021928Y-105581523D01*
X144021928Y-105886285D01*
X144050500Y-105962476D01*
X144079071Y-106000571D01*
X144136214Y-106038666D01*
X144221928Y-106038666D01*
X144279071Y-106000571D01*
X144307642Y-105962476D01*
X144336214Y-105886285D01*
X144336214Y-105581523D01*
X144021928Y-106305333D02*
X144021928Y-106838666D01*
X144621928Y-106495809D01*
%TO.C,C3*%
X137755285Y-105911666D02*
X137783857Y-105873571D01*
X137812428Y-105759285D01*
X137812428Y-105683095D01*
X137783857Y-105568809D01*
X137726714Y-105492619D01*
X137669571Y-105454523D01*
X137555285Y-105416428D01*
X137469571Y-105416428D01*
X137355285Y-105454523D01*
X137298142Y-105492619D01*
X137241000Y-105568809D01*
X137212428Y-105683095D01*
X137212428Y-105759285D01*
X137241000Y-105873571D01*
X137269571Y-105911666D01*
X137212428Y-106178333D02*
X137212428Y-106673571D01*
X137441000Y-106406904D01*
X137441000Y-106521190D01*
X137469571Y-106597380D01*
X137498142Y-106635476D01*
X137555285Y-106673571D01*
X137698142Y-106673571D01*
X137755285Y-106635476D01*
X137783857Y-106597380D01*
X137812428Y-106521190D01*
X137812428Y-106292619D01*
X137783857Y-106216428D01*
X137755285Y-106178333D01*
%TO.C,R6*%
X134002428Y-105632266D02*
X133716714Y-105365600D01*
X134002428Y-105175123D02*
X133402428Y-105175123D01*
X133402428Y-105479885D01*
X133431000Y-105556076D01*
X133459571Y-105594171D01*
X133516714Y-105632266D01*
X133602428Y-105632266D01*
X133659571Y-105594171D01*
X133688142Y-105556076D01*
X133716714Y-105479885D01*
X133716714Y-105175123D01*
X133402428Y-106317980D02*
X133402428Y-106165600D01*
X133431000Y-106089409D01*
X133459571Y-106051314D01*
X133545285Y-105975123D01*
X133659571Y-105937028D01*
X133888142Y-105937028D01*
X133945285Y-105975123D01*
X133973857Y-106013219D01*
X134002428Y-106089409D01*
X134002428Y-106241790D01*
X133973857Y-106317980D01*
X133945285Y-106356076D01*
X133888142Y-106394171D01*
X133745285Y-106394171D01*
X133688142Y-106356076D01*
X133659571Y-106317980D01*
X133631000Y-106241790D01*
X133631000Y-106089409D01*
X133659571Y-106013219D01*
X133688142Y-105975123D01*
X133745285Y-105937028D01*
D12*
%TO.C,J1*%
X148780500Y-107188000D02*
X142303500Y-107188000D01*
X142303500Y-109728000D02*
X148780500Y-109728000D01*
X142303500Y-109728000D02*
X142303500Y-107188000D01*
X143002000Y-109728000D02*
X143002000Y-107188000D01*
X148780500Y-107188000D02*
X148780500Y-109728000D01*
X148082000Y-109728000D02*
X148082000Y-107188000D01*
%TO.C,J2*%
X132080000Y-109855000D02*
X132080000Y-107315000D01*
X142240000Y-107315000D02*
X132080000Y-107315000D01*
X142240000Y-109855000D02*
X142240000Y-107315000D01*
D14*
%TO.C,C4*%
X141228578Y-105462000D02*
X140711422Y-105462000D01*
X141228578Y-106882000D02*
X140711422Y-106882000D01*
%TO.C,R5*%
X141228578Y-104850000D02*
X140711422Y-104850000D01*
X141228578Y-103430000D02*
X140711422Y-103430000D01*
%TO.C,R8*%
X134065778Y-104342000D02*
X133548622Y-104342000D01*
X134065778Y-102922000D02*
X133548622Y-102922000D01*
%TO.C,Q2*%
X135834000Y-102110000D02*
X135834000Y-103570000D01*
X138994000Y-102110000D02*
X138994000Y-104270000D01*
X138994000Y-102110000D02*
X138064000Y-102110000D01*
X135834000Y-102110000D02*
X136764000Y-102110000D01*
%TO.C,R7*%
X144609078Y-105589000D02*
X144091922Y-105589000D01*
X144609078Y-107009000D02*
X144091922Y-107009000D01*
%TO.C,C3*%
X137282422Y-105462000D02*
X137799578Y-105462000D01*
X137282422Y-106882000D02*
X137799578Y-106882000D01*
%TO.C,R6*%
X134116578Y-106374000D02*
X133599422Y-106374000D01*
X134116578Y-104954000D02*
X133599422Y-104954000D01*
%TD*%
%LPC*%
D15*
%TO.C,C1*%
X142494000Y-101854000D03*
D16*
X139994000Y-101854000D03*
%TD*%
D17*
%TO.C,J1*%
X144272000Y-108458000D03*
D18*
X146812000Y-108458000D03*
%TD*%
D17*
%TO.C,J2*%
X133350000Y-108585000D03*
D18*
X135890000Y-108585000D03*
X138430000Y-108585000D03*
X140970000Y-108585000D03*
%TD*%
D15*
%TO.C,C2*%
X147574000Y-104394000D03*
D16*
X145074000Y-104394000D03*
%TD*%
D19*
%TO.C,C4*%
X141907500Y-106172000D03*
X140032500Y-106172000D03*
%TD*%
%TO.C,R5*%
X141907500Y-104140000D03*
X140032500Y-104140000D03*
%TD*%
%TO.C,R8*%
X134744700Y-103632000D03*
X132869700Y-103632000D03*
%TD*%
D20*
%TO.C,Q2*%
X138364000Y-103870000D03*
X136464000Y-103870000D03*
X137414000Y-101870000D03*
%TD*%
D19*
%TO.C,R7*%
X145288000Y-106299000D03*
X143413000Y-106299000D03*
%TD*%
D21*
%TO.C,C3*%
X136603500Y-106172000D03*
X138478500Y-106172000D03*
%TD*%
D19*
%TO.C,R6*%
X134795500Y-105664000D03*
X132920500Y-105664000D03*
%TD*%
M02*
