%TF.GenerationSoftware,KiCad,Pcbnew,(5.99.0-2363-g9a801d8b7)*%
%TF.CreationDate,2020-07-21T21:49:42+03:00*%
%TF.ProjectId,le-pre-et-le-boost,6c652d70-7265-42d6-9574-2d6c652d626f,rev?*%
%TF.SameCoordinates,Original*%
%TF.FileFunction,Copper,L2,Bot*%
%TF.FilePolarity,Positive*%
%FSLAX46Y46*%
G04 Gerber Fmt 4.6, Leading zero omitted, Abs format (unit mm)*
G04 Created by KiCad (PCBNEW (5.99.0-2363-g9a801d8b7)) date 2020-07-21 21:49:42*
%MOMM*%
%LPD*%
G01*
G04 APERTURE LIST*
%TA.AperFunction,SMDPad,CuDef*%
%ADD10R,0.900000X0.800000*%
%TD*%
%TA.AperFunction,ComponentPad*%
%ADD11O,1.930400X1.930400*%
%TD*%
%TA.AperFunction,ComponentPad*%
%ADD12R,1.930400X1.930400*%
%TD*%
%TA.AperFunction,Conductor*%
%ADD13C,0.381000*%
%TD*%
%TA.AperFunction,Conductor*%
%ADD14C,0.254000*%
%TD*%
G04 APERTURE END LIST*
%TO.P,R8,2*%
%TO.N,GND*%
%TA.AperFunction,SMDPad,CuDef*%
G36*
G01*
X144214000Y-105104250D02*
X144214000Y-104191750D01*
G75*
G02*
X144457750Y-103948000I243750J0D01*
G01*
X144945250Y-103948000D01*
G75*
G02*
X145189000Y-104191750I0J-243750D01*
G01*
X145189000Y-105104250D01*
G75*
G02*
X144945250Y-105348000I-243750J0D01*
G01*
X144457750Y-105348000D01*
G75*
G02*
X144214000Y-105104250I0J243750D01*
G01*
G37*
%TD.AperFunction*%
%TO.P,R8,1*%
%TO.N,Net-(Q2-Pad2)*%
%TA.AperFunction,SMDPad,CuDef*%
G36*
G01*
X142339000Y-105104250D02*
X142339000Y-104191750D01*
G75*
G02*
X142582750Y-103948000I243750J0D01*
G01*
X143070250Y-103948000D01*
G75*
G02*
X143314000Y-104191750I0J-243750D01*
G01*
X143314000Y-105104250D01*
G75*
G02*
X143070250Y-105348000I-243750J0D01*
G01*
X142582750Y-105348000D01*
G75*
G02*
X142339000Y-105104250I0J243750D01*
G01*
G37*
%TD.AperFunction*%
%TD*%
%TO.P,R7,2*%
%TO.N,Net-(C4-Pad1)*%
%TA.AperFunction,SMDPad,CuDef*%
G36*
G01*
X139123000Y-107493750D02*
X139123000Y-108406250D01*
G75*
G02*
X138879250Y-108650000I-243750J0D01*
G01*
X138391750Y-108650000D01*
G75*
G02*
X138148000Y-108406250I0J243750D01*
G01*
X138148000Y-107493750D01*
G75*
G02*
X138391750Y-107250000I243750J0D01*
G01*
X138879250Y-107250000D01*
G75*
G02*
X139123000Y-107493750I0J-243750D01*
G01*
G37*
%TD.AperFunction*%
%TO.P,R7,1*%
%TO.N,+9V*%
%TA.AperFunction,SMDPad,CuDef*%
G36*
G01*
X140998000Y-107493750D02*
X140998000Y-108406250D01*
G75*
G02*
X140754250Y-108650000I-243750J0D01*
G01*
X140266750Y-108650000D01*
G75*
G02*
X140023000Y-108406250I0J243750D01*
G01*
X140023000Y-107493750D01*
G75*
G02*
X140266750Y-107250000I243750J0D01*
G01*
X140754250Y-107250000D01*
G75*
G02*
X140998000Y-107493750I0J-243750D01*
G01*
G37*
%TD.AperFunction*%
%TD*%
%TO.P,R6,2*%
%TO.N,GND*%
%TA.AperFunction,SMDPad,CuDef*%
G36*
G01*
X139123000Y-99873750D02*
X139123000Y-100786250D01*
G75*
G02*
X138879250Y-101030000I-243750J0D01*
G01*
X138391750Y-101030000D01*
G75*
G02*
X138148000Y-100786250I0J243750D01*
G01*
X138148000Y-99873750D01*
G75*
G02*
X138391750Y-99630000I243750J0D01*
G01*
X138879250Y-99630000D01*
G75*
G02*
X139123000Y-99873750I0J-243750D01*
G01*
G37*
%TD.AperFunction*%
%TO.P,R6,1*%
%TO.N,Net-(C3-Pad2)*%
%TA.AperFunction,SMDPad,CuDef*%
G36*
G01*
X140998000Y-99873750D02*
X140998000Y-100786250D01*
G75*
G02*
X140754250Y-101030000I-243750J0D01*
G01*
X140266750Y-101030000D01*
G75*
G02*
X140023000Y-100786250I0J243750D01*
G01*
X140023000Y-99873750D01*
G75*
G02*
X140266750Y-99630000I243750J0D01*
G01*
X140754250Y-99630000D01*
G75*
G02*
X140998000Y-99873750I0J-243750D01*
G01*
G37*
%TD.AperFunction*%
%TD*%
%TO.P,R5,2*%
%TO.N,Net-(C3-Pad2)*%
%TA.AperFunction,SMDPad,CuDef*%
G36*
G01*
X142806000Y-100127750D02*
X142806000Y-101040250D01*
G75*
G02*
X142562250Y-101284000I-243750J0D01*
G01*
X142074750Y-101284000D01*
G75*
G02*
X141831000Y-101040250I0J243750D01*
G01*
X141831000Y-100127750D01*
G75*
G02*
X142074750Y-99884000I243750J0D01*
G01*
X142562250Y-99884000D01*
G75*
G02*
X142806000Y-100127750I0J-243750D01*
G01*
G37*
%TD.AperFunction*%
%TO.P,R5,1*%
%TO.N,+9V*%
%TA.AperFunction,SMDPad,CuDef*%
G36*
G01*
X144681000Y-100127750D02*
X144681000Y-101040250D01*
G75*
G02*
X144437250Y-101284000I-243750J0D01*
G01*
X143949750Y-101284000D01*
G75*
G02*
X143706000Y-101040250I0J243750D01*
G01*
X143706000Y-100127750D01*
G75*
G02*
X143949750Y-99884000I243750J0D01*
G01*
X144437250Y-99884000D01*
G75*
G02*
X144681000Y-100127750I0J-243750D01*
G01*
G37*
%TD.AperFunction*%
%TD*%
D10*
%TO.P,Q2,3,C*%
%TO.N,Net-(C4-Pad1)*%
X138573000Y-105156000D03*
%TO.P,Q2,2,E*%
%TO.N,Net-(Q2-Pad2)*%
X140573000Y-106106000D03*
%TO.P,Q2,1,B*%
%TO.N,Net-(C3-Pad2)*%
X140573000Y-104206000D03*
%TD*%
%TO.P,C4,2*%
%TO.N,OUT*%
%TA.AperFunction,SMDPad,CuDef*%
G36*
G01*
X144214000Y-103072250D02*
X144214000Y-102159750D01*
G75*
G02*
X144457750Y-101916000I243750J0D01*
G01*
X144945250Y-101916000D01*
G75*
G02*
X145189000Y-102159750I0J-243750D01*
G01*
X145189000Y-103072250D01*
G75*
G02*
X144945250Y-103316000I-243750J0D01*
G01*
X144457750Y-103316000D01*
G75*
G02*
X144214000Y-103072250I0J243750D01*
G01*
G37*
%TD.AperFunction*%
%TO.P,C4,1*%
%TO.N,Net-(C4-Pad1)*%
%TA.AperFunction,SMDPad,CuDef*%
G36*
G01*
X142339000Y-103072250D02*
X142339000Y-102159750D01*
G75*
G02*
X142582750Y-101916000I243750J0D01*
G01*
X143070250Y-101916000D01*
G75*
G02*
X143314000Y-102159750I0J-243750D01*
G01*
X143314000Y-103072250D01*
G75*
G02*
X143070250Y-103316000I-243750J0D01*
G01*
X142582750Y-103316000D01*
G75*
G02*
X142339000Y-103072250I0J243750D01*
G01*
G37*
%TD.AperFunction*%
%TD*%
%TO.P,C3,2*%
%TO.N,Net-(C3-Pad2)*%
%TA.AperFunction,SMDPad,CuDef*%
G36*
G01*
X140023000Y-102818250D02*
X140023000Y-101905750D01*
G75*
G02*
X140266750Y-101662000I243750J0D01*
G01*
X140754250Y-101662000D01*
G75*
G02*
X140998000Y-101905750I0J-243750D01*
G01*
X140998000Y-102818250D01*
G75*
G02*
X140754250Y-103062000I-243750J0D01*
G01*
X140266750Y-103062000D01*
G75*
G02*
X140023000Y-102818250I0J243750D01*
G01*
G37*
%TD.AperFunction*%
%TO.P,C3,1*%
%TO.N,IN*%
%TA.AperFunction,SMDPad,CuDef*%
G36*
G01*
X138148000Y-102818250D02*
X138148000Y-101905750D01*
G75*
G02*
X138391750Y-101662000I243750J0D01*
G01*
X138879250Y-101662000D01*
G75*
G02*
X139123000Y-101905750I0J-243750D01*
G01*
X139123000Y-102818250D01*
G75*
G02*
X138879250Y-103062000I-243750J0D01*
G01*
X138391750Y-103062000D01*
G75*
G02*
X138148000Y-102818250I0J243750D01*
G01*
G37*
%TD.AperFunction*%
%TD*%
D11*
%TO.P,J1,2*%
%TO.N,GND*%
X146558000Y-106934000D03*
D12*
%TO.P,J1,1*%
%TO.N,+9V*%
X144018000Y-106934000D03*
%TD*%
%TO.P,J3,T*%
%TO.N,OUT*%
X146812000Y-101854000D03*
D11*
%TO.P,J3,S*%
%TO.N,GND*%
X146812000Y-104394000D03*
%TD*%
D12*
%TO.P,J2,T*%
%TO.N,IN*%
X136398000Y-101854000D03*
D11*
%TO.P,J2,S*%
%TO.N,GND*%
X136398000Y-104394000D03*
%TD*%
D13*
%TO.N,Net-(C3-Pad2)*%
X140510500Y-100330000D02*
X142064500Y-100330000D01*
X142064500Y-100330000D02*
X142318500Y-100584000D01*
X140510500Y-102362000D02*
X140510500Y-100330000D01*
X140573000Y-104206000D02*
X140573000Y-102424500D01*
X140573000Y-102424500D02*
X140510500Y-102362000D01*
%TO.N,Net-(C4-Pad1)*%
X141224000Y-105156000D02*
X141732000Y-104648000D01*
X138573000Y-105156000D02*
X141224000Y-105156000D01*
X141732000Y-104648000D02*
X141732000Y-103710500D01*
X141732000Y-103710500D02*
X142826500Y-102616000D01*
%TO.N,GND*%
X138635500Y-100330000D02*
X139573000Y-101267500D01*
X139573000Y-101267500D02*
X139573000Y-101727000D01*
X144701500Y-104648000D02*
X146558000Y-104648000D01*
X146558000Y-104648000D02*
X146812000Y-104394000D01*
%TO.N,Net-(Q2-Pad2)*%
X140573000Y-106106000D02*
X141368500Y-106106000D01*
X141368500Y-106106000D02*
X142826500Y-104648000D01*
%TO.N,+9V*%
X140510500Y-107950000D02*
X141526500Y-106934000D01*
X141526500Y-106934000D02*
X144018000Y-106934000D01*
%TO.N,Net-(C4-Pad1)*%
X138635500Y-107950000D02*
X138635500Y-105218500D01*
X138635500Y-105218500D02*
X138573000Y-105156000D01*
%TO.N,IN*%
X136398000Y-101854000D02*
X138127500Y-101854000D01*
X138127500Y-101854000D02*
X138635500Y-102362000D01*
%TO.N,+9V*%
X144018000Y-106934000D02*
X143823490Y-106739490D01*
X143823490Y-106739490D02*
X143823490Y-100954010D01*
X143823490Y-100954010D02*
X144193500Y-100584000D01*
%TO.N,OUT*%
X144701500Y-102616000D02*
X146050000Y-102616000D01*
X146050000Y-102616000D02*
X146812000Y-101854000D01*
%TD*%
%TO.N,GND*%
D14*
X148458732Y-108580732D02*
X141360230Y-108580732D01*
X141380959Y-108463171D01*
X141381918Y-108452210D01*
X141381918Y-107888218D01*
X141763637Y-107506500D01*
X142667824Y-107506500D01*
X142667824Y-107905390D01*
X142669037Y-107917710D01*
X142692379Y-108035058D01*
X142701877Y-108057989D01*
X142771805Y-108162644D01*
X142789356Y-108180195D01*
X142894011Y-108250123D01*
X142916942Y-108259621D01*
X143034290Y-108282963D01*
X143046610Y-108284176D01*
X144989390Y-108284176D01*
X145001710Y-108282963D01*
X145119058Y-108259621D01*
X145141989Y-108250123D01*
X145246644Y-108180195D01*
X145264195Y-108162644D01*
X145334123Y-108057989D01*
X145343621Y-108035058D01*
X145352255Y-107991650D01*
X145529280Y-108165004D01*
X145537237Y-108171610D01*
X145744148Y-108316492D01*
X145753077Y-108321710D01*
X145980873Y-108430851D01*
X145990535Y-108434540D01*
X146233098Y-108505012D01*
X146243232Y-108507073D01*
X146345309Y-108519246D01*
X146430000Y-108444054D01*
X146430000Y-107135809D01*
X146686000Y-107135809D01*
X146686000Y-108446301D01*
X146779412Y-108521944D01*
X147014045Y-108472070D01*
X147023950Y-108469099D01*
X147259128Y-108376933D01*
X147268415Y-108372384D01*
X147485382Y-108243046D01*
X147493801Y-108237041D01*
X147686730Y-108074003D01*
X147694055Y-108066703D01*
X147857766Y-107874344D01*
X147863801Y-107865946D01*
X147993895Y-107649431D01*
X147998477Y-107640161D01*
X148091463Y-107405306D01*
X148094470Y-107395411D01*
X148146285Y-107155753D01*
X148070636Y-107062000D01*
X146759809Y-107062000D01*
X146686000Y-107135809D01*
X146430000Y-107135809D01*
X146430000Y-105546800D01*
X146686000Y-105546800D01*
X146686000Y-106732191D01*
X146759809Y-106806000D01*
X148067634Y-106806000D01*
X148143119Y-106716991D01*
X148115174Y-106548196D01*
X148112655Y-106538166D01*
X148031253Y-106299050D01*
X148027130Y-106289566D01*
X147907767Y-106066955D01*
X147902149Y-106058271D01*
X147748031Y-105858146D01*
X147741072Y-105850497D01*
X147643954Y-105759933D01*
X147739382Y-105703046D01*
X147747801Y-105697041D01*
X147940730Y-105534003D01*
X147948055Y-105526703D01*
X148111766Y-105334344D01*
X148117801Y-105325946D01*
X148247895Y-105109431D01*
X148252477Y-105100161D01*
X148345463Y-104865306D01*
X148348470Y-104855411D01*
X148400285Y-104615753D01*
X148324636Y-104522000D01*
X147013808Y-104521999D01*
X147013807Y-104522000D01*
X145424800Y-104521999D01*
X145424800Y-104266000D01*
X146610192Y-104266001D01*
X146610193Y-104266000D01*
X148321634Y-104266001D01*
X148397119Y-104176992D01*
X148369175Y-104008196D01*
X148366655Y-103998166D01*
X148285253Y-103759050D01*
X148281130Y-103749566D01*
X148161767Y-103526955D01*
X148156149Y-103518271D01*
X148002031Y-103318146D01*
X147995072Y-103310497D01*
X147864980Y-103189184D01*
X147913058Y-103179621D01*
X147935989Y-103170123D01*
X148040644Y-103100195D01*
X148058195Y-103082644D01*
X148128123Y-102977989D01*
X148137621Y-102955058D01*
X148160963Y-102837710D01*
X148162176Y-102825390D01*
X148162176Y-100882610D01*
X148160963Y-100870290D01*
X148137621Y-100752942D01*
X148128123Y-100730011D01*
X148058195Y-100625356D01*
X148040644Y-100607805D01*
X147935989Y-100537877D01*
X147913058Y-100528379D01*
X147795710Y-100505037D01*
X147783390Y-100503824D01*
X145840610Y-100503824D01*
X145828290Y-100505037D01*
X145710942Y-100528379D01*
X145688011Y-100537877D01*
X145583356Y-100607805D01*
X145565805Y-100625356D01*
X145495877Y-100730011D01*
X145486379Y-100752942D01*
X145463037Y-100870290D01*
X145461824Y-100882610D01*
X145461824Y-101801293D01*
X145360820Y-101680921D01*
X145343931Y-101666750D01*
X145170477Y-101566605D01*
X145149759Y-101559064D01*
X145002171Y-101533041D01*
X144991210Y-101532082D01*
X144825193Y-101532082D01*
X144916079Y-101455820D01*
X144930250Y-101438931D01*
X145030395Y-101265477D01*
X145037936Y-101244759D01*
X145063959Y-101097171D01*
X145064918Y-101086210D01*
X145064918Y-100094154D01*
X145062762Y-100077778D01*
X144996091Y-99828958D01*
X144983347Y-99804477D01*
X144895066Y-99699268D01*
X148458732Y-99699268D01*
X148458732Y-108580732D01*
%TA.AperFunction,Conductor*%
G36*
X148458732Y-108580732D02*
G01*
X141360230Y-108580732D01*
X141380959Y-108463171D01*
X141381918Y-108452210D01*
X141381918Y-107888218D01*
X141763637Y-107506500D01*
X142667824Y-107506500D01*
X142667824Y-107905390D01*
X142669037Y-107917710D01*
X142692379Y-108035058D01*
X142701877Y-108057989D01*
X142771805Y-108162644D01*
X142789356Y-108180195D01*
X142894011Y-108250123D01*
X142916942Y-108259621D01*
X143034290Y-108282963D01*
X143046610Y-108284176D01*
X144989390Y-108284176D01*
X145001710Y-108282963D01*
X145119058Y-108259621D01*
X145141989Y-108250123D01*
X145246644Y-108180195D01*
X145264195Y-108162644D01*
X145334123Y-108057989D01*
X145343621Y-108035058D01*
X145352255Y-107991650D01*
X145529280Y-108165004D01*
X145537237Y-108171610D01*
X145744148Y-108316492D01*
X145753077Y-108321710D01*
X145980873Y-108430851D01*
X145990535Y-108434540D01*
X146233098Y-108505012D01*
X146243232Y-108507073D01*
X146345309Y-108519246D01*
X146430000Y-108444054D01*
X146430000Y-107135809D01*
X146686000Y-107135809D01*
X146686000Y-108446301D01*
X146779412Y-108521944D01*
X147014045Y-108472070D01*
X147023950Y-108469099D01*
X147259128Y-108376933D01*
X147268415Y-108372384D01*
X147485382Y-108243046D01*
X147493801Y-108237041D01*
X147686730Y-108074003D01*
X147694055Y-108066703D01*
X147857766Y-107874344D01*
X147863801Y-107865946D01*
X147993895Y-107649431D01*
X147998477Y-107640161D01*
X148091463Y-107405306D01*
X148094470Y-107395411D01*
X148146285Y-107155753D01*
X148070636Y-107062000D01*
X146759809Y-107062000D01*
X146686000Y-107135809D01*
X146430000Y-107135809D01*
X146430000Y-105546800D01*
X146686000Y-105546800D01*
X146686000Y-106732191D01*
X146759809Y-106806000D01*
X148067634Y-106806000D01*
X148143119Y-106716991D01*
X148115174Y-106548196D01*
X148112655Y-106538166D01*
X148031253Y-106299050D01*
X148027130Y-106289566D01*
X147907767Y-106066955D01*
X147902149Y-106058271D01*
X147748031Y-105858146D01*
X147741072Y-105850497D01*
X147643954Y-105759933D01*
X147739382Y-105703046D01*
X147747801Y-105697041D01*
X147940730Y-105534003D01*
X147948055Y-105526703D01*
X148111766Y-105334344D01*
X148117801Y-105325946D01*
X148247895Y-105109431D01*
X148252477Y-105100161D01*
X148345463Y-104865306D01*
X148348470Y-104855411D01*
X148400285Y-104615753D01*
X148324636Y-104522000D01*
X147013808Y-104521999D01*
X147013807Y-104522000D01*
X145424800Y-104521999D01*
X145424800Y-104266000D01*
X146610192Y-104266001D01*
X146610193Y-104266000D01*
X148321634Y-104266001D01*
X148397119Y-104176992D01*
X148369175Y-104008196D01*
X148366655Y-103998166D01*
X148285253Y-103759050D01*
X148281130Y-103749566D01*
X148161767Y-103526955D01*
X148156149Y-103518271D01*
X148002031Y-103318146D01*
X147995072Y-103310497D01*
X147864980Y-103189184D01*
X147913058Y-103179621D01*
X147935989Y-103170123D01*
X148040644Y-103100195D01*
X148058195Y-103082644D01*
X148128123Y-102977989D01*
X148137621Y-102955058D01*
X148160963Y-102837710D01*
X148162176Y-102825390D01*
X148162176Y-100882610D01*
X148160963Y-100870290D01*
X148137621Y-100752942D01*
X148128123Y-100730011D01*
X148058195Y-100625356D01*
X148040644Y-100607805D01*
X147935989Y-100537877D01*
X147913058Y-100528379D01*
X147795710Y-100505037D01*
X147783390Y-100503824D01*
X145840610Y-100503824D01*
X145828290Y-100505037D01*
X145710942Y-100528379D01*
X145688011Y-100537877D01*
X145583356Y-100607805D01*
X145565805Y-100625356D01*
X145495877Y-100730011D01*
X145486379Y-100752942D01*
X145463037Y-100870290D01*
X145461824Y-100882610D01*
X145461824Y-101801293D01*
X145360820Y-101680921D01*
X145343931Y-101666750D01*
X145170477Y-101566605D01*
X145149759Y-101559064D01*
X145002171Y-101533041D01*
X144991210Y-101532082D01*
X144825193Y-101532082D01*
X144916079Y-101455820D01*
X144930250Y-101438931D01*
X145030395Y-101265477D01*
X145037936Y-101244759D01*
X145063959Y-101097171D01*
X145064918Y-101086210D01*
X145064918Y-100094154D01*
X145062762Y-100077778D01*
X144996091Y-99828958D01*
X144983347Y-99804477D01*
X144895066Y-99699268D01*
X148458732Y-99699268D01*
X148458732Y-108580732D01*
G37*
%TD.AperFunction*%
X139720653Y-101109523D02*
X139851180Y-101265079D01*
X139868069Y-101279250D01*
X139938001Y-101319625D01*
X139938000Y-101364248D01*
X139787921Y-101490180D01*
X139773750Y-101507069D01*
X139673605Y-101680523D01*
X139666064Y-101701241D01*
X139640041Y-101848829D01*
X139639082Y-101859790D01*
X139639082Y-102851846D01*
X139641238Y-102868222D01*
X139707909Y-103117042D01*
X139720653Y-103141523D01*
X139851180Y-103297079D01*
X139868069Y-103311250D01*
X140000501Y-103387710D01*
X140000500Y-103442922D01*
X139987142Y-103445579D01*
X139964211Y-103455077D01*
X139859556Y-103525005D01*
X139842005Y-103542556D01*
X139772077Y-103647211D01*
X139762579Y-103670142D01*
X139739237Y-103787490D01*
X139738024Y-103799810D01*
X139738024Y-104583500D01*
X139364762Y-104583500D01*
X139303995Y-104492556D01*
X139286444Y-104475005D01*
X139181789Y-104405077D01*
X139158858Y-104395579D01*
X139041510Y-104372237D01*
X139029190Y-104371024D01*
X138116810Y-104371024D01*
X138104490Y-104372237D01*
X137987142Y-104395579D01*
X137964211Y-104405077D01*
X137859556Y-104475005D01*
X137842005Y-104492556D01*
X137822331Y-104522000D01*
X136599809Y-104521999D01*
X136526000Y-104595808D01*
X136525999Y-105906301D01*
X136619410Y-105981944D01*
X136854045Y-105932070D01*
X136863950Y-105929099D01*
X137099128Y-105836933D01*
X137108415Y-105832384D01*
X137325382Y-105703046D01*
X137333801Y-105697041D01*
X137526730Y-105534003D01*
X137534055Y-105526703D01*
X137697766Y-105334344D01*
X137703801Y-105325946D01*
X137738024Y-105268989D01*
X137738024Y-105562190D01*
X137739237Y-105574510D01*
X137762579Y-105691858D01*
X137772077Y-105714789D01*
X137842005Y-105819444D01*
X137859556Y-105836995D01*
X137964211Y-105906923D01*
X137987142Y-105916421D01*
X138063001Y-105931510D01*
X138063000Y-106952249D01*
X137912921Y-107078180D01*
X137898750Y-107095069D01*
X137798605Y-107268523D01*
X137791064Y-107289241D01*
X137765041Y-107436829D01*
X137764082Y-107447790D01*
X137764082Y-108439846D01*
X137766238Y-108456222D01*
X137799600Y-108580732D01*
X135386268Y-108580732D01*
X135386268Y-105637934D01*
X135584148Y-105776492D01*
X135593077Y-105781710D01*
X135820873Y-105890851D01*
X135830535Y-105894540D01*
X136073098Y-105965012D01*
X136083232Y-105967073D01*
X136185309Y-105979246D01*
X136270000Y-105904054D01*
X136270001Y-104595808D01*
X136270000Y-104595807D01*
X136270001Y-104266000D01*
X137907634Y-104266001D01*
X137983119Y-104176992D01*
X137955175Y-104008196D01*
X137952655Y-103998166D01*
X137871253Y-103759050D01*
X137867130Y-103749566D01*
X137747767Y-103526955D01*
X137742149Y-103518271D01*
X137588031Y-103318146D01*
X137581072Y-103310497D01*
X137450980Y-103189184D01*
X137499058Y-103179621D01*
X137521989Y-103170123D01*
X137626644Y-103100195D01*
X137644195Y-103082644D01*
X137714123Y-102977989D01*
X137723621Y-102955058D01*
X137746963Y-102837710D01*
X137748176Y-102825390D01*
X137748176Y-102426500D01*
X137764082Y-102426500D01*
X137764082Y-102851846D01*
X137766238Y-102868222D01*
X137832909Y-103117042D01*
X137845653Y-103141523D01*
X137976180Y-103297079D01*
X137993069Y-103311250D01*
X138166523Y-103411395D01*
X138187241Y-103418936D01*
X138334829Y-103444959D01*
X138345790Y-103445918D01*
X138912846Y-103445918D01*
X138929222Y-103443762D01*
X139178042Y-103377091D01*
X139202523Y-103364347D01*
X139358079Y-103233820D01*
X139372250Y-103216931D01*
X139472395Y-103043477D01*
X139479936Y-103022759D01*
X139505959Y-102875171D01*
X139506918Y-102864210D01*
X139506918Y-101872154D01*
X139504762Y-101855778D01*
X139438091Y-101606958D01*
X139425347Y-101582477D01*
X139371527Y-101518337D01*
X139454913Y-101464748D01*
X139468534Y-101452945D01*
X139623355Y-101274274D01*
X139633099Y-101259111D01*
X139710404Y-101089835D01*
X139720653Y-101109523D01*
%TA.AperFunction,Conductor*%
G36*
X139720653Y-101109523D02*
G01*
X139851180Y-101265079D01*
X139868069Y-101279250D01*
X139938001Y-101319625D01*
X139938000Y-101364248D01*
X139787921Y-101490180D01*
X139773750Y-101507069D01*
X139673605Y-101680523D01*
X139666064Y-101701241D01*
X139640041Y-101848829D01*
X139639082Y-101859790D01*
X139639082Y-102851846D01*
X139641238Y-102868222D01*
X139707909Y-103117042D01*
X139720653Y-103141523D01*
X139851180Y-103297079D01*
X139868069Y-103311250D01*
X140000501Y-103387710D01*
X140000500Y-103442922D01*
X139987142Y-103445579D01*
X139964211Y-103455077D01*
X139859556Y-103525005D01*
X139842005Y-103542556D01*
X139772077Y-103647211D01*
X139762579Y-103670142D01*
X139739237Y-103787490D01*
X139738024Y-103799810D01*
X139738024Y-104583500D01*
X139364762Y-104583500D01*
X139303995Y-104492556D01*
X139286444Y-104475005D01*
X139181789Y-104405077D01*
X139158858Y-104395579D01*
X139041510Y-104372237D01*
X139029190Y-104371024D01*
X138116810Y-104371024D01*
X138104490Y-104372237D01*
X137987142Y-104395579D01*
X137964211Y-104405077D01*
X137859556Y-104475005D01*
X137842005Y-104492556D01*
X137822331Y-104522000D01*
X136599809Y-104521999D01*
X136526000Y-104595808D01*
X136525999Y-105906301D01*
X136619410Y-105981944D01*
X136854045Y-105932070D01*
X136863950Y-105929099D01*
X137099128Y-105836933D01*
X137108415Y-105832384D01*
X137325382Y-105703046D01*
X137333801Y-105697041D01*
X137526730Y-105534003D01*
X137534055Y-105526703D01*
X137697766Y-105334344D01*
X137703801Y-105325946D01*
X137738024Y-105268989D01*
X137738024Y-105562190D01*
X137739237Y-105574510D01*
X137762579Y-105691858D01*
X137772077Y-105714789D01*
X137842005Y-105819444D01*
X137859556Y-105836995D01*
X137964211Y-105906923D01*
X137987142Y-105916421D01*
X138063001Y-105931510D01*
X138063000Y-106952249D01*
X137912921Y-107078180D01*
X137898750Y-107095069D01*
X137798605Y-107268523D01*
X137791064Y-107289241D01*
X137765041Y-107436829D01*
X137764082Y-107447790D01*
X137764082Y-108439846D01*
X137766238Y-108456222D01*
X137799600Y-108580732D01*
X135386268Y-108580732D01*
X135386268Y-105637934D01*
X135584148Y-105776492D01*
X135593077Y-105781710D01*
X135820873Y-105890851D01*
X135830535Y-105894540D01*
X136073098Y-105965012D01*
X136083232Y-105967073D01*
X136185309Y-105979246D01*
X136270000Y-105904054D01*
X136270001Y-104595808D01*
X136270000Y-104595807D01*
X136270001Y-104266000D01*
X137907634Y-104266001D01*
X137983119Y-104176992D01*
X137955175Y-104008196D01*
X137952655Y-103998166D01*
X137871253Y-103759050D01*
X137867130Y-103749566D01*
X137747767Y-103526955D01*
X137742149Y-103518271D01*
X137588031Y-103318146D01*
X137581072Y-103310497D01*
X137450980Y-103189184D01*
X137499058Y-103179621D01*
X137521989Y-103170123D01*
X137626644Y-103100195D01*
X137644195Y-103082644D01*
X137714123Y-102977989D01*
X137723621Y-102955058D01*
X137746963Y-102837710D01*
X137748176Y-102825390D01*
X137748176Y-102426500D01*
X137764082Y-102426500D01*
X137764082Y-102851846D01*
X137766238Y-102868222D01*
X137832909Y-103117042D01*
X137845653Y-103141523D01*
X137976180Y-103297079D01*
X137993069Y-103311250D01*
X138166523Y-103411395D01*
X138187241Y-103418936D01*
X138334829Y-103444959D01*
X138345790Y-103445918D01*
X138912846Y-103445918D01*
X138929222Y-103443762D01*
X139178042Y-103377091D01*
X139202523Y-103364347D01*
X139358079Y-103233820D01*
X139372250Y-103216931D01*
X139472395Y-103043477D01*
X139479936Y-103022759D01*
X139505959Y-102875171D01*
X139506918Y-102864210D01*
X139506918Y-101872154D01*
X139504762Y-101855778D01*
X139438091Y-101606958D01*
X139425347Y-101582477D01*
X139371527Y-101518337D01*
X139454913Y-101464748D01*
X139468534Y-101452945D01*
X139623355Y-101274274D01*
X139633099Y-101259111D01*
X139710404Y-101089835D01*
X139720653Y-101109523D01*
G37*
%TD.AperFunction*%
X137509418Y-99808466D02*
X137508776Y-99817444D01*
X137508776Y-100128191D01*
X137582585Y-100202000D01*
X138763500Y-100202001D01*
X138763499Y-100458000D01*
X137582585Y-100457999D01*
X137508776Y-100531808D01*
X137508776Y-100532404D01*
X137499058Y-100528379D01*
X137381710Y-100505037D01*
X137369390Y-100503824D01*
X135426610Y-100503824D01*
X135414290Y-100505037D01*
X135386268Y-100510611D01*
X135386268Y-99699268D01*
X137525119Y-99699268D01*
X137509418Y-99808466D01*
%TA.AperFunction,Conductor*%
G36*
X137509418Y-99808466D02*
G01*
X137508776Y-99817444D01*
X137508776Y-100128191D01*
X137582585Y-100202000D01*
X138763500Y-100202001D01*
X138763499Y-100458000D01*
X137582585Y-100457999D01*
X137508776Y-100531808D01*
X137508776Y-100532404D01*
X137499058Y-100528379D01*
X137381710Y-100505037D01*
X137369390Y-100503824D01*
X135426610Y-100503824D01*
X135414290Y-100505037D01*
X135386268Y-100510611D01*
X135386268Y-99699268D01*
X137525119Y-99699268D01*
X137509418Y-99808466D01*
G37*
%TD.AperFunction*%
%TD*%
M02*
