%TF.GenerationSoftware,KiCad,Pcbnew,(5.99.0-3084-g8945f8865-dirty)*%
%TF.CreationDate,2020-08-31T12:16:30+03:00*%
%TF.ProjectId,le-pre-et-le-boost,6c652d70-7265-42d6-9574-2d6c652d626f,rev?*%
%TF.SameCoordinates,Original*%
%TF.FileFunction,Soldermask,Bot*%
%TF.FilePolarity,Negative*%
%FSLAX46Y46*%
G04 Gerber Fmt 4.6, Leading zero omitted, Abs format (unit mm)*
G04 Created by KiCad (PCBNEW (5.99.0-3084-g8945f8865-dirty)) date 2020-08-31 12:16:30*
%MOMM*%
%LPD*%
G01*
G04 APERTURE LIST*
%ADD10R,1.700000X1.700000*%
%ADD11O,1.930400X1.930400*%
%ADD12R,1.930400X1.930400*%
%ADD13C,1.600000*%
%ADD14R,1.600000X1.600000*%
%ADD15R,0.800000X0.900000*%
G04 APERTURE END LIST*
D10*
%TO.C,J3*%
X147574000Y-100507800D03*
%TD*%
%TO.C,J2*%
X136144000Y-100584000D03*
%TD*%
D11*
%TO.C,J1*%
X146812000Y-108458000D03*
D12*
X144272000Y-108458000D03*
%TD*%
D13*
%TO.C,C2*%
X147534000Y-104394000D03*
D14*
X145034000Y-104394000D03*
%TD*%
D13*
%TO.C,C1*%
X142479400Y-101828600D03*
D14*
X139979400Y-101828600D03*
%TD*%
%TO.C,R8*%
G36*
G01*
X139624750Y-108400000D02*
X140537250Y-108400000D01*
G75*
G02*
X140781000Y-108643750I0J-243750D01*
G01*
X140781000Y-109131250D01*
G75*
G02*
X140537250Y-109375000I-243750J0D01*
G01*
X139624750Y-109375000D01*
G75*
G02*
X139381000Y-109131250I0J243750D01*
G01*
X139381000Y-108643750D01*
G75*
G02*
X139624750Y-108400000I243750J0D01*
G01*
G37*
G36*
G01*
X139624750Y-106525000D02*
X140537250Y-106525000D01*
G75*
G02*
X140781000Y-106768750I0J-243750D01*
G01*
X140781000Y-107256250D01*
G75*
G02*
X140537250Y-107500000I-243750J0D01*
G01*
X139624750Y-107500000D01*
G75*
G02*
X139381000Y-107256250I0J243750D01*
G01*
X139381000Y-106768750D01*
G75*
G02*
X139624750Y-106525000I243750J0D01*
G01*
G37*
%TD*%
%TO.C,R7*%
G36*
G01*
X143900500Y-105842750D02*
X143900500Y-106755250D01*
G75*
G02*
X143656750Y-106999000I-243750J0D01*
G01*
X143169250Y-106999000D01*
G75*
G02*
X142925500Y-106755250I0J243750D01*
G01*
X142925500Y-105842750D01*
G75*
G02*
X143169250Y-105599000I243750J0D01*
G01*
X143656750Y-105599000D01*
G75*
G02*
X143900500Y-105842750I0J-243750D01*
G01*
G37*
G36*
G01*
X145775500Y-105842750D02*
X145775500Y-106755250D01*
G75*
G02*
X145531750Y-106999000I-243750J0D01*
G01*
X145044250Y-106999000D01*
G75*
G02*
X144800500Y-106755250I0J243750D01*
G01*
X144800500Y-105842750D01*
G75*
G02*
X145044250Y-105599000I243750J0D01*
G01*
X145531750Y-105599000D01*
G75*
G02*
X145775500Y-105842750I0J-243750D01*
G01*
G37*
%TD*%
%TO.C,R6*%
G36*
G01*
X137229000Y-109041250D02*
X137229000Y-108128750D01*
G75*
G02*
X137472750Y-107885000I243750J0D01*
G01*
X137960250Y-107885000D01*
G75*
G02*
X138204000Y-108128750I0J-243750D01*
G01*
X138204000Y-109041250D01*
G75*
G02*
X137960250Y-109285000I-243750J0D01*
G01*
X137472750Y-109285000D01*
G75*
G02*
X137229000Y-109041250I0J243750D01*
G01*
G37*
G36*
G01*
X135354000Y-109041250D02*
X135354000Y-108128750D01*
G75*
G02*
X135597750Y-107885000I243750J0D01*
G01*
X136085250Y-107885000D01*
G75*
G02*
X136329000Y-108128750I0J-243750D01*
G01*
X136329000Y-109041250D01*
G75*
G02*
X136085250Y-109285000I-243750J0D01*
G01*
X135597750Y-109285000D01*
G75*
G02*
X135354000Y-109041250I0J243750D01*
G01*
G37*
%TD*%
%TO.C,R5*%
G36*
G01*
X136456000Y-105080750D02*
X136456000Y-105993250D01*
G75*
G02*
X136212250Y-106237000I-243750J0D01*
G01*
X135724750Y-106237000D01*
G75*
G02*
X135481000Y-105993250I0J243750D01*
G01*
X135481000Y-105080750D01*
G75*
G02*
X135724750Y-104837000I243750J0D01*
G01*
X136212250Y-104837000D01*
G75*
G02*
X136456000Y-105080750I0J-243750D01*
G01*
G37*
G36*
G01*
X138331000Y-105080750D02*
X138331000Y-105993250D01*
G75*
G02*
X138087250Y-106237000I-243750J0D01*
G01*
X137599750Y-106237000D01*
G75*
G02*
X137356000Y-105993250I0J243750D01*
G01*
X137356000Y-105080750D01*
G75*
G02*
X137599750Y-104837000I243750J0D01*
G01*
X138087250Y-104837000D01*
G75*
G02*
X138331000Y-105080750I0J-243750D01*
G01*
G37*
%TD*%
D15*
%TO.C,Q2*%
X140843000Y-103521000D03*
X139893000Y-105521000D03*
X141793000Y-105521000D03*
%TD*%
%TO.C,C4*%
G36*
G01*
X145109250Y-101277000D02*
X144196750Y-101277000D01*
G75*
G02*
X143953000Y-101033250I0J243750D01*
G01*
X143953000Y-100545750D01*
G75*
G02*
X144196750Y-100302000I243750J0D01*
G01*
X145109250Y-100302000D01*
G75*
G02*
X145353000Y-100545750I0J-243750D01*
G01*
X145353000Y-101033250D01*
G75*
G02*
X145109250Y-101277000I-243750J0D01*
G01*
G37*
G36*
G01*
X145109250Y-103152000D02*
X144196750Y-103152000D01*
G75*
G02*
X143953000Y-102908250I0J243750D01*
G01*
X143953000Y-102420750D01*
G75*
G02*
X144196750Y-102177000I243750J0D01*
G01*
X145109250Y-102177000D01*
G75*
G02*
X145353000Y-102420750I0J-243750D01*
G01*
X145353000Y-102908250D01*
G75*
G02*
X145109250Y-103152000I-243750J0D01*
G01*
G37*
%TD*%
%TO.C,C3*%
G36*
G01*
X137356000Y-103072250D02*
X137356000Y-102159750D01*
G75*
G02*
X137599750Y-101916000I243750J0D01*
G01*
X138087250Y-101916000D01*
G75*
G02*
X138331000Y-102159750I0J-243750D01*
G01*
X138331000Y-103072250D01*
G75*
G02*
X138087250Y-103316000I-243750J0D01*
G01*
X137599750Y-103316000D01*
G75*
G02*
X137356000Y-103072250I0J243750D01*
G01*
G37*
G36*
G01*
X135481000Y-103072250D02*
X135481000Y-102159750D01*
G75*
G02*
X135724750Y-101916000I243750J0D01*
G01*
X136212250Y-101916000D01*
G75*
G02*
X136456000Y-102159750I0J-243750D01*
G01*
X136456000Y-103072250D01*
G75*
G02*
X136212250Y-103316000I-243750J0D01*
G01*
X135724750Y-103316000D01*
G75*
G02*
X135481000Y-103072250I0J243750D01*
G01*
G37*
%TD*%
M02*
