%TF.GenerationSoftware,KiCad,Pcbnew,(5.99.0-2363-g9a801d8b7)*%
%TF.CreationDate,2020-07-21T21:49:42+03:00*%
%TF.ProjectId,le-pre-et-le-boost,6c652d70-7265-42d6-9574-2d6c652d626f,rev?*%
%TF.SameCoordinates,Original*%
%TF.FileFunction,Legend,Bot*%
%TF.FilePolarity,Positive*%
%FSLAX46Y46*%
G04 Gerber Fmt 4.6, Leading zero omitted, Abs format (unit mm)*
G04 Created by KiCad (PCBNEW (5.99.0-2363-g9a801d8b7)) date 2020-07-21 21:49:42*
%MOMM*%
%LPD*%
G01*
G04 APERTURE LIST*
%ADD10C,0.125000*%
%ADD11C,0.127000*%
%ADD12C,0.150000*%
%ADD13C,0.080000*%
%ADD14C,0.100000*%
%ADD15C,0.120000*%
G04 APERTURE END LIST*
D10*
X141421657Y-102095600D02*
X141826419Y-102095600D01*
X141874038Y-102067028D01*
X141897847Y-102038457D01*
X141921657Y-101981314D01*
X141921657Y-101895600D01*
X141897847Y-101838457D01*
X141731180Y-102095600D02*
X141754990Y-102038457D01*
X141754990Y-101924171D01*
X141731180Y-101867028D01*
X141707371Y-101838457D01*
X141659752Y-101809885D01*
X141516895Y-101809885D01*
X141469276Y-101838457D01*
X141445466Y-101867028D01*
X141421657Y-101924171D01*
X141421657Y-102038457D01*
X141445466Y-102095600D01*
X141754990Y-102381314D02*
X141421657Y-102381314D01*
X141254990Y-102381314D02*
X141278800Y-102352742D01*
X141302609Y-102381314D01*
X141278800Y-102409885D01*
X141254990Y-102381314D01*
X141302609Y-102381314D01*
X141421657Y-102581314D02*
X141421657Y-102809885D01*
X141254990Y-102667028D02*
X141683561Y-102667028D01*
X141731180Y-102695600D01*
X141754990Y-102752742D01*
X141754990Y-102809885D01*
X141707371Y-103009885D02*
X141731180Y-103038457D01*
X141754990Y-103009885D01*
X141731180Y-102981314D01*
X141707371Y-103009885D01*
X141754990Y-103009885D01*
X141754990Y-103295600D02*
X141421657Y-103295600D01*
X141254990Y-103295600D02*
X141278800Y-103267028D01*
X141302609Y-103295600D01*
X141278800Y-103324171D01*
X141254990Y-103295600D01*
X141302609Y-103295600D01*
X141754990Y-103667028D02*
X141731180Y-103609885D01*
X141707371Y-103581314D01*
X141659752Y-103552742D01*
X141516895Y-103552742D01*
X141469276Y-103581314D01*
X141445466Y-103609885D01*
X141421657Y-103667028D01*
X141421657Y-103752742D01*
X141445466Y-103809885D01*
X141469276Y-103838457D01*
X141516895Y-103867028D01*
X141659752Y-103867028D01*
X141707371Y-103838457D01*
X141731180Y-103809885D01*
X141754990Y-103752742D01*
X141754990Y-103667028D01*
X141231180Y-104552742D02*
X141874038Y-104038457D01*
X141254990Y-104924171D02*
X141612133Y-104924171D01*
X141683561Y-104895600D01*
X141731180Y-104838457D01*
X141754990Y-104752742D01*
X141754990Y-104695600D01*
X141254990Y-105381314D02*
X141612133Y-105381314D01*
X141683561Y-105352742D01*
X141731180Y-105295600D01*
X141754990Y-105209885D01*
X141754990Y-105152742D01*
X141254990Y-105609885D02*
X141754990Y-105752742D01*
X141397847Y-105867028D01*
X141754990Y-105981314D01*
X141254990Y-106124171D01*
X141493085Y-106552742D02*
X141516895Y-106638457D01*
X141540704Y-106667028D01*
X141588323Y-106695600D01*
X141659752Y-106695600D01*
X141707371Y-106667028D01*
X141731180Y-106638457D01*
X141754990Y-106581314D01*
X141754990Y-106352742D01*
X141254990Y-106352742D01*
X141254990Y-106552742D01*
X141278800Y-106609885D01*
X141302609Y-106638457D01*
X141350228Y-106667028D01*
X141397847Y-106667028D01*
X141445466Y-106638457D01*
X141469276Y-106609885D01*
X141493085Y-106552742D01*
X141493085Y-106352742D01*
X141754990Y-106895600D02*
X141421657Y-107209885D01*
X141421657Y-106895600D02*
X141754990Y-107209885D01*
D11*
X137382142Y-107821428D02*
X137239285Y-108221428D01*
X137096428Y-107821428D01*
X136753571Y-107621428D02*
X136696428Y-107621428D01*
X136639285Y-107650000D01*
X136610714Y-107678571D01*
X136582142Y-107735714D01*
X136553571Y-107850000D01*
X136553571Y-107992857D01*
X136582142Y-108107142D01*
X136610714Y-108164285D01*
X136639285Y-108192857D01*
X136696428Y-108221428D01*
X136753571Y-108221428D01*
X136810714Y-108192857D01*
X136839285Y-108164285D01*
X136867857Y-108107142D01*
X136896428Y-107992857D01*
X136896428Y-107850000D01*
X136867857Y-107735714D01*
X136839285Y-107678571D01*
X136810714Y-107650000D01*
X136753571Y-107621428D01*
X136296428Y-108164285D02*
X136267857Y-108192857D01*
X136296428Y-108221428D01*
X136325000Y-108192857D01*
X136296428Y-108164285D01*
X136296428Y-108221428D01*
X135696428Y-108221428D02*
X136039285Y-108221428D01*
X135867857Y-108221428D02*
X135867857Y-107621428D01*
X135925000Y-107707142D01*
X135982142Y-107764285D01*
X136039285Y-107792857D01*
D10*
X147632464Y-108435009D02*
X147603892Y-108411200D01*
X147546750Y-108387390D01*
X147403892Y-108387390D01*
X147346750Y-108411200D01*
X147318178Y-108435009D01*
X147289607Y-108482628D01*
X147289607Y-108530247D01*
X147318178Y-108601676D01*
X147661035Y-108887390D01*
X147289607Y-108887390D01*
X146918178Y-108387390D02*
X146861035Y-108387390D01*
X146803892Y-108411200D01*
X146775321Y-108435009D01*
X146746750Y-108482628D01*
X146718178Y-108577866D01*
X146718178Y-108696914D01*
X146746750Y-108792152D01*
X146775321Y-108839771D01*
X146803892Y-108863580D01*
X146861035Y-108887390D01*
X146918178Y-108887390D01*
X146975321Y-108863580D01*
X147003892Y-108839771D01*
X147032464Y-108792152D01*
X147061035Y-108696914D01*
X147061035Y-108577866D01*
X147032464Y-108482628D01*
X147003892Y-108435009D01*
X146975321Y-108411200D01*
X146918178Y-108387390D01*
X146489607Y-108435009D02*
X146461035Y-108411200D01*
X146403892Y-108387390D01*
X146261035Y-108387390D01*
X146203892Y-108411200D01*
X146175321Y-108435009D01*
X146146750Y-108482628D01*
X146146750Y-108530247D01*
X146175321Y-108601676D01*
X146518178Y-108887390D01*
X146146750Y-108887390D01*
X145775321Y-108387390D02*
X145718178Y-108387390D01*
X145661035Y-108411200D01*
X145632464Y-108435009D01*
X145603892Y-108482628D01*
X145575321Y-108577866D01*
X145575321Y-108696914D01*
X145603892Y-108792152D01*
X145632464Y-108839771D01*
X145661035Y-108863580D01*
X145718178Y-108887390D01*
X145775321Y-108887390D01*
X145832464Y-108863580D01*
X145861035Y-108839771D01*
X145889607Y-108792152D01*
X145918178Y-108696914D01*
X145918178Y-108577866D01*
X145889607Y-108482628D01*
X145861035Y-108435009D01*
X145832464Y-108411200D01*
X145775321Y-108387390D01*
X145318178Y-108696914D02*
X144861035Y-108696914D01*
X144461035Y-108387390D02*
X144403892Y-108387390D01*
X144346750Y-108411200D01*
X144318178Y-108435009D01*
X144289607Y-108482628D01*
X144261035Y-108577866D01*
X144261035Y-108696914D01*
X144289607Y-108792152D01*
X144318178Y-108839771D01*
X144346750Y-108863580D01*
X144403892Y-108887390D01*
X144461035Y-108887390D01*
X144518178Y-108863580D01*
X144546750Y-108839771D01*
X144575321Y-108792152D01*
X144603892Y-108696914D01*
X144603892Y-108577866D01*
X144575321Y-108482628D01*
X144546750Y-108435009D01*
X144518178Y-108411200D01*
X144461035Y-108387390D01*
X144061035Y-108387390D02*
X143661035Y-108387390D01*
X143918178Y-108887390D01*
X143432464Y-108696914D02*
X142975321Y-108696914D01*
X142718178Y-108435009D02*
X142689607Y-108411200D01*
X142632464Y-108387390D01*
X142489607Y-108387390D01*
X142432464Y-108411200D01*
X142403892Y-108435009D01*
X142375321Y-108482628D01*
X142375321Y-108530247D01*
X142403892Y-108601676D01*
X142746750Y-108887390D01*
X142375321Y-108887390D01*
X141803892Y-108887390D02*
X142146750Y-108887390D01*
X141975321Y-108887390D02*
X141975321Y-108387390D01*
X142032464Y-108458819D01*
X142089607Y-108506438D01*
X142146750Y-108530247D01*
D11*
X136596428Y-106468428D02*
X136882142Y-106468428D01*
X136882142Y-105868428D01*
X136167857Y-106439857D02*
X136225000Y-106468428D01*
X136339285Y-106468428D01*
X136396428Y-106439857D01*
X136425000Y-106382714D01*
X136425000Y-106154142D01*
X136396428Y-106097000D01*
X136339285Y-106068428D01*
X136225000Y-106068428D01*
X136167857Y-106097000D01*
X136139285Y-106154142D01*
X136139285Y-106211285D01*
X136425000Y-106268428D01*
X137439285Y-107120142D02*
X137353571Y-107148714D01*
X137325000Y-107177285D01*
X137296428Y-107234428D01*
X137296428Y-107320142D01*
X137325000Y-107377285D01*
X137353571Y-107405857D01*
X137410714Y-107434428D01*
X137639285Y-107434428D01*
X137639285Y-106834428D01*
X137439285Y-106834428D01*
X137382142Y-106863000D01*
X137353571Y-106891571D01*
X137325000Y-106948714D01*
X137325000Y-107005857D01*
X137353571Y-107063000D01*
X137382142Y-107091571D01*
X137439285Y-107120142D01*
X137639285Y-107120142D01*
X136953571Y-107434428D02*
X137010714Y-107405857D01*
X137039285Y-107377285D01*
X137067857Y-107320142D01*
X137067857Y-107148714D01*
X137039285Y-107091571D01*
X137010714Y-107063000D01*
X136953571Y-107034428D01*
X136867857Y-107034428D01*
X136810714Y-107063000D01*
X136782142Y-107091571D01*
X136753571Y-107148714D01*
X136753571Y-107320142D01*
X136782142Y-107377285D01*
X136810714Y-107405857D01*
X136867857Y-107434428D01*
X136953571Y-107434428D01*
X136410714Y-107434428D02*
X136467857Y-107405857D01*
X136496428Y-107377285D01*
X136525000Y-107320142D01*
X136525000Y-107148714D01*
X136496428Y-107091571D01*
X136467857Y-107063000D01*
X136410714Y-107034428D01*
X136325000Y-107034428D01*
X136267857Y-107063000D01*
X136239285Y-107091571D01*
X136210714Y-107148714D01*
X136210714Y-107320142D01*
X136239285Y-107377285D01*
X136267857Y-107405857D01*
X136325000Y-107434428D01*
X136410714Y-107434428D01*
X135982142Y-107405857D02*
X135925000Y-107434428D01*
X135810714Y-107434428D01*
X135753571Y-107405857D01*
X135725000Y-107348714D01*
X135725000Y-107320142D01*
X135753571Y-107263000D01*
X135810714Y-107234428D01*
X135896428Y-107234428D01*
X135953571Y-107205857D01*
X135982142Y-107148714D01*
X135982142Y-107120142D01*
X135953571Y-107063000D01*
X135896428Y-107034428D01*
X135810714Y-107034428D01*
X135753571Y-107063000D01*
X135553571Y-107034428D02*
X135325000Y-107034428D01*
X135467857Y-106834428D02*
X135467857Y-107348714D01*
X135439285Y-107405857D01*
X135382142Y-107434428D01*
X135325000Y-107434428D01*
D12*
%TO.C,R8*%
X144035428Y-104387666D02*
X143749714Y-104121000D01*
X144035428Y-103930523D02*
X143435428Y-103930523D01*
X143435428Y-104235285D01*
X143464000Y-104311476D01*
X143492571Y-104349571D01*
X143549714Y-104387666D01*
X143635428Y-104387666D01*
X143692571Y-104349571D01*
X143721142Y-104311476D01*
X143749714Y-104235285D01*
X143749714Y-103930523D01*
X143692571Y-104844809D02*
X143664000Y-104768619D01*
X143635428Y-104730523D01*
X143578285Y-104692428D01*
X143549714Y-104692428D01*
X143492571Y-104730523D01*
X143464000Y-104768619D01*
X143435428Y-104844809D01*
X143435428Y-104997190D01*
X143464000Y-105073380D01*
X143492571Y-105111476D01*
X143549714Y-105149571D01*
X143578285Y-105149571D01*
X143635428Y-105111476D01*
X143664000Y-105073380D01*
X143692571Y-104997190D01*
X143692571Y-104844809D01*
X143721142Y-104768619D01*
X143749714Y-104730523D01*
X143806857Y-104692428D01*
X143921142Y-104692428D01*
X143978285Y-104730523D01*
X144006857Y-104768619D01*
X144035428Y-104844809D01*
X144035428Y-104997190D01*
X144006857Y-105073380D01*
X143978285Y-105111476D01*
X143921142Y-105149571D01*
X143806857Y-105149571D01*
X143749714Y-105111476D01*
X143721142Y-105073380D01*
X143692571Y-104997190D01*
%TO.C,R7*%
X139844428Y-107689666D02*
X139558714Y-107423000D01*
X139844428Y-107232523D02*
X139244428Y-107232523D01*
X139244428Y-107537285D01*
X139273000Y-107613476D01*
X139301571Y-107651571D01*
X139358714Y-107689666D01*
X139444428Y-107689666D01*
X139501571Y-107651571D01*
X139530142Y-107613476D01*
X139558714Y-107537285D01*
X139558714Y-107232523D01*
X139244428Y-107956333D02*
X139244428Y-108489666D01*
X139844428Y-108146809D01*
%TO.C,R6*%
X139844428Y-100069666D02*
X139558714Y-99803000D01*
X139844428Y-99612523D02*
X139244428Y-99612523D01*
X139244428Y-99917285D01*
X139273000Y-99993476D01*
X139301571Y-100031571D01*
X139358714Y-100069666D01*
X139444428Y-100069666D01*
X139501571Y-100031571D01*
X139530142Y-99993476D01*
X139558714Y-99917285D01*
X139558714Y-99612523D01*
X139244428Y-100755380D02*
X139244428Y-100603000D01*
X139273000Y-100526809D01*
X139301571Y-100488714D01*
X139387285Y-100412523D01*
X139501571Y-100374428D01*
X139730142Y-100374428D01*
X139787285Y-100412523D01*
X139815857Y-100450619D01*
X139844428Y-100526809D01*
X139844428Y-100679190D01*
X139815857Y-100755380D01*
X139787285Y-100793476D01*
X139730142Y-100831571D01*
X139587285Y-100831571D01*
X139530142Y-100793476D01*
X139501571Y-100755380D01*
X139473000Y-100679190D01*
X139473000Y-100526809D01*
X139501571Y-100450619D01*
X139530142Y-100412523D01*
X139587285Y-100374428D01*
%TO.C,R5*%
X143527428Y-100323666D02*
X143241714Y-100057000D01*
X143527428Y-99866523D02*
X142927428Y-99866523D01*
X142927428Y-100171285D01*
X142956000Y-100247476D01*
X142984571Y-100285571D01*
X143041714Y-100323666D01*
X143127428Y-100323666D01*
X143184571Y-100285571D01*
X143213142Y-100247476D01*
X143241714Y-100171285D01*
X143241714Y-99866523D01*
X142927428Y-101047476D02*
X142927428Y-100666523D01*
X143213142Y-100628428D01*
X143184571Y-100666523D01*
X143156000Y-100742714D01*
X143156000Y-100933190D01*
X143184571Y-101009380D01*
X143213142Y-101047476D01*
X143270285Y-101085571D01*
X143413142Y-101085571D01*
X143470285Y-101047476D01*
X143498857Y-101009380D01*
X143527428Y-100933190D01*
X143527428Y-100742714D01*
X143498857Y-100666523D01*
X143470285Y-100628428D01*
%TO.C,Q2*%
X140028571Y-104952809D02*
X140000000Y-104876619D01*
X139942857Y-104800428D01*
X139857142Y-104686142D01*
X139828571Y-104609952D01*
X139828571Y-104533761D01*
X139971428Y-104571857D02*
X139942857Y-104495666D01*
X139885714Y-104419476D01*
X139771428Y-104381380D01*
X139571428Y-104381380D01*
X139457142Y-104419476D01*
X139400000Y-104495666D01*
X139371428Y-104571857D01*
X139371428Y-104724238D01*
X139400000Y-104800428D01*
X139457142Y-104876619D01*
X139571428Y-104914714D01*
X139771428Y-104914714D01*
X139885714Y-104876619D01*
X139942857Y-104800428D01*
X139971428Y-104724238D01*
X139971428Y-104571857D01*
X139428571Y-105219476D02*
X139400000Y-105257571D01*
X139371428Y-105333761D01*
X139371428Y-105524238D01*
X139400000Y-105600428D01*
X139428571Y-105638523D01*
X139485714Y-105676619D01*
X139542857Y-105676619D01*
X139628571Y-105638523D01*
X139971428Y-105181380D01*
X139971428Y-105676619D01*
%TO.C,C4*%
X143978285Y-102355666D02*
X144006857Y-102317571D01*
X144035428Y-102203285D01*
X144035428Y-102127095D01*
X144006857Y-102012809D01*
X143949714Y-101936619D01*
X143892571Y-101898523D01*
X143778285Y-101860428D01*
X143692571Y-101860428D01*
X143578285Y-101898523D01*
X143521142Y-101936619D01*
X143464000Y-102012809D01*
X143435428Y-102127095D01*
X143435428Y-102203285D01*
X143464000Y-102317571D01*
X143492571Y-102355666D01*
X143635428Y-103041380D02*
X144035428Y-103041380D01*
X143406857Y-102850904D02*
X143835428Y-102660428D01*
X143835428Y-103155666D01*
%TO.C,C3*%
X139787285Y-102101666D02*
X139815857Y-102063571D01*
X139844428Y-101949285D01*
X139844428Y-101873095D01*
X139815857Y-101758809D01*
X139758714Y-101682619D01*
X139701571Y-101644523D01*
X139587285Y-101606428D01*
X139501571Y-101606428D01*
X139387285Y-101644523D01*
X139330142Y-101682619D01*
X139273000Y-101758809D01*
X139244428Y-101873095D01*
X139244428Y-101949285D01*
X139273000Y-102063571D01*
X139301571Y-102101666D01*
X139244428Y-102368333D02*
X139244428Y-102863571D01*
X139473000Y-102596904D01*
X139473000Y-102711190D01*
X139501571Y-102787380D01*
X139530142Y-102825476D01*
X139587285Y-102863571D01*
X139730142Y-102863571D01*
X139787285Y-102825476D01*
X139815857Y-102787380D01*
X139844428Y-102711190D01*
X139844428Y-102482619D01*
X139815857Y-102406428D01*
X139787285Y-102368333D01*
D13*
%TO.C,J1*%
X142611447Y-107213352D02*
X142211447Y-107080019D01*
X142611447Y-106946685D01*
X142363828Y-106813352D02*
X142363828Y-106508590D01*
X142211447Y-106660971D02*
X142516209Y-106660971D01*
X148383600Y-107213361D02*
X148402647Y-107251457D01*
X148402647Y-107308600D01*
X148383600Y-107365742D01*
X148345504Y-107403838D01*
X148307409Y-107422885D01*
X148231219Y-107441933D01*
X148174076Y-107441933D01*
X148097885Y-107422885D01*
X148059790Y-107403838D01*
X148021695Y-107365742D01*
X148002647Y-107308600D01*
X148002647Y-107270504D01*
X148021695Y-107213361D01*
X148040742Y-107194314D01*
X148174076Y-107194314D01*
X148174076Y-107270504D01*
X148002647Y-107022885D02*
X148402647Y-107022885D01*
X148002647Y-106794314D01*
X148402647Y-106794314D01*
X148002647Y-106603838D02*
X148402647Y-106603838D01*
X148402647Y-106508600D01*
X148383600Y-106451457D01*
X148345504Y-106413361D01*
X148307409Y-106394314D01*
X148231219Y-106375266D01*
X148174076Y-106375266D01*
X148097885Y-106394314D01*
X148059790Y-106413361D01*
X148021695Y-106451457D01*
X148002647Y-106508600D01*
X148002647Y-106603838D01*
D14*
%TO.C,J3*%
X147612000Y-99510904D02*
X147459619Y-99510904D01*
X147383428Y-99549000D01*
X147307238Y-99625190D01*
X147269142Y-99777571D01*
X147269142Y-100044238D01*
X147307238Y-100196619D01*
X147383428Y-100272809D01*
X147459619Y-100310904D01*
X147612000Y-100310904D01*
X147688190Y-100272809D01*
X147764380Y-100196619D01*
X147802476Y-100044238D01*
X147802476Y-99777571D01*
X147764380Y-99625190D01*
X147688190Y-99549000D01*
X147612000Y-99510904D01*
X146926285Y-99510904D02*
X146926285Y-100158523D01*
X146888190Y-100234714D01*
X146850095Y-100272809D01*
X146773904Y-100310904D01*
X146621523Y-100310904D01*
X146545333Y-100272809D01*
X146507238Y-100234714D01*
X146469142Y-100158523D01*
X146469142Y-99510904D01*
X146202476Y-99510904D02*
X145745333Y-99510904D01*
X145973904Y-100310904D02*
X145973904Y-99510904D01*
%TO.C,J2*%
X136817047Y-100310904D02*
X136817047Y-99510904D01*
X136436095Y-100310904D02*
X136436095Y-99510904D01*
X135978952Y-100310904D01*
X135978952Y-99510904D01*
D15*
%TO.C,R8*%
X143505422Y-103938000D02*
X144022578Y-103938000D01*
X143505422Y-105358000D02*
X144022578Y-105358000D01*
%TO.C,R7*%
X139831578Y-108660000D02*
X139314422Y-108660000D01*
X139831578Y-107240000D02*
X139314422Y-107240000D01*
%TO.C,R6*%
X139831578Y-101040000D02*
X139314422Y-101040000D01*
X139831578Y-99620000D02*
X139314422Y-99620000D01*
%TO.C,R5*%
X143514578Y-101294000D02*
X142997422Y-101294000D01*
X143514578Y-99874000D02*
X142997422Y-99874000D01*
%TO.C,Q2*%
X138813000Y-106736000D02*
X140273000Y-106736000D01*
X138813000Y-103576000D02*
X140973000Y-103576000D01*
X138813000Y-103576000D02*
X138813000Y-104506000D01*
X138813000Y-106736000D02*
X138813000Y-105806000D01*
%TO.C,C4*%
X143505422Y-101906000D02*
X144022578Y-101906000D01*
X143505422Y-103326000D02*
X144022578Y-103326000D01*
%TO.C,C3*%
X139314422Y-101652000D02*
X139831578Y-101652000D01*
X139314422Y-103072000D02*
X139831578Y-103072000D01*
D13*
%TO.C,J1*%
X148526500Y-105664000D02*
X142049500Y-105664000D01*
X142049500Y-108204000D02*
X148526500Y-108204000D01*
X147828000Y-108204000D02*
X147828000Y-105664000D01*
X142748000Y-108204000D02*
X142748000Y-105664000D01*
X148526500Y-105664000D02*
X148526500Y-108204000D01*
X142049500Y-108204000D02*
X142049500Y-105664000D01*
D11*
%TO.C,J3*%
X145542000Y-105664000D02*
X145542000Y-103124000D01*
X145542000Y-103124000D02*
X145542000Y-100584000D01*
X148082000Y-105664000D02*
X148082000Y-103124000D01*
X148082000Y-103124000D02*
X148082000Y-100584000D01*
X148082000Y-100584000D02*
X145542000Y-100584000D01*
X145542000Y-105664000D02*
X148082000Y-105664000D01*
X148082000Y-103124000D02*
X145542000Y-103124000D01*
X145542000Y-100584000D02*
X145542000Y-99314000D01*
X148082000Y-100584000D02*
X148082000Y-99314000D01*
X148082000Y-99314000D02*
X145542000Y-99314000D01*
%TO.C,J2*%
X135128000Y-105664000D02*
X135128000Y-103124000D01*
X135128000Y-103124000D02*
X135128000Y-100584000D01*
X137668000Y-105664000D02*
X137668000Y-103124000D01*
X137668000Y-103124000D02*
X137668000Y-100584000D01*
X137668000Y-100584000D02*
X135128000Y-100584000D01*
X135128000Y-105664000D02*
X137668000Y-105664000D01*
X137668000Y-103124000D02*
X135128000Y-103124000D01*
X135128000Y-100584000D02*
X135128000Y-99314000D01*
X137668000Y-100584000D02*
X137668000Y-99314000D01*
X137668000Y-99314000D02*
X135128000Y-99314000D01*
%TD*%
M02*
