%TF.GenerationSoftware,KiCad,Pcbnew,(5.99.0-3084-g8945f8865-dirty)*%
%TF.CreationDate,2020-08-31T12:16:29+03:00*%
%TF.ProjectId,le-pre-et-le-boost,6c652d70-7265-42d6-9574-2d6c652d626f,rev?*%
%TF.SameCoordinates,Original*%
%TF.FileFunction,Copper,L1,Top*%
%TF.FilePolarity,Positive*%
%FSLAX46Y46*%
G04 Gerber Fmt 4.6, Leading zero omitted, Abs format (unit mm)*
G04 Created by KiCad (PCBNEW (5.99.0-3084-g8945f8865-dirty)) date 2020-08-31 12:16:29*
%MOMM*%
%LPD*%
G01*
G04 APERTURE LIST*
%TA.AperFunction,ComponentPad*%
%ADD10R,1.700000X1.700000*%
%TD*%
%TA.AperFunction,ComponentPad*%
%ADD11O,1.930400X1.930400*%
%TD*%
%TA.AperFunction,ComponentPad*%
%ADD12R,1.930400X1.930400*%
%TD*%
%TA.AperFunction,ComponentPad*%
%ADD13C,1.600000*%
%TD*%
%TA.AperFunction,ComponentPad*%
%ADD14R,1.600000X1.600000*%
%TD*%
%TA.AperFunction,SMDPad,CuDef*%
%ADD15R,0.900000X0.800000*%
%TD*%
%TA.AperFunction,ViaPad*%
%ADD16C,0.800000*%
%TD*%
%TA.AperFunction,Conductor*%
%ADD17C,0.381000*%
%TD*%
%TA.AperFunction,Conductor*%
%ADD18C,0.254000*%
%TD*%
G04 APERTURE END LIST*
D10*
%TO.P,J3,1,Pin_1*%
%TO.N,OUT*%
X147574000Y-100507800D03*
%TD*%
%TO.P,J2,1,Pin_1*%
%TO.N,IN*%
X136144000Y-100584000D03*
%TD*%
D11*
%TO.P,J1,2*%
%TO.N,GND*%
X146812000Y-108458000D03*
D12*
%TO.P,J1,1*%
%TO.N,+9V*%
X144272000Y-108458000D03*
%TD*%
D13*
%TO.P,C2,2*%
%TO.N,GND*%
X147534000Y-104394000D03*
D14*
%TO.P,C2,1*%
%TO.N,+9V*%
X145034000Y-104394000D03*
%TD*%
D13*
%TO.P,C1,2*%
%TO.N,OUT*%
X142479400Y-101828600D03*
D14*
%TO.P,C1,1*%
%TO.N,Net-(C1-Pad1)*%
X139979400Y-101828600D03*
%TD*%
D15*
%TO.P,Q1,3,G*%
%TO.N,IN*%
X135906000Y-105410000D03*
%TO.P,Q1,2,S*%
%TO.N,Net-(C1-Pad1)*%
X137906000Y-104460000D03*
%TO.P,Q1,1,D*%
%TO.N,Net-(Q1-Pad1)*%
X137906000Y-106360000D03*
%TD*%
%TO.P,R4,2*%
%TO.N,GND*%
%TA.AperFunction,SMDPad,CuDef*%
G36*
G01*
X140520000Y-105207750D02*
X140520000Y-106120250D01*
G75*
G02*
X140276250Y-106364000I-243750J0D01*
G01*
X139788750Y-106364000D01*
G75*
G02*
X139545000Y-106120250I0J243750D01*
G01*
X139545000Y-105207750D01*
G75*
G02*
X139788750Y-104964000I243750J0D01*
G01*
X140276250Y-104964000D01*
G75*
G02*
X140520000Y-105207750I0J-243750D01*
G01*
G37*
%TD.AperFunction*%
%TO.P,R4,1*%
%TO.N,OUT*%
%TA.AperFunction,SMDPad,CuDef*%
G36*
G01*
X142395000Y-105207750D02*
X142395000Y-106120250D01*
G75*
G02*
X142151250Y-106364000I-243750J0D01*
G01*
X141663750Y-106364000D01*
G75*
G02*
X141420000Y-106120250I0J243750D01*
G01*
X141420000Y-105207750D01*
G75*
G02*
X141663750Y-104964000I243750J0D01*
G01*
X142151250Y-104964000D01*
G75*
G02*
X142395000Y-105207750I0J-243750D01*
G01*
G37*
%TD.AperFunction*%
%TD*%
%TO.P,R3,2*%
%TO.N,Net-(C1-Pad1)*%
%TA.AperFunction,SMDPad,CuDef*%
G36*
G01*
X140012000Y-107239750D02*
X140012000Y-108152250D01*
G75*
G02*
X139768250Y-108396000I-243750J0D01*
G01*
X139280750Y-108396000D01*
G75*
G02*
X139037000Y-108152250I0J243750D01*
G01*
X139037000Y-107239750D01*
G75*
G02*
X139280750Y-106996000I243750J0D01*
G01*
X139768250Y-106996000D01*
G75*
G02*
X140012000Y-107239750I0J-243750D01*
G01*
G37*
%TD.AperFunction*%
%TO.P,R3,1*%
%TO.N,+9V*%
%TA.AperFunction,SMDPad,CuDef*%
G36*
G01*
X141887000Y-107239750D02*
X141887000Y-108152250D01*
G75*
G02*
X141643250Y-108396000I-243750J0D01*
G01*
X141155750Y-108396000D01*
G75*
G02*
X140912000Y-108152250I0J243750D01*
G01*
X140912000Y-107239750D01*
G75*
G02*
X141155750Y-106996000I243750J0D01*
G01*
X141643250Y-106996000D01*
G75*
G02*
X141887000Y-107239750I0J-243750D01*
G01*
G37*
%TD.AperFunction*%
%TD*%
%TO.P,R2,2*%
%TO.N,GND*%
%TA.AperFunction,SMDPad,CuDef*%
G36*
G01*
X136456000Y-108128750D02*
X136456000Y-109041250D01*
G75*
G02*
X136212250Y-109285000I-243750J0D01*
G01*
X135724750Y-109285000D01*
G75*
G02*
X135481000Y-109041250I0J243750D01*
G01*
X135481000Y-108128750D01*
G75*
G02*
X135724750Y-107885000I243750J0D01*
G01*
X136212250Y-107885000D01*
G75*
G02*
X136456000Y-108128750I0J-243750D01*
G01*
G37*
%TD.AperFunction*%
%TO.P,R2,1*%
%TO.N,Net-(Q1-Pad1)*%
%TA.AperFunction,SMDPad,CuDef*%
G36*
G01*
X138331000Y-108128750D02*
X138331000Y-109041250D01*
G75*
G02*
X138087250Y-109285000I-243750J0D01*
G01*
X137599750Y-109285000D01*
G75*
G02*
X137356000Y-109041250I0J243750D01*
G01*
X137356000Y-108128750D01*
G75*
G02*
X137599750Y-107885000I243750J0D01*
G01*
X138087250Y-107885000D01*
G75*
G02*
X138331000Y-108128750I0J-243750D01*
G01*
G37*
%TD.AperFunction*%
%TD*%
%TO.P,R1,2*%
%TO.N,GND*%
%TA.AperFunction,SMDPad,CuDef*%
G36*
G01*
X137229000Y-103072250D02*
X137229000Y-102159750D01*
G75*
G02*
X137472750Y-101916000I243750J0D01*
G01*
X137960250Y-101916000D01*
G75*
G02*
X138204000Y-102159750I0J-243750D01*
G01*
X138204000Y-103072250D01*
G75*
G02*
X137960250Y-103316000I-243750J0D01*
G01*
X137472750Y-103316000D01*
G75*
G02*
X137229000Y-103072250I0J243750D01*
G01*
G37*
%TD.AperFunction*%
%TO.P,R1,1*%
%TO.N,IN*%
%TA.AperFunction,SMDPad,CuDef*%
G36*
G01*
X135354000Y-103072250D02*
X135354000Y-102159750D01*
G75*
G02*
X135597750Y-101916000I243750J0D01*
G01*
X136085250Y-101916000D01*
G75*
G02*
X136329000Y-102159750I0J-243750D01*
G01*
X136329000Y-103072250D01*
G75*
G02*
X136085250Y-103316000I-243750J0D01*
G01*
X135597750Y-103316000D01*
G75*
G02*
X135354000Y-103072250I0J243750D01*
G01*
G37*
%TD.AperFunction*%
%TD*%
D16*
%TO.N,GND*%
X136906000Y-107061000D03*
X139573000Y-103632000D03*
%TD*%
D17*
%TO.N,GND*%
X137589500Y-102616000D02*
X136779000Y-103426500D01*
X136779000Y-103426500D02*
X136779000Y-104013000D01*
%TO.N,+9V*%
X141399500Y-107696000D02*
X143510000Y-107696000D01*
X143510000Y-107696000D02*
X144272000Y-108458000D01*
%TO.N,OUT*%
X141907500Y-105664000D02*
X141907500Y-102654500D01*
X141907500Y-102654500D02*
X142708000Y-101854000D01*
%TO.N,Net-(Q1-Pad1)*%
X137843500Y-108204000D02*
X137843500Y-106422500D01*
X137843500Y-106422500D02*
X137906000Y-106360000D01*
%TO.N,Net-(C1-Pad1)*%
X137906000Y-104460000D02*
X139038917Y-105592917D01*
X139038917Y-105592917D02*
X139038917Y-107210417D01*
X139038917Y-107210417D02*
X139524500Y-107696000D01*
X137906000Y-104460000D02*
X137906000Y-104156000D01*
X137906000Y-104156000D02*
X140208000Y-101854000D01*
%TO.N,IN*%
X135906000Y-105156000D02*
X135906000Y-102807500D01*
X135906000Y-102807500D02*
X135714500Y-102616000D01*
X135714500Y-102616000D02*
X135714500Y-101013500D01*
X135714500Y-101013500D02*
X136144000Y-100584000D01*
%TD*%
%TO.N,GND*%
D18*
X146339024Y-101370210D02*
X146366047Y-101506069D01*
X146450035Y-101631765D01*
X146575731Y-101715753D01*
X146711590Y-101742776D01*
X148436410Y-101742776D01*
X148457718Y-101738538D01*
X148457718Y-103297138D01*
X148359651Y-103214850D01*
X148142349Y-103089391D01*
X147906564Y-103003571D01*
X147659459Y-102960000D01*
X147408541Y-102960000D01*
X147161436Y-103003571D01*
X146925650Y-103089391D01*
X146599002Y-103277982D01*
X147715020Y-104394000D01*
X146599002Y-105510018D01*
X146925650Y-105698609D01*
X147161436Y-105784429D01*
X147408541Y-105828000D01*
X147659459Y-105828000D01*
X147906564Y-105784429D01*
X148142349Y-105698609D01*
X148359651Y-105573150D01*
X148457718Y-105490862D01*
X148457718Y-109341718D01*
X148146779Y-109341718D01*
X148250567Y-109168984D01*
X148347373Y-108924482D01*
X148420555Y-108586000D01*
X146684000Y-108586000D01*
X146684000Y-108330000D01*
X146940000Y-108330000D01*
X148411855Y-108330000D01*
X148368327Y-108067078D01*
X148283581Y-107818138D01*
X148159315Y-107586382D01*
X147998866Y-107378035D01*
X147806543Y-107198691D01*
X147587510Y-107053165D01*
X147347651Y-106945368D01*
X147093407Y-106878194D01*
X146940000Y-106863691D01*
X146940000Y-108330000D01*
X146684000Y-108330000D01*
X146684000Y-106844459D01*
X146313466Y-106932733D01*
X146071044Y-107034638D01*
X145848522Y-107174768D01*
X145651874Y-107349359D01*
X145607109Y-107404639D01*
X145595153Y-107344531D01*
X145511165Y-107218835D01*
X145385469Y-107134847D01*
X145249610Y-107107824D01*
X143294390Y-107107824D01*
X143210552Y-107124500D01*
X142251271Y-107124500D01*
X142198433Y-106927305D01*
X142051625Y-106752346D01*
X142043955Y-106747918D01*
X142193176Y-106747918D01*
X142463695Y-106675433D01*
X142638654Y-106528625D01*
X142749992Y-106335782D01*
X142778918Y-106171732D01*
X142778918Y-105165824D01*
X142706433Y-104895305D01*
X142559625Y-104720347D01*
X142479000Y-104673797D01*
X142479000Y-103581590D01*
X143849024Y-103581590D01*
X143849024Y-105206410D01*
X143876047Y-105342269D01*
X143960035Y-105467965D01*
X144085731Y-105551953D01*
X144221590Y-105578976D01*
X145846410Y-105578976D01*
X145982269Y-105551953D01*
X146107965Y-105467965D01*
X146191953Y-105342269D01*
X146218976Y-105206410D01*
X146218976Y-104973735D01*
X146229391Y-105002350D01*
X146417982Y-105328998D01*
X147352981Y-104394000D01*
X146417982Y-103459002D01*
X146229391Y-103785650D01*
X146218976Y-103814265D01*
X146218976Y-103581590D01*
X146191953Y-103445731D01*
X146107965Y-103320035D01*
X145982269Y-103236047D01*
X145846410Y-103209024D01*
X144221590Y-103209024D01*
X144085731Y-103236047D01*
X143960035Y-103320035D01*
X143876047Y-103445731D01*
X143849024Y-103581590D01*
X142479000Y-103581590D01*
X142479000Y-103008895D01*
X142570366Y-103010809D01*
X142798259Y-102970625D01*
X143014007Y-102886942D01*
X143209391Y-102762946D01*
X143376972Y-102603363D01*
X143510363Y-102414268D01*
X143604486Y-102202867D01*
X143655951Y-101976341D01*
X143659617Y-101713767D01*
X143614497Y-101485895D01*
X143526314Y-101271946D01*
X143398254Y-101079200D01*
X143235195Y-100915000D01*
X143043349Y-100785598D01*
X142830022Y-100695924D01*
X142603340Y-100649392D01*
X142371936Y-100647777D01*
X142144626Y-100691139D01*
X141930069Y-100777826D01*
X141736435Y-100904536D01*
X141571099Y-101066444D01*
X141440360Y-101257383D01*
X141349199Y-101470079D01*
X141301086Y-101696430D01*
X141297855Y-101927817D01*
X141339629Y-102155424D01*
X141418969Y-102355816D01*
X141381556Y-102409247D01*
X141374947Y-102433911D01*
X141362182Y-102456021D01*
X141349018Y-102530682D01*
X141329393Y-102603923D01*
X141336001Y-102679459D01*
X141336000Y-104665409D01*
X141176346Y-104799375D01*
X141106802Y-104919830D01*
X141089983Y-104842516D01*
X140949826Y-104624428D01*
X140757393Y-104457683D01*
X140525777Y-104351909D01*
X140337068Y-104324776D01*
X140160500Y-104324776D01*
X140160499Y-105792000D01*
X139904500Y-105791999D01*
X139904501Y-104324776D01*
X139741812Y-104324776D01*
X139423516Y-104394017D01*
X139205428Y-104534174D01*
X139038683Y-104726607D01*
X139020545Y-104766324D01*
X138740976Y-104486755D01*
X138740976Y-104129245D01*
X139856646Y-103013576D01*
X140791810Y-103013576D01*
X140927669Y-102986553D01*
X141053365Y-102902565D01*
X141137353Y-102776869D01*
X141164376Y-102641010D01*
X141164376Y-101016190D01*
X141137353Y-100880331D01*
X141053365Y-100754635D01*
X140927669Y-100670647D01*
X140791810Y-100643624D01*
X139166990Y-100643624D01*
X139031131Y-100670647D01*
X138905435Y-100754635D01*
X138821447Y-100880331D01*
X138794424Y-101016190D01*
X138794424Y-101888482D01*
X138773983Y-101794516D01*
X138633826Y-101576428D01*
X138441393Y-101409683D01*
X138209777Y-101303909D01*
X138021068Y-101276776D01*
X137844500Y-101276776D01*
X137844500Y-102744000D01*
X137588500Y-102744000D01*
X137588500Y-101276776D01*
X137425812Y-101276776D01*
X137378976Y-101286964D01*
X137378976Y-99721590D01*
X137374738Y-99700282D01*
X146339024Y-99700282D01*
X146339024Y-101370210D01*
%TA.AperFunction,Conductor*%
G36*
X146339024Y-101370210D02*
G01*
X146366047Y-101506069D01*
X146450035Y-101631765D01*
X146575731Y-101715753D01*
X146711590Y-101742776D01*
X148436410Y-101742776D01*
X148457718Y-101738538D01*
X148457718Y-103297138D01*
X148359651Y-103214850D01*
X148142349Y-103089391D01*
X147906564Y-103003571D01*
X147659459Y-102960000D01*
X147408541Y-102960000D01*
X147161436Y-103003571D01*
X146925650Y-103089391D01*
X146599002Y-103277982D01*
X147715020Y-104394000D01*
X146599002Y-105510018D01*
X146925650Y-105698609D01*
X147161436Y-105784429D01*
X147408541Y-105828000D01*
X147659459Y-105828000D01*
X147906564Y-105784429D01*
X148142349Y-105698609D01*
X148359651Y-105573150D01*
X148457718Y-105490862D01*
X148457718Y-109341718D01*
X148146779Y-109341718D01*
X148250567Y-109168984D01*
X148347373Y-108924482D01*
X148420555Y-108586000D01*
X146684000Y-108586000D01*
X146684000Y-108330000D01*
X146940000Y-108330000D01*
X148411855Y-108330000D01*
X148368327Y-108067078D01*
X148283581Y-107818138D01*
X148159315Y-107586382D01*
X147998866Y-107378035D01*
X147806543Y-107198691D01*
X147587510Y-107053165D01*
X147347651Y-106945368D01*
X147093407Y-106878194D01*
X146940000Y-106863691D01*
X146940000Y-108330000D01*
X146684000Y-108330000D01*
X146684000Y-106844459D01*
X146313466Y-106932733D01*
X146071044Y-107034638D01*
X145848522Y-107174768D01*
X145651874Y-107349359D01*
X145607109Y-107404639D01*
X145595153Y-107344531D01*
X145511165Y-107218835D01*
X145385469Y-107134847D01*
X145249610Y-107107824D01*
X143294390Y-107107824D01*
X143210552Y-107124500D01*
X142251271Y-107124500D01*
X142198433Y-106927305D01*
X142051625Y-106752346D01*
X142043955Y-106747918D01*
X142193176Y-106747918D01*
X142463695Y-106675433D01*
X142638654Y-106528625D01*
X142749992Y-106335782D01*
X142778918Y-106171732D01*
X142778918Y-105165824D01*
X142706433Y-104895305D01*
X142559625Y-104720347D01*
X142479000Y-104673797D01*
X142479000Y-103581590D01*
X143849024Y-103581590D01*
X143849024Y-105206410D01*
X143876047Y-105342269D01*
X143960035Y-105467965D01*
X144085731Y-105551953D01*
X144221590Y-105578976D01*
X145846410Y-105578976D01*
X145982269Y-105551953D01*
X146107965Y-105467965D01*
X146191953Y-105342269D01*
X146218976Y-105206410D01*
X146218976Y-104973735D01*
X146229391Y-105002350D01*
X146417982Y-105328998D01*
X147352981Y-104394000D01*
X146417982Y-103459002D01*
X146229391Y-103785650D01*
X146218976Y-103814265D01*
X146218976Y-103581590D01*
X146191953Y-103445731D01*
X146107965Y-103320035D01*
X145982269Y-103236047D01*
X145846410Y-103209024D01*
X144221590Y-103209024D01*
X144085731Y-103236047D01*
X143960035Y-103320035D01*
X143876047Y-103445731D01*
X143849024Y-103581590D01*
X142479000Y-103581590D01*
X142479000Y-103008895D01*
X142570366Y-103010809D01*
X142798259Y-102970625D01*
X143014007Y-102886942D01*
X143209391Y-102762946D01*
X143376972Y-102603363D01*
X143510363Y-102414268D01*
X143604486Y-102202867D01*
X143655951Y-101976341D01*
X143659617Y-101713767D01*
X143614497Y-101485895D01*
X143526314Y-101271946D01*
X143398254Y-101079200D01*
X143235195Y-100915000D01*
X143043349Y-100785598D01*
X142830022Y-100695924D01*
X142603340Y-100649392D01*
X142371936Y-100647777D01*
X142144626Y-100691139D01*
X141930069Y-100777826D01*
X141736435Y-100904536D01*
X141571099Y-101066444D01*
X141440360Y-101257383D01*
X141349199Y-101470079D01*
X141301086Y-101696430D01*
X141297855Y-101927817D01*
X141339629Y-102155424D01*
X141418969Y-102355816D01*
X141381556Y-102409247D01*
X141374947Y-102433911D01*
X141362182Y-102456021D01*
X141349018Y-102530682D01*
X141329393Y-102603923D01*
X141336001Y-102679459D01*
X141336000Y-104665409D01*
X141176346Y-104799375D01*
X141106802Y-104919830D01*
X141089983Y-104842516D01*
X140949826Y-104624428D01*
X140757393Y-104457683D01*
X140525777Y-104351909D01*
X140337068Y-104324776D01*
X140160500Y-104324776D01*
X140160499Y-105792000D01*
X139904500Y-105791999D01*
X139904501Y-104324776D01*
X139741812Y-104324776D01*
X139423516Y-104394017D01*
X139205428Y-104534174D01*
X139038683Y-104726607D01*
X139020545Y-104766324D01*
X138740976Y-104486755D01*
X138740976Y-104129245D01*
X139856646Y-103013576D01*
X140791810Y-103013576D01*
X140927669Y-102986553D01*
X141053365Y-102902565D01*
X141137353Y-102776869D01*
X141164376Y-102641010D01*
X141164376Y-101016190D01*
X141137353Y-100880331D01*
X141053365Y-100754635D01*
X140927669Y-100670647D01*
X140791810Y-100643624D01*
X139166990Y-100643624D01*
X139031131Y-100670647D01*
X138905435Y-100754635D01*
X138821447Y-100880331D01*
X138794424Y-101016190D01*
X138794424Y-101888482D01*
X138773983Y-101794516D01*
X138633826Y-101576428D01*
X138441393Y-101409683D01*
X138209777Y-101303909D01*
X138021068Y-101276776D01*
X137844500Y-101276776D01*
X137844500Y-102744000D01*
X137588500Y-102744000D01*
X137588500Y-101276776D01*
X137425812Y-101276776D01*
X137378976Y-101286964D01*
X137378976Y-99721590D01*
X137374738Y-99700282D01*
X146339024Y-99700282D01*
X146339024Y-101370210D01*
G37*
%TD.AperFunction*%
X136659017Y-103437484D02*
X136799174Y-103655572D01*
X136991607Y-103822317D01*
X137118938Y-103880466D01*
X137098047Y-103911731D01*
X137071024Y-104047590D01*
X137071024Y-104872410D01*
X137098047Y-105008269D01*
X137182035Y-105133965D01*
X137307731Y-105217953D01*
X137443590Y-105244976D01*
X137882754Y-105244976D01*
X138212801Y-105575024D01*
X137443590Y-105575024D01*
X137307731Y-105602047D01*
X137182035Y-105686035D01*
X137098047Y-105811731D01*
X137071024Y-105947590D01*
X137071024Y-106772410D01*
X137098047Y-106908269D01*
X137182035Y-107033965D01*
X137272001Y-107094078D01*
X137272000Y-107586409D01*
X137112346Y-107720375D01*
X137042802Y-107840830D01*
X137025983Y-107763516D01*
X136885826Y-107545428D01*
X136693393Y-107378683D01*
X136461777Y-107272909D01*
X136273068Y-107245776D01*
X136096500Y-107245776D01*
X136096499Y-108713000D01*
X135840500Y-108712999D01*
X135840501Y-107245776D01*
X135677812Y-107245776D01*
X135387282Y-107308977D01*
X135387282Y-106183776D01*
X135443590Y-106194976D01*
X136368410Y-106194976D01*
X136504269Y-106167953D01*
X136629965Y-106083965D01*
X136713953Y-105958269D01*
X136740976Y-105822410D01*
X136740976Y-104997590D01*
X136713953Y-104861731D01*
X136629965Y-104736035D01*
X136504269Y-104652047D01*
X136477500Y-104646723D01*
X136477500Y-103560469D01*
X136572654Y-103480625D01*
X136642198Y-103360170D01*
X136659017Y-103437484D01*
%TA.AperFunction,Conductor*%
G36*
X136659017Y-103437484D02*
G01*
X136799174Y-103655572D01*
X136991607Y-103822317D01*
X137118938Y-103880466D01*
X137098047Y-103911731D01*
X137071024Y-104047590D01*
X137071024Y-104872410D01*
X137098047Y-105008269D01*
X137182035Y-105133965D01*
X137307731Y-105217953D01*
X137443590Y-105244976D01*
X137882754Y-105244976D01*
X138212801Y-105575024D01*
X137443590Y-105575024D01*
X137307731Y-105602047D01*
X137182035Y-105686035D01*
X137098047Y-105811731D01*
X137071024Y-105947590D01*
X137071024Y-106772410D01*
X137098047Y-106908269D01*
X137182035Y-107033965D01*
X137272001Y-107094078D01*
X137272000Y-107586409D01*
X137112346Y-107720375D01*
X137042802Y-107840830D01*
X137025983Y-107763516D01*
X136885826Y-107545428D01*
X136693393Y-107378683D01*
X136461777Y-107272909D01*
X136273068Y-107245776D01*
X136096500Y-107245776D01*
X136096499Y-108713000D01*
X135840500Y-108712999D01*
X135840501Y-107245776D01*
X135677812Y-107245776D01*
X135387282Y-107308977D01*
X135387282Y-106183776D01*
X135443590Y-106194976D01*
X136368410Y-106194976D01*
X136504269Y-106167953D01*
X136629965Y-106083965D01*
X136713953Y-105958269D01*
X136740976Y-105822410D01*
X136740976Y-104997590D01*
X136713953Y-104861731D01*
X136629965Y-104736035D01*
X136504269Y-104652047D01*
X136477500Y-104646723D01*
X136477500Y-103560469D01*
X136572654Y-103480625D01*
X136642198Y-103360170D01*
X136659017Y-103437484D01*
G37*
%TD.AperFunction*%
%TD*%
M02*
