%TF.GenerationSoftware,KiCad,Pcbnew,(5.99.0-2363-g9a801d8b7)*%
%TF.CreationDate,2020-07-22T13:28:37+03:00*%
%TF.ProjectId,le-pre-et-le-boost,6c652d70-7265-42d6-9574-2d6c652d626f,rev?*%
%TF.SameCoordinates,Original*%
%TF.FileFunction,Soldermask,Bot*%
%TF.FilePolarity,Negative*%
%FSLAX46Y46*%
G04 Gerber Fmt 4.6, Leading zero omitted, Abs format (unit mm)*
G04 Created by KiCad (PCBNEW (5.99.0-2363-g9a801d8b7)) date 2020-07-22 13:28:37*
%MOMM*%
%LPD*%
G01*
G04 APERTURE LIST*
%ADD10R,0.900000X0.800000*%
%ADD11O,1.930400X1.930400*%
%ADD12R,1.930400X1.930400*%
G04 APERTURE END LIST*
%TO.C,R8*%
G36*
G01*
X144214000Y-105104250D02*
X144214000Y-104191750D01*
G75*
G02*
X144457750Y-103948000I243750J0D01*
G01*
X144945250Y-103948000D01*
G75*
G02*
X145189000Y-104191750I0J-243750D01*
G01*
X145189000Y-105104250D01*
G75*
G02*
X144945250Y-105348000I-243750J0D01*
G01*
X144457750Y-105348000D01*
G75*
G02*
X144214000Y-105104250I0J243750D01*
G01*
G37*
G36*
G01*
X142339000Y-105104250D02*
X142339000Y-104191750D01*
G75*
G02*
X142582750Y-103948000I243750J0D01*
G01*
X143070250Y-103948000D01*
G75*
G02*
X143314000Y-104191750I0J-243750D01*
G01*
X143314000Y-105104250D01*
G75*
G02*
X143070250Y-105348000I-243750J0D01*
G01*
X142582750Y-105348000D01*
G75*
G02*
X142339000Y-105104250I0J243750D01*
G01*
G37*
%TD*%
%TO.C,R7*%
G36*
G01*
X139123000Y-107493750D02*
X139123000Y-108406250D01*
G75*
G02*
X138879250Y-108650000I-243750J0D01*
G01*
X138391750Y-108650000D01*
G75*
G02*
X138148000Y-108406250I0J243750D01*
G01*
X138148000Y-107493750D01*
G75*
G02*
X138391750Y-107250000I243750J0D01*
G01*
X138879250Y-107250000D01*
G75*
G02*
X139123000Y-107493750I0J-243750D01*
G01*
G37*
G36*
G01*
X140998000Y-107493750D02*
X140998000Y-108406250D01*
G75*
G02*
X140754250Y-108650000I-243750J0D01*
G01*
X140266750Y-108650000D01*
G75*
G02*
X140023000Y-108406250I0J243750D01*
G01*
X140023000Y-107493750D01*
G75*
G02*
X140266750Y-107250000I243750J0D01*
G01*
X140754250Y-107250000D01*
G75*
G02*
X140998000Y-107493750I0J-243750D01*
G01*
G37*
%TD*%
%TO.C,R6*%
G36*
G01*
X139123000Y-99873750D02*
X139123000Y-100786250D01*
G75*
G02*
X138879250Y-101030000I-243750J0D01*
G01*
X138391750Y-101030000D01*
G75*
G02*
X138148000Y-100786250I0J243750D01*
G01*
X138148000Y-99873750D01*
G75*
G02*
X138391750Y-99630000I243750J0D01*
G01*
X138879250Y-99630000D01*
G75*
G02*
X139123000Y-99873750I0J-243750D01*
G01*
G37*
G36*
G01*
X140998000Y-99873750D02*
X140998000Y-100786250D01*
G75*
G02*
X140754250Y-101030000I-243750J0D01*
G01*
X140266750Y-101030000D01*
G75*
G02*
X140023000Y-100786250I0J243750D01*
G01*
X140023000Y-99873750D01*
G75*
G02*
X140266750Y-99630000I243750J0D01*
G01*
X140754250Y-99630000D01*
G75*
G02*
X140998000Y-99873750I0J-243750D01*
G01*
G37*
%TD*%
%TO.C,R5*%
G36*
G01*
X142552000Y-99873750D02*
X142552000Y-100786250D01*
G75*
G02*
X142308250Y-101030000I-243750J0D01*
G01*
X141820750Y-101030000D01*
G75*
G02*
X141577000Y-100786250I0J243750D01*
G01*
X141577000Y-99873750D01*
G75*
G02*
X141820750Y-99630000I243750J0D01*
G01*
X142308250Y-99630000D01*
G75*
G02*
X142552000Y-99873750I0J-243750D01*
G01*
G37*
G36*
G01*
X144427000Y-99873750D02*
X144427000Y-100786250D01*
G75*
G02*
X144183250Y-101030000I-243750J0D01*
G01*
X143695750Y-101030000D01*
G75*
G02*
X143452000Y-100786250I0J243750D01*
G01*
X143452000Y-99873750D01*
G75*
G02*
X143695750Y-99630000I243750J0D01*
G01*
X144183250Y-99630000D01*
G75*
G02*
X144427000Y-99873750I0J-243750D01*
G01*
G37*
%TD*%
D10*
%TO.C,Q2*%
X138573000Y-105156000D03*
X140573000Y-106106000D03*
X140573000Y-104206000D03*
%TD*%
%TO.C,C4*%
G36*
G01*
X144214000Y-103072250D02*
X144214000Y-102159750D01*
G75*
G02*
X144457750Y-101916000I243750J0D01*
G01*
X144945250Y-101916000D01*
G75*
G02*
X145189000Y-102159750I0J-243750D01*
G01*
X145189000Y-103072250D01*
G75*
G02*
X144945250Y-103316000I-243750J0D01*
G01*
X144457750Y-103316000D01*
G75*
G02*
X144214000Y-103072250I0J243750D01*
G01*
G37*
G36*
G01*
X142339000Y-103072250D02*
X142339000Y-102159750D01*
G75*
G02*
X142582750Y-101916000I243750J0D01*
G01*
X143070250Y-101916000D01*
G75*
G02*
X143314000Y-102159750I0J-243750D01*
G01*
X143314000Y-103072250D01*
G75*
G02*
X143070250Y-103316000I-243750J0D01*
G01*
X142582750Y-103316000D01*
G75*
G02*
X142339000Y-103072250I0J243750D01*
G01*
G37*
%TD*%
%TO.C,C3*%
G36*
G01*
X140023000Y-102818250D02*
X140023000Y-101905750D01*
G75*
G02*
X140266750Y-101662000I243750J0D01*
G01*
X140754250Y-101662000D01*
G75*
G02*
X140998000Y-101905750I0J-243750D01*
G01*
X140998000Y-102818250D01*
G75*
G02*
X140754250Y-103062000I-243750J0D01*
G01*
X140266750Y-103062000D01*
G75*
G02*
X140023000Y-102818250I0J243750D01*
G01*
G37*
G36*
G01*
X138148000Y-102818250D02*
X138148000Y-101905750D01*
G75*
G02*
X138391750Y-101662000I243750J0D01*
G01*
X138879250Y-101662000D01*
G75*
G02*
X139123000Y-101905750I0J-243750D01*
G01*
X139123000Y-102818250D01*
G75*
G02*
X138879250Y-103062000I-243750J0D01*
G01*
X138391750Y-103062000D01*
G75*
G02*
X138148000Y-102818250I0J243750D01*
G01*
G37*
%TD*%
D11*
%TO.C,J1*%
X146558000Y-106934000D03*
D12*
X144018000Y-106934000D03*
%TD*%
%TO.C,J3*%
X146812000Y-101854000D03*
D11*
X146812000Y-104394000D03*
%TD*%
D12*
%TO.C,J2*%
X136398000Y-101854000D03*
D11*
X136398000Y-104394000D03*
%TD*%
M02*
