%TF.GenerationSoftware,KiCad,Pcbnew,6.0.0+dfsg1-2*%
%TF.CreationDate,2022-01-11T21:03:06+02:00*%
%TF.ProjectId,le-pre-et-le-boost,6c652d70-7265-42d6-9574-2d6c652d626f,rev?*%
%TF.SameCoordinates,Original*%
%TF.FileFunction,Copper,L1,Top*%
%TF.FilePolarity,Positive*%
%FSLAX46Y46*%
G04 Gerber Fmt 4.6, Leading zero omitted, Abs format (unit mm)*
G04 Created by KiCad (PCBNEW 6.0.0+dfsg1-2) date 2022-01-11 21:03:06*
%MOMM*%
%LPD*%
G01*
G04 APERTURE LIST*
G04 Aperture macros list*
%AMRoundRect*
0 Rectangle with rounded corners*
0 $1 Rounding radius*
0 $2 $3 $4 $5 $6 $7 $8 $9 X,Y pos of 4 corners*
0 Add a 4 corners polygon primitive as box body*
4,1,4,$2,$3,$4,$5,$6,$7,$8,$9,$2,$3,0*
0 Add four circle primitives for the rounded corners*
1,1,$1+$1,$2,$3*
1,1,$1+$1,$4,$5*
1,1,$1+$1,$6,$7*
1,1,$1+$1,$8,$9*
0 Add four rect primitives between the rounded corners*
20,1,$1+$1,$2,$3,$4,$5,0*
20,1,$1+$1,$4,$5,$6,$7,0*
20,1,$1+$1,$6,$7,$8,$9,0*
20,1,$1+$1,$8,$9,$2,$3,0*%
G04 Aperture macros list end*
%TA.AperFunction,ComponentPad*%
%ADD10R,1.600000X1.600000*%
%TD*%
%TA.AperFunction,ComponentPad*%
%ADD11C,1.600000*%
%TD*%
%TA.AperFunction,ComponentPad*%
%ADD12R,1.930400X1.930400*%
%TD*%
%TA.AperFunction,ComponentPad*%
%ADD13O,1.930400X1.930400*%
%TD*%
%TA.AperFunction,SMDPad,CuDef*%
%ADD14RoundRect,0.243750X0.243750X0.456250X-0.243750X0.456250X-0.243750X-0.456250X0.243750X-0.456250X0*%
%TD*%
%TA.AperFunction,SMDPad,CuDef*%
%ADD15RoundRect,0.243750X-0.456250X0.243750X-0.456250X-0.243750X0.456250X-0.243750X0.456250X0.243750X0*%
%TD*%
%TA.AperFunction,SMDPad,CuDef*%
%ADD16R,0.900000X0.800000*%
%TD*%
%TA.AperFunction,SMDPad,CuDef*%
%ADD17RoundRect,0.243750X-0.243750X-0.456250X0.243750X-0.456250X0.243750X0.456250X-0.243750X0.456250X0*%
%TD*%
%TA.AperFunction,ViaPad*%
%ADD18C,0.800000*%
%TD*%
%TA.AperFunction,Conductor*%
%ADD19C,0.381000*%
%TD*%
%TA.AperFunction,Conductor*%
%ADD20C,0.254000*%
%TD*%
G04 APERTURE END LIST*
D10*
%TO.P,C1,1*%
%TO.N,Net-(C1-Pad1)*%
X142494000Y-101854000D03*
D11*
%TO.P,C1,2*%
%TO.N,PRE_OUT*%
X139994000Y-101854000D03*
%TD*%
D12*
%TO.P,J1,1*%
%TO.N,+9V*%
X144272000Y-108458000D03*
D13*
%TO.P,J1,2*%
%TO.N,GND*%
X146812000Y-108458000D03*
%TD*%
D12*
%TO.P,J2,1,Pin_1*%
%TO.N,PRE_IN*%
X133350000Y-108585000D03*
D13*
%TO.P,J2,2,Pin_2*%
%TO.N,PRE_OUT*%
X135890000Y-108585000D03*
%TO.P,J2,3,Pin_3*%
%TO.N,BOOST_IN*%
X138430000Y-108585000D03*
%TO.P,J2,4,Pin_4*%
%TO.N,BOOST_OUT*%
X140970000Y-108585000D03*
%TD*%
D10*
%TO.P,C2,1*%
%TO.N,+9V*%
X147574000Y-104394000D03*
D11*
%TO.P,C2,2*%
%TO.N,GND*%
X145074000Y-104394000D03*
%TD*%
D14*
%TO.P,R3,1*%
%TO.N,+9V*%
X142796500Y-105613200D03*
%TO.P,R3,2*%
%TO.N,Net-(C1-Pad1)*%
X140921500Y-105613200D03*
%TD*%
%TO.P,R4,1*%
%TO.N,PRE_OUT*%
X138148300Y-105410000D03*
%TO.P,R4,2*%
%TO.N,GND*%
X136273300Y-105410000D03*
%TD*%
D15*
%TO.P,R2,1*%
%TO.N,Net-(Q1-Pad1)*%
X137007600Y-101729300D03*
%TO.P,R2,2*%
%TO.N,GND*%
X137007600Y-103604300D03*
%TD*%
D16*
%TO.P,Q1,1,D*%
%TO.N,Net-(Q1-Pad1)*%
X134858000Y-101915000D03*
%TO.P,Q1,2,S*%
%TO.N,Net-(C1-Pad1)*%
X134858000Y-100015000D03*
%TO.P,Q1,3,G*%
%TO.N,PRE_IN*%
X132858000Y-100965000D03*
%TD*%
D17*
%TO.P,R1,1*%
%TO.N,PRE_IN*%
X132869700Y-105410000D03*
%TO.P,R1,2*%
%TO.N,GND*%
X134744700Y-105410000D03*
%TD*%
D18*
%TO.N,GND*%
X133985000Y-100965000D03*
X144373600Y-101955600D03*
X143256000Y-104241600D03*
%TD*%
D19*
%TO.N,PRE_OUT*%
X139994000Y-103513500D02*
X138097500Y-105410000D01*
X139994000Y-101854000D02*
X139994000Y-103513500D01*
X138097500Y-106275900D02*
X138097500Y-105410000D01*
X135890000Y-108483400D02*
X138097500Y-106275900D01*
%TO.N,Net-(C1-Pad1)*%
X141048500Y-103299500D02*
X142494000Y-101854000D01*
X141048500Y-105537000D02*
X141048500Y-103299500D01*
X140655000Y-100015000D02*
X142494000Y-101854000D01*
X134858000Y-100015000D02*
X140655000Y-100015000D01*
%TO.N,+9V*%
X143409083Y-106022583D02*
X145945417Y-106022583D01*
X142923500Y-105537000D02*
X143409083Y-106022583D01*
X145945417Y-106022583D02*
X147574000Y-104394000D01*
%TO.N,Net-(Q1-Pad1)*%
X134858000Y-101915000D02*
X136821900Y-101915000D01*
X136821900Y-101915000D02*
X137007600Y-101729300D01*
%TO.N,PRE_IN*%
X132969000Y-105410000D02*
X132969000Y-108102400D01*
X132969000Y-105410000D02*
X132969000Y-101076000D01*
X132969000Y-108102400D02*
X133350000Y-108483400D01*
X132969000Y-101076000D02*
X132858000Y-100965000D01*
%TD*%
%TO.N,GND*%
D20*
X148464000Y-103223947D02*
X148423648Y-103215921D01*
X148399067Y-103213500D01*
X146748934Y-103213501D01*
X146724355Y-103215922D01*
X146650120Y-103230687D01*
X146604697Y-103249501D01*
X146520514Y-103305751D01*
X146485751Y-103340514D01*
X146429501Y-103424697D01*
X146410687Y-103470118D01*
X146395921Y-103544352D01*
X146393500Y-103568933D01*
X146393500Y-103830544D01*
X146325283Y-103684252D01*
X146314301Y-103665231D01*
X146264312Y-103593840D01*
X146208854Y-103549512D01*
X146138235Y-103542203D01*
X146072004Y-103577016D01*
X144257016Y-105392004D01*
X144224482Y-105451583D01*
X143664499Y-105451583D01*
X143664499Y-105109786D01*
X143663762Y-105096180D01*
X143657144Y-105035252D01*
X143649863Y-105004630D01*
X143599765Y-104870990D01*
X143582609Y-104839653D01*
X143497015Y-104725446D01*
X143471754Y-104700185D01*
X143357547Y-104614591D01*
X143326210Y-104597435D01*
X143192570Y-104547337D01*
X143161950Y-104540056D01*
X143101023Y-104533437D01*
X143087415Y-104532700D01*
X142505586Y-104532701D01*
X142491980Y-104533438D01*
X142431052Y-104540056D01*
X142400430Y-104547337D01*
X142266790Y-104597435D01*
X142235453Y-104614591D01*
X142121246Y-104700185D01*
X142095985Y-104725446D01*
X142010391Y-104839653D01*
X141993235Y-104870990D01*
X141943137Y-105004630D01*
X141935856Y-105035250D01*
X141929237Y-105096177D01*
X141928500Y-105109785D01*
X141928501Y-106116614D01*
X141929238Y-106130220D01*
X141935856Y-106191148D01*
X141943137Y-106221770D01*
X141993235Y-106355410D01*
X142010391Y-106386747D01*
X142095985Y-106500954D01*
X142121246Y-106526215D01*
X142235453Y-106611809D01*
X142266790Y-106628965D01*
X142400430Y-106679063D01*
X142431050Y-106686344D01*
X142491977Y-106692963D01*
X142505585Y-106693700D01*
X143087414Y-106693699D01*
X143101020Y-106692962D01*
X143161948Y-106686344D01*
X143192570Y-106679063D01*
X143326210Y-106628965D01*
X143357547Y-106611809D01*
X143381866Y-106593583D01*
X143397242Y-106593583D01*
X143453521Y-106595794D01*
X143473548Y-106593583D01*
X145911530Y-106593583D01*
X145944743Y-106597514D01*
X145982191Y-106596337D01*
X146039182Y-106585928D01*
X146096475Y-106577315D01*
X146111275Y-106572762D01*
X146113826Y-106572296D01*
X146123003Y-106569154D01*
X146132283Y-106566299D01*
X146134624Y-106565175D01*
X146149271Y-106560160D01*
X146200684Y-106533453D01*
X146252911Y-106508374D01*
X146265715Y-106499672D01*
X146268016Y-106498477D01*
X146291769Y-106482470D01*
X146296760Y-106478207D01*
X146304021Y-106471494D01*
X146340800Y-106434715D01*
X146382160Y-106396482D01*
X146394759Y-106380756D01*
X147201015Y-105574500D01*
X148399066Y-105574499D01*
X148423645Y-105572078D01*
X148464000Y-105564052D01*
X148464000Y-109475000D01*
X148050563Y-109475000D01*
X148181429Y-109292881D01*
X148192064Y-109275182D01*
X148299398Y-109058007D01*
X148306999Y-109038809D01*
X148377422Y-108807020D01*
X148381786Y-108786837D01*
X148389473Y-108728446D01*
X148378533Y-108658297D01*
X148331405Y-108605199D01*
X148264551Y-108586000D01*
X146684000Y-108586000D01*
X146684000Y-108204000D01*
X146940000Y-108204000D01*
X146960002Y-108272121D01*
X147013658Y-108318614D01*
X147066000Y-108330000D01*
X148267243Y-108330000D01*
X148335364Y-108309998D01*
X148381857Y-108256342D01*
X148391961Y-108186068D01*
X148389447Y-108173305D01*
X148333587Y-107950916D01*
X148326933Y-107931369D01*
X148230336Y-107709210D01*
X148220578Y-107691012D01*
X148088993Y-107487614D01*
X148076395Y-107471255D01*
X147913357Y-107292078D01*
X147898255Y-107277995D01*
X147708143Y-107127853D01*
X147690945Y-107116426D01*
X147478862Y-106999350D01*
X147460028Y-106990886D01*
X147231672Y-106910021D01*
X147211708Y-106904746D01*
X147088096Y-106882728D01*
X147017523Y-106890475D01*
X146962341Y-106935146D01*
X146940000Y-107006776D01*
X146940000Y-108204000D01*
X146684000Y-108204000D01*
X146684000Y-107006440D01*
X146663998Y-106938319D01*
X146610342Y-106891826D01*
X146538941Y-106881890D01*
X146450360Y-106895445D01*
X146430274Y-106900230D01*
X146200010Y-106975492D01*
X146180975Y-106983494D01*
X145966096Y-107095353D01*
X145948623Y-107106356D01*
X145754899Y-107251808D01*
X145739458Y-107265517D01*
X145607427Y-107403680D01*
X145600513Y-107368920D01*
X145581699Y-107323497D01*
X145525449Y-107239314D01*
X145490686Y-107204551D01*
X145406503Y-107148301D01*
X145361082Y-107129487D01*
X145286848Y-107114721D01*
X145262267Y-107112300D01*
X143281734Y-107112301D01*
X143257155Y-107114722D01*
X143182920Y-107129487D01*
X143137497Y-107148301D01*
X143053314Y-107204551D01*
X143018551Y-107239314D01*
X142962301Y-107323497D01*
X142943487Y-107368918D01*
X142928721Y-107443152D01*
X142926300Y-107467733D01*
X142926301Y-109448266D01*
X142928722Y-109472845D01*
X142929151Y-109475000D01*
X141983106Y-109475000D01*
X141997008Y-109461098D01*
X142011126Y-109444274D01*
X142133539Y-109269450D01*
X142144521Y-109250429D01*
X142234716Y-109057005D01*
X142242228Y-109036366D01*
X142297465Y-108830219D01*
X142301279Y-108808590D01*
X142319880Y-108595982D01*
X142319880Y-108574018D01*
X142301279Y-108361410D01*
X142297465Y-108339781D01*
X142242228Y-108133634D01*
X142234716Y-108112995D01*
X142144521Y-107919571D01*
X142133539Y-107900550D01*
X142011126Y-107725726D01*
X141997008Y-107708902D01*
X141846098Y-107557992D01*
X141829274Y-107543874D01*
X141654451Y-107421461D01*
X141635430Y-107410479D01*
X141442005Y-107320284D01*
X141421366Y-107312772D01*
X141215219Y-107257535D01*
X141193590Y-107253721D01*
X140980982Y-107235120D01*
X140959018Y-107235120D01*
X140746410Y-107253721D01*
X140724781Y-107257535D01*
X140518634Y-107312772D01*
X140497995Y-107320284D01*
X140304571Y-107410479D01*
X140285550Y-107421461D01*
X140110726Y-107543874D01*
X140093902Y-107557992D01*
X139942992Y-107708902D01*
X139928874Y-107725726D01*
X139806461Y-107900550D01*
X139795479Y-107919571D01*
X139705284Y-108112995D01*
X139700000Y-108127513D01*
X139694716Y-108112995D01*
X139604521Y-107919571D01*
X139593539Y-107900550D01*
X139471126Y-107725726D01*
X139457008Y-107708902D01*
X139306098Y-107557992D01*
X139289274Y-107543874D01*
X139114451Y-107421461D01*
X139095430Y-107410479D01*
X138902005Y-107320284D01*
X138881366Y-107312772D01*
X138675219Y-107257535D01*
X138653590Y-107253721D01*
X138440982Y-107235120D01*
X138419018Y-107235120D01*
X138206410Y-107253721D01*
X138184781Y-107257535D01*
X137978634Y-107312772D01*
X137957995Y-107320284D01*
X137775560Y-107405355D01*
X138477293Y-106703622D01*
X138503561Y-106682914D01*
X138529208Y-106655602D01*
X138562153Y-106607933D01*
X138596568Y-106561341D01*
X138603813Y-106547659D01*
X138605291Y-106545520D01*
X138609560Y-106536805D01*
X138614099Y-106528233D01*
X138614960Y-106525781D01*
X138621771Y-106511877D01*
X138639229Y-106456674D01*
X138645850Y-106437822D01*
X138678010Y-106425766D01*
X138709347Y-106408609D01*
X138823554Y-106323015D01*
X138848815Y-106297754D01*
X138934409Y-106183547D01*
X138951565Y-106152210D01*
X139001663Y-106018570D01*
X139008944Y-105987950D01*
X139015563Y-105927023D01*
X139016300Y-105913415D01*
X139016299Y-105298716D01*
X140373793Y-103941222D01*
X140400061Y-103920514D01*
X140425708Y-103893202D01*
X140458637Y-103845557D01*
X140477500Y-103820019D01*
X140477500Y-104565305D01*
X140391790Y-104597435D01*
X140360453Y-104614591D01*
X140246246Y-104700185D01*
X140220985Y-104725446D01*
X140135391Y-104839653D01*
X140118235Y-104870990D01*
X140068137Y-105004630D01*
X140060856Y-105035250D01*
X140054237Y-105096177D01*
X140053500Y-105109785D01*
X140053501Y-106116614D01*
X140054238Y-106130220D01*
X140060856Y-106191148D01*
X140068137Y-106221770D01*
X140118235Y-106355410D01*
X140135391Y-106386747D01*
X140220985Y-106500954D01*
X140246246Y-106526215D01*
X140360453Y-106611809D01*
X140391790Y-106628965D01*
X140525430Y-106679063D01*
X140556050Y-106686344D01*
X140616977Y-106692963D01*
X140630585Y-106693700D01*
X141212414Y-106693699D01*
X141226020Y-106692962D01*
X141286948Y-106686344D01*
X141317570Y-106679063D01*
X141451210Y-106628965D01*
X141482547Y-106611809D01*
X141596754Y-106526215D01*
X141622015Y-106500954D01*
X141707609Y-106386747D01*
X141724765Y-106355410D01*
X141774863Y-106221770D01*
X141782144Y-106191150D01*
X141788763Y-106130223D01*
X141789500Y-106116615D01*
X141789499Y-105109786D01*
X141788762Y-105096180D01*
X141782144Y-105035252D01*
X141774863Y-105004630D01*
X141724765Y-104870990D01*
X141707609Y-104839653D01*
X141622015Y-104725446D01*
X141619500Y-104722931D01*
X141619500Y-104404981D01*
X143635483Y-104404981D01*
X143655430Y-104632980D01*
X143659244Y-104654610D01*
X143718480Y-104875682D01*
X143725992Y-104896321D01*
X143822717Y-105103748D01*
X143833699Y-105122769D01*
X143883688Y-105194160D01*
X143939146Y-105238488D01*
X144009765Y-105245797D01*
X144075996Y-105210984D01*
X144803885Y-104483095D01*
X144837911Y-104420783D01*
X144832846Y-104349968D01*
X144803885Y-104304905D01*
X144075996Y-103577016D01*
X144013684Y-103542990D01*
X143942869Y-103548055D01*
X143883688Y-103593840D01*
X143833699Y-103665231D01*
X143822717Y-103684252D01*
X143725992Y-103891679D01*
X143718480Y-103912318D01*
X143659244Y-104133390D01*
X143655430Y-104155020D01*
X143635483Y-104383019D01*
X143635483Y-104404981D01*
X141619500Y-104404981D01*
X141619500Y-103536015D01*
X141825750Y-103329765D01*
X144222203Y-103329765D01*
X144257016Y-103395996D01*
X144984905Y-104123885D01*
X145047217Y-104157911D01*
X145118032Y-104152846D01*
X145163095Y-104123885D01*
X145890984Y-103395996D01*
X145925010Y-103333684D01*
X145919945Y-103262869D01*
X145874160Y-103203688D01*
X145802769Y-103153699D01*
X145783748Y-103142717D01*
X145576321Y-103045992D01*
X145555682Y-103038480D01*
X145334610Y-102979244D01*
X145312980Y-102975430D01*
X145084981Y-102955483D01*
X145063019Y-102955483D01*
X144835020Y-102975430D01*
X144813390Y-102979244D01*
X144592318Y-103038480D01*
X144571679Y-103045992D01*
X144364252Y-103142717D01*
X144345231Y-103153699D01*
X144273840Y-103203688D01*
X144229512Y-103259146D01*
X144222203Y-103329765D01*
X141825750Y-103329765D01*
X142121015Y-103034500D01*
X143319066Y-103034499D01*
X143343645Y-103032078D01*
X143417880Y-103017313D01*
X143463303Y-102998499D01*
X143547486Y-102942249D01*
X143582249Y-102907486D01*
X143638499Y-102823303D01*
X143657313Y-102777882D01*
X143672079Y-102703648D01*
X143674500Y-102679067D01*
X143674499Y-101028934D01*
X143672078Y-101004355D01*
X143657313Y-100930120D01*
X143638499Y-100884697D01*
X143582249Y-100800514D01*
X143547486Y-100765751D01*
X143463303Y-100709501D01*
X143417882Y-100690687D01*
X143343648Y-100675921D01*
X143319067Y-100673500D01*
X142121016Y-100673501D01*
X141141515Y-99694000D01*
X148464000Y-99694000D01*
X148464000Y-103223947D02*
X148464000Y-99694000D01*
%TA.AperFunction,Conductor*%
G36*
X148464000Y-103223947D02*
G01*
X148423648Y-103215921D01*
X148399067Y-103213500D01*
X146748934Y-103213501D01*
X146724355Y-103215922D01*
X146650120Y-103230687D01*
X146604697Y-103249501D01*
X146520514Y-103305751D01*
X146485751Y-103340514D01*
X146429501Y-103424697D01*
X146410687Y-103470118D01*
X146395921Y-103544352D01*
X146393500Y-103568933D01*
X146393500Y-103830544D01*
X146325283Y-103684252D01*
X146314301Y-103665231D01*
X146264312Y-103593840D01*
X146208854Y-103549512D01*
X146138235Y-103542203D01*
X146072004Y-103577016D01*
X144257016Y-105392004D01*
X144224482Y-105451583D01*
X143664499Y-105451583D01*
X143664499Y-105109786D01*
X143663762Y-105096180D01*
X143657144Y-105035252D01*
X143649863Y-105004630D01*
X143599765Y-104870990D01*
X143582609Y-104839653D01*
X143497015Y-104725446D01*
X143471754Y-104700185D01*
X143357547Y-104614591D01*
X143326210Y-104597435D01*
X143192570Y-104547337D01*
X143161950Y-104540056D01*
X143101023Y-104533437D01*
X143087415Y-104532700D01*
X142505586Y-104532701D01*
X142491980Y-104533438D01*
X142431052Y-104540056D01*
X142400430Y-104547337D01*
X142266790Y-104597435D01*
X142235453Y-104614591D01*
X142121246Y-104700185D01*
X142095985Y-104725446D01*
X142010391Y-104839653D01*
X141993235Y-104870990D01*
X141943137Y-105004630D01*
X141935856Y-105035250D01*
X141929237Y-105096177D01*
X141928500Y-105109785D01*
X141928501Y-106116614D01*
X141929238Y-106130220D01*
X141935856Y-106191148D01*
X141943137Y-106221770D01*
X141993235Y-106355410D01*
X142010391Y-106386747D01*
X142095985Y-106500954D01*
X142121246Y-106526215D01*
X142235453Y-106611809D01*
X142266790Y-106628965D01*
X142400430Y-106679063D01*
X142431050Y-106686344D01*
X142491977Y-106692963D01*
X142505585Y-106693700D01*
X143087414Y-106693699D01*
X143101020Y-106692962D01*
X143161948Y-106686344D01*
X143192570Y-106679063D01*
X143326210Y-106628965D01*
X143357547Y-106611809D01*
X143381866Y-106593583D01*
X143397242Y-106593583D01*
X143453521Y-106595794D01*
X143473548Y-106593583D01*
X145911530Y-106593583D01*
X145944743Y-106597514D01*
X145982191Y-106596337D01*
X146039182Y-106585928D01*
X146096475Y-106577315D01*
X146111275Y-106572762D01*
X146113826Y-106572296D01*
X146123003Y-106569154D01*
X146132283Y-106566299D01*
X146134624Y-106565175D01*
X146149271Y-106560160D01*
X146200684Y-106533453D01*
X146252911Y-106508374D01*
X146265715Y-106499672D01*
X146268016Y-106498477D01*
X146291769Y-106482470D01*
X146296760Y-106478207D01*
X146304021Y-106471494D01*
X146340800Y-106434715D01*
X146382160Y-106396482D01*
X146394759Y-106380756D01*
X147201015Y-105574500D01*
X148399066Y-105574499D01*
X148423645Y-105572078D01*
X148464000Y-105564052D01*
X148464000Y-109475000D01*
X148050563Y-109475000D01*
X148181429Y-109292881D01*
X148192064Y-109275182D01*
X148299398Y-109058007D01*
X148306999Y-109038809D01*
X148377422Y-108807020D01*
X148381786Y-108786837D01*
X148389473Y-108728446D01*
X148378533Y-108658297D01*
X148331405Y-108605199D01*
X148264551Y-108586000D01*
X146684000Y-108586000D01*
X146684000Y-108204000D01*
X146940000Y-108204000D01*
X146960002Y-108272121D01*
X147013658Y-108318614D01*
X147066000Y-108330000D01*
X148267243Y-108330000D01*
X148335364Y-108309998D01*
X148381857Y-108256342D01*
X148391961Y-108186068D01*
X148389447Y-108173305D01*
X148333587Y-107950916D01*
X148326933Y-107931369D01*
X148230336Y-107709210D01*
X148220578Y-107691012D01*
X148088993Y-107487614D01*
X148076395Y-107471255D01*
X147913357Y-107292078D01*
X147898255Y-107277995D01*
X147708143Y-107127853D01*
X147690945Y-107116426D01*
X147478862Y-106999350D01*
X147460028Y-106990886D01*
X147231672Y-106910021D01*
X147211708Y-106904746D01*
X147088096Y-106882728D01*
X147017523Y-106890475D01*
X146962341Y-106935146D01*
X146940000Y-107006776D01*
X146940000Y-108204000D01*
X146684000Y-108204000D01*
X146684000Y-107006440D01*
X146663998Y-106938319D01*
X146610342Y-106891826D01*
X146538941Y-106881890D01*
X146450360Y-106895445D01*
X146430274Y-106900230D01*
X146200010Y-106975492D01*
X146180975Y-106983494D01*
X145966096Y-107095353D01*
X145948623Y-107106356D01*
X145754899Y-107251808D01*
X145739458Y-107265517D01*
X145607427Y-107403680D01*
X145600513Y-107368920D01*
X145581699Y-107323497D01*
X145525449Y-107239314D01*
X145490686Y-107204551D01*
X145406503Y-107148301D01*
X145361082Y-107129487D01*
X145286848Y-107114721D01*
X145262267Y-107112300D01*
X143281734Y-107112301D01*
X143257155Y-107114722D01*
X143182920Y-107129487D01*
X143137497Y-107148301D01*
X143053314Y-107204551D01*
X143018551Y-107239314D01*
X142962301Y-107323497D01*
X142943487Y-107368918D01*
X142928721Y-107443152D01*
X142926300Y-107467733D01*
X142926301Y-109448266D01*
X142928722Y-109472845D01*
X142929151Y-109475000D01*
X141983106Y-109475000D01*
X141997008Y-109461098D01*
X142011126Y-109444274D01*
X142133539Y-109269450D01*
X142144521Y-109250429D01*
X142234716Y-109057005D01*
X142242228Y-109036366D01*
X142297465Y-108830219D01*
X142301279Y-108808590D01*
X142319880Y-108595982D01*
X142319880Y-108574018D01*
X142301279Y-108361410D01*
X142297465Y-108339781D01*
X142242228Y-108133634D01*
X142234716Y-108112995D01*
X142144521Y-107919571D01*
X142133539Y-107900550D01*
X142011126Y-107725726D01*
X141997008Y-107708902D01*
X141846098Y-107557992D01*
X141829274Y-107543874D01*
X141654451Y-107421461D01*
X141635430Y-107410479D01*
X141442005Y-107320284D01*
X141421366Y-107312772D01*
X141215219Y-107257535D01*
X141193590Y-107253721D01*
X140980982Y-107235120D01*
X140959018Y-107235120D01*
X140746410Y-107253721D01*
X140724781Y-107257535D01*
X140518634Y-107312772D01*
X140497995Y-107320284D01*
X140304571Y-107410479D01*
X140285550Y-107421461D01*
X140110726Y-107543874D01*
X140093902Y-107557992D01*
X139942992Y-107708902D01*
X139928874Y-107725726D01*
X139806461Y-107900550D01*
X139795479Y-107919571D01*
X139705284Y-108112995D01*
X139700000Y-108127513D01*
X139694716Y-108112995D01*
X139604521Y-107919571D01*
X139593539Y-107900550D01*
X139471126Y-107725726D01*
X139457008Y-107708902D01*
X139306098Y-107557992D01*
X139289274Y-107543874D01*
X139114451Y-107421461D01*
X139095430Y-107410479D01*
X138902005Y-107320284D01*
X138881366Y-107312772D01*
X138675219Y-107257535D01*
X138653590Y-107253721D01*
X138440982Y-107235120D01*
X138419018Y-107235120D01*
X138206410Y-107253721D01*
X138184781Y-107257535D01*
X137978634Y-107312772D01*
X137957995Y-107320284D01*
X137775560Y-107405355D01*
X138477293Y-106703622D01*
X138503561Y-106682914D01*
X138529208Y-106655602D01*
X138562153Y-106607933D01*
X138596568Y-106561341D01*
X138603813Y-106547659D01*
X138605291Y-106545520D01*
X138609560Y-106536805D01*
X138614099Y-106528233D01*
X138614960Y-106525781D01*
X138621771Y-106511877D01*
X138639229Y-106456674D01*
X138645850Y-106437822D01*
X138678010Y-106425766D01*
X138709347Y-106408609D01*
X138823554Y-106323015D01*
X138848815Y-106297754D01*
X138934409Y-106183547D01*
X138951565Y-106152210D01*
X139001663Y-106018570D01*
X139008944Y-105987950D01*
X139015563Y-105927023D01*
X139016300Y-105913415D01*
X139016299Y-105298716D01*
X140373793Y-103941222D01*
X140400061Y-103920514D01*
X140425708Y-103893202D01*
X140458637Y-103845557D01*
X140477500Y-103820019D01*
X140477500Y-104565305D01*
X140391790Y-104597435D01*
X140360453Y-104614591D01*
X140246246Y-104700185D01*
X140220985Y-104725446D01*
X140135391Y-104839653D01*
X140118235Y-104870990D01*
X140068137Y-105004630D01*
X140060856Y-105035250D01*
X140054237Y-105096177D01*
X140053500Y-105109785D01*
X140053501Y-106116614D01*
X140054238Y-106130220D01*
X140060856Y-106191148D01*
X140068137Y-106221770D01*
X140118235Y-106355410D01*
X140135391Y-106386747D01*
X140220985Y-106500954D01*
X140246246Y-106526215D01*
X140360453Y-106611809D01*
X140391790Y-106628965D01*
X140525430Y-106679063D01*
X140556050Y-106686344D01*
X140616977Y-106692963D01*
X140630585Y-106693700D01*
X141212414Y-106693699D01*
X141226020Y-106692962D01*
X141286948Y-106686344D01*
X141317570Y-106679063D01*
X141451210Y-106628965D01*
X141482547Y-106611809D01*
X141596754Y-106526215D01*
X141622015Y-106500954D01*
X141707609Y-106386747D01*
X141724765Y-106355410D01*
X141774863Y-106221770D01*
X141782144Y-106191150D01*
X141788763Y-106130223D01*
X141789500Y-106116615D01*
X141789499Y-105109786D01*
X141788762Y-105096180D01*
X141782144Y-105035252D01*
X141774863Y-105004630D01*
X141724765Y-104870990D01*
X141707609Y-104839653D01*
X141622015Y-104725446D01*
X141619500Y-104722931D01*
X141619500Y-104404981D01*
X143635483Y-104404981D01*
X143655430Y-104632980D01*
X143659244Y-104654610D01*
X143718480Y-104875682D01*
X143725992Y-104896321D01*
X143822717Y-105103748D01*
X143833699Y-105122769D01*
X143883688Y-105194160D01*
X143939146Y-105238488D01*
X144009765Y-105245797D01*
X144075996Y-105210984D01*
X144803885Y-104483095D01*
X144837911Y-104420783D01*
X144832846Y-104349968D01*
X144803885Y-104304905D01*
X144075996Y-103577016D01*
X144013684Y-103542990D01*
X143942869Y-103548055D01*
X143883688Y-103593840D01*
X143833699Y-103665231D01*
X143822717Y-103684252D01*
X143725992Y-103891679D01*
X143718480Y-103912318D01*
X143659244Y-104133390D01*
X143655430Y-104155020D01*
X143635483Y-104383019D01*
X143635483Y-104404981D01*
X141619500Y-104404981D01*
X141619500Y-103536015D01*
X141825750Y-103329765D01*
X144222203Y-103329765D01*
X144257016Y-103395996D01*
X144984905Y-104123885D01*
X145047217Y-104157911D01*
X145118032Y-104152846D01*
X145163095Y-104123885D01*
X145890984Y-103395996D01*
X145925010Y-103333684D01*
X145919945Y-103262869D01*
X145874160Y-103203688D01*
X145802769Y-103153699D01*
X145783748Y-103142717D01*
X145576321Y-103045992D01*
X145555682Y-103038480D01*
X145334610Y-102979244D01*
X145312980Y-102975430D01*
X145084981Y-102955483D01*
X145063019Y-102955483D01*
X144835020Y-102975430D01*
X144813390Y-102979244D01*
X144592318Y-103038480D01*
X144571679Y-103045992D01*
X144364252Y-103142717D01*
X144345231Y-103153699D01*
X144273840Y-103203688D01*
X144229512Y-103259146D01*
X144222203Y-103329765D01*
X141825750Y-103329765D01*
X142121015Y-103034500D01*
X143319066Y-103034499D01*
X143343645Y-103032078D01*
X143417880Y-103017313D01*
X143463303Y-102998499D01*
X143547486Y-102942249D01*
X143582249Y-102907486D01*
X143638499Y-102823303D01*
X143657313Y-102777882D01*
X143672079Y-102703648D01*
X143674500Y-102679067D01*
X143674499Y-101028934D01*
X143672078Y-101004355D01*
X143657313Y-100930120D01*
X143638499Y-100884697D01*
X143582249Y-100800514D01*
X143547486Y-100765751D01*
X143463303Y-100709501D01*
X143417882Y-100690687D01*
X143343648Y-100675921D01*
X143319067Y-100673500D01*
X142121016Y-100673501D01*
X141141515Y-99694000D01*
X148464000Y-99694000D01*
X148464000Y-103223947D01*
G37*
%TD.AperFunction*%
X134027501Y-100440066D02*
X134029922Y-100464645D01*
X134044687Y-100538880D01*
X134063501Y-100584303D01*
X134119751Y-100668486D01*
X134154514Y-100703249D01*
X134238697Y-100759499D01*
X134284118Y-100778313D01*
X134358352Y-100793079D01*
X134382933Y-100795500D01*
X135333066Y-100795499D01*
X135357645Y-100793078D01*
X135431880Y-100778313D01*
X135477303Y-100759499D01*
X135561486Y-100703249D01*
X135596249Y-100668486D01*
X135651365Y-100586000D01*
X140418485Y-100586000D01*
X141313500Y-101481015D01*
X141313501Y-102226984D01*
X140668707Y-102871778D01*
X140642439Y-102892486D01*
X140616792Y-102919798D01*
X140583863Y-102967443D01*
X140565000Y-102992981D01*
X140565000Y-102888180D01*
X140618574Y-102861118D01*
X140639337Y-102847941D01*
X140802296Y-102720623D01*
X140820103Y-102703665D01*
X140955229Y-102547120D01*
X140969404Y-102527026D01*
X141071551Y-102347216D01*
X141081554Y-102324750D01*
X141146829Y-102128524D01*
X141152276Y-102104545D01*
X141178195Y-101899378D01*
X141179177Y-101885345D01*
X141179590Y-101855759D01*
X141179001Y-101841705D01*
X141158821Y-101635894D01*
X141154044Y-101611771D01*
X141094273Y-101413799D01*
X141084902Y-101391064D01*
X140987816Y-101208472D01*
X140974208Y-101187989D01*
X140843506Y-101027732D01*
X140826178Y-101010283D01*
X140666837Y-100878465D01*
X140646450Y-100864714D01*
X140464540Y-100766356D01*
X140441871Y-100756827D01*
X140244322Y-100695675D01*
X140220233Y-100690730D01*
X140014567Y-100669114D01*
X139989978Y-100668943D01*
X139784031Y-100687685D01*
X139759875Y-100692293D01*
X139561491Y-100750681D01*
X139538691Y-100759892D01*
X139355426Y-100855701D01*
X139334849Y-100869166D01*
X139173683Y-100998746D01*
X139156113Y-101015952D01*
X139023186Y-101174369D01*
X139009294Y-101194659D01*
X138909668Y-101375877D01*
X138899980Y-101398480D01*
X138837451Y-101595598D01*
X138832338Y-101619651D01*
X138809286Y-101825161D01*
X138808943Y-101849750D01*
X138826248Y-102055822D01*
X138830687Y-102080008D01*
X138887688Y-102278796D01*
X138896741Y-102301660D01*
X138991268Y-102485589D01*
X139004589Y-102506260D01*
X139133041Y-102668326D01*
X139150123Y-102686015D01*
X139307608Y-102820045D01*
X139327800Y-102834079D01*
X139423000Y-102887285D01*
X139423000Y-103276985D01*
X138370485Y-104329500D01*
X138198218Y-104329500D01*
X138257065Y-104234032D01*
X138269398Y-104207583D01*
X138324585Y-104041200D01*
X138330336Y-104014376D01*
X138340944Y-103910844D01*
X138341600Y-103898001D01*
X138341600Y-103858300D01*
X138321598Y-103790179D01*
X138267942Y-103743686D01*
X138215600Y-103732300D01*
X135799601Y-103732300D01*
X135731480Y-103752302D01*
X135684987Y-103805958D01*
X135673601Y-103858300D01*
X135673601Y-103898000D01*
X135674274Y-103911003D01*
X135685150Y-104015830D01*
X135690953Y-104042703D01*
X135720576Y-104131493D01*
X135668611Y-104148830D01*
X135642184Y-104161210D01*
X135509116Y-104243555D01*
X135374432Y-104160535D01*
X135347983Y-104148202D01*
X135181600Y-104093015D01*
X135154776Y-104087264D01*
X135051244Y-104076656D01*
X135038401Y-104076000D01*
X134998700Y-104076000D01*
X134930579Y-104096002D01*
X134884086Y-104149658D01*
X134872700Y-104202000D01*
X134872700Y-105156000D01*
X134892702Y-105224121D01*
X134946358Y-105270614D01*
X134998700Y-105282000D01*
X136401300Y-105282000D01*
X136401300Y-106617999D01*
X136421302Y-106686120D01*
X136474958Y-106732613D01*
X136527300Y-106743999D01*
X136567000Y-106743999D01*
X136580003Y-106743326D01*
X136684830Y-106732450D01*
X136711703Y-106726647D01*
X136877989Y-106671170D01*
X136904416Y-106658790D01*
X136911444Y-106654441D01*
X136271763Y-107294122D01*
X136135219Y-107257535D01*
X136113590Y-107253721D01*
X135900982Y-107235120D01*
X135879018Y-107235120D01*
X135666410Y-107253721D01*
X135644781Y-107257535D01*
X135438634Y-107312772D01*
X135417995Y-107320284D01*
X135224571Y-107410479D01*
X135205550Y-107421461D01*
X135030726Y-107543874D01*
X135013902Y-107557992D01*
X134862992Y-107708902D01*
X134848874Y-107725726D01*
X134726461Y-107900550D01*
X134715479Y-107919571D01*
X134695699Y-107961989D01*
X134695699Y-107594734D01*
X134693278Y-107570155D01*
X134678513Y-107495920D01*
X134659699Y-107450497D01*
X134603449Y-107366314D01*
X134568686Y-107331551D01*
X134484503Y-107275301D01*
X134439082Y-107256487D01*
X134364848Y-107241721D01*
X134340267Y-107239300D01*
X133540000Y-107239300D01*
X133540000Y-106326728D01*
X133544954Y-106323015D01*
X133570215Y-106297754D01*
X133655809Y-106183547D01*
X133671753Y-106154423D01*
X133696030Y-106227189D01*
X133708410Y-106253616D01*
X133800654Y-106402680D01*
X133818780Y-106425550D01*
X133942841Y-106549395D01*
X133965743Y-106567482D01*
X134114968Y-106659465D01*
X134141417Y-106671798D01*
X134307800Y-106726985D01*
X134334624Y-106732736D01*
X134438156Y-106743344D01*
X134450999Y-106744000D01*
X134490700Y-106744000D01*
X134558821Y-106723998D01*
X134605314Y-106670342D01*
X134616700Y-106618000D01*
X134616700Y-106617999D01*
X134872700Y-106617999D01*
X134892702Y-106686120D01*
X134946358Y-106732613D01*
X134998700Y-106743999D01*
X135038400Y-106743999D01*
X135051403Y-106743326D01*
X135156230Y-106732450D01*
X135183103Y-106726647D01*
X135349389Y-106671170D01*
X135375816Y-106658790D01*
X135508884Y-106576445D01*
X135643568Y-106659465D01*
X135670017Y-106671798D01*
X135836400Y-106726985D01*
X135863224Y-106732736D01*
X135966756Y-106743344D01*
X135979599Y-106744000D01*
X136019300Y-106744000D01*
X136087421Y-106723998D01*
X136133914Y-106670342D01*
X136145300Y-106618000D01*
X136145300Y-105664000D01*
X136125298Y-105595879D01*
X136071642Y-105549386D01*
X136019300Y-105538000D01*
X134998700Y-105538000D01*
X134930579Y-105558002D01*
X134884086Y-105611658D01*
X134872700Y-105664000D01*
X134872700Y-106617999D01*
X134616700Y-106617999D01*
X134616700Y-104202001D01*
X134596698Y-104133880D01*
X134543042Y-104087387D01*
X134490700Y-104076001D01*
X134451000Y-104076001D01*
X134437997Y-104076674D01*
X134333170Y-104087550D01*
X134306297Y-104093353D01*
X134140011Y-104148830D01*
X134113584Y-104161210D01*
X133964520Y-104253454D01*
X133941650Y-104271580D01*
X133817805Y-104395641D01*
X133799718Y-104418543D01*
X133707735Y-104567768D01*
X133695402Y-104594217D01*
X133671741Y-104665554D01*
X133655809Y-104636453D01*
X133570215Y-104522246D01*
X133544954Y-104496985D01*
X133540000Y-104493272D01*
X133540000Y-101667606D01*
X133561487Y-101653249D01*
X133596249Y-101618486D01*
X133652499Y-101534303D01*
X133670878Y-101489933D01*
X134027500Y-101489933D01*
X134027501Y-102340066D01*
X134029922Y-102364645D01*
X134044687Y-102438880D01*
X134063501Y-102484303D01*
X134119751Y-102568486D01*
X134154514Y-102603249D01*
X134238697Y-102659499D01*
X134284118Y-102678313D01*
X134358352Y-102693079D01*
X134382933Y-102695500D01*
X135333066Y-102695499D01*
X135357645Y-102693078D01*
X135431880Y-102678313D01*
X135477303Y-102659499D01*
X135561486Y-102603249D01*
X135596249Y-102568486D01*
X135651365Y-102486000D01*
X136194812Y-102486000D01*
X136234052Y-102515409D01*
X136263177Y-102531354D01*
X136190411Y-102555630D01*
X136163984Y-102568010D01*
X136014920Y-102660254D01*
X135992050Y-102678380D01*
X135868205Y-102802441D01*
X135850118Y-102825343D01*
X135758135Y-102974568D01*
X135745802Y-103001017D01*
X135690615Y-103167400D01*
X135684864Y-103194224D01*
X135674256Y-103297756D01*
X135673600Y-103310599D01*
X135673600Y-103350300D01*
X135693602Y-103418421D01*
X135747258Y-103464914D01*
X135799600Y-103476300D01*
X138215599Y-103476300D01*
X138283720Y-103456298D01*
X138330213Y-103402642D01*
X138341599Y-103350300D01*
X138341599Y-103310600D01*
X138340926Y-103297597D01*
X138330050Y-103192770D01*
X138324247Y-103165897D01*
X138268770Y-102999611D01*
X138256390Y-102973184D01*
X138164146Y-102824120D01*
X138146020Y-102801250D01*
X138021959Y-102677405D01*
X137999057Y-102659318D01*
X137849832Y-102567335D01*
X137823383Y-102555002D01*
X137752046Y-102531341D01*
X137781147Y-102515409D01*
X137895354Y-102429815D01*
X137920615Y-102404554D01*
X138006209Y-102290347D01*
X138023365Y-102259010D01*
X138073463Y-102125370D01*
X138080744Y-102094750D01*
X138087363Y-102033823D01*
X138088100Y-102020215D01*
X138088099Y-101438386D01*
X138087362Y-101424780D01*
X138080744Y-101363852D01*
X138073463Y-101333230D01*
X138023365Y-101199590D01*
X138006209Y-101168253D01*
X137920615Y-101054046D01*
X137895354Y-101028785D01*
X137781147Y-100943191D01*
X137749810Y-100926035D01*
X137616170Y-100875937D01*
X137585550Y-100868656D01*
X137524623Y-100862037D01*
X137511015Y-100861300D01*
X136504186Y-100861301D01*
X136490580Y-100862038D01*
X136429652Y-100868656D01*
X136399030Y-100875937D01*
X136265390Y-100926035D01*
X136234053Y-100943191D01*
X136119846Y-101028785D01*
X136094585Y-101054046D01*
X136008991Y-101168253D01*
X135991835Y-101199590D01*
X135941737Y-101333230D01*
X135939176Y-101344000D01*
X135651365Y-101344000D01*
X135596249Y-101261514D01*
X135561486Y-101226751D01*
X135477303Y-101170501D01*
X135431882Y-101151687D01*
X135357648Y-101136921D01*
X135333067Y-101134500D01*
X134382934Y-101134501D01*
X134358355Y-101136922D01*
X134284120Y-101151687D01*
X134238697Y-101170501D01*
X134154514Y-101226751D01*
X134119751Y-101261514D01*
X134063501Y-101345697D01*
X134044687Y-101391118D01*
X134029921Y-101465352D01*
X134027500Y-101489933D01*
X133670878Y-101489933D01*
X133671313Y-101488882D01*
X133686079Y-101414648D01*
X133688500Y-101390067D01*
X133688499Y-100539934D01*
X133686078Y-100515355D01*
X133671313Y-100441120D01*
X133652499Y-100395697D01*
X133596249Y-100311514D01*
X133561486Y-100276751D01*
X133477303Y-100220501D01*
X133431882Y-100201687D01*
X133357648Y-100186921D01*
X133333067Y-100184500D01*
X132460000Y-100184501D01*
X132460000Y-99694000D01*
X134027500Y-99694000D01*
X134027501Y-100440066D02*
X134027500Y-99694000D01*
%TA.AperFunction,Conductor*%
G36*
X134027501Y-100440066D02*
G01*
X134029922Y-100464645D01*
X134044687Y-100538880D01*
X134063501Y-100584303D01*
X134119751Y-100668486D01*
X134154514Y-100703249D01*
X134238697Y-100759499D01*
X134284118Y-100778313D01*
X134358352Y-100793079D01*
X134382933Y-100795500D01*
X135333066Y-100795499D01*
X135357645Y-100793078D01*
X135431880Y-100778313D01*
X135477303Y-100759499D01*
X135561486Y-100703249D01*
X135596249Y-100668486D01*
X135651365Y-100586000D01*
X140418485Y-100586000D01*
X141313500Y-101481015D01*
X141313501Y-102226984D01*
X140668707Y-102871778D01*
X140642439Y-102892486D01*
X140616792Y-102919798D01*
X140583863Y-102967443D01*
X140565000Y-102992981D01*
X140565000Y-102888180D01*
X140618574Y-102861118D01*
X140639337Y-102847941D01*
X140802296Y-102720623D01*
X140820103Y-102703665D01*
X140955229Y-102547120D01*
X140969404Y-102527026D01*
X141071551Y-102347216D01*
X141081554Y-102324750D01*
X141146829Y-102128524D01*
X141152276Y-102104545D01*
X141178195Y-101899378D01*
X141179177Y-101885345D01*
X141179590Y-101855759D01*
X141179001Y-101841705D01*
X141158821Y-101635894D01*
X141154044Y-101611771D01*
X141094273Y-101413799D01*
X141084902Y-101391064D01*
X140987816Y-101208472D01*
X140974208Y-101187989D01*
X140843506Y-101027732D01*
X140826178Y-101010283D01*
X140666837Y-100878465D01*
X140646450Y-100864714D01*
X140464540Y-100766356D01*
X140441871Y-100756827D01*
X140244322Y-100695675D01*
X140220233Y-100690730D01*
X140014567Y-100669114D01*
X139989978Y-100668943D01*
X139784031Y-100687685D01*
X139759875Y-100692293D01*
X139561491Y-100750681D01*
X139538691Y-100759892D01*
X139355426Y-100855701D01*
X139334849Y-100869166D01*
X139173683Y-100998746D01*
X139156113Y-101015952D01*
X139023186Y-101174369D01*
X139009294Y-101194659D01*
X138909668Y-101375877D01*
X138899980Y-101398480D01*
X138837451Y-101595598D01*
X138832338Y-101619651D01*
X138809286Y-101825161D01*
X138808943Y-101849750D01*
X138826248Y-102055822D01*
X138830687Y-102080008D01*
X138887688Y-102278796D01*
X138896741Y-102301660D01*
X138991268Y-102485589D01*
X139004589Y-102506260D01*
X139133041Y-102668326D01*
X139150123Y-102686015D01*
X139307608Y-102820045D01*
X139327800Y-102834079D01*
X139423000Y-102887285D01*
X139423000Y-103276985D01*
X138370485Y-104329500D01*
X138198218Y-104329500D01*
X138257065Y-104234032D01*
X138269398Y-104207583D01*
X138324585Y-104041200D01*
X138330336Y-104014376D01*
X138340944Y-103910844D01*
X138341600Y-103898001D01*
X138341600Y-103858300D01*
X138321598Y-103790179D01*
X138267942Y-103743686D01*
X138215600Y-103732300D01*
X135799601Y-103732300D01*
X135731480Y-103752302D01*
X135684987Y-103805958D01*
X135673601Y-103858300D01*
X135673601Y-103898000D01*
X135674274Y-103911003D01*
X135685150Y-104015830D01*
X135690953Y-104042703D01*
X135720576Y-104131493D01*
X135668611Y-104148830D01*
X135642184Y-104161210D01*
X135509116Y-104243555D01*
X135374432Y-104160535D01*
X135347983Y-104148202D01*
X135181600Y-104093015D01*
X135154776Y-104087264D01*
X135051244Y-104076656D01*
X135038401Y-104076000D01*
X134998700Y-104076000D01*
X134930579Y-104096002D01*
X134884086Y-104149658D01*
X134872700Y-104202000D01*
X134872700Y-105156000D01*
X134892702Y-105224121D01*
X134946358Y-105270614D01*
X134998700Y-105282000D01*
X136401300Y-105282000D01*
X136401300Y-106617999D01*
X136421302Y-106686120D01*
X136474958Y-106732613D01*
X136527300Y-106743999D01*
X136567000Y-106743999D01*
X136580003Y-106743326D01*
X136684830Y-106732450D01*
X136711703Y-106726647D01*
X136877989Y-106671170D01*
X136904416Y-106658790D01*
X136911444Y-106654441D01*
X136271763Y-107294122D01*
X136135219Y-107257535D01*
X136113590Y-107253721D01*
X135900982Y-107235120D01*
X135879018Y-107235120D01*
X135666410Y-107253721D01*
X135644781Y-107257535D01*
X135438634Y-107312772D01*
X135417995Y-107320284D01*
X135224571Y-107410479D01*
X135205550Y-107421461D01*
X135030726Y-107543874D01*
X135013902Y-107557992D01*
X134862992Y-107708902D01*
X134848874Y-107725726D01*
X134726461Y-107900550D01*
X134715479Y-107919571D01*
X134695699Y-107961989D01*
X134695699Y-107594734D01*
X134693278Y-107570155D01*
X134678513Y-107495920D01*
X134659699Y-107450497D01*
X134603449Y-107366314D01*
X134568686Y-107331551D01*
X134484503Y-107275301D01*
X134439082Y-107256487D01*
X134364848Y-107241721D01*
X134340267Y-107239300D01*
X133540000Y-107239300D01*
X133540000Y-106326728D01*
X133544954Y-106323015D01*
X133570215Y-106297754D01*
X133655809Y-106183547D01*
X133671753Y-106154423D01*
X133696030Y-106227189D01*
X133708410Y-106253616D01*
X133800654Y-106402680D01*
X133818780Y-106425550D01*
X133942841Y-106549395D01*
X133965743Y-106567482D01*
X134114968Y-106659465D01*
X134141417Y-106671798D01*
X134307800Y-106726985D01*
X134334624Y-106732736D01*
X134438156Y-106743344D01*
X134450999Y-106744000D01*
X134490700Y-106744000D01*
X134558821Y-106723998D01*
X134605314Y-106670342D01*
X134616700Y-106618000D01*
X134616700Y-106617999D01*
X134872700Y-106617999D01*
X134892702Y-106686120D01*
X134946358Y-106732613D01*
X134998700Y-106743999D01*
X135038400Y-106743999D01*
X135051403Y-106743326D01*
X135156230Y-106732450D01*
X135183103Y-106726647D01*
X135349389Y-106671170D01*
X135375816Y-106658790D01*
X135508884Y-106576445D01*
X135643568Y-106659465D01*
X135670017Y-106671798D01*
X135836400Y-106726985D01*
X135863224Y-106732736D01*
X135966756Y-106743344D01*
X135979599Y-106744000D01*
X136019300Y-106744000D01*
X136087421Y-106723998D01*
X136133914Y-106670342D01*
X136145300Y-106618000D01*
X136145300Y-105664000D01*
X136125298Y-105595879D01*
X136071642Y-105549386D01*
X136019300Y-105538000D01*
X134998700Y-105538000D01*
X134930579Y-105558002D01*
X134884086Y-105611658D01*
X134872700Y-105664000D01*
X134872700Y-106617999D01*
X134616700Y-106617999D01*
X134616700Y-104202001D01*
X134596698Y-104133880D01*
X134543042Y-104087387D01*
X134490700Y-104076001D01*
X134451000Y-104076001D01*
X134437997Y-104076674D01*
X134333170Y-104087550D01*
X134306297Y-104093353D01*
X134140011Y-104148830D01*
X134113584Y-104161210D01*
X133964520Y-104253454D01*
X133941650Y-104271580D01*
X133817805Y-104395641D01*
X133799718Y-104418543D01*
X133707735Y-104567768D01*
X133695402Y-104594217D01*
X133671741Y-104665554D01*
X133655809Y-104636453D01*
X133570215Y-104522246D01*
X133544954Y-104496985D01*
X133540000Y-104493272D01*
X133540000Y-101667606D01*
X133561487Y-101653249D01*
X133596249Y-101618486D01*
X133652499Y-101534303D01*
X133670878Y-101489933D01*
X134027500Y-101489933D01*
X134027501Y-102340066D01*
X134029922Y-102364645D01*
X134044687Y-102438880D01*
X134063501Y-102484303D01*
X134119751Y-102568486D01*
X134154514Y-102603249D01*
X134238697Y-102659499D01*
X134284118Y-102678313D01*
X134358352Y-102693079D01*
X134382933Y-102695500D01*
X135333066Y-102695499D01*
X135357645Y-102693078D01*
X135431880Y-102678313D01*
X135477303Y-102659499D01*
X135561486Y-102603249D01*
X135596249Y-102568486D01*
X135651365Y-102486000D01*
X136194812Y-102486000D01*
X136234052Y-102515409D01*
X136263177Y-102531354D01*
X136190411Y-102555630D01*
X136163984Y-102568010D01*
X136014920Y-102660254D01*
X135992050Y-102678380D01*
X135868205Y-102802441D01*
X135850118Y-102825343D01*
X135758135Y-102974568D01*
X135745802Y-103001017D01*
X135690615Y-103167400D01*
X135684864Y-103194224D01*
X135674256Y-103297756D01*
X135673600Y-103310599D01*
X135673600Y-103350300D01*
X135693602Y-103418421D01*
X135747258Y-103464914D01*
X135799600Y-103476300D01*
X138215599Y-103476300D01*
X138283720Y-103456298D01*
X138330213Y-103402642D01*
X138341599Y-103350300D01*
X138341599Y-103310600D01*
X138340926Y-103297597D01*
X138330050Y-103192770D01*
X138324247Y-103165897D01*
X138268770Y-102999611D01*
X138256390Y-102973184D01*
X138164146Y-102824120D01*
X138146020Y-102801250D01*
X138021959Y-102677405D01*
X137999057Y-102659318D01*
X137849832Y-102567335D01*
X137823383Y-102555002D01*
X137752046Y-102531341D01*
X137781147Y-102515409D01*
X137895354Y-102429815D01*
X137920615Y-102404554D01*
X138006209Y-102290347D01*
X138023365Y-102259010D01*
X138073463Y-102125370D01*
X138080744Y-102094750D01*
X138087363Y-102033823D01*
X138088100Y-102020215D01*
X138088099Y-101438386D01*
X138087362Y-101424780D01*
X138080744Y-101363852D01*
X138073463Y-101333230D01*
X138023365Y-101199590D01*
X138006209Y-101168253D01*
X137920615Y-101054046D01*
X137895354Y-101028785D01*
X137781147Y-100943191D01*
X137749810Y-100926035D01*
X137616170Y-100875937D01*
X137585550Y-100868656D01*
X137524623Y-100862037D01*
X137511015Y-100861300D01*
X136504186Y-100861301D01*
X136490580Y-100862038D01*
X136429652Y-100868656D01*
X136399030Y-100875937D01*
X136265390Y-100926035D01*
X136234053Y-100943191D01*
X136119846Y-101028785D01*
X136094585Y-101054046D01*
X136008991Y-101168253D01*
X135991835Y-101199590D01*
X135941737Y-101333230D01*
X135939176Y-101344000D01*
X135651365Y-101344000D01*
X135596249Y-101261514D01*
X135561486Y-101226751D01*
X135477303Y-101170501D01*
X135431882Y-101151687D01*
X135357648Y-101136921D01*
X135333067Y-101134500D01*
X134382934Y-101134501D01*
X134358355Y-101136922D01*
X134284120Y-101151687D01*
X134238697Y-101170501D01*
X134154514Y-101226751D01*
X134119751Y-101261514D01*
X134063501Y-101345697D01*
X134044687Y-101391118D01*
X134029921Y-101465352D01*
X134027500Y-101489933D01*
X133670878Y-101489933D01*
X133671313Y-101488882D01*
X133686079Y-101414648D01*
X133688500Y-101390067D01*
X133688499Y-100539934D01*
X133686078Y-100515355D01*
X133671313Y-100441120D01*
X133652499Y-100395697D01*
X133596249Y-100311514D01*
X133561486Y-100276751D01*
X133477303Y-100220501D01*
X133431882Y-100201687D01*
X133357648Y-100186921D01*
X133333067Y-100184500D01*
X132460000Y-100184501D01*
X132460000Y-99694000D01*
X134027500Y-99694000D01*
X134027501Y-100440066D01*
G37*
%TD.AperFunction*%
%TD*%
M02*
