%TF.GenerationSoftware,KiCad,Pcbnew,(5.99.0-2363-g9a801d8b7)*%
%TF.CreationDate,2020-07-22T13:28:36+03:00*%
%TF.ProjectId,le-pre-et-le-boost,6c652d70-7265-42d6-9574-2d6c652d626f,rev?*%
%TF.SameCoordinates,Original*%
%TF.FileFunction,Copper,L1,Top*%
%TF.FilePolarity,Positive*%
%FSLAX46Y46*%
G04 Gerber Fmt 4.6, Leading zero omitted, Abs format (unit mm)*
G04 Created by KiCad (PCBNEW (5.99.0-2363-g9a801d8b7)) date 2020-07-22 13:28:36*
%MOMM*%
%LPD*%
G01*
G04 APERTURE LIST*
%TA.AperFunction,ComponentPad*%
%ADD10O,1.930400X1.930400*%
%TD*%
%TA.AperFunction,ComponentPad*%
%ADD11R,1.930400X1.930400*%
%TD*%
%TA.AperFunction,SMDPad,CuDef*%
%ADD12R,0.800000X0.900000*%
%TD*%
%TA.AperFunction,Conductor*%
%ADD13C,0.381000*%
%TD*%
%TA.AperFunction,Conductor*%
%ADD14C,0.254000*%
%TD*%
G04 APERTURE END LIST*
D10*
%TO.P,J1,2*%
%TO.N,GND*%
X146558000Y-106934000D03*
D11*
%TO.P,J1,1*%
%TO.N,+9V*%
X144018000Y-106934000D03*
%TD*%
D12*
%TO.P,Q1,3,G*%
%TO.N,IN*%
X139573000Y-102759000D03*
%TO.P,Q1,2,S*%
%TO.N,Net-(C1-Pad1)*%
X140523000Y-104759000D03*
%TO.P,Q1,1,D*%
%TO.N,Net-(Q1-Pad1)*%
X138623000Y-104759000D03*
%TD*%
D11*
%TO.P,J3,T*%
%TO.N,OUT*%
X146812000Y-101854000D03*
D10*
%TO.P,J3,S*%
%TO.N,GND*%
X146812000Y-104394000D03*
%TD*%
D11*
%TO.P,J2,T*%
%TO.N,IN*%
X136398000Y-101854000D03*
D10*
%TO.P,J2,S*%
%TO.N,GND*%
X136398000Y-104394000D03*
%TD*%
%TO.P,R4,2*%
%TO.N,GND*%
%TA.AperFunction,SMDPad,CuDef*%
G36*
G01*
X142679000Y-100635750D02*
X142679000Y-101548250D01*
G75*
G02*
X142435250Y-101792000I-243750J0D01*
G01*
X141947750Y-101792000D01*
G75*
G02*
X141704000Y-101548250I0J243750D01*
G01*
X141704000Y-100635750D01*
G75*
G02*
X141947750Y-100392000I243750J0D01*
G01*
X142435250Y-100392000D01*
G75*
G02*
X142679000Y-100635750I0J-243750D01*
G01*
G37*
%TD.AperFunction*%
%TO.P,R4,1*%
%TO.N,OUT*%
%TA.AperFunction,SMDPad,CuDef*%
G36*
G01*
X144554000Y-100635750D02*
X144554000Y-101548250D01*
G75*
G02*
X144310250Y-101792000I-243750J0D01*
G01*
X143822750Y-101792000D01*
G75*
G02*
X143579000Y-101548250I0J243750D01*
G01*
X143579000Y-100635750D01*
G75*
G02*
X143822750Y-100392000I243750J0D01*
G01*
X144310250Y-100392000D01*
G75*
G02*
X144554000Y-100635750I0J-243750D01*
G01*
G37*
%TD.AperFunction*%
%TD*%
%TO.P,R3,2*%
%TO.N,Net-(C1-Pad1)*%
%TA.AperFunction,SMDPad,CuDef*%
G36*
G01*
X139885000Y-106350750D02*
X139885000Y-107263250D01*
G75*
G02*
X139641250Y-107507000I-243750J0D01*
G01*
X139153750Y-107507000D01*
G75*
G02*
X138910000Y-107263250I0J243750D01*
G01*
X138910000Y-106350750D01*
G75*
G02*
X139153750Y-106107000I243750J0D01*
G01*
X139641250Y-106107000D01*
G75*
G02*
X139885000Y-106350750I0J-243750D01*
G01*
G37*
%TD.AperFunction*%
%TO.P,R3,1*%
%TO.N,+9V*%
%TA.AperFunction,SMDPad,CuDef*%
G36*
G01*
X141760000Y-106350750D02*
X141760000Y-107263250D01*
G75*
G02*
X141516250Y-107507000I-243750J0D01*
G01*
X141028750Y-107507000D01*
G75*
G02*
X140785000Y-107263250I0J243750D01*
G01*
X140785000Y-106350750D01*
G75*
G02*
X141028750Y-106107000I243750J0D01*
G01*
X141516250Y-106107000D01*
G75*
G02*
X141760000Y-106350750I0J-243750D01*
G01*
G37*
%TD.AperFunction*%
%TD*%
%TO.P,R2,2*%
%TO.N,GND*%
%TA.AperFunction,SMDPad,CuDef*%
G36*
G01*
X136329000Y-106350750D02*
X136329000Y-107263250D01*
G75*
G02*
X136085250Y-107507000I-243750J0D01*
G01*
X135597750Y-107507000D01*
G75*
G02*
X135354000Y-107263250I0J243750D01*
G01*
X135354000Y-106350750D01*
G75*
G02*
X135597750Y-106107000I243750J0D01*
G01*
X136085250Y-106107000D01*
G75*
G02*
X136329000Y-106350750I0J-243750D01*
G01*
G37*
%TD.AperFunction*%
%TO.P,R2,1*%
%TO.N,Net-(Q1-Pad1)*%
%TA.AperFunction,SMDPad,CuDef*%
G36*
G01*
X138204000Y-106350750D02*
X138204000Y-107263250D01*
G75*
G02*
X137960250Y-107507000I-243750J0D01*
G01*
X137472750Y-107507000D01*
G75*
G02*
X137229000Y-107263250I0J243750D01*
G01*
X137229000Y-106350750D01*
G75*
G02*
X137472750Y-106107000I243750J0D01*
G01*
X137960250Y-106107000D01*
G75*
G02*
X138204000Y-106350750I0J-243750D01*
G01*
G37*
%TD.AperFunction*%
%TD*%
%TO.P,R1,2*%
%TO.N,GND*%
%TA.AperFunction,SMDPad,CuDef*%
G36*
G01*
X140023000Y-101548250D02*
X140023000Y-100635750D01*
G75*
G02*
X140266750Y-100392000I243750J0D01*
G01*
X140754250Y-100392000D01*
G75*
G02*
X140998000Y-100635750I0J-243750D01*
G01*
X140998000Y-101548250D01*
G75*
G02*
X140754250Y-101792000I-243750J0D01*
G01*
X140266750Y-101792000D01*
G75*
G02*
X140023000Y-101548250I0J243750D01*
G01*
G37*
%TD.AperFunction*%
%TO.P,R1,1*%
%TO.N,IN*%
%TA.AperFunction,SMDPad,CuDef*%
G36*
G01*
X138148000Y-101548250D02*
X138148000Y-100635750D01*
G75*
G02*
X138391750Y-100392000I243750J0D01*
G01*
X138879250Y-100392000D01*
G75*
G02*
X139123000Y-100635750I0J-243750D01*
G01*
X139123000Y-101548250D01*
G75*
G02*
X138879250Y-101792000I-243750J0D01*
G01*
X138391750Y-101792000D01*
G75*
G02*
X138148000Y-101548250I0J243750D01*
G01*
G37*
%TD.AperFunction*%
%TD*%
%TO.P,C2,2*%
%TO.N,GND*%
%TA.AperFunction,SMDPad,CuDef*%
G36*
G01*
X144855250Y-103436000D02*
X143942750Y-103436000D01*
G75*
G02*
X143699000Y-103192250I0J243750D01*
G01*
X143699000Y-102704750D01*
G75*
G02*
X143942750Y-102461000I243750J0D01*
G01*
X144855250Y-102461000D01*
G75*
G02*
X145099000Y-102704750I0J-243750D01*
G01*
X145099000Y-103192250D01*
G75*
G02*
X144855250Y-103436000I-243750J0D01*
G01*
G37*
%TD.AperFunction*%
%TO.P,C2,1*%
%TO.N,+9V*%
%TA.AperFunction,SMDPad,CuDef*%
G36*
G01*
X144855250Y-105311000D02*
X143942750Y-105311000D01*
G75*
G02*
X143699000Y-105067250I0J243750D01*
G01*
X143699000Y-104579750D01*
G75*
G02*
X143942750Y-104336000I243750J0D01*
G01*
X144855250Y-104336000D01*
G75*
G02*
X145099000Y-104579750I0J-243750D01*
G01*
X145099000Y-105067250D01*
G75*
G02*
X144855250Y-105311000I-243750J0D01*
G01*
G37*
%TD.AperFunction*%
%TD*%
%TO.P,C1,2*%
%TO.N,OUT*%
%TA.AperFunction,SMDPad,CuDef*%
G36*
G01*
X142823250Y-103436000D02*
X141910750Y-103436000D01*
G75*
G02*
X141667000Y-103192250I0J243750D01*
G01*
X141667000Y-102704750D01*
G75*
G02*
X141910750Y-102461000I243750J0D01*
G01*
X142823250Y-102461000D01*
G75*
G02*
X143067000Y-102704750I0J-243750D01*
G01*
X143067000Y-103192250D01*
G75*
G02*
X142823250Y-103436000I-243750J0D01*
G01*
G37*
%TD.AperFunction*%
%TO.P,C1,1*%
%TO.N,Net-(C1-Pad1)*%
%TA.AperFunction,SMDPad,CuDef*%
G36*
G01*
X142823250Y-105311000D02*
X141910750Y-105311000D01*
G75*
G02*
X141667000Y-105067250I0J243750D01*
G01*
X141667000Y-104579750D01*
G75*
G02*
X141910750Y-104336000I243750J0D01*
G01*
X142823250Y-104336000D01*
G75*
G02*
X143067000Y-104579750I0J-243750D01*
G01*
X143067000Y-105067250D01*
G75*
G02*
X142823250Y-105311000I-243750J0D01*
G01*
G37*
%TD.AperFunction*%
%TD*%
D13*
%TO.N,IN*%
X138635500Y-101092000D02*
X137160000Y-101092000D01*
X137160000Y-101092000D02*
X136398000Y-101854000D01*
%TO.N,GND*%
X135841500Y-106807000D02*
X135841500Y-104950500D01*
X135841500Y-104950500D02*
X136398000Y-104394000D01*
%TO.N,Net-(C1-Pad1)*%
X139397500Y-106680000D02*
X139397500Y-105884500D01*
X139397500Y-105884500D02*
X140523000Y-104759000D01*
%TO.N,+9V*%
X144653000Y-107188000D02*
X144653000Y-105077500D01*
X144653000Y-105077500D02*
X144399000Y-104823500D01*
X141272500Y-106680000D02*
X144145000Y-106680000D01*
X144145000Y-106680000D02*
X144653000Y-107188000D01*
%TO.N,Net-(Q1-Pad1)*%
X138623000Y-104759000D02*
X138623000Y-105900500D01*
X138623000Y-105900500D02*
X137716500Y-106807000D01*
%TO.N,GND*%
X144399000Y-102948500D02*
X144604500Y-102948500D01*
X144604500Y-102948500D02*
X146812000Y-105156000D01*
%TO.N,Net-(C1-Pad1)*%
X142367000Y-104823500D02*
X140587500Y-104823500D01*
X140587500Y-104823500D02*
X140523000Y-104759000D01*
%TO.N,OUT*%
X144066500Y-101092000D02*
X145288000Y-101092000D01*
X145288000Y-101092000D02*
X146812000Y-102616000D01*
X142367000Y-102948500D02*
X142367000Y-102791500D01*
X142367000Y-102791500D02*
X144066500Y-101092000D01*
%TO.N,IN*%
X138635500Y-101092000D02*
X138635500Y-101821500D01*
X138635500Y-101821500D02*
X139573000Y-102759000D01*
%TD*%
%TO.N,GND*%
D14*
X148458732Y-108580732D02*
X135386268Y-108580732D01*
X135386268Y-108124562D01*
X135532466Y-108145582D01*
X135541444Y-108146224D01*
X135639691Y-108146224D01*
X135713500Y-108072415D01*
X135713501Y-106679000D01*
X135969500Y-106679001D01*
X135969499Y-108072415D01*
X136043308Y-108146224D01*
X136125396Y-108146224D01*
X136138826Y-108144780D01*
X136439288Y-108079419D01*
X136460122Y-108070789D01*
X136660913Y-107941748D01*
X136674534Y-107929945D01*
X136829355Y-107751274D01*
X136839099Y-107736111D01*
X136916404Y-107566835D01*
X136926653Y-107586523D01*
X137057180Y-107742079D01*
X137074069Y-107756250D01*
X137247523Y-107856395D01*
X137268241Y-107863936D01*
X137415829Y-107889959D01*
X137426790Y-107890918D01*
X137993846Y-107890918D01*
X138010222Y-107888762D01*
X138259042Y-107822091D01*
X138283523Y-107809347D01*
X138439079Y-107678820D01*
X138453250Y-107661931D01*
X138553395Y-107488477D01*
X138560936Y-107467759D01*
X138564393Y-107448154D01*
X138594909Y-107562042D01*
X138607653Y-107586523D01*
X138738180Y-107742079D01*
X138755069Y-107756250D01*
X138928523Y-107856395D01*
X138949241Y-107863936D01*
X139096829Y-107889959D01*
X139107790Y-107890918D01*
X139674846Y-107890918D01*
X139691222Y-107888762D01*
X139940042Y-107822091D01*
X139964523Y-107809347D01*
X140120079Y-107678820D01*
X140134250Y-107661931D01*
X140234395Y-107488477D01*
X140241936Y-107467759D01*
X140267959Y-107320171D01*
X140268918Y-107309210D01*
X140268918Y-106317154D01*
X140266762Y-106300778D01*
X140200091Y-106051958D01*
X140187347Y-106027477D01*
X140131142Y-105960495D01*
X140497661Y-105593976D01*
X140929190Y-105593976D01*
X140941510Y-105592763D01*
X141058858Y-105569421D01*
X141081789Y-105559923D01*
X141186444Y-105489995D01*
X141203995Y-105472444D01*
X141255074Y-105396000D01*
X141369249Y-105396000D01*
X141495180Y-105546079D01*
X141512069Y-105560250D01*
X141685523Y-105660395D01*
X141706241Y-105667936D01*
X141853829Y-105693959D01*
X141864790Y-105694918D01*
X142782243Y-105694918D01*
X142771805Y-105705356D01*
X142701877Y-105810011D01*
X142692379Y-105832942D01*
X142669037Y-105950290D01*
X142667824Y-105962610D01*
X142667824Y-106107500D01*
X142089973Y-106107500D01*
X142075091Y-106051958D01*
X142062348Y-106027477D01*
X141931820Y-105871921D01*
X141914931Y-105857750D01*
X141741477Y-105757605D01*
X141720759Y-105750064D01*
X141573171Y-105724041D01*
X141562210Y-105723082D01*
X140995154Y-105723082D01*
X140978778Y-105725238D01*
X140729958Y-105791909D01*
X140705477Y-105804653D01*
X140549921Y-105935180D01*
X140535750Y-105952069D01*
X140435605Y-106125523D01*
X140428064Y-106146241D01*
X140402041Y-106293829D01*
X140401082Y-106304790D01*
X140401082Y-107296846D01*
X140403238Y-107313222D01*
X140469909Y-107562042D01*
X140482653Y-107586523D01*
X140613180Y-107742079D01*
X140630069Y-107756250D01*
X140803523Y-107856395D01*
X140824241Y-107863936D01*
X140971829Y-107889959D01*
X140982790Y-107890918D01*
X141549846Y-107890918D01*
X141566222Y-107888762D01*
X141815042Y-107822091D01*
X141839523Y-107809347D01*
X141995079Y-107678820D01*
X142009250Y-107661931D01*
X142109395Y-107488477D01*
X142116936Y-107467759D01*
X142142959Y-107320171D01*
X142143918Y-107309210D01*
X142143918Y-107252500D01*
X142667824Y-107252500D01*
X142667824Y-107905390D01*
X142669037Y-107917710D01*
X142692379Y-108035058D01*
X142701877Y-108057989D01*
X142771805Y-108162644D01*
X142789356Y-108180195D01*
X142894011Y-108250123D01*
X142916942Y-108259621D01*
X143034290Y-108282963D01*
X143046610Y-108284176D01*
X144989390Y-108284176D01*
X145001710Y-108282963D01*
X145119058Y-108259621D01*
X145141989Y-108250123D01*
X145246644Y-108180195D01*
X145264195Y-108162644D01*
X145334123Y-108057989D01*
X145343621Y-108035058D01*
X145352255Y-107991650D01*
X145529280Y-108165004D01*
X145537237Y-108171610D01*
X145744148Y-108316492D01*
X145753077Y-108321710D01*
X145980873Y-108430851D01*
X145990535Y-108434540D01*
X146233098Y-108505012D01*
X146243232Y-108507073D01*
X146345309Y-108519246D01*
X146430000Y-108444054D01*
X146430000Y-107135809D01*
X146686000Y-107135809D01*
X146686000Y-108446301D01*
X146779412Y-108521944D01*
X147014045Y-108472070D01*
X147023950Y-108469099D01*
X147259128Y-108376933D01*
X147268415Y-108372384D01*
X147485382Y-108243046D01*
X147493801Y-108237041D01*
X147686730Y-108074003D01*
X147694055Y-108066703D01*
X147857766Y-107874344D01*
X147863801Y-107865946D01*
X147993895Y-107649431D01*
X147998477Y-107640161D01*
X148091463Y-107405306D01*
X148094470Y-107395411D01*
X148146285Y-107155753D01*
X148070636Y-107062000D01*
X146759809Y-107062000D01*
X146686000Y-107135809D01*
X146430000Y-107135809D01*
X146430000Y-105546800D01*
X146686000Y-105546800D01*
X146686000Y-106732191D01*
X146759809Y-106806000D01*
X148067634Y-106806000D01*
X148143119Y-106716991D01*
X148115174Y-106548196D01*
X148112655Y-106538166D01*
X148031253Y-106299050D01*
X148027130Y-106289566D01*
X147907767Y-106066955D01*
X147902149Y-106058271D01*
X147748031Y-105858146D01*
X147741072Y-105850497D01*
X147643954Y-105759933D01*
X147739382Y-105703046D01*
X147747801Y-105697041D01*
X147940730Y-105534003D01*
X147948055Y-105526703D01*
X148111766Y-105334344D01*
X148117801Y-105325946D01*
X148247895Y-105109431D01*
X148252477Y-105100161D01*
X148345463Y-104865306D01*
X148348470Y-104855411D01*
X148400285Y-104615753D01*
X148324636Y-104522000D01*
X146684000Y-104521999D01*
X146684001Y-104266000D01*
X148321634Y-104266001D01*
X148397119Y-104176992D01*
X148369175Y-104008196D01*
X148366655Y-103998166D01*
X148285253Y-103759050D01*
X148281130Y-103749566D01*
X148161767Y-103526955D01*
X148156149Y-103518271D01*
X148002031Y-103318146D01*
X147995072Y-103310497D01*
X147864980Y-103189184D01*
X147913058Y-103179621D01*
X147935989Y-103170123D01*
X148040644Y-103100195D01*
X148058195Y-103082644D01*
X148128123Y-102977989D01*
X148137621Y-102955058D01*
X148160963Y-102837710D01*
X148162176Y-102825390D01*
X148162176Y-100882610D01*
X148160963Y-100870290D01*
X148137621Y-100752942D01*
X148128123Y-100730011D01*
X148058195Y-100625356D01*
X148040644Y-100607805D01*
X147935989Y-100537877D01*
X147913058Y-100528379D01*
X147795710Y-100505037D01*
X147783390Y-100503824D01*
X145840610Y-100503824D01*
X145828290Y-100505037D01*
X145710942Y-100528379D01*
X145688011Y-100537877D01*
X145589119Y-100603955D01*
X145542850Y-100571557D01*
X145522868Y-100562239D01*
X145508978Y-100558517D01*
X145496521Y-100551325D01*
X145475803Y-100543784D01*
X145412025Y-100532539D01*
X145349479Y-100515778D01*
X145327515Y-100513857D01*
X145263009Y-100519500D01*
X144918003Y-100519500D01*
X144869091Y-100336958D01*
X144856347Y-100312477D01*
X144725820Y-100156921D01*
X144708931Y-100142750D01*
X144535477Y-100042605D01*
X144514759Y-100035064D01*
X144367171Y-100009041D01*
X144356210Y-100008082D01*
X143789154Y-100008082D01*
X143772778Y-100010238D01*
X143523958Y-100076909D01*
X143499477Y-100089653D01*
X143343921Y-100220180D01*
X143329750Y-100237069D01*
X143265802Y-100347829D01*
X143251419Y-100281712D01*
X143242789Y-100260878D01*
X143113748Y-100060087D01*
X143101945Y-100046466D01*
X142923274Y-99891645D01*
X142908111Y-99881901D01*
X142693059Y-99783691D01*
X142675766Y-99778613D01*
X142500534Y-99753418D01*
X142491556Y-99752776D01*
X142393309Y-99752776D01*
X142319500Y-99826585D01*
X142319499Y-100890192D01*
X142319500Y-100890193D01*
X142319499Y-101220000D01*
X141493809Y-101219999D01*
X141493808Y-101220000D01*
X140712309Y-101220000D01*
X140638500Y-101293809D01*
X140638500Y-102357415D01*
X140712309Y-102431224D01*
X140794396Y-102431224D01*
X140807826Y-102429780D01*
X141108288Y-102364419D01*
X141129122Y-102355789D01*
X141329913Y-102226748D01*
X141343534Y-102214945D01*
X141355052Y-102201653D01*
X141444185Y-102278889D01*
X141431921Y-102289180D01*
X141417750Y-102306069D01*
X141317605Y-102479523D01*
X141310064Y-102500241D01*
X141284041Y-102647829D01*
X141283082Y-102658790D01*
X141283082Y-103225846D01*
X141285238Y-103242222D01*
X141351909Y-103491042D01*
X141364653Y-103515523D01*
X141495180Y-103671079D01*
X141512069Y-103685250D01*
X141685523Y-103785395D01*
X141706241Y-103792936D01*
X141853829Y-103818959D01*
X141864790Y-103819918D01*
X142856846Y-103819918D01*
X142873222Y-103817762D01*
X143122042Y-103751091D01*
X143146523Y-103738347D01*
X143210663Y-103684527D01*
X143264252Y-103767913D01*
X143276055Y-103781534D01*
X143454726Y-103936355D01*
X143469889Y-103946099D01*
X143639165Y-104023404D01*
X143619477Y-104033653D01*
X143463921Y-104164180D01*
X143449750Y-104181069D01*
X143385257Y-104292773D01*
X143382091Y-104280958D01*
X143369347Y-104256477D01*
X143238820Y-104100921D01*
X143221931Y-104086750D01*
X143048477Y-103986605D01*
X143027759Y-103979064D01*
X142880171Y-103953041D01*
X142869210Y-103952082D01*
X141877154Y-103952082D01*
X141860778Y-103954238D01*
X141611958Y-104020909D01*
X141587477Y-104033653D01*
X141431921Y-104164180D01*
X141417750Y-104181069D01*
X141377375Y-104251000D01*
X141298908Y-104251000D01*
X141283421Y-104173142D01*
X141273923Y-104150211D01*
X141203995Y-104045556D01*
X141186444Y-104028005D01*
X141081789Y-103958077D01*
X141058858Y-103948579D01*
X140941510Y-103925237D01*
X140929190Y-103924024D01*
X140116810Y-103924024D01*
X140104490Y-103925237D01*
X139987142Y-103948579D01*
X139964211Y-103958077D01*
X139859556Y-104028005D01*
X139842005Y-104045556D01*
X139772077Y-104150211D01*
X139762579Y-104173142D01*
X139739237Y-104290490D01*
X139738024Y-104302810D01*
X139738024Y-104734339D01*
X139407976Y-105064387D01*
X139407976Y-104302810D01*
X139406763Y-104290490D01*
X139383421Y-104173142D01*
X139373923Y-104150211D01*
X139303995Y-104045556D01*
X139286444Y-104028005D01*
X139181789Y-103958077D01*
X139158858Y-103948579D01*
X139041510Y-103925237D01*
X139029190Y-103924024D01*
X138216810Y-103924024D01*
X138204490Y-103925237D01*
X138087142Y-103948579D01*
X138064211Y-103958077D01*
X137959556Y-104028005D01*
X137958611Y-104028950D01*
X137955175Y-104008197D01*
X137952655Y-103998167D01*
X137871253Y-103759050D01*
X137867130Y-103749566D01*
X137747767Y-103526955D01*
X137742149Y-103518271D01*
X137588031Y-103318146D01*
X137581072Y-103310497D01*
X137450980Y-103189184D01*
X137499058Y-103179621D01*
X137521989Y-103170123D01*
X137626644Y-103100195D01*
X137644195Y-103082644D01*
X137714123Y-102977989D01*
X137723621Y-102955058D01*
X137746963Y-102837710D01*
X137748176Y-102825390D01*
X137748176Y-101664500D01*
X137783997Y-101664500D01*
X137832909Y-101847042D01*
X137845653Y-101871523D01*
X137976180Y-102027079D01*
X137993069Y-102041250D01*
X138155430Y-102134991D01*
X138184578Y-102185478D01*
X138198750Y-102202367D01*
X138248357Y-102243993D01*
X138788024Y-102783661D01*
X138788024Y-103215190D01*
X138789237Y-103227510D01*
X138812579Y-103344858D01*
X138822077Y-103367789D01*
X138892005Y-103472444D01*
X138909556Y-103489995D01*
X139014211Y-103559923D01*
X139037142Y-103569421D01*
X139154490Y-103592763D01*
X139166810Y-103593976D01*
X139979190Y-103593976D01*
X139991510Y-103592763D01*
X140108858Y-103569421D01*
X140131789Y-103559923D01*
X140236444Y-103489995D01*
X140253995Y-103472444D01*
X140323923Y-103367789D01*
X140333421Y-103344858D01*
X140356763Y-103227510D01*
X140357976Y-103215190D01*
X140357976Y-102381939D01*
X140382500Y-102357415D01*
X140382500Y-99826585D01*
X140638500Y-99826585D01*
X140638500Y-100890191D01*
X140712309Y-100964000D01*
X141546000Y-100964000D01*
X141989691Y-100964001D01*
X142063500Y-100890192D01*
X142063501Y-99826585D01*
X141989692Y-99752776D01*
X141907604Y-99752776D01*
X141894174Y-99754220D01*
X141593712Y-99819581D01*
X141572878Y-99828211D01*
X141372087Y-99957252D01*
X141358466Y-99969055D01*
X141346948Y-99982347D01*
X141242274Y-99891645D01*
X141227111Y-99881901D01*
X141012059Y-99783691D01*
X140994766Y-99778613D01*
X140819534Y-99753418D01*
X140810556Y-99752776D01*
X140712309Y-99752776D01*
X140638500Y-99826585D01*
X140382500Y-99826585D01*
X140308691Y-99752776D01*
X140226604Y-99752776D01*
X140213174Y-99754220D01*
X139912712Y-99819581D01*
X139891878Y-99828211D01*
X139691087Y-99957252D01*
X139677466Y-99969055D01*
X139522645Y-100147726D01*
X139512901Y-100162889D01*
X139435596Y-100332165D01*
X139425347Y-100312477D01*
X139294820Y-100156921D01*
X139277931Y-100142750D01*
X139104477Y-100042605D01*
X139083759Y-100035064D01*
X138936171Y-100009041D01*
X138925210Y-100008082D01*
X138358154Y-100008082D01*
X138341778Y-100010238D01*
X138092958Y-100076909D01*
X138068477Y-100089653D01*
X137912921Y-100220180D01*
X137898750Y-100237069D01*
X137798605Y-100410523D01*
X137791064Y-100431241D01*
X137775502Y-100519500D01*
X137454420Y-100519500D01*
X137381710Y-100505037D01*
X137369390Y-100503824D01*
X135426610Y-100503824D01*
X135414290Y-100505037D01*
X135386268Y-100510611D01*
X135386268Y-99699268D01*
X148458732Y-99699268D01*
X148458732Y-108580732D01*
%TA.AperFunction,Conductor*%
G36*
X148458732Y-108580732D02*
G01*
X135386268Y-108580732D01*
X135386268Y-108124562D01*
X135532466Y-108145582D01*
X135541444Y-108146224D01*
X135639691Y-108146224D01*
X135713500Y-108072415D01*
X135713501Y-106679000D01*
X135969500Y-106679001D01*
X135969499Y-108072415D01*
X136043308Y-108146224D01*
X136125396Y-108146224D01*
X136138826Y-108144780D01*
X136439288Y-108079419D01*
X136460122Y-108070789D01*
X136660913Y-107941748D01*
X136674534Y-107929945D01*
X136829355Y-107751274D01*
X136839099Y-107736111D01*
X136916404Y-107566835D01*
X136926653Y-107586523D01*
X137057180Y-107742079D01*
X137074069Y-107756250D01*
X137247523Y-107856395D01*
X137268241Y-107863936D01*
X137415829Y-107889959D01*
X137426790Y-107890918D01*
X137993846Y-107890918D01*
X138010222Y-107888762D01*
X138259042Y-107822091D01*
X138283523Y-107809347D01*
X138439079Y-107678820D01*
X138453250Y-107661931D01*
X138553395Y-107488477D01*
X138560936Y-107467759D01*
X138564393Y-107448154D01*
X138594909Y-107562042D01*
X138607653Y-107586523D01*
X138738180Y-107742079D01*
X138755069Y-107756250D01*
X138928523Y-107856395D01*
X138949241Y-107863936D01*
X139096829Y-107889959D01*
X139107790Y-107890918D01*
X139674846Y-107890918D01*
X139691222Y-107888762D01*
X139940042Y-107822091D01*
X139964523Y-107809347D01*
X140120079Y-107678820D01*
X140134250Y-107661931D01*
X140234395Y-107488477D01*
X140241936Y-107467759D01*
X140267959Y-107320171D01*
X140268918Y-107309210D01*
X140268918Y-106317154D01*
X140266762Y-106300778D01*
X140200091Y-106051958D01*
X140187347Y-106027477D01*
X140131142Y-105960495D01*
X140497661Y-105593976D01*
X140929190Y-105593976D01*
X140941510Y-105592763D01*
X141058858Y-105569421D01*
X141081789Y-105559923D01*
X141186444Y-105489995D01*
X141203995Y-105472444D01*
X141255074Y-105396000D01*
X141369249Y-105396000D01*
X141495180Y-105546079D01*
X141512069Y-105560250D01*
X141685523Y-105660395D01*
X141706241Y-105667936D01*
X141853829Y-105693959D01*
X141864790Y-105694918D01*
X142782243Y-105694918D01*
X142771805Y-105705356D01*
X142701877Y-105810011D01*
X142692379Y-105832942D01*
X142669037Y-105950290D01*
X142667824Y-105962610D01*
X142667824Y-106107500D01*
X142089973Y-106107500D01*
X142075091Y-106051958D01*
X142062348Y-106027477D01*
X141931820Y-105871921D01*
X141914931Y-105857750D01*
X141741477Y-105757605D01*
X141720759Y-105750064D01*
X141573171Y-105724041D01*
X141562210Y-105723082D01*
X140995154Y-105723082D01*
X140978778Y-105725238D01*
X140729958Y-105791909D01*
X140705477Y-105804653D01*
X140549921Y-105935180D01*
X140535750Y-105952069D01*
X140435605Y-106125523D01*
X140428064Y-106146241D01*
X140402041Y-106293829D01*
X140401082Y-106304790D01*
X140401082Y-107296846D01*
X140403238Y-107313222D01*
X140469909Y-107562042D01*
X140482653Y-107586523D01*
X140613180Y-107742079D01*
X140630069Y-107756250D01*
X140803523Y-107856395D01*
X140824241Y-107863936D01*
X140971829Y-107889959D01*
X140982790Y-107890918D01*
X141549846Y-107890918D01*
X141566222Y-107888762D01*
X141815042Y-107822091D01*
X141839523Y-107809347D01*
X141995079Y-107678820D01*
X142009250Y-107661931D01*
X142109395Y-107488477D01*
X142116936Y-107467759D01*
X142142959Y-107320171D01*
X142143918Y-107309210D01*
X142143918Y-107252500D01*
X142667824Y-107252500D01*
X142667824Y-107905390D01*
X142669037Y-107917710D01*
X142692379Y-108035058D01*
X142701877Y-108057989D01*
X142771805Y-108162644D01*
X142789356Y-108180195D01*
X142894011Y-108250123D01*
X142916942Y-108259621D01*
X143034290Y-108282963D01*
X143046610Y-108284176D01*
X144989390Y-108284176D01*
X145001710Y-108282963D01*
X145119058Y-108259621D01*
X145141989Y-108250123D01*
X145246644Y-108180195D01*
X145264195Y-108162644D01*
X145334123Y-108057989D01*
X145343621Y-108035058D01*
X145352255Y-107991650D01*
X145529280Y-108165004D01*
X145537237Y-108171610D01*
X145744148Y-108316492D01*
X145753077Y-108321710D01*
X145980873Y-108430851D01*
X145990535Y-108434540D01*
X146233098Y-108505012D01*
X146243232Y-108507073D01*
X146345309Y-108519246D01*
X146430000Y-108444054D01*
X146430000Y-107135809D01*
X146686000Y-107135809D01*
X146686000Y-108446301D01*
X146779412Y-108521944D01*
X147014045Y-108472070D01*
X147023950Y-108469099D01*
X147259128Y-108376933D01*
X147268415Y-108372384D01*
X147485382Y-108243046D01*
X147493801Y-108237041D01*
X147686730Y-108074003D01*
X147694055Y-108066703D01*
X147857766Y-107874344D01*
X147863801Y-107865946D01*
X147993895Y-107649431D01*
X147998477Y-107640161D01*
X148091463Y-107405306D01*
X148094470Y-107395411D01*
X148146285Y-107155753D01*
X148070636Y-107062000D01*
X146759809Y-107062000D01*
X146686000Y-107135809D01*
X146430000Y-107135809D01*
X146430000Y-105546800D01*
X146686000Y-105546800D01*
X146686000Y-106732191D01*
X146759809Y-106806000D01*
X148067634Y-106806000D01*
X148143119Y-106716991D01*
X148115174Y-106548196D01*
X148112655Y-106538166D01*
X148031253Y-106299050D01*
X148027130Y-106289566D01*
X147907767Y-106066955D01*
X147902149Y-106058271D01*
X147748031Y-105858146D01*
X147741072Y-105850497D01*
X147643954Y-105759933D01*
X147739382Y-105703046D01*
X147747801Y-105697041D01*
X147940730Y-105534003D01*
X147948055Y-105526703D01*
X148111766Y-105334344D01*
X148117801Y-105325946D01*
X148247895Y-105109431D01*
X148252477Y-105100161D01*
X148345463Y-104865306D01*
X148348470Y-104855411D01*
X148400285Y-104615753D01*
X148324636Y-104522000D01*
X146684000Y-104521999D01*
X146684001Y-104266000D01*
X148321634Y-104266001D01*
X148397119Y-104176992D01*
X148369175Y-104008196D01*
X148366655Y-103998166D01*
X148285253Y-103759050D01*
X148281130Y-103749566D01*
X148161767Y-103526955D01*
X148156149Y-103518271D01*
X148002031Y-103318146D01*
X147995072Y-103310497D01*
X147864980Y-103189184D01*
X147913058Y-103179621D01*
X147935989Y-103170123D01*
X148040644Y-103100195D01*
X148058195Y-103082644D01*
X148128123Y-102977989D01*
X148137621Y-102955058D01*
X148160963Y-102837710D01*
X148162176Y-102825390D01*
X148162176Y-100882610D01*
X148160963Y-100870290D01*
X148137621Y-100752942D01*
X148128123Y-100730011D01*
X148058195Y-100625356D01*
X148040644Y-100607805D01*
X147935989Y-100537877D01*
X147913058Y-100528379D01*
X147795710Y-100505037D01*
X147783390Y-100503824D01*
X145840610Y-100503824D01*
X145828290Y-100505037D01*
X145710942Y-100528379D01*
X145688011Y-100537877D01*
X145589119Y-100603955D01*
X145542850Y-100571557D01*
X145522868Y-100562239D01*
X145508978Y-100558517D01*
X145496521Y-100551325D01*
X145475803Y-100543784D01*
X145412025Y-100532539D01*
X145349479Y-100515778D01*
X145327515Y-100513857D01*
X145263009Y-100519500D01*
X144918003Y-100519500D01*
X144869091Y-100336958D01*
X144856347Y-100312477D01*
X144725820Y-100156921D01*
X144708931Y-100142750D01*
X144535477Y-100042605D01*
X144514759Y-100035064D01*
X144367171Y-100009041D01*
X144356210Y-100008082D01*
X143789154Y-100008082D01*
X143772778Y-100010238D01*
X143523958Y-100076909D01*
X143499477Y-100089653D01*
X143343921Y-100220180D01*
X143329750Y-100237069D01*
X143265802Y-100347829D01*
X143251419Y-100281712D01*
X143242789Y-100260878D01*
X143113748Y-100060087D01*
X143101945Y-100046466D01*
X142923274Y-99891645D01*
X142908111Y-99881901D01*
X142693059Y-99783691D01*
X142675766Y-99778613D01*
X142500534Y-99753418D01*
X142491556Y-99752776D01*
X142393309Y-99752776D01*
X142319500Y-99826585D01*
X142319499Y-100890192D01*
X142319500Y-100890193D01*
X142319499Y-101220000D01*
X141493809Y-101219999D01*
X141493808Y-101220000D01*
X140712309Y-101220000D01*
X140638500Y-101293809D01*
X140638500Y-102357415D01*
X140712309Y-102431224D01*
X140794396Y-102431224D01*
X140807826Y-102429780D01*
X141108288Y-102364419D01*
X141129122Y-102355789D01*
X141329913Y-102226748D01*
X141343534Y-102214945D01*
X141355052Y-102201653D01*
X141444185Y-102278889D01*
X141431921Y-102289180D01*
X141417750Y-102306069D01*
X141317605Y-102479523D01*
X141310064Y-102500241D01*
X141284041Y-102647829D01*
X141283082Y-102658790D01*
X141283082Y-103225846D01*
X141285238Y-103242222D01*
X141351909Y-103491042D01*
X141364653Y-103515523D01*
X141495180Y-103671079D01*
X141512069Y-103685250D01*
X141685523Y-103785395D01*
X141706241Y-103792936D01*
X141853829Y-103818959D01*
X141864790Y-103819918D01*
X142856846Y-103819918D01*
X142873222Y-103817762D01*
X143122042Y-103751091D01*
X143146523Y-103738347D01*
X143210663Y-103684527D01*
X143264252Y-103767913D01*
X143276055Y-103781534D01*
X143454726Y-103936355D01*
X143469889Y-103946099D01*
X143639165Y-104023404D01*
X143619477Y-104033653D01*
X143463921Y-104164180D01*
X143449750Y-104181069D01*
X143385257Y-104292773D01*
X143382091Y-104280958D01*
X143369347Y-104256477D01*
X143238820Y-104100921D01*
X143221931Y-104086750D01*
X143048477Y-103986605D01*
X143027759Y-103979064D01*
X142880171Y-103953041D01*
X142869210Y-103952082D01*
X141877154Y-103952082D01*
X141860778Y-103954238D01*
X141611958Y-104020909D01*
X141587477Y-104033653D01*
X141431921Y-104164180D01*
X141417750Y-104181069D01*
X141377375Y-104251000D01*
X141298908Y-104251000D01*
X141283421Y-104173142D01*
X141273923Y-104150211D01*
X141203995Y-104045556D01*
X141186444Y-104028005D01*
X141081789Y-103958077D01*
X141058858Y-103948579D01*
X140941510Y-103925237D01*
X140929190Y-103924024D01*
X140116810Y-103924024D01*
X140104490Y-103925237D01*
X139987142Y-103948579D01*
X139964211Y-103958077D01*
X139859556Y-104028005D01*
X139842005Y-104045556D01*
X139772077Y-104150211D01*
X139762579Y-104173142D01*
X139739237Y-104290490D01*
X139738024Y-104302810D01*
X139738024Y-104734339D01*
X139407976Y-105064387D01*
X139407976Y-104302810D01*
X139406763Y-104290490D01*
X139383421Y-104173142D01*
X139373923Y-104150211D01*
X139303995Y-104045556D01*
X139286444Y-104028005D01*
X139181789Y-103958077D01*
X139158858Y-103948579D01*
X139041510Y-103925237D01*
X139029190Y-103924024D01*
X138216810Y-103924024D01*
X138204490Y-103925237D01*
X138087142Y-103948579D01*
X138064211Y-103958077D01*
X137959556Y-104028005D01*
X137958611Y-104028950D01*
X137955175Y-104008197D01*
X137952655Y-103998167D01*
X137871253Y-103759050D01*
X137867130Y-103749566D01*
X137747767Y-103526955D01*
X137742149Y-103518271D01*
X137588031Y-103318146D01*
X137581072Y-103310497D01*
X137450980Y-103189184D01*
X137499058Y-103179621D01*
X137521989Y-103170123D01*
X137626644Y-103100195D01*
X137644195Y-103082644D01*
X137714123Y-102977989D01*
X137723621Y-102955058D01*
X137746963Y-102837710D01*
X137748176Y-102825390D01*
X137748176Y-101664500D01*
X137783997Y-101664500D01*
X137832909Y-101847042D01*
X137845653Y-101871523D01*
X137976180Y-102027079D01*
X137993069Y-102041250D01*
X138155430Y-102134991D01*
X138184578Y-102185478D01*
X138198750Y-102202367D01*
X138248357Y-102243993D01*
X138788024Y-102783661D01*
X138788024Y-103215190D01*
X138789237Y-103227510D01*
X138812579Y-103344858D01*
X138822077Y-103367789D01*
X138892005Y-103472444D01*
X138909556Y-103489995D01*
X139014211Y-103559923D01*
X139037142Y-103569421D01*
X139154490Y-103592763D01*
X139166810Y-103593976D01*
X139979190Y-103593976D01*
X139991510Y-103592763D01*
X140108858Y-103569421D01*
X140131789Y-103559923D01*
X140236444Y-103489995D01*
X140253995Y-103472444D01*
X140323923Y-103367789D01*
X140333421Y-103344858D01*
X140356763Y-103227510D01*
X140357976Y-103215190D01*
X140357976Y-102381939D01*
X140382500Y-102357415D01*
X140382500Y-99826585D01*
X140638500Y-99826585D01*
X140638500Y-100890191D01*
X140712309Y-100964000D01*
X141546000Y-100964000D01*
X141989691Y-100964001D01*
X142063500Y-100890192D01*
X142063501Y-99826585D01*
X141989692Y-99752776D01*
X141907604Y-99752776D01*
X141894174Y-99754220D01*
X141593712Y-99819581D01*
X141572878Y-99828211D01*
X141372087Y-99957252D01*
X141358466Y-99969055D01*
X141346948Y-99982347D01*
X141242274Y-99891645D01*
X141227111Y-99881901D01*
X141012059Y-99783691D01*
X140994766Y-99778613D01*
X140819534Y-99753418D01*
X140810556Y-99752776D01*
X140712309Y-99752776D01*
X140638500Y-99826585D01*
X140382500Y-99826585D01*
X140308691Y-99752776D01*
X140226604Y-99752776D01*
X140213174Y-99754220D01*
X139912712Y-99819581D01*
X139891878Y-99828211D01*
X139691087Y-99957252D01*
X139677466Y-99969055D01*
X139522645Y-100147726D01*
X139512901Y-100162889D01*
X139435596Y-100332165D01*
X139425347Y-100312477D01*
X139294820Y-100156921D01*
X139277931Y-100142750D01*
X139104477Y-100042605D01*
X139083759Y-100035064D01*
X138936171Y-100009041D01*
X138925210Y-100008082D01*
X138358154Y-100008082D01*
X138341778Y-100010238D01*
X138092958Y-100076909D01*
X138068477Y-100089653D01*
X137912921Y-100220180D01*
X137898750Y-100237069D01*
X137798605Y-100410523D01*
X137791064Y-100431241D01*
X137775502Y-100519500D01*
X137454420Y-100519500D01*
X137381710Y-100505037D01*
X137369390Y-100503824D01*
X135426610Y-100503824D01*
X135414290Y-100505037D01*
X135386268Y-100510611D01*
X135386268Y-99699268D01*
X148458732Y-99699268D01*
X148458732Y-108580732D01*
G37*
%TD.AperFunction*%
%TD*%
M02*
