%TF.GenerationSoftware,KiCad,Pcbnew,(5.99.0-3084-g8945f8865-dirty)*%
%TF.CreationDate,2020-08-31T12:16:29+03:00*%
%TF.ProjectId,le-pre-et-le-boost,6c652d70-7265-42d6-9574-2d6c652d626f,rev?*%
%TF.SameCoordinates,Original*%
%TF.FileFunction,Copper,L2,Bot*%
%TF.FilePolarity,Positive*%
%FSLAX46Y46*%
G04 Gerber Fmt 4.6, Leading zero omitted, Abs format (unit mm)*
G04 Created by KiCad (PCBNEW (5.99.0-3084-g8945f8865-dirty)) date 2020-08-31 12:16:29*
%MOMM*%
%LPD*%
G01*
G04 APERTURE LIST*
%TA.AperFunction,ComponentPad*%
%ADD10R,1.700000X1.700000*%
%TD*%
%TA.AperFunction,ComponentPad*%
%ADD11O,1.930400X1.930400*%
%TD*%
%TA.AperFunction,ComponentPad*%
%ADD12R,1.930400X1.930400*%
%TD*%
%TA.AperFunction,ComponentPad*%
%ADD13C,1.600000*%
%TD*%
%TA.AperFunction,ComponentPad*%
%ADD14R,1.600000X1.600000*%
%TD*%
%TA.AperFunction,SMDPad,CuDef*%
%ADD15R,0.800000X0.900000*%
%TD*%
%TA.AperFunction,ViaPad*%
%ADD16C,0.800000*%
%TD*%
%TA.AperFunction,Conductor*%
%ADD17C,0.381000*%
%TD*%
%TA.AperFunction,Conductor*%
%ADD18C,0.254000*%
%TD*%
G04 APERTURE END LIST*
D10*
%TO.P,J3,1,Pin_1*%
%TO.N,OUT*%
X147574000Y-100507800D03*
%TD*%
%TO.P,J2,1,Pin_1*%
%TO.N,IN*%
X136144000Y-100584000D03*
%TD*%
D11*
%TO.P,J1,2*%
%TO.N,GND*%
X146812000Y-108458000D03*
D12*
%TO.P,J1,1*%
%TO.N,+9V*%
X144272000Y-108458000D03*
%TD*%
D13*
%TO.P,C2,2*%
%TO.N,GND*%
X147534000Y-104394000D03*
D14*
%TO.P,C2,1*%
%TO.N,+9V*%
X145034000Y-104394000D03*
%TD*%
D13*
%TO.P,C1,2*%
%TO.N,OUT*%
X142479400Y-101828600D03*
D14*
%TO.P,C1,1*%
%TO.N,Net-(C1-Pad1)*%
X139979400Y-101828600D03*
%TD*%
%TO.P,R8,2*%
%TO.N,GND*%
%TA.AperFunction,SMDPad,CuDef*%
G36*
G01*
X139624750Y-108400000D02*
X140537250Y-108400000D01*
G75*
G02*
X140781000Y-108643750I0J-243750D01*
G01*
X140781000Y-109131250D01*
G75*
G02*
X140537250Y-109375000I-243750J0D01*
G01*
X139624750Y-109375000D01*
G75*
G02*
X139381000Y-109131250I0J243750D01*
G01*
X139381000Y-108643750D01*
G75*
G02*
X139624750Y-108400000I243750J0D01*
G01*
G37*
%TD.AperFunction*%
%TO.P,R8,1*%
%TO.N,Net-(Q2-Pad2)*%
%TA.AperFunction,SMDPad,CuDef*%
G36*
G01*
X139624750Y-106525000D02*
X140537250Y-106525000D01*
G75*
G02*
X140781000Y-106768750I0J-243750D01*
G01*
X140781000Y-107256250D01*
G75*
G02*
X140537250Y-107500000I-243750J0D01*
G01*
X139624750Y-107500000D01*
G75*
G02*
X139381000Y-107256250I0J243750D01*
G01*
X139381000Y-106768750D01*
G75*
G02*
X139624750Y-106525000I243750J0D01*
G01*
G37*
%TD.AperFunction*%
%TD*%
%TO.P,R7,2*%
%TO.N,Net-(C4-Pad1)*%
%TA.AperFunction,SMDPad,CuDef*%
G36*
G01*
X143900500Y-105842750D02*
X143900500Y-106755250D01*
G75*
G02*
X143656750Y-106999000I-243750J0D01*
G01*
X143169250Y-106999000D01*
G75*
G02*
X142925500Y-106755250I0J243750D01*
G01*
X142925500Y-105842750D01*
G75*
G02*
X143169250Y-105599000I243750J0D01*
G01*
X143656750Y-105599000D01*
G75*
G02*
X143900500Y-105842750I0J-243750D01*
G01*
G37*
%TD.AperFunction*%
%TO.P,R7,1*%
%TO.N,+9V*%
%TA.AperFunction,SMDPad,CuDef*%
G36*
G01*
X145775500Y-105842750D02*
X145775500Y-106755250D01*
G75*
G02*
X145531750Y-106999000I-243750J0D01*
G01*
X145044250Y-106999000D01*
G75*
G02*
X144800500Y-106755250I0J243750D01*
G01*
X144800500Y-105842750D01*
G75*
G02*
X145044250Y-105599000I243750J0D01*
G01*
X145531750Y-105599000D01*
G75*
G02*
X145775500Y-105842750I0J-243750D01*
G01*
G37*
%TD.AperFunction*%
%TD*%
%TO.P,R6,2*%
%TO.N,GND*%
%TA.AperFunction,SMDPad,CuDef*%
G36*
G01*
X137229000Y-109041250D02*
X137229000Y-108128750D01*
G75*
G02*
X137472750Y-107885000I243750J0D01*
G01*
X137960250Y-107885000D01*
G75*
G02*
X138204000Y-108128750I0J-243750D01*
G01*
X138204000Y-109041250D01*
G75*
G02*
X137960250Y-109285000I-243750J0D01*
G01*
X137472750Y-109285000D01*
G75*
G02*
X137229000Y-109041250I0J243750D01*
G01*
G37*
%TD.AperFunction*%
%TO.P,R6,1*%
%TO.N,Net-(C3-Pad2)*%
%TA.AperFunction,SMDPad,CuDef*%
G36*
G01*
X135354000Y-109041250D02*
X135354000Y-108128750D01*
G75*
G02*
X135597750Y-107885000I243750J0D01*
G01*
X136085250Y-107885000D01*
G75*
G02*
X136329000Y-108128750I0J-243750D01*
G01*
X136329000Y-109041250D01*
G75*
G02*
X136085250Y-109285000I-243750J0D01*
G01*
X135597750Y-109285000D01*
G75*
G02*
X135354000Y-109041250I0J243750D01*
G01*
G37*
%TD.AperFunction*%
%TD*%
%TO.P,R5,2*%
%TO.N,Net-(C3-Pad2)*%
%TA.AperFunction,SMDPad,CuDef*%
G36*
G01*
X136456000Y-105080750D02*
X136456000Y-105993250D01*
G75*
G02*
X136212250Y-106237000I-243750J0D01*
G01*
X135724750Y-106237000D01*
G75*
G02*
X135481000Y-105993250I0J243750D01*
G01*
X135481000Y-105080750D01*
G75*
G02*
X135724750Y-104837000I243750J0D01*
G01*
X136212250Y-104837000D01*
G75*
G02*
X136456000Y-105080750I0J-243750D01*
G01*
G37*
%TD.AperFunction*%
%TO.P,R5,1*%
%TO.N,+9V*%
%TA.AperFunction,SMDPad,CuDef*%
G36*
G01*
X138331000Y-105080750D02*
X138331000Y-105993250D01*
G75*
G02*
X138087250Y-106237000I-243750J0D01*
G01*
X137599750Y-106237000D01*
G75*
G02*
X137356000Y-105993250I0J243750D01*
G01*
X137356000Y-105080750D01*
G75*
G02*
X137599750Y-104837000I243750J0D01*
G01*
X138087250Y-104837000D01*
G75*
G02*
X138331000Y-105080750I0J-243750D01*
G01*
G37*
%TD.AperFunction*%
%TD*%
D15*
%TO.P,Q2,3,C*%
%TO.N,Net-(C4-Pad1)*%
X140843000Y-103521000D03*
%TO.P,Q2,2,E*%
%TO.N,Net-(Q2-Pad2)*%
X139893000Y-105521000D03*
%TO.P,Q2,1,B*%
%TO.N,Net-(C3-Pad2)*%
X141793000Y-105521000D03*
%TD*%
%TO.P,C4,2*%
%TO.N,OUT*%
%TA.AperFunction,SMDPad,CuDef*%
G36*
G01*
X145109250Y-101277000D02*
X144196750Y-101277000D01*
G75*
G02*
X143953000Y-101033250I0J243750D01*
G01*
X143953000Y-100545750D01*
G75*
G02*
X144196750Y-100302000I243750J0D01*
G01*
X145109250Y-100302000D01*
G75*
G02*
X145353000Y-100545750I0J-243750D01*
G01*
X145353000Y-101033250D01*
G75*
G02*
X145109250Y-101277000I-243750J0D01*
G01*
G37*
%TD.AperFunction*%
%TO.P,C4,1*%
%TO.N,Net-(C4-Pad1)*%
%TA.AperFunction,SMDPad,CuDef*%
G36*
G01*
X145109250Y-103152000D02*
X144196750Y-103152000D01*
G75*
G02*
X143953000Y-102908250I0J243750D01*
G01*
X143953000Y-102420750D01*
G75*
G02*
X144196750Y-102177000I243750J0D01*
G01*
X145109250Y-102177000D01*
G75*
G02*
X145353000Y-102420750I0J-243750D01*
G01*
X145353000Y-102908250D01*
G75*
G02*
X145109250Y-103152000I-243750J0D01*
G01*
G37*
%TD.AperFunction*%
%TD*%
%TO.P,C3,2*%
%TO.N,Net-(C3-Pad2)*%
%TA.AperFunction,SMDPad,CuDef*%
G36*
G01*
X137356000Y-103072250D02*
X137356000Y-102159750D01*
G75*
G02*
X137599750Y-101916000I243750J0D01*
G01*
X138087250Y-101916000D01*
G75*
G02*
X138331000Y-102159750I0J-243750D01*
G01*
X138331000Y-103072250D01*
G75*
G02*
X138087250Y-103316000I-243750J0D01*
G01*
X137599750Y-103316000D01*
G75*
G02*
X137356000Y-103072250I0J243750D01*
G01*
G37*
%TD.AperFunction*%
%TO.P,C3,1*%
%TO.N,IN*%
%TA.AperFunction,SMDPad,CuDef*%
G36*
G01*
X135481000Y-103072250D02*
X135481000Y-102159750D01*
G75*
G02*
X135724750Y-101916000I243750J0D01*
G01*
X136212250Y-101916000D01*
G75*
G02*
X136456000Y-102159750I0J-243750D01*
G01*
X136456000Y-103072250D01*
G75*
G02*
X136212250Y-103316000I-243750J0D01*
G01*
X135724750Y-103316000D01*
G75*
G02*
X135481000Y-103072250I0J243750D01*
G01*
G37*
%TD.AperFunction*%
%TD*%
D16*
%TO.N,GND*%
X136906000Y-107061000D03*
X139573000Y-103632000D03*
%TD*%
D17*
%TO.N,GND*%
X140081000Y-108887500D02*
X138019000Y-108887500D01*
X138019000Y-108887500D02*
X137716500Y-108585000D01*
%TO.N,+9V*%
X137843500Y-105537000D02*
X137843500Y-106495048D01*
X137843500Y-106495048D02*
X139357942Y-108009490D01*
X139357942Y-108009490D02*
X143823490Y-108009490D01*
X143823490Y-108009490D02*
X144272000Y-108458000D01*
%TO.N,Net-(C3-Pad2)*%
X137843500Y-102616000D02*
X137843500Y-103316000D01*
X140952499Y-104680499D02*
X141793000Y-105521000D01*
X137843500Y-103316000D02*
X139207999Y-104680499D01*
X139207999Y-104680499D02*
X140952499Y-104680499D01*
X135968500Y-108585000D02*
X135968500Y-105537000D01*
X135968500Y-105537000D02*
X135968500Y-104491000D01*
X135968500Y-104491000D02*
X137843500Y-102616000D01*
%TO.N,IN*%
X135968500Y-102616000D02*
X135968500Y-100759500D01*
X135968500Y-100759500D02*
X136144000Y-100584000D01*
%TO.N,+9V*%
X144272000Y-108458000D02*
X144272000Y-107315000D01*
X144272000Y-107315000D02*
X145288000Y-106299000D01*
X145288000Y-106299000D02*
X145288000Y-104648000D01*
X145288000Y-104648000D02*
X145034000Y-104394000D01*
%TO.N,OUT*%
X144653000Y-100789500D02*
X147368500Y-100789500D01*
X147368500Y-100789500D02*
X147574000Y-100584000D01*
X142708000Y-101854000D02*
X143588500Y-101854000D01*
X143588500Y-101854000D02*
X144653000Y-100789500D01*
%TO.N,Net-(C4-Pad1)*%
X141335000Y-103648000D02*
X141624000Y-103648000D01*
X140843000Y-103648000D02*
X141335000Y-103648000D01*
X143953000Y-102664500D02*
X144653000Y-102664500D01*
X141335000Y-103648000D02*
X142969500Y-103648000D01*
X142969500Y-103648000D02*
X143953000Y-102664500D01*
X141624000Y-103648000D02*
X143413000Y-105437000D01*
X143413000Y-105437000D02*
X143413000Y-106299000D01*
%TO.N,Net-(Q2-Pad2)*%
X139893000Y-105648000D02*
X139893000Y-107175500D01*
X139893000Y-107175500D02*
X139905500Y-107188000D01*
%TD*%
%TO.N,GND*%
D18*
X146339024Y-101370210D02*
X146366047Y-101506069D01*
X146450035Y-101631765D01*
X146575731Y-101715753D01*
X146711590Y-101742776D01*
X148436410Y-101742776D01*
X148457718Y-101738538D01*
X148457718Y-103297138D01*
X148359651Y-103214850D01*
X148142349Y-103089391D01*
X147906564Y-103003571D01*
X147659459Y-102960000D01*
X147408541Y-102960000D01*
X147161436Y-103003571D01*
X146925650Y-103089391D01*
X146599002Y-103277982D01*
X147715020Y-104394000D01*
X146599002Y-105510018D01*
X146925650Y-105698609D01*
X147161436Y-105784429D01*
X147408541Y-105828000D01*
X147659459Y-105828000D01*
X147906564Y-105784429D01*
X148142349Y-105698609D01*
X148359651Y-105573150D01*
X148457718Y-105490862D01*
X148457718Y-109341718D01*
X148146779Y-109341718D01*
X148250567Y-109168984D01*
X148347373Y-108924482D01*
X148420555Y-108586000D01*
X146684000Y-108586000D01*
X146684000Y-108330000D01*
X146940000Y-108330000D01*
X148411855Y-108330000D01*
X148368327Y-108067078D01*
X148283581Y-107818138D01*
X148159315Y-107586382D01*
X147998866Y-107378035D01*
X147806543Y-107198691D01*
X147587510Y-107053165D01*
X147347651Y-106945368D01*
X147093407Y-106878194D01*
X146940000Y-106863691D01*
X146940000Y-108330000D01*
X146684000Y-108330000D01*
X146684000Y-106844459D01*
X146313466Y-106932733D01*
X146100861Y-107022104D01*
X146130492Y-106970782D01*
X146159418Y-106806732D01*
X146159418Y-105800824D01*
X146086933Y-105530305D01*
X146060971Y-105499365D01*
X146107965Y-105467965D01*
X146191953Y-105342269D01*
X146218976Y-105206410D01*
X146218976Y-104973735D01*
X146229391Y-105002350D01*
X146417982Y-105328998D01*
X147352981Y-104394000D01*
X146417982Y-103459002D01*
X146229391Y-103785650D01*
X146218976Y-103814265D01*
X146218976Y-103581590D01*
X146191953Y-103445731D01*
X146107965Y-103320035D01*
X145982269Y-103236047D01*
X145846410Y-103209024D01*
X145658777Y-103209024D01*
X145707992Y-103123782D01*
X145736918Y-102959732D01*
X145736918Y-102378824D01*
X145664433Y-102108305D01*
X145517625Y-101933346D01*
X145324782Y-101822008D01*
X145160732Y-101793082D01*
X144457641Y-101793082D01*
X144589805Y-101660918D01*
X145151176Y-101660918D01*
X145421695Y-101588433D01*
X145596653Y-101441625D01*
X145643203Y-101361000D01*
X146339024Y-101361000D01*
X146339024Y-101370210D01*
%TA.AperFunction,Conductor*%
G36*
X146339024Y-101370210D02*
G01*
X146366047Y-101506069D01*
X146450035Y-101631765D01*
X146575731Y-101715753D01*
X146711590Y-101742776D01*
X148436410Y-101742776D01*
X148457718Y-101738538D01*
X148457718Y-103297138D01*
X148359651Y-103214850D01*
X148142349Y-103089391D01*
X147906564Y-103003571D01*
X147659459Y-102960000D01*
X147408541Y-102960000D01*
X147161436Y-103003571D01*
X146925650Y-103089391D01*
X146599002Y-103277982D01*
X147715020Y-104394000D01*
X146599002Y-105510018D01*
X146925650Y-105698609D01*
X147161436Y-105784429D01*
X147408541Y-105828000D01*
X147659459Y-105828000D01*
X147906564Y-105784429D01*
X148142349Y-105698609D01*
X148359651Y-105573150D01*
X148457718Y-105490862D01*
X148457718Y-109341718D01*
X148146779Y-109341718D01*
X148250567Y-109168984D01*
X148347373Y-108924482D01*
X148420555Y-108586000D01*
X146684000Y-108586000D01*
X146684000Y-108330000D01*
X146940000Y-108330000D01*
X148411855Y-108330000D01*
X148368327Y-108067078D01*
X148283581Y-107818138D01*
X148159315Y-107586382D01*
X147998866Y-107378035D01*
X147806543Y-107198691D01*
X147587510Y-107053165D01*
X147347651Y-106945368D01*
X147093407Y-106878194D01*
X146940000Y-106863691D01*
X146940000Y-108330000D01*
X146684000Y-108330000D01*
X146684000Y-106844459D01*
X146313466Y-106932733D01*
X146100861Y-107022104D01*
X146130492Y-106970782D01*
X146159418Y-106806732D01*
X146159418Y-105800824D01*
X146086933Y-105530305D01*
X146060971Y-105499365D01*
X146107965Y-105467965D01*
X146191953Y-105342269D01*
X146218976Y-105206410D01*
X146218976Y-104973735D01*
X146229391Y-105002350D01*
X146417982Y-105328998D01*
X147352981Y-104394000D01*
X146417982Y-103459002D01*
X146229391Y-103785650D01*
X146218976Y-103814265D01*
X146218976Y-103581590D01*
X146191953Y-103445731D01*
X146107965Y-103320035D01*
X145982269Y-103236047D01*
X145846410Y-103209024D01*
X145658777Y-103209024D01*
X145707992Y-103123782D01*
X145736918Y-102959732D01*
X145736918Y-102378824D01*
X145664433Y-102108305D01*
X145517625Y-101933346D01*
X145324782Y-101822008D01*
X145160732Y-101793082D01*
X144457641Y-101793082D01*
X144589805Y-101660918D01*
X145151176Y-101660918D01*
X145421695Y-101588433D01*
X145596653Y-101441625D01*
X145643203Y-101361000D01*
X146339024Y-101361000D01*
X146339024Y-101370210D01*
G37*
%TD.AperFunction*%
X142921824Y-109341718D02*
X141398707Y-109341718D01*
X141420224Y-109192068D01*
X141420224Y-109015500D01*
X139953000Y-109015499D01*
X139953001Y-108759500D01*
X141420224Y-108759501D01*
X141420224Y-108596812D01*
X141416782Y-108580990D01*
X142921824Y-108580990D01*
X142921824Y-109341718D01*
%TA.AperFunction,Conductor*%
G36*
X142921824Y-109341718D02*
G01*
X141398707Y-109341718D01*
X141420224Y-109192068D01*
X141420224Y-109015500D01*
X139953000Y-109015499D01*
X139953001Y-108759500D01*
X141420224Y-108759501D01*
X141420224Y-108596812D01*
X141416782Y-108580990D01*
X142921824Y-108580990D01*
X142921824Y-109341718D01*
G37*
%TD.AperFunction*%
X138179559Y-104460281D02*
X138138732Y-104453082D01*
X137557824Y-104453082D01*
X137287305Y-104525567D01*
X137112346Y-104672375D01*
X137001008Y-104865218D01*
X136972082Y-105029268D01*
X136972082Y-106035176D01*
X137044567Y-106305695D01*
X137191375Y-106480654D01*
X137267245Y-106524457D01*
X137265393Y-106545625D01*
X137285018Y-106618866D01*
X137298182Y-106693527D01*
X137310947Y-106715637D01*
X137317556Y-106740301D01*
X137361048Y-106802414D01*
X137398954Y-106868068D01*
X137457024Y-106916794D01*
X137844500Y-107304271D01*
X137844500Y-108713000D01*
X137588500Y-108713000D01*
X137588500Y-107245776D01*
X137425812Y-107245776D01*
X137107516Y-107315017D01*
X136889428Y-107455174D01*
X136722683Y-107647607D01*
X136642359Y-107823494D01*
X136640433Y-107816305D01*
X136540000Y-107696614D01*
X136540000Y-106535591D01*
X136699654Y-106401625D01*
X136810992Y-106208782D01*
X136839918Y-106044732D01*
X136839918Y-105038824D01*
X136767433Y-104768305D01*
X136645148Y-104622573D01*
X137493500Y-103774221D01*
X138179559Y-104460281D01*
%TA.AperFunction,Conductor*%
G36*
X138179559Y-104460281D02*
G01*
X138138732Y-104453082D01*
X137557824Y-104453082D01*
X137287305Y-104525567D01*
X137112346Y-104672375D01*
X137001008Y-104865218D01*
X136972082Y-105029268D01*
X136972082Y-106035176D01*
X137044567Y-106305695D01*
X137191375Y-106480654D01*
X137267245Y-106524457D01*
X137265393Y-106545625D01*
X137285018Y-106618866D01*
X137298182Y-106693527D01*
X137310947Y-106715637D01*
X137317556Y-106740301D01*
X137361048Y-106802414D01*
X137398954Y-106868068D01*
X137457024Y-106916794D01*
X137844500Y-107304271D01*
X137844500Y-108713000D01*
X137588500Y-108713000D01*
X137588500Y-107245776D01*
X137425812Y-107245776D01*
X137107516Y-107315017D01*
X136889428Y-107455174D01*
X136722683Y-107647607D01*
X136642359Y-107823494D01*
X136640433Y-107816305D01*
X136540000Y-107696614D01*
X136540000Y-106535591D01*
X136699654Y-106401625D01*
X136810992Y-106208782D01*
X136839918Y-106044732D01*
X136839918Y-105038824D01*
X136767433Y-104768305D01*
X136645148Y-104622573D01*
X137493500Y-103774221D01*
X138179559Y-104460281D01*
G37*
%TD.AperFunction*%
X146339024Y-100218000D02*
X145651591Y-100218000D01*
X145517625Y-100058346D01*
X145324782Y-99947008D01*
X145160732Y-99918082D01*
X144154824Y-99918082D01*
X143884305Y-99990567D01*
X143709346Y-100137375D01*
X143598008Y-100330218D01*
X143569082Y-100494268D01*
X143569082Y-101065197D01*
X143460856Y-101173423D01*
X143398254Y-101079200D01*
X143235195Y-100915000D01*
X143043349Y-100785598D01*
X142830022Y-100695924D01*
X142603340Y-100649392D01*
X142371936Y-100647777D01*
X142144626Y-100691139D01*
X141930069Y-100777826D01*
X141736435Y-100904536D01*
X141571099Y-101066444D01*
X141440360Y-101257383D01*
X141349199Y-101470079D01*
X141301086Y-101696430D01*
X141297855Y-101927817D01*
X141339629Y-102155424D01*
X141424816Y-102370582D01*
X141550172Y-102565097D01*
X141710922Y-102731558D01*
X141900943Y-102863627D01*
X142112997Y-102956271D01*
X142339007Y-103005963D01*
X142570366Y-103010809D01*
X142798259Y-102970625D01*
X142864248Y-102945030D01*
X142732778Y-103076500D01*
X141699235Y-103076500D01*
X141674577Y-103069893D01*
X141627976Y-103073970D01*
X141627976Y-103058590D01*
X141600953Y-102922731D01*
X141516965Y-102797035D01*
X141391269Y-102713047D01*
X141255410Y-102686024D01*
X141155423Y-102686024D01*
X141164376Y-102641010D01*
X141164376Y-101016190D01*
X141137353Y-100880331D01*
X141053365Y-100754635D01*
X140927669Y-100670647D01*
X140791810Y-100643624D01*
X139166990Y-100643624D01*
X139031131Y-100670647D01*
X138905435Y-100754635D01*
X138821447Y-100880331D01*
X138794424Y-101016190D01*
X138794424Y-102641010D01*
X138821447Y-102776869D01*
X138905435Y-102902565D01*
X139031131Y-102986553D01*
X139166990Y-103013576D01*
X140066977Y-103013576D01*
X140058024Y-103058590D01*
X140058024Y-103983410D01*
X140083004Y-104108999D01*
X139444722Y-104108999D01*
X138663120Y-103327398D01*
X138685992Y-103287782D01*
X138714918Y-103123732D01*
X138714918Y-102117824D01*
X138642433Y-101847305D01*
X138495625Y-101672346D01*
X138302782Y-101561008D01*
X138138732Y-101532082D01*
X137557824Y-101532082D01*
X137347903Y-101588330D01*
X137351953Y-101582269D01*
X137378976Y-101446410D01*
X137378976Y-99721590D01*
X137374738Y-99700282D01*
X146339024Y-99700282D01*
X146339024Y-100218000D01*
%TA.AperFunction,Conductor*%
G36*
X146339024Y-100218000D02*
G01*
X145651591Y-100218000D01*
X145517625Y-100058346D01*
X145324782Y-99947008D01*
X145160732Y-99918082D01*
X144154824Y-99918082D01*
X143884305Y-99990567D01*
X143709346Y-100137375D01*
X143598008Y-100330218D01*
X143569082Y-100494268D01*
X143569082Y-101065197D01*
X143460856Y-101173423D01*
X143398254Y-101079200D01*
X143235195Y-100915000D01*
X143043349Y-100785598D01*
X142830022Y-100695924D01*
X142603340Y-100649392D01*
X142371936Y-100647777D01*
X142144626Y-100691139D01*
X141930069Y-100777826D01*
X141736435Y-100904536D01*
X141571099Y-101066444D01*
X141440360Y-101257383D01*
X141349199Y-101470079D01*
X141301086Y-101696430D01*
X141297855Y-101927817D01*
X141339629Y-102155424D01*
X141424816Y-102370582D01*
X141550172Y-102565097D01*
X141710922Y-102731558D01*
X141900943Y-102863627D01*
X142112997Y-102956271D01*
X142339007Y-103005963D01*
X142570366Y-103010809D01*
X142798259Y-102970625D01*
X142864248Y-102945030D01*
X142732778Y-103076500D01*
X141699235Y-103076500D01*
X141674577Y-103069893D01*
X141627976Y-103073970D01*
X141627976Y-103058590D01*
X141600953Y-102922731D01*
X141516965Y-102797035D01*
X141391269Y-102713047D01*
X141255410Y-102686024D01*
X141155423Y-102686024D01*
X141164376Y-102641010D01*
X141164376Y-101016190D01*
X141137353Y-100880331D01*
X141053365Y-100754635D01*
X140927669Y-100670647D01*
X140791810Y-100643624D01*
X139166990Y-100643624D01*
X139031131Y-100670647D01*
X138905435Y-100754635D01*
X138821447Y-100880331D01*
X138794424Y-101016190D01*
X138794424Y-102641010D01*
X138821447Y-102776869D01*
X138905435Y-102902565D01*
X139031131Y-102986553D01*
X139166990Y-103013576D01*
X140066977Y-103013576D01*
X140058024Y-103058590D01*
X140058024Y-103983410D01*
X140083004Y-104108999D01*
X139444722Y-104108999D01*
X138663120Y-103327398D01*
X138685992Y-103287782D01*
X138714918Y-103123732D01*
X138714918Y-102117824D01*
X138642433Y-101847305D01*
X138495625Y-101672346D01*
X138302782Y-101561008D01*
X138138732Y-101532082D01*
X137557824Y-101532082D01*
X137347903Y-101588330D01*
X137351953Y-101582269D01*
X137378976Y-101446410D01*
X137378976Y-99721590D01*
X137374738Y-99700282D01*
X146339024Y-99700282D01*
X146339024Y-100218000D01*
G37*
%TD.AperFunction*%
%TD*%
M02*
