%TF.GenerationSoftware,KiCad,Pcbnew,(5.99.0-3084-g8945f8865-dirty)*%
%TF.CreationDate,2020-08-31T13:15:16+03:00*%
%TF.ProjectId,le-pre-et-le-boost,6c652d70-7265-42d6-9574-2d6c652d626f,rev?*%
%TF.SameCoordinates,Original*%
%TF.FileFunction,Copper,L2,Bot*%
%TF.FilePolarity,Positive*%
%FSLAX46Y46*%
G04 Gerber Fmt 4.6, Leading zero omitted, Abs format (unit mm)*
G04 Created by KiCad (PCBNEW (5.99.0-3084-g8945f8865-dirty)) date 2020-08-31 13:15:16*
%MOMM*%
%LPD*%
G01*
G04 APERTURE LIST*
%TA.AperFunction,ComponentPad*%
%ADD10C,1.600000*%
%TD*%
%TA.AperFunction,ComponentPad*%
%ADD11R,1.600000X1.600000*%
%TD*%
%TA.AperFunction,ComponentPad*%
%ADD12O,1.930400X1.930400*%
%TD*%
%TA.AperFunction,ComponentPad*%
%ADD13R,1.930400X1.930400*%
%TD*%
%TA.AperFunction,SMDPad,CuDef*%
%ADD14R,0.800000X0.900000*%
%TD*%
%TA.AperFunction,ViaPad*%
%ADD15C,0.800000*%
%TD*%
%TA.AperFunction,Conductor*%
%ADD16C,0.381000*%
%TD*%
%TA.AperFunction,Conductor*%
%ADD17C,0.254000*%
%TD*%
G04 APERTURE END LIST*
D10*
%TO.P,C2,2*%
%TO.N,GND*%
X145074000Y-104394000D03*
D11*
%TO.P,C2,1*%
%TO.N,+9V*%
X147574000Y-104394000D03*
%TD*%
D10*
%TO.P,C1,2*%
%TO.N,PRE_OUT*%
X139994000Y-101854000D03*
D11*
%TO.P,C1,1*%
%TO.N,Net-(C1-Pad1)*%
X142494000Y-101854000D03*
%TD*%
D12*
%TO.P,J2,4,Pin_4*%
%TO.N,BOOST_OUT*%
X140970000Y-108585000D03*
%TO.P,J2,3,Pin_3*%
%TO.N,BOOST_IN*%
X138430000Y-108585000D03*
%TO.P,J2,2,Pin_2*%
%TO.N,PRE_OUT*%
X135890000Y-108585000D03*
D13*
%TO.P,J2,1,Pin_1*%
%TO.N,PRE_IN*%
X133350000Y-108585000D03*
%TD*%
D12*
%TO.P,J1,2*%
%TO.N,GND*%
X146812000Y-108458000D03*
D13*
%TO.P,J1,1*%
%TO.N,+9V*%
X144272000Y-108458000D03*
%TD*%
%TO.P,R8,2*%
%TO.N,GND*%
%TA.AperFunction,SMDPad,CuDef*%
G36*
G01*
X133357200Y-103175750D02*
X133357200Y-104088250D01*
G75*
G02*
X133113450Y-104332000I-243750J0D01*
G01*
X132625950Y-104332000D01*
G75*
G02*
X132382200Y-104088250I0J243750D01*
G01*
X132382200Y-103175750D01*
G75*
G02*
X132625950Y-102932000I243750J0D01*
G01*
X133113450Y-102932000D01*
G75*
G02*
X133357200Y-103175750I0J-243750D01*
G01*
G37*
%TD.AperFunction*%
%TO.P,R8,1*%
%TO.N,Net-(Q2-Pad2)*%
%TA.AperFunction,SMDPad,CuDef*%
G36*
G01*
X135232200Y-103175750D02*
X135232200Y-104088250D01*
G75*
G02*
X134988450Y-104332000I-243750J0D01*
G01*
X134500950Y-104332000D01*
G75*
G02*
X134257200Y-104088250I0J243750D01*
G01*
X134257200Y-103175750D01*
G75*
G02*
X134500950Y-102932000I243750J0D01*
G01*
X134988450Y-102932000D01*
G75*
G02*
X135232200Y-103175750I0J-243750D01*
G01*
G37*
%TD.AperFunction*%
%TD*%
%TO.P,R7,2*%
%TO.N,Net-(C4-Pad1)*%
%TA.AperFunction,SMDPad,CuDef*%
G36*
G01*
X143900500Y-105842750D02*
X143900500Y-106755250D01*
G75*
G02*
X143656750Y-106999000I-243750J0D01*
G01*
X143169250Y-106999000D01*
G75*
G02*
X142925500Y-106755250I0J243750D01*
G01*
X142925500Y-105842750D01*
G75*
G02*
X143169250Y-105599000I243750J0D01*
G01*
X143656750Y-105599000D01*
G75*
G02*
X143900500Y-105842750I0J-243750D01*
G01*
G37*
%TD.AperFunction*%
%TO.P,R7,1*%
%TO.N,+9V*%
%TA.AperFunction,SMDPad,CuDef*%
G36*
G01*
X145775500Y-105842750D02*
X145775500Y-106755250D01*
G75*
G02*
X145531750Y-106999000I-243750J0D01*
G01*
X145044250Y-106999000D01*
G75*
G02*
X144800500Y-106755250I0J243750D01*
G01*
X144800500Y-105842750D01*
G75*
G02*
X145044250Y-105599000I243750J0D01*
G01*
X145531750Y-105599000D01*
G75*
G02*
X145775500Y-105842750I0J-243750D01*
G01*
G37*
%TD.AperFunction*%
%TD*%
%TO.P,R6,2*%
%TO.N,GND*%
%TA.AperFunction,SMDPad,CuDef*%
G36*
G01*
X133408000Y-105207750D02*
X133408000Y-106120250D01*
G75*
G02*
X133164250Y-106364000I-243750J0D01*
G01*
X132676750Y-106364000D01*
G75*
G02*
X132433000Y-106120250I0J243750D01*
G01*
X132433000Y-105207750D01*
G75*
G02*
X132676750Y-104964000I243750J0D01*
G01*
X133164250Y-104964000D01*
G75*
G02*
X133408000Y-105207750I0J-243750D01*
G01*
G37*
%TD.AperFunction*%
%TO.P,R6,1*%
%TO.N,Net-(C3-Pad2)*%
%TA.AperFunction,SMDPad,CuDef*%
G36*
G01*
X135283000Y-105207750D02*
X135283000Y-106120250D01*
G75*
G02*
X135039250Y-106364000I-243750J0D01*
G01*
X134551750Y-106364000D01*
G75*
G02*
X134308000Y-106120250I0J243750D01*
G01*
X134308000Y-105207750D01*
G75*
G02*
X134551750Y-104964000I243750J0D01*
G01*
X135039250Y-104964000D01*
G75*
G02*
X135283000Y-105207750I0J-243750D01*
G01*
G37*
%TD.AperFunction*%
%TD*%
%TO.P,R5,2*%
%TO.N,Net-(C3-Pad2)*%
%TA.AperFunction,SMDPad,CuDef*%
G36*
G01*
X140520000Y-103683750D02*
X140520000Y-104596250D01*
G75*
G02*
X140276250Y-104840000I-243750J0D01*
G01*
X139788750Y-104840000D01*
G75*
G02*
X139545000Y-104596250I0J243750D01*
G01*
X139545000Y-103683750D01*
G75*
G02*
X139788750Y-103440000I243750J0D01*
G01*
X140276250Y-103440000D01*
G75*
G02*
X140520000Y-103683750I0J-243750D01*
G01*
G37*
%TD.AperFunction*%
%TO.P,R5,1*%
%TO.N,+9V*%
%TA.AperFunction,SMDPad,CuDef*%
G36*
G01*
X142395000Y-103683750D02*
X142395000Y-104596250D01*
G75*
G02*
X142151250Y-104840000I-243750J0D01*
G01*
X141663750Y-104840000D01*
G75*
G02*
X141420000Y-104596250I0J243750D01*
G01*
X141420000Y-103683750D01*
G75*
G02*
X141663750Y-103440000I243750J0D01*
G01*
X142151250Y-103440000D01*
G75*
G02*
X142395000Y-103683750I0J-243750D01*
G01*
G37*
%TD.AperFunction*%
%TD*%
D14*
%TO.P,Q2,3,C*%
%TO.N,Net-(C4-Pad1)*%
X137414000Y-101870000D03*
%TO.P,Q2,2,E*%
%TO.N,Net-(Q2-Pad2)*%
X136464000Y-103870000D03*
%TO.P,Q2,1,B*%
%TO.N,Net-(C3-Pad2)*%
X138364000Y-103870000D03*
%TD*%
%TO.P,C4,2*%
%TO.N,BOOST_OUT*%
%TA.AperFunction,SMDPad,CuDef*%
G36*
G01*
X140520000Y-105715750D02*
X140520000Y-106628250D01*
G75*
G02*
X140276250Y-106872000I-243750J0D01*
G01*
X139788750Y-106872000D01*
G75*
G02*
X139545000Y-106628250I0J243750D01*
G01*
X139545000Y-105715750D01*
G75*
G02*
X139788750Y-105472000I243750J0D01*
G01*
X140276250Y-105472000D01*
G75*
G02*
X140520000Y-105715750I0J-243750D01*
G01*
G37*
%TD.AperFunction*%
%TO.P,C4,1*%
%TO.N,Net-(C4-Pad1)*%
%TA.AperFunction,SMDPad,CuDef*%
G36*
G01*
X142395000Y-105715750D02*
X142395000Y-106628250D01*
G75*
G02*
X142151250Y-106872000I-243750J0D01*
G01*
X141663750Y-106872000D01*
G75*
G02*
X141420000Y-106628250I0J243750D01*
G01*
X141420000Y-105715750D01*
G75*
G02*
X141663750Y-105472000I243750J0D01*
G01*
X142151250Y-105472000D01*
G75*
G02*
X142395000Y-105715750I0J-243750D01*
G01*
G37*
%TD.AperFunction*%
%TD*%
%TO.P,C3,2*%
%TO.N,Net-(C3-Pad2)*%
%TA.AperFunction,SMDPad,CuDef*%
G36*
G01*
X137991000Y-106628250D02*
X137991000Y-105715750D01*
G75*
G02*
X138234750Y-105472000I243750J0D01*
G01*
X138722250Y-105472000D01*
G75*
G02*
X138966000Y-105715750I0J-243750D01*
G01*
X138966000Y-106628250D01*
G75*
G02*
X138722250Y-106872000I-243750J0D01*
G01*
X138234750Y-106872000D01*
G75*
G02*
X137991000Y-106628250I0J243750D01*
G01*
G37*
%TD.AperFunction*%
%TO.P,C3,1*%
%TO.N,BOOST_IN*%
%TA.AperFunction,SMDPad,CuDef*%
G36*
G01*
X136116000Y-106628250D02*
X136116000Y-105715750D01*
G75*
G02*
X136359750Y-105472000I243750J0D01*
G01*
X136847250Y-105472000D01*
G75*
G02*
X137091000Y-105715750I0J-243750D01*
G01*
X137091000Y-106628250D01*
G75*
G02*
X136847250Y-106872000I-243750J0D01*
G01*
X136359750Y-106872000D01*
G75*
G02*
X136116000Y-106628250I0J243750D01*
G01*
G37*
%TD.AperFunction*%
%TD*%
D15*
%TO.N,GND*%
X143256000Y-104241600D03*
X144373600Y-101955600D03*
X133985000Y-100965000D03*
%TD*%
D16*
%TO.N,Net-(C4-Pad1)*%
X137414000Y-101870000D02*
X138248058Y-101870000D01*
X138248058Y-101870000D02*
X139422559Y-103044501D01*
X141029490Y-105293990D02*
X141907500Y-106172000D01*
X139422559Y-103044501D02*
X140538069Y-103044501D01*
X140538069Y-103044501D02*
X141029490Y-103535922D01*
X141029490Y-103535922D02*
X141029490Y-105293990D01*
%TO.N,+9V*%
X147574000Y-104394000D02*
X147193000Y-104394000D01*
X147193000Y-104394000D02*
X145288000Y-106299000D01*
X141907500Y-104140000D02*
X143002999Y-103044501D01*
X146224501Y-103044501D02*
X147574000Y-104394000D01*
X143002999Y-103044501D02*
X146224501Y-103044501D01*
%TO.N,Net-(Q2-Pad2)*%
X134795500Y-103632000D02*
X136226000Y-103632000D01*
X136226000Y-103632000D02*
X136464000Y-103870000D01*
%TO.N,Net-(C4-Pad1)*%
X143413000Y-106299000D02*
X142034500Y-106299000D01*
X142034500Y-106299000D02*
X141907500Y-106172000D01*
%TO.N,BOOST_OUT*%
X140032500Y-106172000D02*
X140032500Y-107545900D01*
X140032500Y-107545900D02*
X140970000Y-108483400D01*
%TO.N,Net-(C3-Pad2)*%
X138364000Y-103870000D02*
X139762500Y-103870000D01*
X139762500Y-103870000D02*
X140032500Y-104140000D01*
X138478500Y-106172000D02*
X138478500Y-103984500D01*
X138478500Y-103984500D02*
X138364000Y-103870000D01*
X134795500Y-105664000D02*
X135378010Y-105081490D01*
X135378010Y-105081490D02*
X137387990Y-105081490D01*
X137387990Y-105081490D02*
X138478500Y-106172000D01*
%TO.N,BOOST_IN*%
X138430000Y-108483400D02*
X138430000Y-107998500D01*
X138430000Y-107998500D02*
X136603500Y-106172000D01*
%TO.N,+9V*%
X144272000Y-108458000D02*
X144272000Y-107315000D01*
X144272000Y-107315000D02*
X145288000Y-106299000D01*
%TD*%
%TO.N,GND*%
D17*
X148457718Y-109468718D02*
X148051873Y-109468718D01*
X148115129Y-109394393D01*
X148250567Y-109168984D01*
X148347373Y-108924482D01*
X148420555Y-108586000D01*
X146684000Y-108586000D01*
X146684000Y-108330000D01*
X146940000Y-108330000D01*
X148411855Y-108330000D01*
X148368327Y-108067078D01*
X148283581Y-107818138D01*
X148159315Y-107586382D01*
X147998866Y-107378035D01*
X147806543Y-107198691D01*
X147587510Y-107053165D01*
X147347651Y-106945368D01*
X147093407Y-106878194D01*
X146940000Y-106863691D01*
X146940000Y-108330000D01*
X146684000Y-108330000D01*
X146684000Y-106844459D01*
X146313466Y-106932733D01*
X146100861Y-107022104D01*
X146130492Y-106970782D01*
X146159418Y-106806732D01*
X146159418Y-106235803D01*
X146816245Y-105578976D01*
X148386410Y-105578976D01*
X148457718Y-105564793D01*
X148457718Y-109468718D01*
%TA.AperFunction,Conductor*%
G36*
X148457718Y-109468718D02*
G01*
X148051873Y-109468718D01*
X148115129Y-109394393D01*
X148250567Y-109168984D01*
X148347373Y-108924482D01*
X148420555Y-108586000D01*
X146684000Y-108586000D01*
X146684000Y-108330000D01*
X146940000Y-108330000D01*
X148411855Y-108330000D01*
X148368327Y-108067078D01*
X148283581Y-107818138D01*
X148159315Y-107586382D01*
X147998866Y-107378035D01*
X147806543Y-107198691D01*
X147587510Y-107053165D01*
X147347651Y-106945368D01*
X147093407Y-106878194D01*
X146940000Y-106863691D01*
X146940000Y-108330000D01*
X146684000Y-108330000D01*
X146684000Y-106844459D01*
X146313466Y-106932733D01*
X146100861Y-107022104D01*
X146130492Y-106970782D01*
X146159418Y-106806732D01*
X146159418Y-106235803D01*
X146816245Y-105578976D01*
X148386410Y-105578976D01*
X148457718Y-105564793D01*
X148457718Y-109468718D01*
G37*
%TD.AperFunction*%
X148457718Y-103223207D02*
X148386410Y-103209024D01*
X147197246Y-103209024D01*
X146646257Y-102658034D01*
X146597520Y-102599953D01*
X146531854Y-102562041D01*
X146469755Y-102518557D01*
X146445092Y-102511949D01*
X146422979Y-102499182D01*
X146348308Y-102486016D01*
X146275078Y-102466394D01*
X146199553Y-102473001D01*
X143678976Y-102473001D01*
X143678976Y-101041590D01*
X143651953Y-100905731D01*
X143567965Y-100780035D01*
X143442269Y-100696047D01*
X143306410Y-100669024D01*
X141681590Y-100669024D01*
X141545731Y-100696047D01*
X141420035Y-100780035D01*
X141336047Y-100905731D01*
X141309024Y-101041590D01*
X141309024Y-102666410D01*
X141336047Y-102802269D01*
X141420035Y-102927965D01*
X141545731Y-103011953D01*
X141681590Y-103038976D01*
X142200302Y-103038976D01*
X142183196Y-103056082D01*
X141621824Y-103056082D01*
X141413652Y-103111861D01*
X140959826Y-102658036D01*
X140911526Y-102600476D01*
X141024963Y-102439668D01*
X141119086Y-102228267D01*
X141170551Y-102001741D01*
X141174217Y-101739167D01*
X141129097Y-101511295D01*
X141040914Y-101297346D01*
X140912854Y-101104600D01*
X140749795Y-100940400D01*
X140557949Y-100810998D01*
X140344622Y-100721324D01*
X140117940Y-100674792D01*
X139886536Y-100673177D01*
X139659226Y-100716539D01*
X139444669Y-100803226D01*
X139251035Y-100929936D01*
X139085699Y-101091844D01*
X138954960Y-101282783D01*
X138863799Y-101495479D01*
X138831888Y-101645608D01*
X138669819Y-101483539D01*
X138621077Y-101425452D01*
X138555411Y-101387540D01*
X138493312Y-101344056D01*
X138468649Y-101337448D01*
X138446536Y-101324681D01*
X138371865Y-101311515D01*
X138298635Y-101291893D01*
X138223110Y-101298500D01*
X138177277Y-101298500D01*
X138171953Y-101271731D01*
X138087965Y-101146035D01*
X137962269Y-101062047D01*
X137826410Y-101035024D01*
X137001590Y-101035024D01*
X136865731Y-101062047D01*
X136740035Y-101146035D01*
X136656047Y-101271731D01*
X136629024Y-101407590D01*
X136629024Y-102332410D01*
X136656047Y-102468269D01*
X136740035Y-102593965D01*
X136865731Y-102677953D01*
X137001590Y-102704976D01*
X137826410Y-102704976D01*
X137962269Y-102677953D01*
X138087965Y-102593965D01*
X138118341Y-102548504D01*
X138604860Y-103035024D01*
X137951590Y-103035024D01*
X137815731Y-103062047D01*
X137690035Y-103146035D01*
X137606047Y-103271731D01*
X137579024Y-103407590D01*
X137579024Y-104332410D01*
X137606047Y-104468269D01*
X137690035Y-104593965D01*
X137712056Y-104608679D01*
X137695343Y-104599030D01*
X137633244Y-104555546D01*
X137608581Y-104548938D01*
X137586468Y-104536171D01*
X137511797Y-104523005D01*
X137438567Y-104503383D01*
X137363042Y-104509990D01*
X137194076Y-104509990D01*
X137221953Y-104468269D01*
X137248976Y-104332410D01*
X137248976Y-103407590D01*
X137221953Y-103271731D01*
X137137965Y-103146035D01*
X137012269Y-103062047D01*
X136876410Y-103035024D01*
X136051590Y-103035024D01*
X135923510Y-103060500D01*
X135596471Y-103060500D01*
X135543633Y-102863305D01*
X135396825Y-102688346D01*
X135203982Y-102577008D01*
X135039932Y-102548082D01*
X134459024Y-102548082D01*
X134188505Y-102620567D01*
X134013546Y-102767375D01*
X133944002Y-102887830D01*
X133927183Y-102810516D01*
X133787026Y-102592428D01*
X133594593Y-102425683D01*
X133362977Y-102319909D01*
X133174268Y-102292776D01*
X132997700Y-102292776D01*
X132997699Y-103504001D01*
X132997700Y-103504001D01*
X132997699Y-104542000D01*
X133048500Y-104542000D01*
X133048499Y-105536001D01*
X133048500Y-105536001D01*
X133048499Y-107003224D01*
X133211188Y-107003224D01*
X133529484Y-106933983D01*
X133747572Y-106793826D01*
X133914317Y-106601393D01*
X133994641Y-106425506D01*
X133996567Y-106432695D01*
X134143375Y-106607654D01*
X134336218Y-106718992D01*
X134500268Y-106747918D01*
X135081176Y-106747918D01*
X135351695Y-106675433D01*
X135526654Y-106528625D01*
X135637992Y-106335782D01*
X135666918Y-106171732D01*
X135666918Y-105652990D01*
X135734071Y-105652990D01*
X135732082Y-105664268D01*
X135732082Y-106670176D01*
X135804567Y-106940695D01*
X135951375Y-107115654D01*
X136144218Y-107226992D01*
X136308268Y-107255918D01*
X136879196Y-107255918D01*
X137374184Y-107750907D01*
X137285853Y-107867279D01*
X137176839Y-108081233D01*
X137159414Y-108138947D01*
X137109057Y-108003540D01*
X136986822Y-107796853D01*
X136829919Y-107615078D01*
X136643306Y-107463963D01*
X136432882Y-107348281D01*
X136205298Y-107271690D01*
X135967748Y-107236612D01*
X135727740Y-107244154D01*
X135492861Y-107294079D01*
X135270535Y-107384809D01*
X135067790Y-107513475D01*
X134891034Y-107676010D01*
X134745853Y-107867279D01*
X134700176Y-107956926D01*
X134700176Y-107607390D01*
X134673153Y-107471531D01*
X134589165Y-107345835D01*
X134463469Y-107261847D01*
X134327610Y-107234824D01*
X132466282Y-107234824D01*
X132466282Y-106981707D01*
X132615932Y-107003224D01*
X132792500Y-107003224D01*
X132792501Y-105791999D01*
X132792500Y-105791999D01*
X132792501Y-104754000D01*
X132741700Y-104754000D01*
X132741701Y-103759999D01*
X132741700Y-103759999D01*
X132741701Y-102292776D01*
X132579012Y-102292776D01*
X132466282Y-102317299D01*
X132466282Y-99700282D01*
X148457718Y-99700282D01*
X148457718Y-103223207D01*
%TA.AperFunction,Conductor*%
G36*
X148457718Y-103223207D02*
G01*
X148386410Y-103209024D01*
X147197246Y-103209024D01*
X146646257Y-102658034D01*
X146597520Y-102599953D01*
X146531854Y-102562041D01*
X146469755Y-102518557D01*
X146445092Y-102511949D01*
X146422979Y-102499182D01*
X146348308Y-102486016D01*
X146275078Y-102466394D01*
X146199553Y-102473001D01*
X143678976Y-102473001D01*
X143678976Y-101041590D01*
X143651953Y-100905731D01*
X143567965Y-100780035D01*
X143442269Y-100696047D01*
X143306410Y-100669024D01*
X141681590Y-100669024D01*
X141545731Y-100696047D01*
X141420035Y-100780035D01*
X141336047Y-100905731D01*
X141309024Y-101041590D01*
X141309024Y-102666410D01*
X141336047Y-102802269D01*
X141420035Y-102927965D01*
X141545731Y-103011953D01*
X141681590Y-103038976D01*
X142200302Y-103038976D01*
X142183196Y-103056082D01*
X141621824Y-103056082D01*
X141413652Y-103111861D01*
X140959826Y-102658036D01*
X140911526Y-102600476D01*
X141024963Y-102439668D01*
X141119086Y-102228267D01*
X141170551Y-102001741D01*
X141174217Y-101739167D01*
X141129097Y-101511295D01*
X141040914Y-101297346D01*
X140912854Y-101104600D01*
X140749795Y-100940400D01*
X140557949Y-100810998D01*
X140344622Y-100721324D01*
X140117940Y-100674792D01*
X139886536Y-100673177D01*
X139659226Y-100716539D01*
X139444669Y-100803226D01*
X139251035Y-100929936D01*
X139085699Y-101091844D01*
X138954960Y-101282783D01*
X138863799Y-101495479D01*
X138831888Y-101645608D01*
X138669819Y-101483539D01*
X138621077Y-101425452D01*
X138555411Y-101387540D01*
X138493312Y-101344056D01*
X138468649Y-101337448D01*
X138446536Y-101324681D01*
X138371865Y-101311515D01*
X138298635Y-101291893D01*
X138223110Y-101298500D01*
X138177277Y-101298500D01*
X138171953Y-101271731D01*
X138087965Y-101146035D01*
X137962269Y-101062047D01*
X137826410Y-101035024D01*
X137001590Y-101035024D01*
X136865731Y-101062047D01*
X136740035Y-101146035D01*
X136656047Y-101271731D01*
X136629024Y-101407590D01*
X136629024Y-102332410D01*
X136656047Y-102468269D01*
X136740035Y-102593965D01*
X136865731Y-102677953D01*
X137001590Y-102704976D01*
X137826410Y-102704976D01*
X137962269Y-102677953D01*
X138087965Y-102593965D01*
X138118341Y-102548504D01*
X138604860Y-103035024D01*
X137951590Y-103035024D01*
X137815731Y-103062047D01*
X137690035Y-103146035D01*
X137606047Y-103271731D01*
X137579024Y-103407590D01*
X137579024Y-104332410D01*
X137606047Y-104468269D01*
X137690035Y-104593965D01*
X137712056Y-104608679D01*
X137695343Y-104599030D01*
X137633244Y-104555546D01*
X137608581Y-104548938D01*
X137586468Y-104536171D01*
X137511797Y-104523005D01*
X137438567Y-104503383D01*
X137363042Y-104509990D01*
X137194076Y-104509990D01*
X137221953Y-104468269D01*
X137248976Y-104332410D01*
X137248976Y-103407590D01*
X137221953Y-103271731D01*
X137137965Y-103146035D01*
X137012269Y-103062047D01*
X136876410Y-103035024D01*
X136051590Y-103035024D01*
X135923510Y-103060500D01*
X135596471Y-103060500D01*
X135543633Y-102863305D01*
X135396825Y-102688346D01*
X135203982Y-102577008D01*
X135039932Y-102548082D01*
X134459024Y-102548082D01*
X134188505Y-102620567D01*
X134013546Y-102767375D01*
X133944002Y-102887830D01*
X133927183Y-102810516D01*
X133787026Y-102592428D01*
X133594593Y-102425683D01*
X133362977Y-102319909D01*
X133174268Y-102292776D01*
X132997700Y-102292776D01*
X132997699Y-103504001D01*
X132997700Y-103504001D01*
X132997699Y-104542000D01*
X133048500Y-104542000D01*
X133048499Y-105536001D01*
X133048500Y-105536001D01*
X133048499Y-107003224D01*
X133211188Y-107003224D01*
X133529484Y-106933983D01*
X133747572Y-106793826D01*
X133914317Y-106601393D01*
X133994641Y-106425506D01*
X133996567Y-106432695D01*
X134143375Y-106607654D01*
X134336218Y-106718992D01*
X134500268Y-106747918D01*
X135081176Y-106747918D01*
X135351695Y-106675433D01*
X135526654Y-106528625D01*
X135637992Y-106335782D01*
X135666918Y-106171732D01*
X135666918Y-105652990D01*
X135734071Y-105652990D01*
X135732082Y-105664268D01*
X135732082Y-106670176D01*
X135804567Y-106940695D01*
X135951375Y-107115654D01*
X136144218Y-107226992D01*
X136308268Y-107255918D01*
X136879196Y-107255918D01*
X137374184Y-107750907D01*
X137285853Y-107867279D01*
X137176839Y-108081233D01*
X137159414Y-108138947D01*
X137109057Y-108003540D01*
X136986822Y-107796853D01*
X136829919Y-107615078D01*
X136643306Y-107463963D01*
X136432882Y-107348281D01*
X136205298Y-107271690D01*
X135967748Y-107236612D01*
X135727740Y-107244154D01*
X135492861Y-107294079D01*
X135270535Y-107384809D01*
X135067790Y-107513475D01*
X134891034Y-107676010D01*
X134745853Y-107867279D01*
X134700176Y-107956926D01*
X134700176Y-107607390D01*
X134673153Y-107471531D01*
X134589165Y-107345835D01*
X134463469Y-107261847D01*
X134327610Y-107234824D01*
X132466282Y-107234824D01*
X132466282Y-106981707D01*
X132615932Y-107003224D01*
X132792500Y-107003224D01*
X132792501Y-105791999D01*
X132792500Y-105791999D01*
X132792501Y-104754000D01*
X132741700Y-104754000D01*
X132741701Y-103759999D01*
X132741700Y-103759999D01*
X132741701Y-102292776D01*
X132579012Y-102292776D01*
X132466282Y-102317299D01*
X132466282Y-99700282D01*
X148457718Y-99700282D01*
X148457718Y-103223207D01*
G37*
%TD.AperFunction*%
X143769391Y-103785651D02*
X143683571Y-104021436D01*
X143640000Y-104268541D01*
X143640000Y-104519459D01*
X143683571Y-104766564D01*
X143769391Y-105002349D01*
X143894850Y-105219651D01*
X143955700Y-105292170D01*
X143872282Y-105244008D01*
X143708232Y-105215082D01*
X143127324Y-105215082D01*
X142856805Y-105287567D01*
X142708717Y-105411828D01*
X142706433Y-105403305D01*
X142559625Y-105228346D01*
X142438227Y-105158257D01*
X142463695Y-105151433D01*
X142638654Y-105004625D01*
X142749992Y-104811782D01*
X142778918Y-104647732D01*
X142778918Y-104076804D01*
X143239722Y-103616001D01*
X143867338Y-103616001D01*
X143769391Y-103785651D01*
%TA.AperFunction,Conductor*%
G36*
X143769391Y-103785651D02*
G01*
X143683571Y-104021436D01*
X143640000Y-104268541D01*
X143640000Y-104519459D01*
X143683571Y-104766564D01*
X143769391Y-105002349D01*
X143894850Y-105219651D01*
X143955700Y-105292170D01*
X143872282Y-105244008D01*
X143708232Y-105215082D01*
X143127324Y-105215082D01*
X142856805Y-105287567D01*
X142708717Y-105411828D01*
X142706433Y-105403305D01*
X142559625Y-105228346D01*
X142438227Y-105158257D01*
X142463695Y-105151433D01*
X142638654Y-105004625D01*
X142749992Y-104811782D01*
X142778918Y-104647732D01*
X142778918Y-104076804D01*
X143239722Y-103616001D01*
X143867338Y-103616001D01*
X143769391Y-103785651D01*
G37*
%TD.AperFunction*%
%TD*%
M02*
