%TF.GenerationSoftware,KiCad,Pcbnew,(5.99.0-3084-g8945f8865-dirty)*%
%TF.CreationDate,2020-08-31T13:15:17+03:00*%
%TF.ProjectId,le-pre-et-le-boost,6c652d70-7265-42d6-9574-2d6c652d626f,rev?*%
%TF.SameCoordinates,Original*%
%TF.FileFunction,Soldermask,Bot*%
%TF.FilePolarity,Negative*%
%FSLAX46Y46*%
G04 Gerber Fmt 4.6, Leading zero omitted, Abs format (unit mm)*
G04 Created by KiCad (PCBNEW (5.99.0-3084-g8945f8865-dirty)) date 2020-08-31 13:15:17*
%MOMM*%
%LPD*%
G01*
G04 APERTURE LIST*
%ADD10C,1.600000*%
%ADD11R,1.600000X1.600000*%
%ADD12O,1.930400X1.930400*%
%ADD13R,1.930400X1.930400*%
%ADD14R,0.800000X0.900000*%
G04 APERTURE END LIST*
D10*
%TO.C,C2*%
X145074000Y-104394000D03*
D11*
X147574000Y-104394000D03*
%TD*%
D10*
%TO.C,C1*%
X139994000Y-101854000D03*
D11*
X142494000Y-101854000D03*
%TD*%
D12*
%TO.C,J2*%
X140970000Y-108585000D03*
X138430000Y-108585000D03*
X135890000Y-108585000D03*
D13*
X133350000Y-108585000D03*
%TD*%
D12*
%TO.C,J1*%
X146812000Y-108458000D03*
D13*
X144272000Y-108458000D03*
%TD*%
%TO.C,R8*%
G36*
G01*
X133357200Y-103175750D02*
X133357200Y-104088250D01*
G75*
G02*
X133113450Y-104332000I-243750J0D01*
G01*
X132625950Y-104332000D01*
G75*
G02*
X132382200Y-104088250I0J243750D01*
G01*
X132382200Y-103175750D01*
G75*
G02*
X132625950Y-102932000I243750J0D01*
G01*
X133113450Y-102932000D01*
G75*
G02*
X133357200Y-103175750I0J-243750D01*
G01*
G37*
G36*
G01*
X135232200Y-103175750D02*
X135232200Y-104088250D01*
G75*
G02*
X134988450Y-104332000I-243750J0D01*
G01*
X134500950Y-104332000D01*
G75*
G02*
X134257200Y-104088250I0J243750D01*
G01*
X134257200Y-103175750D01*
G75*
G02*
X134500950Y-102932000I243750J0D01*
G01*
X134988450Y-102932000D01*
G75*
G02*
X135232200Y-103175750I0J-243750D01*
G01*
G37*
%TD*%
%TO.C,R7*%
G36*
G01*
X143900500Y-105842750D02*
X143900500Y-106755250D01*
G75*
G02*
X143656750Y-106999000I-243750J0D01*
G01*
X143169250Y-106999000D01*
G75*
G02*
X142925500Y-106755250I0J243750D01*
G01*
X142925500Y-105842750D01*
G75*
G02*
X143169250Y-105599000I243750J0D01*
G01*
X143656750Y-105599000D01*
G75*
G02*
X143900500Y-105842750I0J-243750D01*
G01*
G37*
G36*
G01*
X145775500Y-105842750D02*
X145775500Y-106755250D01*
G75*
G02*
X145531750Y-106999000I-243750J0D01*
G01*
X145044250Y-106999000D01*
G75*
G02*
X144800500Y-106755250I0J243750D01*
G01*
X144800500Y-105842750D01*
G75*
G02*
X145044250Y-105599000I243750J0D01*
G01*
X145531750Y-105599000D01*
G75*
G02*
X145775500Y-105842750I0J-243750D01*
G01*
G37*
%TD*%
%TO.C,R6*%
G36*
G01*
X133408000Y-105207750D02*
X133408000Y-106120250D01*
G75*
G02*
X133164250Y-106364000I-243750J0D01*
G01*
X132676750Y-106364000D01*
G75*
G02*
X132433000Y-106120250I0J243750D01*
G01*
X132433000Y-105207750D01*
G75*
G02*
X132676750Y-104964000I243750J0D01*
G01*
X133164250Y-104964000D01*
G75*
G02*
X133408000Y-105207750I0J-243750D01*
G01*
G37*
G36*
G01*
X135283000Y-105207750D02*
X135283000Y-106120250D01*
G75*
G02*
X135039250Y-106364000I-243750J0D01*
G01*
X134551750Y-106364000D01*
G75*
G02*
X134308000Y-106120250I0J243750D01*
G01*
X134308000Y-105207750D01*
G75*
G02*
X134551750Y-104964000I243750J0D01*
G01*
X135039250Y-104964000D01*
G75*
G02*
X135283000Y-105207750I0J-243750D01*
G01*
G37*
%TD*%
%TO.C,R5*%
G36*
G01*
X140520000Y-103683750D02*
X140520000Y-104596250D01*
G75*
G02*
X140276250Y-104840000I-243750J0D01*
G01*
X139788750Y-104840000D01*
G75*
G02*
X139545000Y-104596250I0J243750D01*
G01*
X139545000Y-103683750D01*
G75*
G02*
X139788750Y-103440000I243750J0D01*
G01*
X140276250Y-103440000D01*
G75*
G02*
X140520000Y-103683750I0J-243750D01*
G01*
G37*
G36*
G01*
X142395000Y-103683750D02*
X142395000Y-104596250D01*
G75*
G02*
X142151250Y-104840000I-243750J0D01*
G01*
X141663750Y-104840000D01*
G75*
G02*
X141420000Y-104596250I0J243750D01*
G01*
X141420000Y-103683750D01*
G75*
G02*
X141663750Y-103440000I243750J0D01*
G01*
X142151250Y-103440000D01*
G75*
G02*
X142395000Y-103683750I0J-243750D01*
G01*
G37*
%TD*%
D14*
%TO.C,Q2*%
X137414000Y-101870000D03*
X136464000Y-103870000D03*
X138364000Y-103870000D03*
%TD*%
%TO.C,C4*%
G36*
G01*
X140520000Y-105715750D02*
X140520000Y-106628250D01*
G75*
G02*
X140276250Y-106872000I-243750J0D01*
G01*
X139788750Y-106872000D01*
G75*
G02*
X139545000Y-106628250I0J243750D01*
G01*
X139545000Y-105715750D01*
G75*
G02*
X139788750Y-105472000I243750J0D01*
G01*
X140276250Y-105472000D01*
G75*
G02*
X140520000Y-105715750I0J-243750D01*
G01*
G37*
G36*
G01*
X142395000Y-105715750D02*
X142395000Y-106628250D01*
G75*
G02*
X142151250Y-106872000I-243750J0D01*
G01*
X141663750Y-106872000D01*
G75*
G02*
X141420000Y-106628250I0J243750D01*
G01*
X141420000Y-105715750D01*
G75*
G02*
X141663750Y-105472000I243750J0D01*
G01*
X142151250Y-105472000D01*
G75*
G02*
X142395000Y-105715750I0J-243750D01*
G01*
G37*
%TD*%
%TO.C,C3*%
G36*
G01*
X137991000Y-106628250D02*
X137991000Y-105715750D01*
G75*
G02*
X138234750Y-105472000I243750J0D01*
G01*
X138722250Y-105472000D01*
G75*
G02*
X138966000Y-105715750I0J-243750D01*
G01*
X138966000Y-106628250D01*
G75*
G02*
X138722250Y-106872000I-243750J0D01*
G01*
X138234750Y-106872000D01*
G75*
G02*
X137991000Y-106628250I0J243750D01*
G01*
G37*
G36*
G01*
X136116000Y-106628250D02*
X136116000Y-105715750D01*
G75*
G02*
X136359750Y-105472000I243750J0D01*
G01*
X136847250Y-105472000D01*
G75*
G02*
X137091000Y-105715750I0J-243750D01*
G01*
X137091000Y-106628250D01*
G75*
G02*
X136847250Y-106872000I-243750J0D01*
G01*
X136359750Y-106872000D01*
G75*
G02*
X136116000Y-106628250I0J243750D01*
G01*
G37*
%TD*%
M02*
