%TF.GenerationSoftware,KiCad,Pcbnew,(5.99.0-3084-g8945f8865-dirty)*%
%TF.CreationDate,2020-08-31T12:16:30+03:00*%
%TF.ProjectId,le-pre-et-le-boost,6c652d70-7265-42d6-9574-2d6c652d626f,rev?*%
%TF.SameCoordinates,Original*%
%TF.FileFunction,Soldermask,Top*%
%TF.FilePolarity,Negative*%
%FSLAX46Y46*%
G04 Gerber Fmt 4.6, Leading zero omitted, Abs format (unit mm)*
G04 Created by KiCad (PCBNEW (5.99.0-3084-g8945f8865-dirty)) date 2020-08-31 12:16:30*
%MOMM*%
%LPD*%
G01*
G04 APERTURE LIST*
%ADD10R,1.700000X1.700000*%
%ADD11O,1.930400X1.930400*%
%ADD12R,1.930400X1.930400*%
%ADD13C,1.600000*%
%ADD14R,1.600000X1.600000*%
%ADD15R,0.900000X0.800000*%
G04 APERTURE END LIST*
D10*
%TO.C,J3*%
X147574000Y-100507800D03*
%TD*%
%TO.C,J2*%
X136144000Y-100584000D03*
%TD*%
D11*
%TO.C,J1*%
X146812000Y-108458000D03*
D12*
X144272000Y-108458000D03*
%TD*%
D13*
%TO.C,C2*%
X147534000Y-104394000D03*
D14*
X145034000Y-104394000D03*
%TD*%
D13*
%TO.C,C1*%
X142479400Y-101828600D03*
D14*
X139979400Y-101828600D03*
%TD*%
D15*
%TO.C,Q1*%
X135906000Y-105410000D03*
X137906000Y-104460000D03*
X137906000Y-106360000D03*
%TD*%
%TO.C,R4*%
G36*
G01*
X140520000Y-105207750D02*
X140520000Y-106120250D01*
G75*
G02*
X140276250Y-106364000I-243750J0D01*
G01*
X139788750Y-106364000D01*
G75*
G02*
X139545000Y-106120250I0J243750D01*
G01*
X139545000Y-105207750D01*
G75*
G02*
X139788750Y-104964000I243750J0D01*
G01*
X140276250Y-104964000D01*
G75*
G02*
X140520000Y-105207750I0J-243750D01*
G01*
G37*
G36*
G01*
X142395000Y-105207750D02*
X142395000Y-106120250D01*
G75*
G02*
X142151250Y-106364000I-243750J0D01*
G01*
X141663750Y-106364000D01*
G75*
G02*
X141420000Y-106120250I0J243750D01*
G01*
X141420000Y-105207750D01*
G75*
G02*
X141663750Y-104964000I243750J0D01*
G01*
X142151250Y-104964000D01*
G75*
G02*
X142395000Y-105207750I0J-243750D01*
G01*
G37*
%TD*%
%TO.C,R3*%
G36*
G01*
X140012000Y-107239750D02*
X140012000Y-108152250D01*
G75*
G02*
X139768250Y-108396000I-243750J0D01*
G01*
X139280750Y-108396000D01*
G75*
G02*
X139037000Y-108152250I0J243750D01*
G01*
X139037000Y-107239750D01*
G75*
G02*
X139280750Y-106996000I243750J0D01*
G01*
X139768250Y-106996000D01*
G75*
G02*
X140012000Y-107239750I0J-243750D01*
G01*
G37*
G36*
G01*
X141887000Y-107239750D02*
X141887000Y-108152250D01*
G75*
G02*
X141643250Y-108396000I-243750J0D01*
G01*
X141155750Y-108396000D01*
G75*
G02*
X140912000Y-108152250I0J243750D01*
G01*
X140912000Y-107239750D01*
G75*
G02*
X141155750Y-106996000I243750J0D01*
G01*
X141643250Y-106996000D01*
G75*
G02*
X141887000Y-107239750I0J-243750D01*
G01*
G37*
%TD*%
%TO.C,R2*%
G36*
G01*
X136456000Y-108128750D02*
X136456000Y-109041250D01*
G75*
G02*
X136212250Y-109285000I-243750J0D01*
G01*
X135724750Y-109285000D01*
G75*
G02*
X135481000Y-109041250I0J243750D01*
G01*
X135481000Y-108128750D01*
G75*
G02*
X135724750Y-107885000I243750J0D01*
G01*
X136212250Y-107885000D01*
G75*
G02*
X136456000Y-108128750I0J-243750D01*
G01*
G37*
G36*
G01*
X138331000Y-108128750D02*
X138331000Y-109041250D01*
G75*
G02*
X138087250Y-109285000I-243750J0D01*
G01*
X137599750Y-109285000D01*
G75*
G02*
X137356000Y-109041250I0J243750D01*
G01*
X137356000Y-108128750D01*
G75*
G02*
X137599750Y-107885000I243750J0D01*
G01*
X138087250Y-107885000D01*
G75*
G02*
X138331000Y-108128750I0J-243750D01*
G01*
G37*
%TD*%
%TO.C,R1*%
G36*
G01*
X137229000Y-103072250D02*
X137229000Y-102159750D01*
G75*
G02*
X137472750Y-101916000I243750J0D01*
G01*
X137960250Y-101916000D01*
G75*
G02*
X138204000Y-102159750I0J-243750D01*
G01*
X138204000Y-103072250D01*
G75*
G02*
X137960250Y-103316000I-243750J0D01*
G01*
X137472750Y-103316000D01*
G75*
G02*
X137229000Y-103072250I0J243750D01*
G01*
G37*
G36*
G01*
X135354000Y-103072250D02*
X135354000Y-102159750D01*
G75*
G02*
X135597750Y-101916000I243750J0D01*
G01*
X136085250Y-101916000D01*
G75*
G02*
X136329000Y-102159750I0J-243750D01*
G01*
X136329000Y-103072250D01*
G75*
G02*
X136085250Y-103316000I-243750J0D01*
G01*
X135597750Y-103316000D01*
G75*
G02*
X135354000Y-103072250I0J243750D01*
G01*
G37*
%TD*%
M02*
