%TF.GenerationSoftware,KiCad,Pcbnew,(5.99.0-2363-g9a801d8b7)*%
%TF.CreationDate,2020-07-22T13:28:37+03:00*%
%TF.ProjectId,le-pre-et-le-boost,6c652d70-7265-42d6-9574-2d6c652d626f,rev?*%
%TF.SameCoordinates,Original*%
%TF.FileFunction,Legend,Top*%
%TF.FilePolarity,Positive*%
%FSLAX46Y46*%
G04 Gerber Fmt 4.6, Leading zero omitted, Abs format (unit mm)*
G04 Created by KiCad (PCBNEW (5.99.0-2363-g9a801d8b7)) date 2020-07-22 13:28:37*
%MOMM*%
%LPD*%
G01*
G04 APERTURE LIST*
%ADD10C,0.125000*%
%ADD11C,0.080000*%
%ADD12C,0.127000*%
%ADD13C,0.100000*%
%ADD14C,0.020320*%
%ADD15C,0.120000*%
G04 APERTURE END LIST*
D10*
X135782400Y-108147657D02*
X135782400Y-108552419D01*
X135749066Y-108600038D01*
X135715733Y-108623847D01*
X135649066Y-108647657D01*
X135549066Y-108647657D01*
X135482400Y-108623847D01*
X135782400Y-108457180D02*
X135715733Y-108480990D01*
X135582400Y-108480990D01*
X135515733Y-108457180D01*
X135482400Y-108433371D01*
X135449066Y-108385752D01*
X135449066Y-108242895D01*
X135482400Y-108195276D01*
X135515733Y-108171466D01*
X135582400Y-108147657D01*
X135715733Y-108147657D01*
X135782400Y-108171466D01*
X136115733Y-108480990D02*
X136115733Y-108147657D01*
X136115733Y-107980990D02*
X136082400Y-108004800D01*
X136115733Y-108028609D01*
X136149066Y-108004800D01*
X136115733Y-107980990D01*
X136115733Y-108028609D01*
X136349066Y-108147657D02*
X136615733Y-108147657D01*
X136449066Y-107980990D02*
X136449066Y-108409561D01*
X136482400Y-108457180D01*
X136549066Y-108480990D01*
X136615733Y-108480990D01*
X136849066Y-108433371D02*
X136882400Y-108457180D01*
X136849066Y-108480990D01*
X136815733Y-108457180D01*
X136849066Y-108433371D01*
X136849066Y-108480990D01*
X137182400Y-108480990D02*
X137182400Y-108147657D01*
X137182400Y-107980990D02*
X137149066Y-108004800D01*
X137182400Y-108028609D01*
X137215733Y-108004800D01*
X137182400Y-107980990D01*
X137182400Y-108028609D01*
X137615733Y-108480990D02*
X137549066Y-108457180D01*
X137515733Y-108433371D01*
X137482400Y-108385752D01*
X137482400Y-108242895D01*
X137515733Y-108195276D01*
X137549066Y-108171466D01*
X137615733Y-108147657D01*
X137715733Y-108147657D01*
X137782400Y-108171466D01*
X137815733Y-108195276D01*
X137849066Y-108242895D01*
X137849066Y-108385752D01*
X137815733Y-108433371D01*
X137782400Y-108457180D01*
X137715733Y-108480990D01*
X137615733Y-108480990D01*
X138649066Y-107957180D02*
X138049066Y-108600038D01*
X139082400Y-107980990D02*
X139082400Y-108338133D01*
X139049066Y-108409561D01*
X138982400Y-108457180D01*
X138882400Y-108480990D01*
X138815733Y-108480990D01*
X139615733Y-107980990D02*
X139615733Y-108338133D01*
X139582400Y-108409561D01*
X139515733Y-108457180D01*
X139415733Y-108480990D01*
X139349066Y-108480990D01*
X139882400Y-107980990D02*
X140049066Y-108480990D01*
X140182400Y-108123847D01*
X140315733Y-108480990D01*
X140482400Y-107980990D01*
X140982400Y-108219085D02*
X141082400Y-108242895D01*
X141115733Y-108266704D01*
X141149066Y-108314323D01*
X141149066Y-108385752D01*
X141115733Y-108433371D01*
X141082400Y-108457180D01*
X141015733Y-108480990D01*
X140749066Y-108480990D01*
X140749066Y-107980990D01*
X140982400Y-107980990D01*
X141049066Y-108004800D01*
X141082400Y-108028609D01*
X141115733Y-108076228D01*
X141115733Y-108123847D01*
X141082400Y-108171466D01*
X141049066Y-108195276D01*
X140982400Y-108219085D01*
X140749066Y-108219085D01*
X141382400Y-108480990D02*
X141749066Y-108147657D01*
X141382400Y-108147657D02*
X141749066Y-108480990D01*
X140036723Y-100093428D02*
X139655771Y-100093428D01*
X139655771Y-99493428D01*
X140608152Y-100064857D02*
X140531961Y-100093428D01*
X140379580Y-100093428D01*
X140303390Y-100064857D01*
X140265295Y-100007714D01*
X140265295Y-99779142D01*
X140303390Y-99722000D01*
X140379580Y-99693428D01*
X140531961Y-99693428D01*
X140608152Y-99722000D01*
X140646247Y-99779142D01*
X140646247Y-99836285D01*
X140265295Y-99893428D01*
X141598628Y-100093428D02*
X141598628Y-99493428D01*
X141903390Y-99493428D01*
X141979580Y-99522000D01*
X142017676Y-99550571D01*
X142055771Y-99607714D01*
X142055771Y-99693428D01*
X142017676Y-99750571D01*
X141979580Y-99779142D01*
X141903390Y-99807714D01*
X141598628Y-99807714D01*
X142398628Y-100093428D02*
X142398628Y-99693428D01*
X142398628Y-99807714D02*
X142436723Y-99750571D01*
X142474819Y-99722000D01*
X142551009Y-99693428D01*
X142627200Y-99693428D01*
X143198628Y-100064857D02*
X143122438Y-100093428D01*
X142970057Y-100093428D01*
X142893866Y-100064857D01*
X142855771Y-100007714D01*
X142855771Y-99779142D01*
X142893866Y-99722000D01*
X142970057Y-99693428D01*
X143122438Y-99693428D01*
X143198628Y-99722000D01*
X143236723Y-99779142D01*
X143236723Y-99836285D01*
X142855771Y-99893428D01*
D11*
%TO.C,J1*%
X142611447Y-106603847D02*
X142211447Y-106737180D01*
X142611447Y-106870514D01*
X142363828Y-107003847D02*
X142363828Y-107308609D01*
X142211447Y-107156228D02*
X142516209Y-107156228D01*
X148383600Y-106629238D02*
X148402647Y-106591142D01*
X148402647Y-106534000D01*
X148383600Y-106476857D01*
X148345504Y-106438761D01*
X148307409Y-106419714D01*
X148231219Y-106400666D01*
X148174076Y-106400666D01*
X148097885Y-106419714D01*
X148059790Y-106438761D01*
X148021695Y-106476857D01*
X148002647Y-106534000D01*
X148002647Y-106572095D01*
X148021695Y-106629238D01*
X148040742Y-106648285D01*
X148174076Y-106648285D01*
X148174076Y-106572095D01*
X148002647Y-106819714D02*
X148402647Y-106819714D01*
X148002647Y-107048285D01*
X148402647Y-107048285D01*
X148002647Y-107238761D02*
X148402647Y-107238761D01*
X148402647Y-107334000D01*
X148383600Y-107391142D01*
X148345504Y-107429238D01*
X148307409Y-107448285D01*
X148231219Y-107467333D01*
X148174076Y-107467333D01*
X148097885Y-107448285D01*
X148059790Y-107429238D01*
X148021695Y-107391142D01*
X148002647Y-107334000D01*
X148002647Y-107238761D01*
D12*
%TO.C,Q1*%
X139496809Y-104087571D02*
X139420619Y-104059000D01*
X139344428Y-104001857D01*
X139230142Y-103916142D01*
X139153952Y-103887571D01*
X139077761Y-103887571D01*
X139115857Y-104030428D02*
X139039666Y-104001857D01*
X138963476Y-103944714D01*
X138925380Y-103830428D01*
X138925380Y-103630428D01*
X138963476Y-103516142D01*
X139039666Y-103459000D01*
X139115857Y-103430428D01*
X139268238Y-103430428D01*
X139344428Y-103459000D01*
X139420619Y-103516142D01*
X139458714Y-103630428D01*
X139458714Y-103830428D01*
X139420619Y-103944714D01*
X139344428Y-104001857D01*
X139268238Y-104030428D01*
X139115857Y-104030428D01*
X140220619Y-104030428D02*
X139763476Y-104030428D01*
X139992047Y-104030428D02*
X139992047Y-103430428D01*
X139915857Y-103516142D01*
X139839666Y-103573285D01*
X139763476Y-103601857D01*
D13*
%TO.C,J3*%
X146012000Y-99510904D02*
X146164380Y-99510904D01*
X146240571Y-99549000D01*
X146316761Y-99625190D01*
X146354857Y-99777571D01*
X146354857Y-100044238D01*
X146316761Y-100196619D01*
X146240571Y-100272809D01*
X146164380Y-100310904D01*
X146012000Y-100310904D01*
X145935809Y-100272809D01*
X145859619Y-100196619D01*
X145821523Y-100044238D01*
X145821523Y-99777571D01*
X145859619Y-99625190D01*
X145935809Y-99549000D01*
X146012000Y-99510904D01*
X146697714Y-99510904D02*
X146697714Y-100158523D01*
X146735809Y-100234714D01*
X146773904Y-100272809D01*
X146850095Y-100310904D01*
X147002476Y-100310904D01*
X147078666Y-100272809D01*
X147116761Y-100234714D01*
X147154857Y-100158523D01*
X147154857Y-99510904D01*
X147421523Y-99510904D02*
X147878666Y-99510904D01*
X147650095Y-100310904D02*
X147650095Y-99510904D01*
D14*
X147925669Y-105478942D02*
X147937159Y-105444471D01*
X147937159Y-105387019D01*
X147925669Y-105364038D01*
X147914178Y-105352547D01*
X147891197Y-105341057D01*
X147868216Y-105341057D01*
X147845235Y-105352547D01*
X147833745Y-105364038D01*
X147822254Y-105387019D01*
X147810764Y-105432980D01*
X147799273Y-105455961D01*
X147787783Y-105467452D01*
X147764802Y-105478942D01*
X147741821Y-105478942D01*
X147718840Y-105467452D01*
X147707350Y-105455961D01*
X147695859Y-105432980D01*
X147695859Y-105375528D01*
X147707350Y-105341057D01*
X147695859Y-100398942D02*
X147695859Y-100261057D01*
X147937159Y-100330000D02*
X147695859Y-100330000D01*
D13*
%TO.C,J2*%
X135978952Y-100310904D02*
X135978952Y-99510904D01*
X136359904Y-100310904D02*
X136359904Y-99510904D01*
X136817047Y-100310904D01*
X136817047Y-99510904D01*
D14*
X137511669Y-105478942D02*
X137523159Y-105444471D01*
X137523159Y-105387019D01*
X137511669Y-105364038D01*
X137500178Y-105352547D01*
X137477197Y-105341057D01*
X137454216Y-105341057D01*
X137431235Y-105352547D01*
X137419745Y-105364038D01*
X137408254Y-105387019D01*
X137396764Y-105432980D01*
X137385273Y-105455961D01*
X137373783Y-105467452D01*
X137350802Y-105478942D01*
X137327821Y-105478942D01*
X137304840Y-105467452D01*
X137293350Y-105455961D01*
X137281859Y-105432980D01*
X137281859Y-105375528D01*
X137293350Y-105341057D01*
X137281859Y-100398942D02*
X137281859Y-100261057D01*
X137523159Y-100330000D02*
X137281859Y-100330000D01*
D12*
%TO.C,R4*%
X143425828Y-101326933D02*
X143140114Y-101593600D01*
X143425828Y-101784076D02*
X142825828Y-101784076D01*
X142825828Y-101479314D01*
X142854400Y-101403123D01*
X142882971Y-101365028D01*
X142940114Y-101326933D01*
X143025828Y-101326933D01*
X143082971Y-101365028D01*
X143111542Y-101403123D01*
X143140114Y-101479314D01*
X143140114Y-101784076D01*
X143025828Y-100641219D02*
X143425828Y-100641219D01*
X142797257Y-100831695D02*
X143225828Y-101022171D01*
X143225828Y-100526933D01*
%TO.C,R3*%
X140631828Y-107016533D02*
X140346114Y-107283200D01*
X140631828Y-107473676D02*
X140031828Y-107473676D01*
X140031828Y-107168914D01*
X140060400Y-107092723D01*
X140088971Y-107054628D01*
X140146114Y-107016533D01*
X140231828Y-107016533D01*
X140288971Y-107054628D01*
X140317542Y-107092723D01*
X140346114Y-107168914D01*
X140346114Y-107473676D01*
X140031828Y-106749866D02*
X140031828Y-106254628D01*
X140260400Y-106521295D01*
X140260400Y-106407009D01*
X140288971Y-106330819D01*
X140317542Y-106292723D01*
X140374685Y-106254628D01*
X140517542Y-106254628D01*
X140574685Y-106292723D01*
X140603257Y-106330819D01*
X140631828Y-106407009D01*
X140631828Y-106635580D01*
X140603257Y-106711771D01*
X140574685Y-106749866D01*
%TO.C,R2*%
X137075828Y-107067333D02*
X136790114Y-107334000D01*
X137075828Y-107524476D02*
X136475828Y-107524476D01*
X136475828Y-107219714D01*
X136504400Y-107143523D01*
X136532971Y-107105428D01*
X136590114Y-107067333D01*
X136675828Y-107067333D01*
X136732971Y-107105428D01*
X136761542Y-107143523D01*
X136790114Y-107219714D01*
X136790114Y-107524476D01*
X136532971Y-106762571D02*
X136504400Y-106724476D01*
X136475828Y-106648285D01*
X136475828Y-106457809D01*
X136504400Y-106381619D01*
X136532971Y-106343523D01*
X136590114Y-106305428D01*
X136647257Y-106305428D01*
X136732971Y-106343523D01*
X137075828Y-106800666D01*
X137075828Y-106305428D01*
D10*
%TO.C,R1*%
X139869828Y-101326933D02*
X139584114Y-101593600D01*
X139869828Y-101784076D02*
X139269828Y-101784076D01*
X139269828Y-101479314D01*
X139298400Y-101403123D01*
X139326971Y-101365028D01*
X139384114Y-101326933D01*
X139469828Y-101326933D01*
X139526971Y-101365028D01*
X139555542Y-101403123D01*
X139584114Y-101479314D01*
X139584114Y-101784076D01*
X139869828Y-100565028D02*
X139869828Y-101022171D01*
X139869828Y-100793600D02*
X139269828Y-100793600D01*
X139355542Y-100869790D01*
X139412685Y-100945980D01*
X139441257Y-101022171D01*
D12*
%TO.C,C2*%
X144104533Y-104100285D02*
X144071200Y-104128857D01*
X143971200Y-104157428D01*
X143904533Y-104157428D01*
X143804533Y-104128857D01*
X143737866Y-104071714D01*
X143704533Y-104014571D01*
X143671200Y-103900285D01*
X143671200Y-103814571D01*
X143704533Y-103700285D01*
X143737866Y-103643142D01*
X143804533Y-103586000D01*
X143904533Y-103557428D01*
X143971200Y-103557428D01*
X144071200Y-103586000D01*
X144104533Y-103614571D01*
X144371200Y-103614571D02*
X144404533Y-103586000D01*
X144471200Y-103557428D01*
X144637866Y-103557428D01*
X144704533Y-103586000D01*
X144737866Y-103614571D01*
X144771200Y-103671714D01*
X144771200Y-103728857D01*
X144737866Y-103814571D01*
X144337866Y-104157428D01*
X144771200Y-104157428D01*
%TO.C,C1*%
X142123333Y-104100285D02*
X142090000Y-104128857D01*
X141990000Y-104157428D01*
X141923333Y-104157428D01*
X141823333Y-104128857D01*
X141756666Y-104071714D01*
X141723333Y-104014571D01*
X141690000Y-103900285D01*
X141690000Y-103814571D01*
X141723333Y-103700285D01*
X141756666Y-103643142D01*
X141823333Y-103586000D01*
X141923333Y-103557428D01*
X141990000Y-103557428D01*
X142090000Y-103586000D01*
X142123333Y-103614571D01*
X142790000Y-104157428D02*
X142390000Y-104157428D01*
X142590000Y-104157428D02*
X142590000Y-103557428D01*
X142523333Y-103643142D01*
X142456666Y-103700285D01*
X142390000Y-103728857D01*
D11*
%TO.C,J1*%
X142049500Y-105664000D02*
X148526500Y-105664000D01*
X148526500Y-108204000D02*
X142049500Y-108204000D01*
X142748000Y-108204000D02*
X142748000Y-105664000D01*
X147828000Y-108204000D02*
X147828000Y-105664000D01*
X148526500Y-108204000D02*
X148526500Y-105664000D01*
X142049500Y-108204000D02*
X142049500Y-105664000D01*
D15*
%TO.C,Q1*%
X141153000Y-102999000D02*
X141153000Y-104459000D01*
X137993000Y-102999000D02*
X137993000Y-105159000D01*
X137993000Y-102999000D02*
X138923000Y-102999000D01*
X141153000Y-102999000D02*
X140223000Y-102999000D01*
D12*
%TO.C,J3*%
X148082000Y-100584000D02*
X148082000Y-103124000D01*
X148082000Y-103124000D02*
X148082000Y-105664000D01*
X148082000Y-105664000D02*
X145542000Y-105664000D01*
X145542000Y-100584000D02*
X148082000Y-100584000D01*
X148082000Y-103124000D02*
X145542000Y-103124000D01*
X145542000Y-100584000D02*
X145542000Y-103124000D01*
X145542000Y-103124000D02*
X145542000Y-105664000D01*
X145542000Y-99314000D02*
X148082000Y-99314000D01*
X148082000Y-99314000D02*
X148082000Y-100584000D01*
X145542000Y-99314000D02*
X145542000Y-100584000D01*
%TO.C,J2*%
X137668000Y-100584000D02*
X137668000Y-103124000D01*
X137668000Y-103124000D02*
X137668000Y-105664000D01*
X137668000Y-105664000D02*
X135128000Y-105664000D01*
X135128000Y-100584000D02*
X137668000Y-100584000D01*
X137668000Y-103124000D02*
X135128000Y-103124000D01*
X135128000Y-100584000D02*
X135128000Y-103124000D01*
X135128000Y-103124000D02*
X135128000Y-105664000D01*
X135128000Y-99314000D02*
X137668000Y-99314000D01*
X137668000Y-99314000D02*
X137668000Y-100584000D01*
X135128000Y-99314000D02*
X135128000Y-100584000D01*
D15*
%TO.C,R4*%
X143387578Y-100382000D02*
X142870422Y-100382000D01*
X143387578Y-101802000D02*
X142870422Y-101802000D01*
%TO.C,R3*%
X140593578Y-106097000D02*
X140076422Y-106097000D01*
X140593578Y-107517000D02*
X140076422Y-107517000D01*
%TO.C,R2*%
X137037578Y-106097000D02*
X136520422Y-106097000D01*
X137037578Y-107517000D02*
X136520422Y-107517000D01*
%TO.C,R1*%
X139314422Y-101802000D02*
X139831578Y-101802000D01*
X139314422Y-100382000D02*
X139831578Y-100382000D01*
%TO.C,C2*%
X145109000Y-104144578D02*
X145109000Y-103627422D01*
X143689000Y-104144578D02*
X143689000Y-103627422D01*
%TO.C,C1*%
X143077000Y-104144578D02*
X143077000Y-103627422D01*
X141657000Y-104144578D02*
X141657000Y-103627422D01*
%TD*%
M02*
